<?xml version="1.0" encoding="utf-8"?>
<!-- Generator: Adobe Illustrator 27.0.1, SVG Export Plug-In . SVG Version: 6.00 Build 0)  -->
<svg version="1.1" id="Icon_x5F_contour" xmlns="http://www.w3.org/2000/svg" xmlns:xlink="http://www.w3.org/1999/xlink" x="0px"
	 y="0px" viewBox="0 0 192 192" style="enable-background:new 0 0 192 192;" xml:space="preserve">
<path style="fill-rule:evenodd;clip-rule:evenodd;" d="M176,96c0,35.92531-23.68109,66.31812-56.28415,76.42427
	c-2.71733-0.15207-3.84001-2.1465-3.84001-4.05v-22.30978c0-7.49406-2.44814-12.37894-5.37917-14.82719
	c8.96533-1.05742,18.20647-3.21829,25.20624-8.97674c6.99983-5.7585,11.76982-15.1375,11.76982-30.60838
	c0-8.79288-3.09189-15.9651-8.13774-21.49372c0.8046-2.12636,3.41367-10.10311-0.98845-21.18333
	c0,0-6.51714-2.11489-21.82697,8.14926c-6.5056-1.79305-13.67782-2.93102-20.3558-2.93102
	c-6.83891,0-14.01112,1.13797-20.36733,2.93102c-15.47081-10.26416-21.98788-8.14926-21.98788-8.14926
	c-4.39065,11.08022-1.78159,19.05698-0.97699,21.18333c-5.04586,5.52862-8.13774,12.70084-8.13774,21.49372
	c0,30.95315,19.05698,37.47021,36.97605,39.58511c-2.28734,1.95403-4.40218,5.70107-5.2183,10.91924
	c-4.56303,1.94252-16.4478,5.70107-23.62001-6.67792c0,0-4.22979-7.65504-12.21807-8.14927c0,0-7.97682-0.16086-0.64368,4.88494
	c0,0,5.36769,2.4482,8.9538,11.72385c0,0,4.88493,15.48233,27.3671,10.59746v13.83868c0,1.83096-1.21482,3.88683-4.14893,4.00584
	C39.61213,162.22961,16,131.87302,16,96c0-44.18278,35.81722-80,80-80S176,51.81722,176,96z"/>
<g>
</g>
<g>
</g>
<g>
</g>
<g>
</g>
<g>
</g>
<g>
</g>
<g>
</g>
<g>
</g>
<g>
</g>
<g>
</g>
<g>
</g>
<g>
</g>
<g>
</g>
<g>
</g>
<g>
</g>
</svg>
