<?xml version="1.0" encoding="utf-8"?>
<!-- Generator: Adobe Illustrator 24.0.1, SVG Export Plug-In . SVG Version: 6.00 Build 0)  -->
<svg version="1.1" id="Icon_x5F_contour" xmlns="http://www.w3.org/2000/svg" xmlns:xlink="http://www.w3.org/1999/xlink" x="0px"
	 y="0px" viewBox="0 0 192 192" style="enable-background:new 0 0 192 192;" xml:space="preserve">
<path d="M95.99999,29.98059c20.97089,0,23.30097,0,31.84467,0.7767c7.76698,0,11.65048,1.5534,14.75728,2.33009
	c3.8835,1.55341,6.21359,3.1068,9.32039,6.21359s4.6602,5.4369,6.21361,9.3204c0.77669,3.10679,2.33009,6.99029,2.33009,14.75728
	c0,8.54369,0.77669,10.87379,0.77669,31.84467s0,23.30098-0.77669,31.84467c0,7.76699-1.55341,11.65049-2.33009,14.75729
	c-1.55341,3.88348-3.1068,6.21358-6.21359,9.32039c-3.10678,3.1068-5.43689,4.6602-9.32039,6.21359
	c-3.1068,0.77669-6.9903,2.33009-14.75729,2.33009c-8.54369,0-10.87378,0.77669-31.84467,0.77669s-23.30097,0-31.84467-0.77669
	c-7.76699,0-11.65048-1.55341-14.75728-2.33009c-3.8835-1.55341-6.21358-3.1068-9.3204-6.21359
	c-3.10679-3.1068-4.6602-5.4369-6.21358-9.32039c-0.7767-3.1068-2.3301-6.9903-2.3301-14.75729
	c0-8.54369-0.7767-10.87379-0.7767-31.84467s0-23.30097,0.7767-31.84467c0-7.76699,1.5534-11.65049,2.3301-14.75728
	c1.5534-3.8835,3.10679-6.21359,6.21358-9.3204c3.1068-3.10679,5.4369-4.6602,9.3204-6.2136
	c3.1068-0.7767,6.99029-2.3301,14.75728-2.3301C72.69902,29.98059,75.02911,29.98059,95.99999,29.98059 M95.99999,16
	c-20.97089,0-24.07767,0-32.62136,0.7767c-8.54369,0-13.98058,1.5534-19.41748,3.8835s-9.32039,4.6602-13.98059,9.32039
	c-4.6602,4.6602-6.99029,8.54369-9.32039,13.98058c-2.3301,4.6602-3.10679,10.87379-3.8835,19.41748
	c0,8.54369-0.7767,10.87379-0.7767,32.62135c0,20.97089,0,24.07768,0.7767,32.62137c0,8.5437,1.5534,13.98059,3.8835,19.41748
	c2.3301,5.4369,4.6602,9.3204,9.32039,13.98058c4.66019,4.66019,8.54369,6.99031,13.98059,9.3204
	c4.6602,2.33009,10.87379,3.10681,19.41748,3.8835c8.5437,0,10.87378,0.77669,32.62137,0.77669s24.07767,0,32.62138-0.77669
	c8.54369,0,13.98058-1.55341,19.41748-3.8835c5.43689-2.33009,9.32039-4.66019,13.98058-9.3204
	c4.66019-4.66019,6.9903-8.54369,9.32039-13.98058c2.33009-4.66019,3.10681-10.87378,3.8835-19.41748
	c0-8.54369,0.77669-10.87378,0.77669-32.62137s0-24.07767-0.77669-32.62137c0-8.54369-1.55341-13.98058-3.8835-19.41748
	s-4.66017-9.3204-9.32039-13.98059c-4.66019-4.6602-8.5437-6.99029-13.98058-9.32039
	c-4.6602-2.3301-10.87379-3.10679-19.41748-3.8835C120.07767,16,116.97086,16,95.99999,16L95.99999,16z M95.99999,54.05827
	c-22.52428,0-40.38835,17.86407-40.38835,40.38836s17.86407,40.38837,40.38836,40.38837s40.38836-17.86407,40.38836-40.38837
	S118.52427,54.05827,95.99999,54.05827z M95.99999,120.85438c-14.75728,0-26.40777-11.65048-26.40777-26.40777
	s11.65049-26.40777,26.40777-26.40777s26.40777,11.65049,26.40777,26.40777
	C122.40776,108.42721,110.75727,120.85438,95.99999,120.85438z M128.62135,52.50486c0,5.14752,4.17288,9.3204,9.32039,9.3204
	c5.14752,0,9.3204-4.17288,9.3204-9.3204s-4.17288-9.3204-9.3204-9.3204C132.79424,43.18446,128.62135,47.35734,128.62135,52.50486z
	"/>
<g>
</g>
<g>
</g>
<g>
</g>
<g>
</g>
<g>
</g>
<g>
</g>
<g>
</g>
<g>
</g>
<g>
</g>
<g>
</g>
<g>
</g>
<g>
</g>
<g>
</g>
<g>
</g>
<g>
</g>
</svg>
