<?xml version="1.0" encoding="utf-8"?>
<!-- Generator: Adobe Illustrator 24.0.1, SVG Export Plug-In . SVG Version: 6.00 Build 0)  -->
<svg version="1.1" id="Icon_x5F_contour" xmlns="http://www.w3.org/2000/svg" xmlns:xlink="http://www.w3.org/1999/xlink" x="0px"
	 y="0px" viewBox="0 0 192 192" style="enable-background:new 0 0 192 192;" xml:space="preserve">
<path d="M176.20833,112.64583V172h-34.48958v-55.34374c0-13.63541-4.8125-23.26041-17.64584-23.26041
	c-9.62501,0-15.23958,6.41666-17.64584,12.83334c-0.80209,2.40624-0.80209,5.61459-0.80209,8.02083V172H71.1354
	c0,0,0.80209-93.84374,0-103.46873h34.48958v14.43749l0,0l0,0l0,0c4.8125-7.21874,12.83333-16.84375,31.28124-16.84375
	C159.36458,65.32291,176.20833,80.5625,176.20833,112.64583L176.20833,112.64583z M35.04167,18
	c-12.03125,0-19.24999,8.02083-19.24999,17.64584s7.21875,17.64584,19.24999,17.64584l0,0c12.03125,0,19.25-8.02083,19.25-17.64584
	S47.07292,18,35.04167,18L35.04167,18z M18.19793,171.19789h34.48958V68.53125H18.19793V171.19789z"/>
<g>
</g>
<g>
</g>
<g>
</g>
<g>
</g>
<g>
</g>
<g>
</g>
<g>
</g>
<g>
</g>
<g>
</g>
<g>
</g>
<g>
</g>
<g>
</g>
<g>
</g>
<g>
</g>
<g>
</g>
</svg>
