<?xml version="1.0" encoding="utf-8"?>
<!-- Generator: Adobe Illustrator 24.0.1, SVG Export Plug-In . SVG Version: 6.00 Build 0)  -->
<svg version="1.1" id="Icon_x5F_contour" xmlns="http://www.w3.org/2000/svg" xmlns:xlink="http://www.w3.org/1999/xlink" x="0px"
	 y="0px" viewBox="0 0 192 192" style="enable-background:new 0 0 192 192;" xml:space="preserve">
<path d="M161.26514,40.20508c-4.14355-1.38037-9.14551-0.8457-13.37988,1.43262c-3.95557,2.12842-6.70752,5.44092-7.74414,9.31006
	L121.31335,120H44c-3.54932,0-6.71143-2.37842-7.70312-5.82812l-12.0459-40.17285C24.08447,73.35107,24,72.6792,24,72
	c0-4.41113,3.58887-8,8-8h28v-8H32c-8.82227,0-16,7.17773-16,16c0,1.38965,0.1792,2.77051,0.53223,4.104l12.08887,40.32178
	C30.57959,123.24023,36.90332,128,44,128h75.13208l-2.26648,8.31244c-6.01837,1.20068-10.81293,5.79181-12.33905,11.68756h-41.0531
	C61.69012,141.1106,55.43896,136,48,136c-8.82227,0-16,7.17773-16,16s7.17773,16,16,16c7.43896,0,13.69012-5.1106,15.47345-12
	h41.0531c1.78333,6.8894,8.03448,12,15.47345,12c8.82227,0,16-7.17773,16-16c0-7.06787-4.61182-13.06982-10.98035-15.18152
	l22.84412-83.78333c0.45801-1.70898,1.84717-3.29541,3.81201-4.35254c2.29395-1.23486,4.99854-1.5752,7.05908-0.8877l12,4
	l2.53027-7.58984L161.26514,40.20508z M48,160c-4.41113,0-8-3.58887-8-8s3.58887-8,8-8s8,3.58887,8,8S52.41113,160,48,160z M128,152
	c0,4.41113-3.58887,8-8,8s-8-3.58887-8-8s3.58887-8,8-8S128,147.58887,128,152z M94.82861,46.82861l-5.65723-5.65723L108,22.34326
	l18.82861,18.82812l-5.65723,5.65723L112,37.65686V68h-8V37.65686L94.82861,46.82861z M80,101.65674L61.17139,82.82861
	l5.65723-5.65723L76,86.34314V56h8v30.34314l9.17139-9.17175l5.65723,5.65723L80,101.65674z"/>
<g>
</g>
<g>
</g>
<g>
</g>
<g>
</g>
<g>
</g>
<g>
</g>
<g>
</g>
<g>
</g>
<g>
</g>
<g>
</g>
<g>
</g>
<g>
</g>
<g>
</g>
<g>
</g>
<g>
</g>
</svg>
