<?xml version="1.0" encoding="UTF-8"?>
<!DOCTYPE svg PUBLIC "-//W3C//DTD SVG 1.1//EN" "http://www.w3.org/Graphics/SVG/1.1/DTD/svg11.dtd">
<svg xmlns="http://www.w3.org/2000/svg" version="1.1" width="215px" height="235px" style="shape-rendering:geometricPrecision; text-rendering:geometricPrecision; image-rendering:optimizeQuality; fill-rule:evenodd; clip-rule:evenodd" xmlns:xlink="http://www.w3.org/1999/xlink">
<g><path style="opacity:1" fill="#fdfdfc" d="M -0.5,-0.5 C 42.8333,-0.5 86.1667,-0.5 129.5,-0.5C 127.215,1.11825 125.215,3.11825 123.5,5.5C 113.772,-0.303762 108.439,2.52957 107.5,14C 111.133,27.5628 115.967,40.7295 122,53.5C 123.477,57.4299 124.644,61.4299 125.5,65.5C 113.118,67.2762 103.285,73.2762 96,83.5C 93.6667,87.5 91.3333,91.5 89,95.5C 88.5065,93.8659 88.3398,92.1992 88.5,90.5C 88.7678,88.901 88.4345,87.5676 87.5,86.5C 87.0051,81.8461 85.1718,77.8461 82,74.5C 80.1072,75.1963 78.2738,76.0296 76.5,77C 72.8233,80.0688 69.3233,83.2354 66,86.5C 65.501,90.8206 65.3343,95.1539 65.5,99.5C 62.2857,98.5596 59.2857,97.0596 56.5,95C 50.6092,89.2285 45.9425,82.5618 42.5,75C 45.7121,69.7564 46.2121,64.2564 44,58.5C 40.6727,55.8461 36.8394,54.8461 32.5,55.5C 32.6953,48.8106 32.8619,42.1439 33,35.5C 28.3044,29.4516 23.1377,29.1182 17.5,34.5C 10.8168,32.5114 7.15015,35.0114 6.5,42C 10.4004,70.1365 22.7337,93.8032 43.5,113C 43.2716,113.399 42.9382,113.565 42.5,113.5C 34.3746,110.791 26.0412,109.958 17.5,111C 14.8877,111.639 12.5543,112.806 10.5,114.5C 9.8681,117.03 8.8681,119.363 7.5,121.5C 6.38009,120.167 5.04675,119.667 3.5,120C 1.7518,122.013 0.418466,124.18 -0.5,126.5C -0.5,84.1667 -0.5,41.8333 -0.5,-0.5 Z"/></g>
<g><path style="opacity:1" fill="#fdfdfc" d="M 134.5,-0.5 C 161.167,-0.5 187.833,-0.5 214.5,-0.5C 214.5,54.1667 214.5,108.833 214.5,163.5C 209.62,141.259 197.287,124.259 177.5,112.5C 177.433,111.041 177.766,109.708 178.5,108.5C 179.794,107.71 180.961,106.71 182,105.5C 187.046,93.9879 188.713,81.9879 187,69.5C 184.738,62.2481 180.571,56.4148 174.5,52C 172.26,51.023 169.927,50.523 167.5,50.5C 167.5,51.5 167.5,52.5 167.5,53.5C 165.738,53.6427 164.071,53.3094 162.5,52.5C 161.261,52.9424 160.261,53.6091 159.5,54.5C 152.025,49.4012 147.192,51.4012 145,60.5C 144.333,61.8333 143.667,61.8333 143,60.5C 142.618,55.305 141.451,50.305 139.5,45.5C 141.318,42.5381 143.151,39.5381 145,36.5C 146.325,32.5715 146.658,28.5715 146,24.5C 144.155,21.817 141.655,20.1503 138.5,19.5C 140.384,14.9942 140.884,10.3275 140,5.5C 138.64,2.97739 136.807,0.977392 134.5,-0.5 Z"/></g>
<g><path style="opacity:1" fill="#4d3f2c" d="M 129.5,-0.5 C 131.167,-0.5 132.833,-0.5 134.5,-0.5C 136.807,0.977392 138.64,2.97739 140,5.5C 140.884,10.3275 140.384,14.9942 138.5,19.5C 141.655,20.1503 144.155,21.817 146,24.5C 146.658,28.5715 146.325,32.5715 145,36.5C 143.151,39.5381 141.318,42.5381 139.5,45.5C 141.451,50.305 142.618,55.305 143,60.5C 143.667,61.8333 144.333,61.8333 145,60.5C 147.192,51.4012 152.025,49.4012 159.5,54.5C 159.5,55.1667 159.5,55.8333 159.5,56.5C 159.5,57.5 159.5,58.5 159.5,59.5C 159.22,64.9476 157.554,69.9476 154.5,74.5C 161.119,78.0332 162.786,83.0332 159.5,89.5C 159.167,90.1667 158.833,90.8333 158.5,91.5C 155.745,93.125 153.245,92.7916 151,90.5C 150.631,93.877 150.631,97.2103 151,100.5C 148.371,99.2745 145.871,99.6078 143.5,101.5C 142.872,103.258 141.872,104.758 140.5,106C 141.056,106.383 141.389,106.883 141.5,107.5C 140.761,107.369 140.094,107.536 139.5,108C 138.262,108.69 138.262,109.19 139.5,109.5C 136.927,111.132 136.261,113.298 137.5,116C 136.002,116.585 135.002,116.085 134.5,114.5C 135.156,113.378 135.489,112.045 135.5,110.5C 135.367,107.586 134.2,105.253 132,103.5C 131.829,98.1358 131.329,92.8025 130.5,87.5C 123.586,91.2483 117.752,96.2483 113,102.5C 114.636,99.8622 115.802,96.8622 116.5,93.5C 119.899,91.9688 123.233,90.1354 126.5,88C 127.337,86.9887 127.67,85.8221 127.5,84.5C 128.338,84.1583 128.672,83.4916 128.5,82.5C 129.668,78.2974 129.334,74.1308 127.5,70C 127.164,68.9701 126.497,68.4701 125.5,68.5C 126.116,67.2022 126.116,66.2022 125.5,65.5C 124.644,61.4299 123.477,57.4299 122,53.5C 115.967,40.7295 111.133,27.5628 107.5,14C 108.439,2.52957 113.772,-0.303762 123.5,5.5C 125.215,3.11825 127.215,1.11825 129.5,-0.5 Z"/></g>
<g><path style="opacity:1" fill="#b7a080" d="M 142.5,24.5 C 141.978,27.5682 141.145,30.5682 140,33.5C 135.883,36.449 133.716,40.449 133.5,45.5C 134.663,54.8679 137.329,63.5346 141.5,71.5C 141.56,72.0431 141.893,72.3764 142.5,72.5C 143.308,70.5767 143.808,68.5767 144,66.5C 146.609,63.6168 148.442,60.2834 149.5,56.5C 154.097,53.1521 156.764,54.3188 157.5,60C 156.725,62.8224 156.058,65.6557 155.5,68.5C 151.583,71.9137 147.749,75.5804 144,79.5C 143.506,81.1341 143.34,82.8008 143.5,84.5C 141.801,84.6602 140.134,84.4935 138.5,84C 133.338,76.1248 130.004,67.4581 128.5,58C 128.316,56.6244 127.649,55.7911 126.5,55.5C 121.127,43.7362 115.96,31.7362 111,19.5C 110.333,15.8333 110.333,12.1667 111,8.5C 113.653,5.80593 116.82,4.9726 120.5,6C 121.93,7.90739 122.596,10.0741 122.5,12.5C 122.076,14.8704 121.909,17.2037 122,19.5C 123.717,14.3973 125.717,9.39728 128,4.5C 131.345,1.61303 134.345,1.94636 137,5.5C 137.667,8.83333 137.667,12.1667 137,15.5C 135.637,19.5384 133.803,23.3717 131.5,27C 131.667,27.5 131.833,28 132,28.5C 134.05,26.1122 136.384,24.1122 139,22.5C 140.459,22.8082 141.626,23.4749 142.5,24.5 Z"/></g>
<g><path style="opacity:1" fill="#4b3f2d" d="M 87.5,86.5 C 87.719,87.675 87.3857,88.675 86.5,89.5C 84.6534,86.7984 83.4867,83.7984 83,80.5C 80.7919,76.8103 78.6252,76.977 76.5,81C 77.0319,83.0197 78.3652,83.853 80.5,83.5C 81.3694,86.7799 82.0361,90.1132 82.5,93.5C 81.6672,97.4862 81.5006,101.486 82,105.5C 82.3826,106.056 82.8826,106.389 83.5,106.5C 84.5511,107.222 85.2178,108.222 85.5,109.5C 83.4214,109.029 81.4214,108.363 79.5,107.5C 77.8941,106.641 76.2275,106.474 74.5,107C 75.5634,105.812 76.8967,105.312 78.5,105.5C 79.3619,100.187 79.5285,94.8538 79,89.5C 77.3665,84.8532 74.3665,83.5199 70,85.5C 69.0716,91.0679 67.9049,96.5679 66.5,102C 64.8333,102.667 63.1667,102.667 61.5,102C 58.0067,99.668 54.6734,97.168 51.5,94.5C 49.0081,91.5309 46.5081,88.5309 44,85.5C 42.2589,82.6907 41.0922,79.6907 40.5,76.5C 39.1266,76.6567 37.7932,76.49 36.5,76C 42.4918,71.9262 44.1585,66.7596 41.5,60.5C 40.2942,57.8609 38.2942,57.0276 35.5,58C 31.6986,59.4718 28.8653,61.9718 27,65.5C 28.8926,59.8249 29.8926,53.8249 30,47.5C 30.7991,42.9132 30.6324,38.4132 29.5,34C 25.2071,32.7984 21.7071,33.9651 19,37.5C 17.0138,43.3165 16.0138,49.3165 16,55.5C 13.947,49.4574 14.1137,43.4574 16.5,37.5C 14.6471,36.2404 12.8138,36.2404 11,37.5C 9.12515,42.7913 9.12515,48.1247 11,53.5C 13.1361,60.242 15.4695,66.9086 18,73.5C 19.9675,77.9392 22.4675,81.9392 25.5,85.5C 27.1212,89.397 29.2879,93.0637 32,96.5C 36.3919,102.056 41.2253,107.056 46.5,111.5C 45.2876,112.23 44.2876,113.23 43.5,114.5C 42.8933,114.376 42.56,114.043 42.5,113.5C 42.9382,113.565 43.2716,113.399 43.5,113C 22.7337,93.8032 10.4004,70.1365 6.5,42C 7.15015,35.0114 10.8168,32.5114 17.5,34.5C 23.1377,29.1182 28.3044,29.4516 33,35.5C 32.8619,42.1439 32.6953,48.8106 32.5,55.5C 36.8394,54.8461 40.6727,55.8461 44,58.5C 46.2121,64.2564 45.7121,69.7564 42.5,75C 45.9425,82.5618 50.6092,89.2285 56.5,95C 59.2857,97.0596 62.2857,98.5596 65.5,99.5C 65.3343,95.1539 65.501,90.8206 66,86.5C 69.3233,83.2354 72.8233,80.0688 76.5,77C 78.2738,76.0296 80.1072,75.1963 82,74.5C 85.1718,77.8461 87.0051,81.8461 87.5,86.5 Z"/></g>
<g><path style="opacity:1" fill="#978469" d="M 142.5,24.5 C 144.526,32.6144 142.526,39.781 136.5,46C 138.974,54.2046 140.64,62.7046 141.5,71.5C 137.329,63.5346 134.663,54.8679 133.5,45.5C 133.716,40.449 135.883,36.449 140,33.5C 141.145,30.5682 141.978,27.5682 142.5,24.5 Z"/></g>
<g><path style="opacity:1" fill="#b8998d" d="M 185.5,73.5 C 187.135,82.1472 185.301,90.1472 180,97.5C 176.629,100.703 173.462,104.036 170.5,107.5C 167.215,107.072 164.215,106.072 161.5,104.5C 162.765,103.486 163.431,101.986 163.5,100C 163.593,95.7533 162.26,92.2533 159.5,89.5C 162.786,83.0332 161.119,78.0332 154.5,74.5C 157.554,69.9476 159.22,64.9476 159.5,59.5C 164.935,59.2609 170.268,59.2609 175.5,59.5C 180.216,64.2609 183.382,69.9276 185,76.5C 185.483,75.552 185.649,74.552 185.5,73.5 Z"/></g>
<g><path style="opacity:1" fill="#d3baa8" d="M 185.5,73.5 C 185.649,74.552 185.483,75.552 185,76.5C 183.382,69.9276 180.216,64.2609 175.5,59.5C 170.268,59.2609 164.935,59.2609 159.5,59.5C 159.5,58.5 159.5,57.5 159.5,56.5C 160.482,55.8592 161.482,55.1925 162.5,54.5C 164.409,55.3482 166.409,55.6816 168.5,55.5C 168.5,54.5 168.5,53.5 168.5,52.5C 173.064,52.55 176.564,54.55 179,58.5C 182.268,63.0356 184.435,68.0356 185.5,73.5 Z"/></g>
<g><path style="opacity:1" fill="#9a8569" d="M 41.5,60.5 C 44.1585,66.7596 42.4918,71.9262 36.5,76C 37.7932,76.49 39.1266,76.6567 40.5,76.5C 41.0922,79.6907 42.2589,82.6907 44,85.5C 46.5081,88.5309 49.0081,91.5309 51.5,94.5C 50.1529,93.8288 48.9862,93.8288 48,94.5C 42.6256,89.8618 37.459,84.8618 32.5,79.5C 31.3526,77.2351 31.1859,74.9018 32,72.5C 34.5432,70.5888 37.0432,68.5888 39.5,66.5C 40.3721,64.5504 41.0388,62.5504 41.5,60.5 Z"/></g>
<g><path style="opacity:1" fill="#987d55" d="M 125.5,68.5 C 126.497,68.4701 127.164,68.9701 127.5,70C 129.334,74.1308 129.668,78.2974 128.5,82.5C 126.803,80.6948 125.97,78.3615 126,75.5C 124.938,74.9032 123.772,74.5698 122.5,74.5C 116.485,75.7259 110.818,77.7259 105.5,80.5C 102.581,85.0901 98.9142,89.0901 94.5,92.5C 100.772,79.2248 111.106,71.2248 125.5,68.5 Z"/></g>
<g><path style="opacity:1" fill="#b8a07f" d="M 41.5,60.5 C 41.0388,62.5504 40.3721,64.5504 39.5,66.5C 37.0432,68.5888 34.5432,70.5888 32,72.5C 31.1859,74.9018 31.3526,77.2351 32.5,79.5C 37.459,84.8618 42.6256,89.8618 48,94.5C 48.9862,93.8288 50.1529,93.8288 51.5,94.5C 54.6734,97.168 58.0067,99.668 61.5,102C 63.1667,102.667 64.8333,102.667 66.5,102C 67.9049,96.5679 69.0716,91.0679 70,85.5C 74.3665,83.5199 77.3665,84.8532 79,89.5C 79.5285,94.8538 79.3619,100.187 78.5,105.5C 76.8967,105.312 75.5634,105.812 74.5,107C 76.2275,106.474 77.8941,106.641 79.5,107.5C 79.7619,109.564 80.9286,110.897 83,111.5C 83.7429,113.441 83.5762,115.274 82.5,117C 77.8392,117.803 73.3392,118.97 69,120.5C 63.3418,118.959 58.5085,116.126 54.5,112C 53.1667,111.667 51.8333,111.333 50.5,111C 47.9242,107.38 44.5909,104.713 40.5,103C 39.3881,100.222 37.5547,98.0549 35,96.5C 34.5172,95.552 34.3505,94.552 34.5,93.5C 33.448,93.6495 32.448,93.4828 31.5,93C 29.636,90.3123 27.636,87.8123 25.5,85.5C 22.4675,81.9392 19.9675,77.9392 18,73.5C 15.4695,66.9086 13.1361,60.242 11,53.5C 9.12515,48.1247 9.12515,42.7913 11,37.5C 12.8138,36.2404 14.6471,36.2404 16.5,37.5C 14.1137,43.4574 13.947,49.4574 16,55.5C 16.0138,49.3165 17.0138,43.3165 19,37.5C 21.7071,33.9651 25.2071,32.7984 29.5,34C 30.6324,38.4132 30.7991,42.9132 30,47.5C 29.8926,53.8249 28.8926,59.8249 27,65.5C 28.8653,61.9718 31.6986,59.4718 35.5,58C 38.2942,57.0276 40.2942,57.8609 41.5,60.5 Z"/></g>
<g><path style="opacity:1" fill="#9b876a" d="M 126.5,55.5 C 127.649,55.7911 128.316,56.6244 128.5,58C 130.004,67.4581 133.338,76.1248 138.5,84C 140.134,84.4935 141.801,84.6602 143.5,84.5C 143.34,82.8008 143.506,81.1341 144,79.5C 147.749,75.5804 151.583,71.9137 155.5,68.5C 153.291,74.0311 149.958,78.6978 145.5,82.5C 146.002,83.521 146.668,83.6877 147.5,83C 149.35,80.9824 151.35,79.1491 153.5,77.5C 157.979,79.46 159.479,82.7933 158,87.5C 156.915,88.2931 155.748,88.9598 154.5,89.5C 151.238,88.248 147.905,87.248 144.5,86.5C 143.442,92.3404 141.776,98.0071 139.5,103.5C 138.277,104.614 136.944,104.781 135.5,104C 134.687,97.5809 134.187,91.0809 134,84.5C 131.561,74.8035 129.061,65.1368 126.5,55.5 Z"/></g>
<g><path style="opacity:1" fill="#372512" d="M 125.5,65.5 C 126.116,66.2022 126.116,67.2022 125.5,68.5C 111.106,71.2248 100.772,79.2248 94.5,92.5C 93.8333,92.5 93.5,92.8333 93.5,93.5C 91.0363,97.4436 89.3697,101.777 88.5,106.5C 87.7281,107.694 86.7281,108.694 85.5,109.5C 85.2178,108.222 84.5511,107.222 83.5,106.5C 84.5,106.5 85.5,106.5 86.5,106.5C 86.3342,101.821 86.5008,97.1548 87,92.5C 87.2784,91.5842 87.7784,90.9175 88.5,90.5C 88.3398,92.1992 88.5065,93.8659 89,95.5C 91.3333,91.5 93.6667,87.5 96,83.5C 103.285,73.2762 113.118,67.2762 125.5,65.5 Z"/></g>
<g><path style="opacity:1" fill="#866434" d="M 128.5,82.5 C 128.672,83.4916 128.338,84.1583 127.5,84.5C 125.325,86.5741 122.658,87.9074 119.5,88.5C 117.473,91.1939 115.139,93.5272 112.5,95.5C 111.672,100.132 111.172,104.798 111,109.5C 108.107,111.7 104.941,113.533 101.5,115C 99.2542,116.257 97.9209,118.09 97.5,120.5C 96.1667,120.5 94.8333,120.5 93.5,120.5C 93.877,114.678 93.2104,109.011 91.5,103.5C 92.7669,100.295 93.4336,96.9615 93.5,93.5C 93.5,92.8333 93.8333,92.5 94.5,92.5C 98.9142,89.0901 102.581,85.0901 105.5,80.5C 110.818,77.7259 116.485,75.7259 122.5,74.5C 123.772,74.5698 124.938,74.9032 126,75.5C 125.97,78.3615 126.803,80.6948 128.5,82.5 Z"/></g>
<g><path style="opacity:1" fill="#f1ebe7" d="M 159.5,89.5 C 162.26,92.2533 163.593,95.7533 163.5,100C 163.431,101.986 162.765,103.486 161.5,104.5C 161.665,101.15 161.498,97.8168 161,94.5C 160.667,94.8333 160.333,95.1667 160,95.5C 159.209,94.255 158.709,92.9217 158.5,91.5C 158.833,90.8333 159.167,90.1667 159.5,89.5 Z"/></g>
<g><path style="opacity:1" fill="#342619" d="M 178.5,108.5 C 179.964,105.309 180.798,101.976 181,98.5C 177.902,102.107 174.402,105.107 170.5,107.5C 173.462,104.036 176.629,100.703 180,97.5C 185.301,90.1472 187.135,82.1472 185.5,73.5C 184.435,68.0356 182.268,63.0356 179,58.5C 176.564,54.55 173.064,52.55 168.5,52.5C 168.5,53.5 168.5,54.5 168.5,55.5C 166.409,55.6816 164.409,55.3482 162.5,54.5C 161.482,55.1925 160.482,55.8592 159.5,56.5C 159.5,55.8333 159.5,55.1667 159.5,54.5C 160.261,53.6091 161.261,52.9424 162.5,52.5C 164.071,53.3094 165.738,53.6427 167.5,53.5C 167.5,52.5 167.5,51.5 167.5,50.5C 169.927,50.523 172.26,51.023 174.5,52C 180.571,56.4148 184.738,62.2481 187,69.5C 188.713,81.9879 187.046,93.9879 182,105.5C 180.961,106.71 179.794,107.71 178.5,108.5 Z"/></g>
<g><path style="opacity:1" fill="#8a704d" d="M 158.5,91.5 C 158.709,92.9217 159.209,94.255 160,95.5C 160.333,95.1667 160.667,94.8333 161,94.5C 161.498,97.8168 161.665,101.15 161.5,104.5C 155.897,103.145 150.23,102.645 144.5,103C 172.76,108.263 193.26,123.763 206,149.5C 207.143,152.777 207.977,156.11 208.5,159.5C 208.631,160.239 208.464,160.906 208,161.5C 204.554,155.653 201.221,149.653 198,143.5C 195.624,139.636 192.791,136.303 189.5,133.5C 179.305,114.398 163.305,105.732 141.5,107.5C 141.389,106.883 141.056,106.383 140.5,106C 141.872,104.758 142.872,103.258 143.5,101.5C 145.871,99.6078 148.371,99.2745 151,100.5C 150.631,97.2103 150.631,93.877 151,90.5C 153.245,92.7916 155.745,93.125 158.5,91.5 Z"/></g>
<g><path style="opacity:1" fill="#6b5639" d="M 87.5,86.5 C 88.4345,87.5676 88.7678,88.901 88.5,90.5C 87.7784,90.9175 87.2784,91.5842 87,92.5C 86.5008,97.1548 86.3342,101.821 86.5,106.5C 85.5,106.5 84.5,106.5 83.5,106.5C 82.8826,106.389 82.3826,106.056 82,105.5C 81.5006,101.486 81.6672,97.4862 82.5,93.5C 82.0361,90.1132 81.3694,86.7799 80.5,83.5C 78.3652,83.853 77.0319,83.0197 76.5,81C 78.6252,76.977 80.7919,76.8103 83,80.5C 83.4867,83.7984 84.6534,86.7984 86.5,89.5C 87.3857,88.675 87.719,87.675 87.5,86.5 Z"/></g>
<g><path style="opacity:1" fill="#604e31" d="M 178.5,108.5 C 177.766,109.708 177.433,111.041 177.5,112.5C 175.039,111.013 172.705,109.346 170.5,107.5C 174.402,105.107 177.902,102.107 181,98.5C 180.798,101.976 179.964,105.309 178.5,108.5 Z"/></g>
<g><path style="opacity:1" fill="#fcfcfb" d="M 171.5,116.5 C 174.031,120.544 177.198,124.211 181,127.5C 185.986,136.304 186.653,145.304 183,154.5C 180.629,157.206 177.963,159.539 175,161.5C 173.855,161.381 172.688,161.048 171.5,160.5C 173.75,153.829 172.083,148.329 166.5,144C 165.167,143.333 163.833,143.333 162.5,144C 161.383,147.073 161.216,150.24 162,153.5C 166.353,160.595 164.853,165.928 157.5,169.5C 152.5,170.833 147.5,172.167 142.5,173.5C 142.92,165.66 139.753,159.994 133,156.5C 131.196,158.277 130.363,160.444 130.5,163C 130.934,166.233 131.601,169.4 132.5,172.5C 121.562,171.958 112.062,167.625 104,159.5C 97.9188,150.418 95.4188,140.418 96.5,129.5C 101.898,118.705 110.731,113.038 123,112.5C 126.94,112.649 130.773,113.316 134.5,114.5C 135.002,116.085 136.002,116.585 137.5,116C 136.261,113.298 136.927,111.132 139.5,109.5C 151.095,107.752 161.761,110.085 171.5,116.5 Z"/></g>
<g><path style="opacity:1" fill="#bc9d91" d="M 31.5,114.5 C 34.4951,114.294 37.1617,114.96 39.5,116.5C 42.4113,119.99 45.078,123.656 47.5,127.5C 47.3433,128.873 47.51,130.207 48,131.5C 51.3536,135.553 54.187,139.887 56.5,144.5C 54.9519,144.179 54.2852,143.179 54.5,141.5C 53.5,141.5 52.5,141.5 51.5,141.5C 51.949,144.641 52.949,147.641 54.5,150.5C 53.3112,151.429 51.9778,151.762 50.5,151.5C 52.7194,157.284 50.7194,159.951 44.5,159.5C 44.1459,162.421 45.1459,164.754 47.5,166.5C 50.6314,168.992 53.9647,170.992 57.5,172.5C 50.2229,173.43 42.8896,173.764 35.5,173.5C 28.8243,170.834 22.8243,167.167 17.5,162.5C 18.2389,162.631 18.9056,162.464 19.5,162C 14.7726,155.382 10.9393,148.216 8,140.5C 7.28196,136.823 6.94863,133.157 7,129.5C 7.82612,131.405 8.99279,131.739 10.5,130.5C 12.5619,128.908 12.8952,127.075 11.5,125C 12.5358,123.383 13.7025,123.216 15,124.5C 18.5206,117.231 24.354,114.398 32.5,116C 31.944,115.617 31.6107,115.117 31.5,114.5 Z"/></g>
<g><path style="opacity:1" fill="#958369" d="M 25.5,85.5 C 27.636,87.8123 29.636,90.3123 31.5,93C 32.448,93.4828 33.448,93.6495 34.5,93.5C 34.3505,94.552 34.5172,95.552 35,96.5C 37.5547,98.0549 39.3881,100.222 40.5,103C 44.5909,104.713 47.9242,107.38 50.5,111C 51.8333,111.333 53.1667,111.667 54.5,112C 58.5085,116.126 63.3418,118.959 69,120.5C 73.3392,118.97 77.8392,117.803 82.5,117C 83.5762,115.274 83.7429,113.441 83,111.5C 80.9286,110.897 79.7619,109.564 79.5,107.5C 81.4214,108.363 83.4214,109.029 85.5,109.5C 90.5715,112.452 91.5715,116.452 88.5,121.5C 84.1721,122.515 79.8388,122.682 75.5,122C 73.5794,123.241 73.246,124.741 74.5,126.5C 75.3857,125.675 75.719,124.675 75.5,123.5C 76.552,123.351 77.552,123.517 78.5,124C 79.7633,126.386 81.5967,128.219 84,129.5C 84.7413,133.016 83.5746,135.683 80.5,137.5C 73.6587,128.876 64.992,122.376 54.5,118C 51.6693,115.999 49.0026,113.833 46.5,111.5C 41.2253,107.056 36.3919,102.056 32,96.5C 29.2879,93.0637 27.1212,89.397 25.5,85.5 Z"/></g>
<g><path style="opacity:1" fill="#513f28" d="M 88.5,106.5 C 88.1318,109.624 89.2984,111.957 92,113.5C 93.8161,121.359 90.6495,125.526 82.5,126C 85.6351,127.266 87.3017,129.599 87.5,133C 85.4174,135.588 83.0841,138.088 80.5,140.5C 79.8933,140.376 79.56,140.043 79.5,139.5C 80.3382,139.158 80.6716,138.492 80.5,137.5C 83.5746,135.683 84.7413,133.016 84,129.5C 81.5967,128.219 79.7633,126.386 78.5,124C 77.552,123.517 76.552,123.351 75.5,123.5C 75.719,124.675 75.3857,125.675 74.5,126.5C 73.246,124.741 73.5794,123.241 75.5,122C 79.8388,122.682 84.1721,122.515 88.5,121.5C 91.5715,116.452 90.5715,112.452 85.5,109.5C 86.7281,108.694 87.7281,107.694 88.5,106.5 Z"/></g>
<g><path style="opacity:1" fill="#91888a" d="M 45.5,118.5 C 48.3267,119.108 50.9933,120.108 53.5,121.5C 53.0181,124.831 54.0181,127.497 56.5,129.5C 60.3265,137.464 65.3265,144.63 71.5,151C 75.7963,151.964 80.1296,152.797 84.5,153.5C 85.1272,154.417 85.4606,155.417 85.5,156.5C 84.6618,156.842 84.3284,157.508 84.5,158.5C 83.391,158.557 82.391,158.89 81.5,159.5C 77.774,159.823 74.1073,159.489 70.5,158.5C 68.9412,156.869 66.9412,156.036 64.5,156C 62.7206,151.414 60.054,147.581 56.5,144.5C 54.187,139.887 51.3536,135.553 48,131.5C 47.51,130.207 47.3433,128.873 47.5,127.5C 53.6907,136.021 60.0241,144.521 66.5,153C 71.6194,157.707 77.2861,158.541 83.5,155.5C 77.4407,155.544 72.1074,153.711 67.5,150C 65.3333,147.833 63.1667,145.667 61,143.5C 56.3235,134.803 51.1568,126.47 45.5,118.5 Z"/></g>
<g><path style="opacity:1" fill="#160f0c" d="M 134.5,114.5 C 130.773,113.316 126.94,112.649 123,112.5C 110.731,113.038 101.898,118.705 96.5,129.5C 88.4044,147.895 92.4044,163.228 108.5,175.5C 107.167,176.833 105.833,176.833 104.5,175.5C 100.616,173.79 97.4489,171.124 95,167.5C 92.8409,162.156 91.0076,156.823 89.5,151.5C 88.9963,122.496 102.996,109.329 131.5,112C 132.942,112.377 133.942,113.21 134.5,114.5 Z"/></g>
<g><path style="opacity:1" fill="#806139" d="M 127.5,84.5 C 127.67,85.8221 127.337,86.9887 126.5,88C 123.233,90.1354 119.899,91.9688 116.5,93.5C 115.802,96.8622 114.636,99.8622 113,102.5C 117.752,96.2483 123.586,91.2483 130.5,87.5C 131.329,92.8025 131.829,98.1358 132,103.5C 134.2,105.253 135.367,107.586 135.5,110.5C 135.489,112.045 135.156,113.378 134.5,114.5C 133.942,113.21 132.942,112.377 131.5,112C 102.996,109.329 88.9963,122.496 89.5,151.5C 89.6646,154.518 89.498,157.518 89,160.5C 86.9286,159.897 85.7619,158.564 85.5,156.5C 85.4606,155.417 85.1272,154.417 84.5,153.5C 80.1296,152.797 75.7963,151.964 71.5,151C 65.3265,144.63 60.3265,137.464 56.5,129.5C 56.369,128.761 56.5357,128.094 57,127.5C 61.2615,128.584 63.4281,131.251 63.5,135.5C 65.1439,135.714 66.6439,135.38 68,134.5C 69.7448,135.956 71.5781,137.289 73.5,138.5C 74.3857,137.675 74.719,136.675 74.5,135.5C 76.1667,136.833 77.8333,138.167 79.5,139.5C 79.56,140.043 79.8933,140.376 80.5,140.5C 83.0841,138.088 85.4174,135.588 87.5,133C 87.3017,129.599 85.6351,127.266 82.5,126C 90.6495,125.526 93.8161,121.359 92,113.5C 89.2984,111.957 88.1318,109.624 88.5,106.5C 89.3697,101.777 91.0363,97.4436 93.5,93.5C 93.4336,96.9615 92.7669,100.295 91.5,103.5C 93.2104,109.011 93.877,114.678 93.5,120.5C 94.8333,120.5 96.1667,120.5 97.5,120.5C 97.9209,118.09 99.2542,116.257 101.5,115C 104.941,113.533 108.107,111.7 111,109.5C 111.172,104.798 111.672,100.132 112.5,95.5C 115.139,93.5272 117.473,91.1939 119.5,88.5C 122.658,87.9074 125.325,86.5741 127.5,84.5 Z"/></g>
<g><path style="opacity:1" fill="#d7beab" d="M 31.5,114.5 C 31.6107,115.117 31.944,115.617 32.5,116C 24.354,114.398 18.5206,117.231 15,124.5C 13.7025,123.216 12.5358,123.383 11.5,125C 12.8952,127.075 12.5619,128.908 10.5,130.5C 8.99279,131.739 7.82612,131.405 7,129.5C 6.94863,133.157 7.28196,136.823 8,140.5C 10.9393,148.216 14.7726,155.382 19.5,162C 18.9056,162.464 18.2389,162.631 17.5,162.5C 4.80351,152 0.636846,139 5,123.5C 6.57771,124.547 8.07771,124.547 9.5,123.5C 11.2392,120.636 12.9059,117.803 14.5,115C 20.1569,114.501 25.8236,114.334 31.5,114.5 Z"/></g>
<g><path style="opacity:1" fill="#d7b792" d="M 67.5,138.5 C 70.3213,138.316 71.9879,139.649 72.5,142.5C 68.5657,144.242 66.899,142.909 67.5,138.5 Z"/></g>
<g><path style="opacity:1" fill="#14100d" d="M 189.5,133.5 C 196.093,147.22 192.759,157.72 179.5,165C 174.97,165.947 170.636,165.447 166.5,163.5C 162.003,169.671 156.336,174.338 149.5,177.5C 144.428,179.857 139.095,181.19 133.5,181.5C 132.128,180.488 130.795,179.488 129.5,178.5C 140.232,179.448 149.565,176.448 157.5,169.5C 164.853,165.928 166.353,160.595 162,153.5C 161.216,150.24 161.383,147.073 162.5,144C 163.833,143.333 165.167,143.333 166.5,144C 172.083,148.329 173.75,153.829 171.5,160.5C 170.527,160.987 169.527,161.487 168.5,162C 181.825,164.361 189.158,158.694 190.5,145C 188.29,132.646 181.957,123.146 171.5,116.5C 161.761,110.085 151.095,107.752 139.5,109.5C 138.262,109.19 138.262,108.69 139.5,108C 140.094,107.536 140.761,107.369 141.5,107.5C 163.305,105.732 179.305,114.398 189.5,133.5 Z"/></g>
<g><path style="opacity:1" fill="#e9e9e9" d="M 163.5,145.5 C 164.5,145.5 165.5,145.5 166.5,145.5C 166.785,147.288 166.452,148.955 165.5,150.5C 163.783,149.332 163.116,147.665 163.5,145.5 Z"/></g>
<g><path style="opacity:1" fill="#c8c8c8" d="M 171.5,116.5 C 181.957,123.146 188.29,132.646 190.5,145C 189.158,158.694 181.825,164.361 168.5,162C 169.527,161.487 170.527,160.987 171.5,160.5C 172.688,161.048 173.855,161.381 175,161.5C 177.963,159.539 180.629,157.206 183,154.5C 186.653,145.304 185.986,136.304 181,127.5C 177.198,124.211 174.031,120.544 171.5,116.5 Z"/></g>
<g><path style="opacity:1" fill="#fdfdfc" d="M -0.5,138.5 C 5.68468,158.782 19.018,172.115 39.5,178.5C 39.8073,184.942 42.1407,190.442 46.5,195C 48.1667,195.667 49.8333,195.667 51.5,195C 53.2166,193.441 55.2166,192.608 57.5,192.5C 57.3354,195.518 57.502,198.518 58,201.5C 59.4822,206.108 60.6489,210.775 61.5,215.5C 66.0505,213.954 69.3839,210.954 71.5,206.5C 72.3382,206.158 72.6716,205.492 72.5,204.5C 73.1174,204.389 73.6174,204.056 74,203.5C 76.8034,215.64 83.97,224.14 95.5,229C 102.223,231.229 108.889,233.063 115.5,234.5C 76.8333,234.5 38.1667,234.5 -0.5,234.5C -0.5,202.5 -0.5,170.5 -0.5,138.5 Z"/></g>
<g><path style="opacity:1" fill="#ab8c80" d="M 56.5,144.5 C 60.054,147.581 62.7206,151.414 64.5,156C 66.9412,156.036 68.9412,156.869 70.5,158.5C 74.1073,159.489 77.774,159.823 81.5,159.5C 75.2737,166.949 67.2737,171.282 57.5,172.5C 53.9647,170.992 50.6314,168.992 47.5,166.5C 45.1459,164.754 44.1459,162.421 44.5,159.5C 50.7194,159.951 52.7194,157.284 50.5,151.5C 51.9778,151.762 53.3112,151.429 54.5,150.5C 52.949,147.641 51.949,144.641 51.5,141.5C 52.5,141.5 53.5,141.5 54.5,141.5C 54.2852,143.179 54.9519,144.179 56.5,144.5 Z"/></g>
<g><path style="opacity:1" fill="#eeeef3" d="M 39.5,116.5 C 41.7028,116.604 43.7028,117.27 45.5,118.5C 51.1568,126.47 56.3235,134.803 61,143.5C 63.1667,145.667 65.3333,147.833 67.5,150C 72.1074,153.711 77.4407,155.544 83.5,155.5C 77.2861,158.541 71.6194,157.707 66.5,153C 60.0241,144.521 53.6907,136.021 47.5,127.5C 45.078,123.656 42.4113,119.99 39.5,116.5 Z"/></g>
<g><path style="opacity:1" fill="#cbcbca" d="M 96.5,129.5 C 95.4188,140.418 97.9188,150.418 104,159.5C 112.062,167.625 121.562,171.958 132.5,172.5C 133.824,174.654 135.657,176.321 138,177.5C 140.521,177.178 142.021,175.844 142.5,173.5C 147.5,172.167 152.5,170.833 157.5,169.5C 149.565,176.448 140.232,179.448 129.5,178.5C 127.723,177.4 125.723,176.566 123.5,176C 118.511,175.501 113.511,175.334 108.5,175.5C 92.4044,163.228 88.4044,147.895 96.5,129.5 Z"/></g>
<g><path style="opacity:1" fill="#0d0e0e" d="M 142.5,173.5 C 142.021,175.844 140.521,177.178 138,177.5C 135.657,176.321 133.824,174.654 132.5,172.5C 131.601,169.4 130.934,166.233 130.5,163C 130.363,160.444 131.196,158.277 133,156.5C 139.753,159.994 142.92,165.66 142.5,173.5 Z"/></g>
<g><path style="opacity:1" fill="#e8e8e8" d="M 132.5,159.5 C 135.47,159.746 136.803,161.412 136.5,164.5C 133.09,164.616 131.756,162.95 132.5,159.5 Z"/></g>
<g><path style="opacity:1" fill="#6b4f2a" d="M 89.5,151.5 C 91.0076,156.823 92.8409,162.156 95,167.5C 97.4489,171.124 100.616,173.79 104.5,175.5C 104.443,176.609 104.11,177.609 103.5,178.5C 100.904,179.64 98.9036,181.473 97.5,184C 99.2495,186.086 100.583,188.419 101.5,191C 111.833,191.667 122.167,191.667 132.5,191C 133.701,190.097 134.535,188.931 135,187.5C 135.333,187.833 135.667,188.167 136,188.5C 136.47,187.423 136.303,186.423 135.5,185.5C 136.043,185.44 136.376,185.107 136.5,184.5C 135.66,183.265 134.66,182.265 133.5,181.5C 139.095,181.19 144.428,179.857 149.5,177.5C 148.972,178.721 148.305,179.887 147.5,181C 148.244,182.039 149.244,182.539 150.5,182.5C 149.194,183.467 148.527,184.801 148.5,186.5C 152.607,188.381 156.941,189.381 161.5,189.5C 164.768,189.655 167.768,188.989 170.5,187.5C 169.032,189.611 169.365,191.444 171.5,193C 178.267,193.437 184.934,192.937 191.5,191.5C 182.613,200.783 171.946,207.283 159.5,211C 142.897,215.923 126.064,217.09 109,214.5C 106.74,213.327 104.407,212.327 102,211.5C 97.788,207.886 93.288,204.72 88.5,202C 86,198.833 83.5,195.667 81,192.5C 82.5684,184.293 83.235,175.96 83,167.5C 81.3269,175.917 78.6602,183.917 75,191.5C 72.1827,195.162 68.6827,197.828 64.5,199.5C 63.6693,195.524 63.5027,191.524 64,187.5C 67.0609,183.774 70.7275,180.774 75,178.5C 79.1493,171.886 82.316,165.219 84.5,158.5C 84.3284,157.508 84.6618,156.842 85.5,156.5C 85.7619,158.564 86.9286,159.897 89,160.5C 89.498,157.518 89.6646,154.518 89.5,151.5 Z"/></g>
<g><path style="opacity:1" fill="#846335" d="M 189.5,133.5 C 192.791,136.303 195.624,139.636 198,143.5C 201.221,149.653 204.554,155.653 208,161.5C 208.464,160.906 208.631,160.239 208.5,159.5C 209.461,161.265 209.795,163.265 209.5,165.5C 204.674,174.99 198.674,183.657 191.5,191.5C 184.934,192.937 178.267,193.437 171.5,193C 169.365,191.444 169.032,189.611 170.5,187.5C 171.793,185.704 173.293,184.037 175,182.5C 175.667,181.5 175.667,180.5 175,179.5C 170.401,185.858 164.234,188.358 156.5,187C 154.963,185.89 154.297,184.39 154.5,182.5C 153.167,182.5 151.833,182.5 150.5,182.5C 149.244,182.539 148.244,182.039 147.5,181C 148.305,179.887 148.972,178.721 149.5,177.5C 156.336,174.338 162.003,169.671 166.5,163.5C 170.636,165.447 174.97,165.947 179.5,165C 192.759,157.72 196.093,147.22 189.5,133.5 Z"/></g>
<g><path style="opacity:1" fill="#fcfbfa" d="M 214.5,175.5 C 214.5,195.167 214.5,214.833 214.5,234.5C 186.5,234.5 158.5,234.5 130.5,234.5C 151.343,232.162 170.676,225.329 188.5,214C 202.256,204.444 210.923,191.61 214.5,175.5 Z"/></g>
<g><path style="opacity:1" fill="#352718" d="M 42.5,113.5 C 42.56,114.043 42.8933,114.376 43.5,114.5C 44.2876,113.23 45.2876,112.23 46.5,111.5C 49.0026,113.833 51.6693,115.999 54.5,118C 64.992,122.376 73.6587,128.876 80.5,137.5C 80.6716,138.492 80.3382,139.158 79.5,139.5C 77.8333,138.167 76.1667,136.833 74.5,135.5C 68.713,129.1 61.713,124.433 53.5,121.5C 50.9933,120.108 48.3267,119.108 45.5,118.5C 43.7028,117.27 41.7028,116.604 39.5,116.5C 37.1617,114.96 34.4951,114.294 31.5,114.5C 25.8236,114.334 20.1569,114.501 14.5,115C 12.9059,117.803 11.2392,120.636 9.5,123.5C 8.07771,124.547 6.57771,124.547 5,123.5C 0.636846,139 4.80351,152 17.5,162.5C 22.8243,167.167 28.8243,170.834 35.5,173.5C 39.2984,174.483 43.2984,174.817 47.5,174.5C 47.5,176.167 47.5,177.833 47.5,179.5C 46.1667,179.5 44.8333,179.5 43.5,179.5C 43.337,184.864 45.0037,189.53 48.5,193.5C 52.2893,192.105 55.956,190.439 59.5,188.5C 59.8333,188.833 60.1667,189.167 60.5,189.5C 60.3903,191.098 60.057,192.765 59.5,194.5C 60.462,200.117 61.7954,205.617 63.5,211C 66.4362,210.107 68.9362,208.274 71,205.5C 71.3988,205.728 71.5654,206.062 71.5,206.5C 69.3839,210.954 66.0505,213.954 61.5,215.5C 60.6489,210.775 59.4822,206.108 58,201.5C 57.502,198.518 57.3354,195.518 57.5,192.5C 55.2166,192.608 53.2166,193.441 51.5,195C 49.8333,195.667 48.1667,195.667 46.5,195C 42.1407,190.442 39.8073,184.942 39.5,178.5C 19.018,172.115 5.68468,158.782 -0.5,138.5C -0.5,134.5 -0.5,130.5 -0.5,126.5C 0.418466,124.18 1.7518,122.013 3.5,120C 5.04675,119.667 6.38009,120.167 7.5,121.5C 8.8681,119.363 9.8681,117.03 10.5,114.5C 12.5543,112.806 14.8877,111.639 17.5,111C 26.0412,109.958 34.3746,110.791 42.5,113.5 Z"/></g>
<g><path style="opacity:1" fill="#a0835c" d="M 53.5,121.5 C 61.713,124.433 68.713,129.1 74.5,135.5C 74.719,136.675 74.3857,137.675 73.5,138.5C 71.5781,137.289 69.7448,135.956 68,134.5C 66.6439,135.38 65.1439,135.714 63.5,135.5C 63.4281,131.251 61.2615,128.584 57,127.5C 56.5357,128.094 56.369,128.761 56.5,129.5C 54.0181,127.497 53.0181,124.831 53.5,121.5 Z"/></g>
<g><path style="opacity:1" fill="#352718" d="M 161.5,104.5 C 164.215,106.072 167.215,107.072 170.5,107.5C 172.705,109.346 175.039,111.013 177.5,112.5C 197.287,124.259 209.62,141.259 214.5,163.5C 214.5,167.5 214.5,171.5 214.5,175.5C 210.923,191.61 202.256,204.444 188.5,214C 170.676,225.329 151.343,232.162 130.5,234.5C 125.5,234.5 120.5,234.5 115.5,234.5C 108.889,233.063 102.223,231.229 95.5,229C 83.97,224.14 76.8034,215.64 74,203.5C 73.6174,204.056 73.1174,204.389 72.5,204.5C 72.5106,202.983 73.1772,201.816 74.5,201C 73.2888,200.107 73.2888,199.274 74.5,198.5C 75.1818,199.243 75.8485,199.909 76.5,200.5C 81.0159,213.849 90.0159,222.682 103.5,227C 135.625,232.718 164.625,225.718 190.5,206C 194.77,202.239 198.437,198.072 201.5,193.5C 204.389,190.744 206.556,187.411 208,183.5C 209.162,177.555 209.662,171.555 209.5,165.5C 209.795,163.265 209.461,161.265 208.5,159.5C 207.977,156.11 207.143,152.777 206,149.5C 193.26,123.763 172.76,108.263 144.5,103C 150.23,102.645 155.897,103.145 161.5,104.5 Z"/></g>
<g><path style="opacity:1" fill="#4b371d" d="M 84.5,158.5 C 82.316,165.219 79.1493,171.886 75,178.5C 70.7275,180.774 67.0609,183.774 64,187.5C 63.5027,191.524 63.6693,195.524 64.5,199.5C 68.6827,197.828 72.1827,195.162 75,191.5C 78.6602,183.917 81.3269,175.917 83,167.5C 83.235,175.96 82.5684,184.293 81,192.5C 83.5,195.667 86,198.833 88.5,202C 93.288,204.72 97.788,207.886 102,211.5C 104.407,212.327 106.74,213.327 109,214.5C 126.064,217.09 142.897,215.923 159.5,211C 171.946,207.283 182.613,200.783 191.5,191.5C 198.674,183.657 204.674,174.99 209.5,165.5C 209.662,171.555 209.162,177.555 208,183.5C 206.556,187.411 204.389,190.744 201.5,193.5C 183.68,208.907 163.013,218.74 139.5,223C 125.102,224.45 111.102,222.783 97.5,218C 88.516,214.251 81.6827,208.085 77,199.5C 76.6012,199.728 76.4346,200.062 76.5,200.5C 75.8485,199.909 75.1818,199.243 74.5,198.5C 73.2888,199.274 73.2888,200.107 74.5,201C 73.1772,201.816 72.5106,202.983 72.5,204.5C 72.6716,205.492 72.3382,206.158 71.5,206.5C 71.5654,206.062 71.3988,205.728 71,205.5C 68.9362,208.274 66.4362,210.107 63.5,211C 61.7954,205.617 60.462,200.117 59.5,194.5C 60.057,192.765 60.3903,191.098 60.5,189.5C 60.1667,189.167 59.8333,188.833 59.5,188.5C 55.956,190.439 52.2893,192.105 48.5,193.5C 45.0037,189.53 43.337,184.864 43.5,179.5C 44.8333,179.5 46.1667,179.5 47.5,179.5C 47.5,177.833 47.5,176.167 47.5,174.5C 43.2984,174.817 39.2984,174.483 35.5,173.5C 42.8896,173.764 50.2229,173.43 57.5,172.5C 67.2737,171.282 75.2737,166.949 81.5,159.5C 82.391,158.89 83.391,158.557 84.5,158.5 Z"/></g>
<g><path style="opacity:1" fill="#886538" d="M 135.5,185.5 C 136.303,186.423 136.47,187.423 136,188.5C 135.667,188.167 135.333,187.833 135,187.5C 134.535,188.931 133.701,190.097 132.5,191C 122.167,191.667 111.833,191.667 101.5,191C 100.583,188.419 99.2495,186.086 97.5,184C 98.9036,181.473 100.904,179.64 103.5,178.5C 110.144,177.557 116.811,177.391 123.5,178C 128.036,179.762 132.036,182.262 135.5,185.5 Z"/></g>
<g><path style="opacity:1" fill="#3d2507" d="M 170.5,187.5 C 167.768,188.989 164.768,189.655 161.5,189.5C 156.941,189.381 152.607,188.381 148.5,186.5C 148.527,184.801 149.194,183.467 150.5,182.5C 151.833,182.5 153.167,182.5 154.5,182.5C 154.297,184.39 154.963,185.89 156.5,187C 164.234,188.358 170.401,185.858 175,179.5C 175.667,180.5 175.667,181.5 175,182.5C 173.293,184.037 171.793,185.704 170.5,187.5 Z"/></g>
<g><path style="opacity:1" fill="#3d2913" d="M 104.5,175.5 C 105.833,176.833 107.167,176.833 108.5,175.5C 113.511,175.334 118.511,175.501 123.5,176C 125.723,176.566 127.723,177.4 129.5,178.5C 130.795,179.488 132.128,180.488 133.5,181.5C 134.66,182.265 135.66,183.265 136.5,184.5C 136.376,185.107 136.043,185.44 135.5,185.5C 132.036,182.262 128.036,179.762 123.5,178C 116.811,177.391 110.144,177.557 103.5,178.5C 104.11,177.609 104.443,176.609 104.5,175.5 Z"/></g>
<g><path style="opacity:1" fill="#908071" d="M 201.5,193.5 C 198.437,198.072 194.77,202.239 190.5,206C 164.625,225.718 135.625,232.718 103.5,227C 90.0159,222.682 81.0159,213.849 76.5,200.5C 76.4346,200.062 76.6012,199.728 77,199.5C 81.6827,208.085 88.516,214.251 97.5,218C 111.102,222.783 125.102,224.45 139.5,223C 163.013,218.74 183.68,208.907 201.5,193.5 Z"/></g>
</svg>
