<?xml version="1.0" encoding="UTF-8"?>
<!DOCTYPE svg PUBLIC "-//W3C//DTD SVG 1.1//EN" "http://www.w3.org/Graphics/SVG/1.1/DTD/svg11.dtd">
<svg xmlns="http://www.w3.org/2000/svg" version="1.1" width="230px" height="219px" style="shape-rendering:geometricPrecision; text-rendering:geometricPrecision; image-rendering:optimizeQuality; fill-rule:evenodd; clip-rule:evenodd" xmlns:xlink="http://www.w3.org/1999/xlink">
<g><path style="opacity:1" fill="#fbfbfb" d="M -0.5,-0.5 C 34.1667,-0.5 68.8333,-0.5 103.5,-0.5C 84.1273,0.598505 66.4607,6.76517 50.5,18C 43.7357,23.0415 39.0691,29.5415 36.5,37.5C 30.1779,39.1423 27.5112,43.1423 28.5,49.5C 17.0449,54.4051 12.3782,63.0718 14.5,75.5C 6.48991,85.1831 1.48991,96.1831 -0.5,108.5C -0.5,72.1667 -0.5,35.8333 -0.5,-0.5 Z"/></g>
<g><path style="opacity:1" fill="#c8cac7" d="M 109.5,-0.5 C 117.833,-0.5 126.167,-0.5 134.5,-0.5C 134.833,0.166667 135.167,0.833333 135.5,1.5C 126.67,1.02915 118.004,0.362486 109.5,-0.5 Z"/></g>
<g><path style="opacity:1" fill="#fbfbfb" d="M 134.5,-0.5 C 166.167,-0.5 197.833,-0.5 229.5,-0.5C 229.5,36.8333 229.5,74.1667 229.5,111.5C 226.217,102.952 221.384,95.2854 215,88.5C 214.952,80.0686 214.119,71.7352 212.5,63.5C 213.787,61.8404 215.12,60.1738 216.5,58.5C 215.089,56.086 213.089,54.4194 210.5,53.5C 209.357,53.0919 208.357,52.4252 207.5,51.5C 196.905,31.8461 181.238,17.6794 160.5,9C 152.181,6.00968 143.848,3.50968 135.5,1.5C 135.167,0.833333 134.833,0.166667 134.5,-0.5 Z"/></g>
<g><path style="opacity:1" fill="#0a0a0a" d="M 103.5,-0.5 C 105.5,-0.5 107.5,-0.5 109.5,-0.5C 118.004,0.362486 126.67,1.02915 135.5,1.5C 143.848,3.50968 152.181,6.00968 160.5,9C 181.238,17.6794 196.905,31.8461 207.5,51.5C 208.357,52.4252 209.357,53.0919 210.5,53.5C 209.791,54.404 208.791,54.7373 207.5,54.5C 197.05,51.6443 186.383,50.811 175.5,52C 170.533,52.8231 165.867,54.3231 161.5,56.5C 160.373,57.1217 159.373,57.955 158.5,59C 157.365,59.7494 156.365,59.5827 155.5,58.5C 165.011,52.1578 172.177,43.8244 177,33.5C 177.78,31.6131 177.613,29.9464 176.5,28.5C 159.482,24.3766 143.148,26.2099 127.5,34C 125.63,36.0396 123.63,37.8729 121.5,39.5C 118.777,42.5863 116.277,45.9196 114,49.5C 113.76,47.1484 112.927,45.1484 111.5,43.5C 110.147,40.8577 109.481,38.0244 109.5,35C 110.035,31.4336 110.535,27.9336 111,24.5C 104.54,30.3708 101.707,37.7042 102.5,46.5C 102.665,49.8499 102.498,53.1832 102,56.5C 100.724,54.1417 99.5578,51.8084 98.5,49.5C 98.2665,41.4361 94.2665,37.2694 86.5,37C 81.5648,39.6057 76.8981,42.6057 72.5,46C 76.0786,49.6751 78.7453,53.8417 80.5,58.5C 79.391,58.4431 78.391,58.1098 77.5,57.5C 73.0541,54.7742 68.3874,52.2742 63.5,50C 59.8333,49.3333 56.1667,49.3333 52.5,50C 52.0426,50.414 51.7093,50.914 51.5,51.5C 55.4266,52.6547 59.4266,53.488 63.5,54C 66.0472,56.054 68.7139,57.8874 71.5,59.5C 78.7873,68.556 81.2873,78.8893 79,90.5C 77.3624,104.274 72.5291,116.608 64.5,127.5C 57.4367,138.562 47.4367,145.229 34.5,147.5C 33.6136,146.224 32.6136,146.224 31.5,147.5C 32.935,151.425 32.6016,155.092 30.5,158.5C 29.5147,154.924 28.848,151.258 28.5,147.5C 13.2566,145.412 3.58995,137.078 -0.5,122.5C -0.5,117.833 -0.5,113.167 -0.5,108.5C 1.48991,96.1831 6.48991,85.1831 14.5,75.5C 15.3382,75.8417 15.6716,76.5084 15.5,77.5C 10.1471,86.8782 6.14711,96.8782 3.5,107.5C 3.22643,114.23 3.72643,120.897 5,127.5C 5.37675,128.942 6.21009,129.942 7.5,130.5C 7.82578,132.661 8.82578,134.494 10.5,136C 21.6594,145.581 33.6594,146.748 46.5,139.5C 68.3905,121.621 77.2239,98.6209 73,70.5C 70.0657,67.8783 67.5657,64.8783 65.5,61.5C 63.5134,59.4986 61.1801,58.6652 58.5,59C 62.5467,63.6859 64.5467,69.1859 64.5,75.5C 63.6915,99.4397 53.3582,117.94 33.5,131C 26.6088,133.911 19.9421,134.077 13.5,131.5C 25.4081,132.976 35.4081,129.309 43.5,120.5C 48.2358,116.255 52.0691,111.255 55,105.5C 58.7577,95.8025 61.2577,85.8025 62.5,75.5C 62.0867,71.7686 61.4201,68.102 60.5,64.5C 53.2373,54.9859 45.0706,54.3193 36,62.5C 34.583,61.9221 33.7496,60.9221 33.5,59.5C 37.5774,57.669 39.2441,54.669 38.5,50.5C 34.6951,49.1889 31.0285,49.5223 27.5,51.5C 27.8333,50.8333 28.1667,50.1667 28.5,49.5C 27.5112,43.1423 30.1779,39.1423 36.5,37.5C 39.0691,29.5415 43.7357,23.0415 50.5,18C 66.4607,6.76517 84.1273,0.598505 103.5,-0.5 Z"/></g>
<g><path style="opacity:1" fill="#c2cf33" d="M 102.5,11.5 C 98.3771,13.7248 94.0437,15.7248 89.5,17.5C 88.7124,18.7701 87.7124,19.7701 86.5,20.5C 82.4644,15.5231 77.131,13.1897 70.5,13.5C 73.4326,11.2145 76.4326,9.21446 79.5,7.5C 79.8333,7.5 80.1667,7.5 80.5,7.5C 83.4475,7.77712 86.2809,7.44379 89,6.5C 89.5,7.66667 90.3333,8.5 91.5,9C 95.2066,9.73735 98.8732,10.5707 102.5,11.5 Z"/></g>
<g><path style="opacity:1" fill="#cdd686" d="M 101.5,15.5 C 98.6963,17.4046 95.6963,19.0713 92.5,20.5C 94.265,16.7569 97.265,15.0902 101.5,15.5 Z"/></g>
<g><path style="opacity:1" fill="#aebc53" d="M 79.5,7.5 C 76.4326,9.21446 73.4326,11.2145 70.5,13.5C 64.7659,15.2643 59.4326,17.9309 54.5,21.5C 53.8933,21.3764 53.56,21.0431 53.5,20.5C 61.1442,14.2753 69.8108,9.94193 79.5,7.5 Z"/></g>
<g><path style="opacity:1" fill="#75931c" d="M 127.5,4.5 C 118.638,5.0106 110.304,7.34394 102.5,11.5C 98.8732,10.5707 95.2066,9.73735 91.5,9C 90.3333,8.5 89.5,7.66667 89,6.5C 86.2809,7.44379 83.4475,7.77712 80.5,7.5C 84.6677,6.20568 89.0011,5.03902 93.5,4C 105.008,3.17408 116.341,3.34075 127.5,4.5 Z"/></g>
<g><path style="opacity:1" fill="#aca989" d="M 141.5,6.5 C 142.833,6.83333 144.167,7.16667 145.5,7.5C 139.69,8.48955 133.69,8.82289 127.5,8.5C 132.167,7.83333 136.833,7.16667 141.5,6.5 Z"/></g>
<g><path style="opacity:1" fill="#e4ef7f" d="M 127.5,4.5 C 132.186,5.03733 136.853,5.704 141.5,6.5C 136.833,7.16667 132.167,7.83333 127.5,8.5C 118.493,9.61435 109.826,11.9477 101.5,15.5C 97.265,15.0902 94.265,16.7569 92.5,20.5C 81.0623,27.5522 69.0623,33.5522 56.5,38.5C 65.684,32.1945 75.684,26.1945 86.5,20.5C 87.7124,19.7701 88.7124,18.7701 89.5,17.5C 94.0437,15.7248 98.3771,13.7248 102.5,11.5C 110.304,7.34394 118.638,5.0106 127.5,4.5 Z"/></g>
<g><path style="opacity:1" fill="#6f9b07" d="M 70.5,13.5 C 77.131,13.1897 82.4644,15.5231 86.5,20.5C 75.684,26.1945 65.684,32.1945 56.5,38.5C 54.4006,39.6118 52.0673,40.2785 49.5,40.5C 48.8333,39.1667 47.8333,38.1667 46.5,37.5C 45.5549,36.0072 44.5549,34.5072 43.5,33C 45.4775,30.8526 46.8108,28.3526 47.5,25.5C 49.0905,23.3674 51.0905,21.7007 53.5,20.5C 53.56,21.0431 53.8933,21.3764 54.5,21.5C 59.4326,17.9309 64.7659,15.2643 70.5,13.5 Z"/></g>
<g><path style="opacity:1" fill="#646465" d="M 176.5,28.5 C 177.613,29.9464 177.78,31.6131 177,33.5C 172.177,43.8244 165.011,52.1578 155.5,58.5C 156.365,59.5827 157.365,59.7494 158.5,59C 159.373,57.955 160.373,57.1217 161.5,56.5C 162.097,57.1386 162.93,57.472 164,57.5C 178.651,56.8735 193.151,56.2068 207.5,55.5C 209.384,55.7118 210.717,56.7118 211.5,58.5C 200.424,65.7055 188.758,71.8721 176.5,77C 179.119,76.9167 181.786,76.75 184.5,76.5C 194.271,83.2273 204.604,89.2273 215.5,94.5C 220.884,99.2797 224.217,105.28 225.5,112.5C 218.492,112.666 211.492,112.5 204.5,112C 201.397,107.893 197.897,104.06 194,100.5C 198.121,107.409 201.788,114.742 205,122.5C 205.706,128.87 205.539,135.203 204.5,141.5C 201.013,141.524 198.347,140.024 196.5,137C 194.667,127.83 191.833,118.996 188,110.5C 187.845,114.415 188.345,118.249 189.5,122C 176.226,120.727 162.893,119.56 149.5,118.5C 151.298,115.711 151.798,112.711 151,109.5C 149.885,113.729 148.219,117.729 146,121.5C 147.321,115.629 147.654,109.629 147,103.5C 146.058,100.626 144.891,97.9596 143.5,95.5C 142.058,93.4604 141.058,91.127 140.5,88.5C 139.219,86.7566 138.219,86.5899 137.5,88C 139.269,97.7401 139.936,107.573 139.5,117.5C 121.81,113.194 104.143,108.694 86.5,104C 83.5147,103.132 80.5147,102.799 77.5,103C 78.0219,103.561 78.3552,104.228 78.5,105C 71.0067,118.041 70.6734,131.208 77.5,144.5C 76.9747,145.192 76.3081,145.692 75.5,146C 87.3516,146.602 95.6849,152.269 100.5,163C 112.608,167.824 124.608,167.657 136.5,162.5C 137.954,167.588 140.954,171.422 145.5,174C 153.3,176.235 160.967,175.902 168.5,173C 177.997,165.516 183.497,155.683 185,143.5C 185.333,136.833 185.667,130.167 186,123.5C 188.325,124.233 189.825,125.733 190.5,128C 193.813,144.09 192.98,159.923 188,175.5C 187.148,176.571 186.315,177.571 185.5,178.5C 172.916,191.262 157.582,198.262 139.5,199.5C 138.167,199.167 136.833,198.833 135.5,198.5C 139.919,194.752 143.585,190.419 146.5,185.5C 145.538,182.243 144.038,179.243 142,176.5C 141.76,178.977 142.594,181.144 144.5,183C 137.95,181.572 131.617,179.239 125.5,176C 118.389,174.062 113.056,176.229 109.5,182.5C 104.188,183.74 98.855,183.573 93.5,182C 80.8141,174.316 69.6474,164.816 60,153.5C 57.6714,148.901 57.3381,144.235 59,139.5C 62.6618,136.352 64.4951,132.352 64.5,127.5C 72.5291,116.608 77.3624,104.274 79,90.5C 81.2873,78.8893 78.7873,68.556 71.5,59.5C 72.9899,57.7202 74.9899,57.0535 77.5,57.5C 78.391,58.1098 79.391,58.4431 80.5,58.5C 81.404,57.791 81.7373,56.791 81.5,55.5C 86.9768,53.0386 92.6435,51.0386 98.5,49.5C 99.5578,51.8084 100.724,54.1417 102,56.5C 102.498,53.1832 102.665,49.8499 102.5,46.5C 105.426,45.3024 108.426,44.3024 111.5,43.5C 112.927,45.1484 113.76,47.1484 114,49.5C 116.277,45.9196 118.777,42.5863 121.5,39.5C 121.56,40.0431 121.893,40.3764 122.5,40.5C 130.393,37.3879 138.393,34.5546 146.5,32C 153.991,31.0726 161.491,30.2393 169,29.5C 171.424,29.5296 173.757,29.8629 176,30.5C 176.464,29.9056 176.631,29.2389 176.5,28.5 Z"/></g>
<g><path style="opacity:1" fill="#444444" d="M 111.5,43.5 C 108.426,44.3024 105.426,45.3024 102.5,46.5C 101.707,37.7042 104.54,30.3708 111,24.5C 110.535,27.9336 110.035,31.4336 109.5,35C 109.481,38.0244 110.147,40.8577 111.5,43.5 Z"/></g>
<g><path style="opacity:1" fill="#698036" d="M 47.5,25.5 C 46.8108,28.3526 45.4775,30.8526 43.5,33C 44.5549,34.5072 45.5549,36.0072 46.5,37.5C 44.1992,36.9396 41.8659,36.4396 39.5,36C 41.6184,32.0527 44.285,28.5527 47.5,25.5 Z"/></g>
<g><path style="opacity:1" fill="#191a15" d="M 145.5,7.5 C 148.113,8.09549 148.113,8.92883 145.5,10C 156.773,11.0607 166.606,15.2273 175,22.5C 182.332,25.8679 188.999,31.5346 195,39.5C 195.49,40.7932 195.657,42.1266 195.5,43.5C 194.325,43.719 193.325,43.3857 192.5,42.5C 186.942,37.1116 181.942,31.2783 177.5,25C 168.679,23.1659 160.013,20.8325 151.5,18C 143.255,17.8173 135.088,17.3173 127,16.5C 125.343,19.16 123.676,19.16 122,16.5C 117.496,16.9382 113.329,18.2715 109.5,20.5C 107.505,23.1681 104.838,24.8347 101.5,25.5C 100.33,26.6939 100.663,27.3605 102.5,27.5C 100.365,29.0709 98.0316,30.4043 95.5,31.5C 95.6309,30.6236 95.2975,29.9569 94.5,29.5C 91.6581,31.8034 88.6581,32.4701 85.5,31.5C 85.67,32.8221 85.3366,33.9887 84.5,35C 79.3318,38.4185 73.9984,41.5852 68.5,44.5C 67.3881,45.2652 66.7214,46.2652 66.5,47.5C 66.5,48.1667 66.1667,48.5 65.5,48.5C 65.2089,47.3509 64.3756,46.6842 63,46.5C 61.3333,46.8333 59.6667,47.1667 58,47.5C 56.6739,47.2451 55.6739,46.5784 55,45.5C 54.6667,46.1667 54.3333,46.8333 54,47.5C 52.6814,45.7505 52.1814,43.7505 52.5,41.5C 51.209,41.7373 50.209,41.404 49.5,40.5C 52.0673,40.2785 54.4006,39.6118 56.5,38.5C 69.0623,33.5522 81.0623,27.5522 92.5,20.5C 95.6963,19.0713 98.6963,17.4046 101.5,15.5C 109.826,11.9477 118.493,9.61435 127.5,8.5C 133.69,8.82289 139.69,8.48955 145.5,7.5 Z"/></g>
<g><path style="opacity:1" fill="#8c8f99" d="M 176.5,28.5 C 176.631,29.2389 176.464,29.9056 176,30.5C 173.757,29.8629 171.424,29.5296 169,29.5C 161.491,30.2393 153.991,31.0726 146.5,32C 138.393,34.5546 130.393,37.3879 122.5,40.5C 121.893,40.3764 121.56,40.0431 121.5,39.5C 123.63,37.8729 125.63,36.0396 127.5,34C 143.148,26.2099 159.482,24.3766 176.5,28.5 Z"/></g>
<g><path style="opacity:1" fill="#eaeaea" d="M 115.5,23.5 C 122.991,23.2344 130.324,24.0677 137.5,26C 127.317,28.7019 119.65,34.5353 114.5,43.5C 110.305,36.5585 110.638,29.8918 115.5,23.5 Z"/></g>
<g><path style="opacity:1" fill="#eae9ea" d="M 102.5,27.5 C 103.239,27.369 103.906,27.5357 104.5,28C 101.642,31.7325 99.6421,35.8991 98.5,40.5C 96.3932,38.2733 94.0599,36.2733 91.5,34.5C 92.4669,33.016 93.8002,32.016 95.5,31.5C 98.0316,30.4043 100.365,29.0709 102.5,27.5 Z"/></g>
<g><path style="opacity:1" fill="#444444" d="M 98.5,49.5 C 92.6435,51.0386 86.9768,53.0386 81.5,55.5C 81.7373,56.791 81.404,57.791 80.5,58.5C 78.7453,53.8417 76.0786,49.6751 72.5,46C 76.8981,42.6057 81.5648,39.6057 86.5,37C 94.2665,37.2694 98.2665,41.4361 98.5,49.5 Z"/></g>
<g><path style="opacity:1" fill="#383838" d="M 35.5,39.5 C 39.1817,39.3347 42.8484,39.5014 46.5,40C 48.3398,42.8263 49.0065,45.9929 48.5,49.5C 46.5165,49.3832 44.8498,50.0499 43.5,51.5C 40.9321,45.264 36.7654,43.9307 31,47.5C 30.4054,46.1011 30.5721,44.7678 31.5,43.5C 32.8814,42.1186 34.2147,40.7853 35.5,39.5 Z"/></g>
<g><path style="opacity:1" fill="#d5d5d6" d="M 65.5,48.5 C 66.1667,48.5 66.5,48.1667 66.5,47.5C 71.0598,45.9114 73.2264,47.578 73,52.5C 69.7002,51.3723 67.2002,50.0389 65.5,48.5 Z"/></g>
<g><path style="opacity:1" fill="#8c8f99" d="M 207.5,54.5 C 207.5,54.8333 207.5,55.1667 207.5,55.5C 193.151,56.2068 178.651,56.8735 164,57.5C 162.93,57.472 162.097,57.1386 161.5,56.5C 165.867,54.3231 170.533,52.8231 175.5,52C 186.383,50.811 197.05,51.6443 207.5,54.5 Z"/></g>
<g><path style="opacity:1" fill="#627b2c" d="M 33.5,59.5 C 32.8826,59.6107 32.3826,59.944 32,60.5C 31.5045,62.4727 31.3379,64.4727 31.5,66.5C 30.3659,64.0336 30.1993,61.367 31,58.5C 32.4007,56.8078 34.2341,56.1412 36.5,56.5C 36.5,54.8333 36.5,53.1667 36.5,51.5C 31.5896,51.2408 27.5896,52.9075 24.5,56.5C 22.8058,57.5274 21.4725,58.8608 20.5,60.5C 19.7784,60.9175 19.2784,61.5842 19,62.5C 18.5006,68.1569 18.3339,73.8236 18.5,79.5C 15.8083,72.834 15.9749,66.1674 19,59.5C 21.7291,56.6007 24.5624,53.934 27.5,51.5C 31.0285,49.5223 34.6951,49.1889 38.5,50.5C 39.2441,54.669 37.5774,57.669 33.5,59.5 Z"/></g>
<g><path style="opacity:1" fill="#404040" d="M 77.5,57.5 C 74.9899,57.0535 72.9899,57.7202 71.5,59.5C 68.7139,57.8874 66.0472,56.054 63.5,54C 59.4266,53.488 55.4266,52.6547 51.5,51.5C 51.7093,50.914 52.0426,50.414 52.5,50C 56.1667,49.3333 59.8333,49.3333 63.5,50C 68.3874,52.2742 73.0541,54.7742 77.5,57.5 Z"/></g>
<g><path style="opacity:1" fill="#1b1c18" d="M 7.5,130.5 C 7.55999,129.957 7.89333,129.624 8.5,129.5C 10.3361,130.028 12.0028,130.694 13.5,131.5C 19.9421,134.077 26.6088,133.911 33.5,131C 53.3582,117.94 63.6915,99.4397 64.5,75.5C 64.5467,69.1859 62.5467,63.6859 58.5,59C 61.1801,58.6652 63.5134,59.4986 65.5,61.5C 67.5657,64.8783 70.0657,67.8783 73,70.5C 77.2239,98.6209 68.3905,121.621 46.5,139.5C 33.6594,146.748 21.6594,145.581 10.5,136C 8.82578,134.494 7.82578,132.661 7.5,130.5 Z"/></g>
<g><path style="opacity:1" fill="#0d1309" d="M 28.5,49.5 C 28.1667,50.1667 27.8333,50.8333 27.5,51.5C 24.5624,53.934 21.7291,56.6007 19,59.5C 15.9749,66.1674 15.8083,72.834 18.5,79.5C 19.0852,86.5074 20.9186,93.1741 24,99.5C 32.3879,108.622 37.8879,107.122 40.5,95C 38.8302,90.4855 36.9969,85.9855 35,81.5C 34.2352,76.2684 33.0686,71.2684 31.5,66.5C 31.3379,64.4727 31.5045,62.4727 32,60.5C 32.3826,59.944 32.8826,59.6107 33.5,59.5C 33.7496,60.9221 34.583,61.9221 36,62.5C 45.0706,54.3193 53.2373,54.9859 60.5,64.5C 57.0403,66.7915 54.0403,69.6248 51.5,73C 53.824,86.1978 51.324,98.3645 44,109.5C 40.6039,112.393 37.7706,115.726 35.5,119.5C 25.3998,126.287 17.2331,124.621 11,114.5C 8.07082,103.875 9.40415,93.8749 15,84.5C 15.4966,82.1902 15.6633,79.8568 15.5,77.5C 15.6716,76.5084 15.3382,75.8417 14.5,75.5C 12.3782,63.0718 17.0449,54.4051 28.5,49.5 Z"/></g>
<g><path style="opacity:1" fill="#58781b" d="M 49.5,75.5 C 51.2207,82.4893 50.554,89.1559 47.5,95.5C 48.1942,90.1951 48.5276,84.8617 48.5,79.5C 46.8333,79.5 45.1667,79.5 43.5,79.5C 43.1505,75.1586 40.8171,73.4919 36.5,74.5C 36.5,72.8333 36.5,71.1667 36.5,69.5C 38.5914,69.6816 40.5914,69.3482 42.5,68.5C 45.507,70.2002 47.8404,72.5336 49.5,75.5 Z"/></g>
<g><path style="opacity:1" fill="#4f6630" d="M 49.5,75.5 C 47.8404,72.5336 45.507,70.2002 42.5,68.5C 40.5914,69.3482 38.5914,69.6816 36.5,69.5C 36.5,71.1667 36.5,72.8333 36.5,74.5C 40.8171,73.4919 43.1505,75.1586 43.5,79.5C 43.5,80.5 43.5,81.5 43.5,82.5C 41.9009,78.9908 39.2342,76.6575 35.5,75.5C 33.4371,67.8162 36.4371,64.9829 44.5,67C 48.0886,68.6742 49.7553,71.5075 49.5,75.5 Z"/></g>
<g><path style="opacity:1" fill="#9fcf32" d="M 24.5,56.5 C 25.5,56.5 26.5,56.5 27.5,56.5C 27.2736,60.2924 26.4403,63.9591 25,67.5C 24.8775,76.3468 24.7109,85.0134 24.5,93.5C 22.9039,87.8751 21.4039,82.2085 20,76.5C 19.3239,71.1294 19.4905,65.7961 20.5,60.5C 21.4725,58.8608 22.8058,57.5274 24.5,56.5 Z"/></g>
<g><path style="opacity:1" fill="#8c8e95" d="M 184.5,76.5 C 197.744,77.6178 208.077,83.6178 215.5,94.5C 204.604,89.2273 194.271,83.2273 184.5,76.5 Z"/></g>
<g><path style="opacity:1" fill="#6c9c07" d="M 31.5,66.5 C 31.3341,71.5111 31.5007,76.5111 32,81.5C 33.2937,82.8544 33.4604,84.1877 32.5,85.5C 34,87.8333 35.5,90.1667 37,92.5C 39.9066,101.086 37.0733,104.253 28.5,102C 28.0811,98.6919 26.7478,95.8586 24.5,93.5C 24.7109,85.0134 24.8775,76.3468 25,67.5C 26.4403,63.9591 27.2736,60.2924 27.5,56.5C 26.5,56.5 25.5,56.5 24.5,56.5C 27.5896,52.9075 31.5896,51.2408 36.5,51.5C 36.5,53.1667 36.5,54.8333 36.5,56.5C 34.2341,56.1412 32.4007,56.8078 31,58.5C 30.1993,61.367 30.3659,64.0336 31.5,66.5 Z"/></g>
<g><path style="opacity:1" fill="#6a8c21" d="M 20.5,60.5 C 19.4905,65.7961 19.3239,71.1294 20,76.5C 21.4039,82.2085 22.9039,87.8751 24.5,93.5C 26.7478,95.8586 28.0811,98.6919 28.5,102C 37.0733,104.253 39.9066,101.086 37,92.5C 35.5,90.1667 34,87.8333 32.5,85.5C 33.4604,84.1877 33.2937,82.8544 32,81.5C 31.5007,76.5111 31.3341,71.5111 31.5,66.5C 33.0686,71.2684 34.2352,76.2684 35,81.5C 36.9969,85.9855 38.8302,90.4855 40.5,95C 37.8879,107.122 32.3879,108.622 24,99.5C 20.9186,93.1741 19.0852,86.5074 18.5,79.5C 18.3339,73.8236 18.5006,68.1569 19,62.5C 19.2784,61.5842 19.7784,60.9175 20.5,60.5 Z"/></g>
<g><path style="opacity:1" fill="#8d8f99" d="M 143.5,95.5 C 145.188,101.051 145.688,106.718 145,112.5C 144.167,114.167 143.333,115.833 142.5,117.5C 141.386,118.776 140.386,118.776 139.5,117.5C 139.936,107.573 139.269,97.7401 137.5,88C 138.219,86.5899 139.219,86.7566 140.5,88.5C 141.058,91.127 142.058,93.4604 143.5,95.5 Z"/></g>
<g><path style="opacity:1" fill="#fcfcfc" d="M 229.5,115.5 C 229.5,149.833 229.5,184.167 229.5,218.5C 200.833,218.5 172.167,218.5 143.5,218.5C 154.075,216.502 164.741,214.335 175.5,212C 183.68,209.653 190.846,205.486 197,199.5C 198.055,192.505 196.222,186.505 191.5,181.5C 191.414,180.504 191.748,179.671 192.5,179C 206.175,176.993 214.341,169.16 217,155.5C 219.505,142.249 218.672,129.249 214.5,116.5C 219.518,116.387 224.518,116.053 229.5,115.5 Z"/></g>
<g><path style="opacity:1" fill="#323233" d="M 60.5,64.5 C 61.4201,68.102 62.0867,71.7686 62.5,75.5C 61.2577,85.8025 58.7577,95.8025 55,105.5C 52.0691,111.255 48.2358,116.255 43.5,120.5C 43.5654,120.062 43.3988,119.728 43,119.5C 35.4425,127.353 26.2758,130.187 15.5,128C 11.7383,125.796 8.40493,123.13 5.5,120C 6.05851,119.275 6.39184,118.442 6.5,117.5C 5.9907,113.897 4.9907,110.564 3.5,107.5C 6.14711,96.8782 10.1471,86.8782 15.5,77.5C 15.6633,79.8568 15.4966,82.1902 15,84.5C 9.40415,93.8749 8.07082,103.875 11,114.5C 17.2331,124.621 25.3998,126.287 35.5,119.5C 37.7706,115.726 40.6039,112.393 44,109.5C 51.324,98.3645 53.824,86.1978 51.5,73C 54.0403,69.6248 57.0403,66.7915 60.5,64.5 Z"/></g>
<g><path style="opacity:1" fill="#77a01a" d="M 17.5,105.5 C 18.8471,112.004 22.5138,114.004 28.5,111.5C 29.5,111.5 30.5,111.5 31.5,111.5C 32.8333,111.5 34.1667,111.5 35.5,111.5C 34.1667,113.833 32.8333,116.167 31.5,118.5C 30.7095,119.401 29.7095,120.068 28.5,120.5C 21.9198,120.454 17.0865,117.454 14,111.5C 13.112,106.382 13.4453,101.382 15,96.5C 15.3333,96.8333 15.6667,97.1667 16,97.5C 16.1829,100.365 16.6829,103.031 17.5,105.5 Z"/></g>
<g><path style="opacity:1" fill="#859e47" d="M 17.5,92.5 C 17.5,96.8333 17.5,101.167 17.5,105.5C 16.6829,103.031 16.1829,100.365 16,97.5C 15.6667,97.1667 15.3333,96.8333 15,96.5C 13.4453,101.382 13.112,106.382 14,111.5C 17.0865,117.454 21.9198,120.454 28.5,120.5C 22.1599,123.937 17.3265,122.271 14,115.5C 11.5974,105.941 12.264,96.6079 16,87.5C 17.2692,88.9047 17.7692,90.5714 17.5,92.5 Z"/></g>
<g><path style="opacity:1" fill="#48611f" d="M 17.5,92.5 C 18.0221,97.9773 19.0221,103.477 20.5,109C 20.9054,109.945 21.572,110.612 22.5,111C 24.4727,111.495 26.4727,111.662 28.5,111.5C 22.5138,114.004 18.8471,112.004 17.5,105.5C 17.5,101.167 17.5,96.8333 17.5,92.5 Z"/></g>
<g><path style="opacity:1" fill="#6f8c2a" d="M 43.5,84.5 C 44.4849,88.6344 44.8182,92.9677 44.5,97.5C 45.5,97.5 46.5,97.5 47.5,97.5C 44.4025,106.257 39.0692,113.257 31.5,118.5C 32.8333,116.167 34.1667,113.833 35.5,111.5C 34.1667,111.5 32.8333,111.5 31.5,111.5C 40.4957,104.887 44.4957,95.8871 43.5,84.5 Z"/></g>
<g><path style="opacity:1" fill="#6f9815" d="M 43.5,79.5 C 45.1667,79.5 46.8333,79.5 48.5,79.5C 48.5276,84.8617 48.1942,90.1951 47.5,95.5C 47.5,96.1667 47.5,96.8333 47.5,97.5C 46.5,97.5 45.5,97.5 44.5,97.5C 44.8182,92.9677 44.4849,88.6344 43.5,84.5C 43.5,83.8333 43.5,83.1667 43.5,82.5C 43.5,81.5 43.5,80.5 43.5,79.5 Z"/></g>
<g><path style="opacity:1" fill="#0c0c0d" d="M 210.5,53.5 C 213.089,54.4194 215.089,56.086 216.5,58.5C 215.12,60.1738 213.787,61.8404 212.5,63.5C 214.119,71.7352 214.952,80.0686 215,88.5C 221.384,95.2854 226.217,102.952 229.5,111.5C 229.5,112.833 229.5,114.167 229.5,115.5C 224.518,116.053 219.518,116.387 214.5,116.5C 218.672,129.249 219.505,142.249 217,155.5C 214.341,169.16 206.175,176.993 192.5,179C 191.748,179.671 191.414,180.504 191.5,181.5C 185.02,192.096 176.02,199.93 164.5,205C 134.924,213.31 105.257,213.643 75.5,206C 62.3845,201.026 51.0512,193.526 41.5,183.5C 35.9347,176.033 32.268,167.7 30.5,158.5C 32.6016,155.092 32.935,151.425 31.5,147.5C 32.6136,146.224 33.6136,146.224 34.5,147.5C 33.8333,147.5 33.5,147.833 33.5,148.5C 37.3004,173.816 51.3004,190.983 75.5,200C 81.6612,202.29 87.9945,203.79 94.5,204.5C 113.509,206.147 132.509,205.647 151.5,203C 164.081,200.296 174.581,194.129 183,184.5C 184.122,182.593 184.955,180.593 185.5,178.5C 186.315,177.571 187.148,176.571 188,175.5C 192.98,159.923 193.813,144.09 190.5,128C 189.825,125.733 188.325,124.233 186,123.5C 185.667,130.167 185.333,136.833 185,143.5C 183.497,155.683 177.997,165.516 168.5,173C 160.967,175.902 153.3,176.235 145.5,174C 140.954,171.422 137.954,167.588 136.5,162.5C 124.608,167.657 112.608,167.824 100.5,163C 95.6849,152.269 87.3516,146.602 75.5,146C 76.3081,145.692 76.9747,145.192 77.5,144.5C 70.6734,131.208 71.0067,118.041 78.5,105C 78.3552,104.228 78.0219,103.561 77.5,103C 80.5147,102.799 83.5147,103.132 86.5,104C 104.143,108.694 121.81,113.194 139.5,117.5C 140.386,118.776 141.386,118.776 142.5,117.5C 143.333,115.833 144.167,114.167 145,112.5C 145.688,106.718 145.188,101.051 143.5,95.5C 144.891,97.9596 146.058,100.626 147,103.5C 147.654,109.629 147.321,115.629 146,121.5C 148.219,117.729 149.885,113.729 151,109.5C 151.798,112.711 151.298,115.711 149.5,118.5C 162.893,119.56 176.226,120.727 189.5,122C 188.345,118.249 187.845,114.415 188,110.5C 191.833,118.996 194.667,127.83 196.5,137C 198.347,140.024 201.013,141.524 204.5,141.5C 205.539,135.203 205.706,128.87 205,122.5C 201.788,114.742 198.121,107.409 194,100.5C 197.897,104.06 201.397,107.893 204.5,112C 211.492,112.5 218.492,112.666 225.5,112.5C 224.217,105.28 220.884,99.2797 215.5,94.5C 208.077,83.6178 197.744,77.6178 184.5,76.5C 181.786,76.75 179.119,76.9167 176.5,77C 188.758,71.8721 200.424,65.7055 211.5,58.5C 210.717,56.7118 209.384,55.7118 207.5,55.5C 207.5,55.1667 207.5,54.8333 207.5,54.5C 208.791,54.7373 209.791,54.404 210.5,53.5 Z"/></g>
<g><path style="opacity:1" fill="#8d8d8d" d="M 121.5,116.5 C 119.94,118.156 118.94,120.156 118.5,122.5C 118.5,120.167 118.5,117.833 118.5,115.5C 119.791,115.263 120.791,115.596 121.5,116.5 Z"/></g>
<g><path style="opacity:1" fill="#fbfbfb" d="M 118.5,122.5 C 118.94,120.156 119.94,118.156 121.5,116.5C 127.889,118.014 134.222,119.68 140.5,121.5C 140.344,125.582 140.844,129.582 142,133.5C 143.845,137.795 146.512,138.462 150,135.5C 151.47,131.622 152.303,127.622 152.5,123.5C 162.833,123.5 173.167,123.5 183.5,123.5C 184.44,136.429 182.274,148.763 177,160.5C 169.647,172.279 159.48,176.113 146.5,172C 142.377,169.066 139.71,165.232 138.5,160.5C 135.089,161.36 131.756,162.526 128.5,164C 119.814,165.392 111.481,164.392 103.5,161C 98.3278,152.076 90.6612,146.576 80.5,144.5C 72.318,131.491 72.6514,118.658 81.5,106C 89.6534,107.335 97.6534,109.502 105.5,112.5C 105.461,119.379 107.461,125.545 111.5,131C 113.367,131.711 114.867,131.211 116,129.5C 117.411,127.35 118.245,125.016 118.5,122.5 Z"/></g>
<g><path style="opacity:1" fill="#313232" d="M 206.5,65.5 C 207.496,65.4142 208.329,65.7476 209,66.5C 209.998,72.1565 210.832,77.8231 211.5,83.5C 205.61,83.2164 203.277,79.883 204.5,73.5C 204.621,70.5589 205.287,67.8922 206.5,65.5 Z"/></g>
<g><path style="opacity:1" fill="#464645" d="M 3.5,107.5 C 4.9907,110.564 5.9907,113.897 6.5,117.5C 6.39184,118.442 6.05851,119.275 5.5,120C 8.40493,123.13 11.7383,125.796 15.5,128C 26.2758,130.187 35.4425,127.353 43,119.5C 43.3988,119.728 43.5654,120.062 43.5,120.5C 35.4081,129.309 25.4081,132.976 13.5,131.5C 12.0028,130.694 10.3361,130.028 8.5,129.5C 7.89333,129.624 7.55999,129.957 7.5,130.5C 6.21009,129.942 5.37675,128.942 5,127.5C 3.72643,120.897 3.22643,114.23 3.5,107.5 Z"/></g>
<g><path style="opacity:1" fill="#fcfcfc" d="M -0.5,122.5 C 3.58995,137.078 13.2566,145.412 28.5,147.5C 28.848,151.258 29.5147,154.924 30.5,158.5C 32.268,167.7 35.9347,176.033 41.5,183.5C 35.2471,185.551 30.0804,189.218 26,194.5C 25.3333,196.833 25.3333,199.167 26,201.5C 27.5578,203.359 29.3911,204.859 31.5,206C 55.0203,213.473 79.0203,217.64 103.5,218.5C 68.8333,218.5 34.1667,218.5 -0.5,218.5C -0.5,186.5 -0.5,154.5 -0.5,122.5 Z"/></g>
<g><path style="opacity:1" fill="#454545" d="M 64.5,127.5 C 64.4951,132.352 62.6618,136.352 59,139.5C 57.3381,144.235 57.6714,148.901 60,153.5C 69.6474,164.816 80.8141,174.316 93.5,182C 98.855,183.573 104.188,183.74 109.5,182.5C 109.56,183.043 109.893,183.376 110.5,183.5C 112.316,182.185 113.983,180.685 115.5,179C 117.034,178.077 118.701,177.577 120.5,177.5C 127.256,179.709 133.923,182.209 140.5,185C 142.473,185.495 144.473,185.662 146.5,185.5C 143.585,190.419 139.919,194.752 135.5,198.5C 136.833,198.833 138.167,199.167 139.5,199.5C 157.582,198.262 172.916,191.262 185.5,178.5C 184.955,180.593 184.122,182.593 183,184.5C 174.581,194.129 164.081,200.296 151.5,203C 132.509,205.647 113.509,206.147 94.5,204.5C 90.8373,202.405 86.8373,200.905 82.5,200C 73.3971,194.873 64.7305,189.207 56.5,183C 51.202,177.02 46.202,170.687 41.5,164C 39.1189,159.532 37.1189,154.865 35.5,150C 35.1639,148.97 34.4972,148.47 33.5,148.5C 33.5,147.833 33.8333,147.5 34.5,147.5C 47.4367,145.229 57.4367,138.562 64.5,127.5 Z"/></g>
<g><path style="opacity:1" fill="#323231" d="M 205.5,117.5 C 207.265,116.539 209.265,116.205 211.5,116.5C 217.772,133.694 216.605,150.361 208,166.5C 205.488,170.003 202.322,171.669 198.5,171.5C 203.756,163.309 205.923,154.309 205,144.5C 210.771,135.515 210.938,126.515 205.5,117.5 Z"/></g>
<g><path style="opacity:1" fill="#0f0f0f" d="M 146.5,185.5 C 144.473,185.662 142.473,185.495 140.5,185C 133.923,182.209 127.256,179.709 120.5,177.5C 118.701,177.577 117.034,178.077 115.5,179C 113.983,180.685 112.316,182.185 110.5,183.5C 109.893,183.376 109.56,183.043 109.5,182.5C 113.056,176.229 118.389,174.062 125.5,176C 131.617,179.239 137.95,181.572 144.5,183C 142.594,181.144 141.76,178.977 142,176.5C 144.038,179.243 145.538,182.243 146.5,185.5 Z"/></g>
<g><path style="opacity:1" fill="#5b6066" d="M 33.5,148.5 C 34.4972,148.47 35.1639,148.97 35.5,150C 37.1189,154.865 39.1189,159.532 41.5,164C 46.202,170.687 51.202,177.02 56.5,183C 64.7305,189.207 73.3971,194.873 82.5,200C 86.8373,200.905 90.8373,202.405 94.5,204.5C 87.9945,203.79 81.6612,202.29 75.5,200C 51.3004,190.983 37.3004,173.816 33.5,148.5 Z"/></g>
<g><path style="opacity:1" fill="#bebed4" d="M 191.5,181.5 C 196.222,186.505 198.055,192.505 197,199.5C 190.846,205.486 183.68,209.653 175.5,212C 164.741,214.335 154.075,216.502 143.5,218.5C 130.167,218.5 116.833,218.5 103.5,218.5C 79.0203,217.64 55.0203,213.473 31.5,206C 29.3911,204.859 27.5578,203.359 26,201.5C 25.3333,199.167 25.3333,196.833 26,194.5C 30.0804,189.218 35.2471,185.551 41.5,183.5C 51.0512,193.526 62.3845,201.026 75.5,206C 105.257,213.643 134.924,213.31 164.5,205C 176.02,199.93 185.02,192.096 191.5,181.5 Z"/></g>
</svg>
