<?xml version="1.0" encoding="UTF-8"?>
<!DOCTYPE svg PUBLIC "-//W3C//DTD SVG 1.1//EN" "http://www.w3.org/Graphics/SVG/1.1/DTD/svg11.dtd">
<svg xmlns="http://www.w3.org/2000/svg" version="1.1" width="259px" height="194px" style="shape-rendering:geometricPrecision; text-rendering:geometricPrecision; image-rendering:optimizeQuality; fill-rule:evenodd; clip-rule:evenodd" xmlns:xlink="http://www.w3.org/1999/xlink">
<g><path style="opacity:1" fill="#fbfcfc" d="M -0.5,-0.5 C 17.5,-0.5 35.5,-0.5 53.5,-0.5C 39.3861,10.5299 35.3861,24.6966 41.5,42C 41.1667,42.8333 40.8333,43.6667 40.5,44.5C 33.0899,45.8636 27.4232,49.697 23.5,56C 27.8209,62.9875 33.4875,68.6542 40.5,73C 31.2342,78.9316 24.0675,86.765 19,96.5C 17.3938,100.45 17.2271,104.45 18.5,108.5C 19.5,109 20.5,109.5 21.5,110C 28.8101,110.97 36.1434,111.803 43.5,112.5C 39.8366,120.13 39.5033,127.964 42.5,136C 43.8333,136.667 45.1667,136.667 46.5,136C 48.6911,134.081 51.0245,132.747 53.5,132C 51.427,134.693 49.2603,137.193 47,139.5C 33.1856,133.599 20.5189,125.932 9,116.5C 7.43633,112.168 5.93633,107.835 4.5,103.5C 2.53756,106.433 0.870892,109.433 -0.5,112.5C -0.5,74.8333 -0.5,37.1667 -0.5,-0.5 Z"/></g>
<g><path style="opacity:1" fill="#32cbfc" d="M 100.5,-0.5 C 106.167,-0.5 111.833,-0.5 117.5,-0.5C 117.5,0.166667 117.5,0.833333 117.5,1.5C 120.873,19.3476 118.873,35.8476 111.5,51C 109.169,55.8337 105.502,57.3337 100.5,55.5C 97.3579,53.4195 94.3579,51.0862 91.5,48.5C 88.322,42.4708 84.4887,36.8041 80,31.5C 79.187,29.5643 78.687,27.5643 78.5,25.5C 77.448,25.6495 76.448,25.4828 75.5,25C 72.7907,21.9545 69.7907,19.2879 66.5,17C 64.8659,16.5065 63.1992,16.3398 61.5,16.5C 59.1432,16.3367 56.8098,16.5034 54.5,17C 53.6195,17.7083 52.9528,18.5416 52.5,19.5C 50.7949,20.0881 49.1283,20.4214 47.5,20.5C 48.1667,21.8333 48.8333,23.1667 49.5,24.5C 47.9429,30.0405 46.9429,35.7072 46.5,41.5C 47.7936,43.8805 48.7936,46.3805 49.5,49C 49.1639,50.0299 48.4972,50.5299 47.5,50.5C 42.9619,42.1518 40.9619,33.1518 41.5,23.5C 43.7081,20.4064 45.8748,17.0731 48,13.5C 53.4539,6.93986 60.4539,3.60653 69,3.5C 78.1472,5.69394 87.3139,5.8606 96.5,4C 98.3237,3.34001 99.657,2.17335 100.5,0.5C 100.5,0.166667 100.5,-0.166667 100.5,-0.5 Z"/></g>
<g><path style="opacity:1" fill="#fafbfb" d="M 216.5,-0.5 C 230.5,-0.5 244.5,-0.5 258.5,-0.5C 258.5,18.1667 258.5,36.8333 258.5,55.5C 256.993,43.1638 253.159,31.4972 247,20.5C 244.795,17.9598 242.295,15.7932 239.5,14C 233.822,12.3321 228.155,10.6654 222.5,9C 219.852,6.19339 217.852,3.02673 216.5,-0.5 Z"/></g>
<g><path style="opacity:1" fill="#7fe9f7" d="M 100.5,0.5 C 99.657,2.17335 98.3237,3.34001 96.5,4C 87.3139,5.8606 78.1472,5.69394 69,3.5C 60.4539,3.60653 53.4539,6.93986 48,13.5C 45.8748,17.0731 43.7081,20.4064 41.5,23.5C 42.5323,12.9335 47.8656,5.43349 57.5,1C 67.5705,0.281748 77.5705,0.781748 87.5,2.5C 91.9843,2.61823 96.3176,1.95156 100.5,0.5 Z"/></g>
<g><path style="opacity:1" fill="#7ee5f5" d="M 182.5,-0.5 C 184.833,-0.5 187.167,-0.5 189.5,-0.5C 185.187,3.47813 180.854,7.47813 176.5,11.5C 172.927,15.6443 169.594,19.9777 166.5,24.5C 170.064,15.0409 175.397,6.7076 182.5,-0.5 Z"/></g>
<g><path style="opacity:1" fill="#80e7f6" d="M 207.5,-0.5 C 209.833,-0.5 212.167,-0.5 214.5,-0.5C 216.676,4.52777 219.343,9.19443 222.5,13.5C 224.167,17.1667 226.833,19.8333 230.5,21.5C 232.054,22.8946 231.721,23.5613 229.5,23.5C 227.63,22.1338 225.63,20.9672 223.5,20C 217.737,13.3447 212.404,6.51138 207.5,-0.5 Z"/></g>
<g><path style="opacity:1" fill="#7eccee" d="M 90.5,60.5 C 89.8826,60.6107 89.3826,60.944 89,61.5C 87.6867,55.366 84.1867,51.366 78.5,49.5C 78.5838,52.3274 79.2504,54.994 80.5,57.5C 79.5416,57.0472 78.7083,56.3805 78,55.5C 76.453,50.2156 75.1196,44.8822 74,39.5C 70.2664,31.5604 64.0997,27.5604 55.5,27.5C 55.7678,29.099 55.4345,30.4324 54.5,31.5C 54.5,28.5 54.5,25.5 54.5,22.5C 54.5,22.1667 54.5,21.8333 54.5,21.5C 57.7077,17.7893 61.3744,17.6227 65.5,21C 68,23.5 70.5,26 73,28.5C 79.1093,38.2744 85.6093,47.7744 92.5,57C 91.1772,57.8159 90.5106,58.9826 90.5,60.5 Z"/></g>
<g><path style="opacity:1" fill="#26677f" d="M 54.5,22.5 C 54.5,25.5 54.5,28.5 54.5,31.5C 55.038,33.1172 55.3713,34.7839 55.5,36.5C 54.8826,36.3893 54.3826,36.056 54,35.5C 52.6752,31.5715 52.3418,27.5715 53,23.5C 53.3826,22.944 53.8826,22.6107 54.5,22.5 Z"/></g>
<g><path style="opacity:1" fill="#1baad8" d="M 117.5,1.5 C 122.058,10.8853 123.558,20.8853 122,31.5C 120.132,40.5667 117.132,49.2334 113,57.5C 107.088,65.3672 101.088,65.3672 95,57.5C 87.5912,46.3593 79.9245,35.3593 72,24.5C 68.7011,21.449 65.2011,18.7823 61.5,16.5C 63.1992,16.3398 64.8659,16.5065 66.5,17C 69.7907,19.2879 72.7907,21.9545 75.5,25C 76.448,25.4828 77.448,25.6495 78.5,25.5C 78.687,27.5643 79.187,29.5643 80,31.5C 84.4887,36.8041 88.322,42.4708 91.5,48.5C 94.3579,51.0862 97.3579,53.4195 100.5,55.5C 105.502,57.3337 109.169,55.8337 111.5,51C 118.873,35.8476 120.873,19.3476 117.5,1.5 Z"/></g>
<g><path style="opacity:1" fill="#34caf9" d="M 189.5,-0.5 C 195.5,-0.5 201.5,-0.5 207.5,-0.5C 212.404,6.51138 217.737,13.3447 223.5,20C 225.63,20.9672 227.63,22.1338 229.5,23.5C 231.721,23.5613 232.054,22.8946 230.5,21.5C 228.167,18.5 225.5,15.8333 222.5,13.5C 222.47,12.5028 222.97,11.8361 224,11.5C 238.953,13.1299 248.286,21.1299 252,35.5C 253.912,42.0586 255.078,48.7252 255.5,55.5C 255.42,64.1302 251.753,65.7969 244.5,60.5C 240.841,57.6734 237.674,54.3401 235,50.5C 228.291,37.3671 219.458,26.0338 208.5,16.5C 205.207,14.1181 201.54,13.1181 197.5,13.5C 196.833,13.5 196.167,13.5 195.5,13.5C 194.399,12.4017 193.066,12.235 191.5,13C 183.562,15.2693 177.729,20.1027 174,27.5C 173.333,33.1667 173.333,38.8333 174,44.5C 175.107,40.1199 176.274,35.7866 177.5,31.5C 179.833,28.8333 182.167,26.1667 184.5,23.5C 183.633,26.9083 182.467,30.2416 181,33.5C 180.333,37.1667 180.333,40.8333 181,44.5C 182.273,41.4027 184.107,38.7361 186.5,36.5C 187.492,36.6716 188.158,36.3382 188.5,35.5C 192.846,35.3343 197.179,35.501 201.5,36C 200.944,36.3826 200.611,36.8826 200.5,37.5C 200.5,38.8333 199.833,39.5 198.5,39.5C 194.806,42.5271 191.473,45.8604 188.5,49.5C 186.952,49.8212 186.285,50.8212 186.5,52.5C 184.488,53.0138 182.488,53.1805 180.5,53C 179.363,50.5428 177.863,48.3762 176,46.5C 175.333,47.8333 174.667,47.8333 174,46.5C 173.536,47.0944 173.369,47.7611 173.5,48.5C 170.146,46.8868 167.146,47.2202 164.5,49.5C 160.207,50.7492 158.541,53.4158 159.5,57.5C 162.976,56.0217 166.309,56.1884 169.5,58C 168.906,58.4643 168.239,58.631 167.5,58.5C 161.456,57.5765 157.456,59.9098 155.5,65.5C 153.167,63.8333 151.167,61.8333 149.5,59.5C 149.167,58.8333 148.833,58.1667 148.5,57.5C 145.783,52.1241 141.449,48.6241 135.5,47C 130.845,46.5008 126.179,46.3342 121.5,46.5C 123.255,37.4376 124.588,28.4376 125.5,19.5C 125.369,20.2389 125.536,20.9056 126,21.5C 131.836,16.4866 138.336,12.3199 145.5,9C 150.865,7.52777 156.199,7.3611 161.5,8.5C 157.077,16.3518 152.41,24.0185 147.5,31.5C 146.537,32.3635 146.537,33.0302 147.5,33.5C 149.833,32 152.167,30.5 154.5,29C 156.112,28.2797 157.612,28.4464 159,29.5C 159.333,28.5 159.667,27.5 160,26.5C 160.417,27.756 161.25,28.4226 162.5,28.5C 160.19,33.7113 159.19,39.0446 159.5,44.5C 161.327,37.5427 163.66,30.876 166.5,24.5C 169.594,19.9777 172.927,15.6443 176.5,11.5C 180.854,7.47813 185.187,3.47813 189.5,-0.5 Z"/></g>
<g><path style="opacity:1" fill="#17516d" d="M 191.5,16.5 C 188.973,18.6054 186.64,20.9387 184.5,23.5C 182.167,26.1667 179.833,28.8333 177.5,31.5C 179.767,24.2336 184.434,19.2336 191.5,16.5 Z"/></g>
<g><path style="opacity:1" fill="#7fccee" d="M 191.5,16.5 C 194.833,16.5 198.167,16.5 201.5,16.5C 206.53,22.5248 211.53,28.5248 216.5,34.5C 216.539,35.5832 216.873,36.5832 217.5,37.5C 215.223,38.4207 212.89,39.0874 210.5,39.5C 210.923,38.7354 211.257,37.9021 211.5,37C 210.004,35.6693 208.671,34.1693 207.5,32.5C 206.914,32.7093 206.414,33.0426 206,33.5C 203.005,30.7352 199.505,29.9019 195.5,31C 194.619,31.7083 193.953,32.5416 193.5,33.5C 191.597,33.7959 189.93,34.4625 188.5,35.5C 188.158,36.3382 187.492,36.6716 186.5,36.5C 184.629,36.8588 183.129,37.8588 182,39.5C 181.888,33.0423 184.054,27.3756 188.5,22.5C 188.333,22.1667 188.167,21.8333 188,21.5C 187.184,22.8228 186.017,23.4894 184.5,23.5C 186.64,20.9387 188.973,18.6054 191.5,16.5 Z"/></g>
<g><path style="opacity:1" fill="#245d7e" d="M 186.5,36.5 C 184.107,38.7361 182.273,41.4027 181,44.5C 180.333,40.8333 180.333,37.1667 181,33.5C 182.467,30.2416 183.633,26.9083 184.5,23.5C 186.017,23.4894 187.184,22.8228 188,21.5C 188.167,21.8333 188.333,22.1667 188.5,22.5C 184.054,27.3756 181.888,33.0423 182,39.5C 183.129,37.8588 184.629,36.8588 186.5,36.5 Z"/></g>
<g><path style="opacity:1" fill="#144e6a" d="M 201.5,16.5 C 208.64,20.6467 213.64,26.6467 216.5,34.5C 211.53,28.5248 206.53,22.5248 201.5,16.5 Z"/></g>
<g><path style="opacity:1" fill="#1ca7d5" d="M 195.5,13.5 C 193.878,14.1224 192.545,15.1224 191.5,16.5C 184.434,19.2336 179.767,24.2336 177.5,31.5C 176.274,35.7866 175.107,40.1199 174,44.5C 173.333,38.8333 173.333,33.1667 174,27.5C 177.729,20.1027 183.562,15.2693 191.5,13C 193.066,12.235 194.399,12.4017 195.5,13.5 Z"/></g>
<g><path style="opacity:1" fill="#13455d" d="M 195.5,13.5 C 196.167,13.5 196.833,13.5 197.5,13.5C 198.833,14.5 200.167,15.5 201.5,16.5C 198.167,16.5 194.833,16.5 191.5,16.5C 192.545,15.1224 193.878,14.1224 195.5,13.5 Z"/></g>
<g><path style="opacity:1" fill="#226785" d="M 222.5,13.5 C 225.5,15.8333 228.167,18.5 230.5,21.5C 226.833,19.8333 224.167,17.1667 222.5,13.5 Z"/></g>
<g><path style="opacity:1" fill="#276b8a" d="M 193.5,33.5 C 196.978,33.1842 200.312,33.6842 203.5,35C 202.934,35.9947 202.267,36.828 201.5,37.5C 201.167,37.5 200.833,37.5 200.5,37.5C 200.611,36.8826 200.944,36.3826 201.5,36C 197.179,35.501 192.846,35.3343 188.5,35.5C 189.93,34.4625 191.597,33.7959 193.5,33.5 Z"/></g>
<g><path style="opacity:1" fill="#a6e9f8" d="M 210.5,39.5 C 209.508,39.3284 208.842,39.6618 208.5,40.5C 207.5,40.5 206.5,40.5 205.5,40.5C 204.128,39.4884 202.795,38.4884 201.5,37.5C 202.267,36.828 202.934,35.9947 203.5,35C 200.312,33.6842 196.978,33.1842 193.5,33.5C 193.953,32.5416 194.619,31.7083 195.5,31C 199.505,29.9019 203.005,30.7352 206,33.5C 206.414,33.0426 206.914,32.7093 207.5,32.5C 208.671,34.1693 210.004,35.6693 211.5,37C 211.257,37.9021 210.923,38.7354 210.5,39.5 Z"/></g>
<g><path style="opacity:1" fill="#a5e8f9" d="M 80.5,57.5 C 80.6495,58.552 80.4828,59.552 80,60.5C 71.965,52.2976 63.7983,44.2976 55.5,36.5C 55.3713,34.7839 55.038,33.1172 54.5,31.5C 55.4345,30.4324 55.7678,29.099 55.5,27.5C 64.0997,27.5604 70.2664,31.5604 74,39.5C 75.1196,44.8822 76.453,50.2156 78,55.5C 78.7083,56.3805 79.5416,57.0472 80.5,57.5 Z"/></g>
<g><path style="opacity:1" fill="#18475e" d="M 117.5,-0.5 C 118.167,-0.5 118.833,-0.5 119.5,-0.5C 121.964,4.55934 123.63,9.89268 124.5,15.5C 136.07,4.53213 149.737,0.1988 165.5,2.5C 163.716,9.5672 160.716,16.0672 156.5,22C 159.701,21.2269 163.035,20.7269 166.5,20.5C 169.575,12.7502 173.909,5.7502 179.5,-0.5C 180.5,-0.5 181.5,-0.5 182.5,-0.5C 175.397,6.7076 170.064,15.0409 166.5,24.5C 163.66,30.876 161.327,37.5427 159.5,44.5C 159.19,39.0446 160.19,33.7113 162.5,28.5C 162.751,26.8297 163.418,25.3297 164.5,24C 157.683,23.8838 152.016,26.3838 147.5,31.5C 152.41,24.0185 157.077,16.3518 161.5,8.5C 162.028,7.27935 162.695,6.11268 163.5,5C 148.233,3.25227 135.566,8.0856 125.5,19.5C 124.588,28.4376 123.255,37.4376 121.5,46.5C 126.179,46.3342 130.845,46.5008 135.5,47C 141.449,48.6241 145.783,52.1241 148.5,57.5C 136.879,52.8468 125.879,54.0135 115.5,61C 111.606,64.4044 107.606,67.5711 103.5,70.5C 103.5,69.5 103.5,68.5 103.5,67.5C 105.103,67.6882 106.437,67.1882 107.5,66C 104.711,65.7586 102.044,65.092 99.5,64C 97.6499,61.9824 95.6499,60.1491 93.5,58.5C 92.4822,59.1925 91.4822,59.8592 90.5,60.5C 90.5106,58.9826 91.1772,57.8159 92.5,57C 85.6093,47.7744 79.1093,38.2744 73,28.5C 70.5,26 68,23.5 65.5,21C 61.3744,17.6227 57.7077,17.7893 54.5,21.5C 54.5,20.1667 53.8333,19.5 52.5,19.5C 52.9528,18.5416 53.6195,17.7083 54.5,17C 56.8098,16.5034 59.1432,16.3367 61.5,16.5C 65.2011,18.7823 68.7011,21.449 72,24.5C 79.9245,35.3593 87.5912,46.3593 95,57.5C 101.088,65.3672 107.088,65.3672 113,57.5C 117.132,49.2334 120.132,40.5667 122,31.5C 123.558,20.8853 122.058,10.8853 117.5,1.5C 117.5,0.833333 117.5,0.166667 117.5,-0.5 Z"/></g>
<g><path style="opacity:1" fill="#7de2f0" d="M 162.5,28.5 C 161.25,28.4226 160.417,27.756 160,26.5C 159.667,27.5 159.333,28.5 159,29.5C 157.612,28.4464 156.112,28.2797 154.5,29C 152.167,30.5 149.833,32 147.5,33.5C 146.537,33.0302 146.537,32.3635 147.5,31.5C 152.016,26.3838 157.683,23.8838 164.5,24C 163.418,25.3297 162.751,26.8297 162.5,28.5 Z"/></g>
<g><path style="opacity:1" fill="#7fe2f1" d="M 161.5,8.5 C 156.199,7.3611 150.865,7.52777 145.5,9C 138.336,12.3199 131.836,16.4866 126,21.5C 125.536,20.9056 125.369,20.2389 125.5,19.5C 135.566,8.0856 148.233,3.25227 163.5,5C 162.695,6.11268 162.028,7.27935 161.5,8.5 Z"/></g>
<g><path style="opacity:1" fill="#f2f6f6" d="M 119.5,-0.5 C 139.5,-0.5 159.5,-0.5 179.5,-0.5C 173.909,5.7502 169.575,12.7502 166.5,20.5C 163.035,20.7269 159.701,21.2269 156.5,22C 160.716,16.0672 163.716,9.5672 165.5,2.5C 149.737,0.1988 136.07,4.53213 124.5,15.5C 123.63,9.89268 121.964,4.55934 119.5,-0.5 Z"/></g>
<g><path style="opacity:1" fill="#18acdc" d="M 197.5,13.5 C 201.54,13.1181 205.207,14.1181 208.5,16.5C 219.458,26.0338 228.291,37.3671 235,50.5C 237.674,54.3401 240.841,57.6734 244.5,60.5C 251.753,65.7969 255.42,64.1302 255.5,55.5C 258.23,64.5444 254.897,68.7111 245.5,68C 238.973,62.8062 233.14,56.9729 228,50.5C 224.691,44.7064 220.858,39.3731 216.5,34.5C 213.64,26.6467 208.64,20.6467 201.5,16.5C 200.167,15.5 198.833,14.5 197.5,13.5 Z"/></g>
<g><path style="opacity:1" fill="#77bcd9" d="M 200.5,37.5 C 200.833,37.5 201.167,37.5 201.5,37.5C 202.795,38.4884 204.128,39.4884 205.5,40.5C 204.251,42.1361 202.584,43.3028 200.5,44C 198.21,45.7772 196.543,47.9438 195.5,50.5C 194.5,50.8333 193.833,51.5 193.5,52.5C 192.167,52.5 190.833,52.5 189.5,52.5C 192.263,47.9634 195.263,43.6301 198.5,39.5C 199.833,39.5 200.5,38.8333 200.5,37.5 Z"/></g>
<g><path style="opacity:1" fill="#fcfdfd" d="M 258.5,63.5 C 258.5,106.833 258.5,150.167 258.5,193.5C 233.833,193.5 209.167,193.5 184.5,193.5C 198.424,186.744 208.924,176.411 216,162.5C 216.739,164.221 217.573,165.887 218.5,167.5C 223.455,162.924 226.288,157.258 227,150.5C 228.417,157.654 230.417,157.987 233,151.5C 236.078,141.505 234.578,132.338 228.5,124C 225.928,121.713 222.928,120.547 219.5,120.5C 218.131,109.358 214.464,99.0245 208.5,89.5C 214.807,88.6694 221.141,88.1694 227.5,88C 228.591,85.9361 228.758,83.7695 228,81.5C 221.553,68.7196 212.053,58.8862 199.5,52C 206.738,44.3418 214.904,42.8418 224,47.5C 229.454,56.6208 236.62,64.1208 245.5,70C 252.165,72.002 256.499,69.8353 258.5,63.5 Z"/></g>
<g><path style="opacity:1" fill="#17abdd" d="M 52.5,19.5 C 53.8333,19.5 54.5,20.1667 54.5,21.5C 54.5,21.8333 54.5,22.1667 54.5,22.5C 53.8826,22.6107 53.3826,22.944 53,23.5C 52.3418,27.5715 52.6752,31.5715 54,35.5C 54.3826,36.056 54.8826,36.3893 55.5,36.5C 55.3433,37.8734 55.51,39.2068 56,40.5C 64.2916,46.7905 71.9583,53.7905 79,61.5C 80.7322,65.3634 82.0656,69.3634 83,73.5C 83.0812,66.9731 82.5812,60.4731 81.5,54C 81.8333,53.5 82.1667,53 82.5,52.5C 83.0389,55.202 84.3723,57.3687 86.5,59C 87.2392,63.1274 87.7392,67.294 88,71.5C 89.049,67.8675 89.8823,64.2008 90.5,60.5C 91.4822,59.8592 92.4822,59.1925 93.5,58.5C 95.6499,60.1491 97.6499,61.9824 99.5,64C 102.044,65.092 104.711,65.7586 107.5,66C 106.437,67.1882 105.103,67.6882 103.5,67.5C 103.5,68.5 103.5,69.5 103.5,70.5C 102.82,74.322 100.487,75.9886 96.5,75.5C 96.6287,77.2161 96.962,78.8828 97.5,80.5C 91.113,79.7421 84.7797,78.5754 78.5,77C 76.4056,76.1382 75.4056,74.9715 75.5,73.5C 74.8165,73.8627 74.1499,74.1961 73.5,74.5C 61.9743,69.6427 53.3077,61.6427 47.5,50.5C 48.4972,50.5299 49.1639,50.0299 49.5,49C 48.7936,46.3805 47.7936,43.8805 46.5,41.5C 46.9429,35.7072 47.9429,30.0405 49.5,24.5C 48.8333,23.1667 48.1667,21.8333 47.5,20.5C 49.1283,20.4214 50.7949,20.0881 52.5,19.5 Z"/></g>
<g><path style="opacity:1" fill="#34728b" d="M 173.5,48.5 C 174.167,49.1667 174.833,49.8333 175.5,50.5C 171.881,49.7564 168.215,49.423 164.5,49.5C 167.146,47.2202 170.146,46.8868 173.5,48.5 Z"/></g>
<g><path style="opacity:1" fill="#239fca" d="M 195.5,50.5 C 196.543,47.9438 198.21,45.7772 200.5,44C 202.584,43.3028 204.251,42.1361 205.5,40.5C 206.5,40.5 207.5,40.5 208.5,40.5C 211.219,40.6025 213.885,40.2692 216.5,39.5C 218.208,39.7028 219.541,40.5362 220.5,42C 212.084,42.469 204.751,45.469 198.5,51C 197.251,51.7401 196.251,51.5735 195.5,50.5 Z"/></g>
<g><path style="opacity:1" fill="#1f617e" d="M 198.5,39.5 C 195.263,43.6301 192.263,47.9634 189.5,52.5C 188.637,53.463 187.97,53.463 187.5,52.5C 188.127,51.5832 188.461,50.5832 188.5,49.5C 191.473,45.8604 194.806,42.5271 198.5,39.5 Z"/></g>
<g><path style="opacity:1" fill="#b5e4f4" d="M 120.5,48.5 C 125.844,48.334 131.177,48.5006 136.5,49C 138.5,50.3333 140.5,51.6667 142.5,53C 132.928,51.0493 124.095,52.8827 116,58.5C 116.646,54.8679 118.146,51.5345 120.5,48.5 Z"/></g>
<g><path style="opacity:1" fill="#216e90" d="M 55.5,36.5 C 63.7983,44.2976 71.965,52.2976 80,60.5C 80.4828,59.552 80.6495,58.552 80.5,57.5C 79.2504,54.994 78.5838,52.3274 78.5,49.5C 84.1867,51.366 87.6867,55.366 89,61.5C 89.3826,60.944 89.8826,60.6107 90.5,60.5C 89.8823,64.2008 89.049,67.8675 88,71.5C 87.7392,67.294 87.2392,63.1274 86.5,59C 84.3723,57.3687 83.0389,55.202 82.5,52.5C 82.1667,53 81.8333,53.5 81.5,54C 82.5812,60.4731 83.0812,66.9731 83,73.5C 82.0656,69.3634 80.7322,65.3634 79,61.5C 71.9583,53.7905 64.2916,46.7905 56,40.5C 55.51,39.2068 55.3433,37.8734 55.5,36.5 Z"/></g>
<g><path style="opacity:1" fill="#b5e2f2" d="M 164.5,49.5 C 168.215,49.423 171.881,49.7564 175.5,50.5C 177.223,52.2181 179.223,53.5514 181.5,54.5C 182.614,55.8853 183.614,57.3853 184.5,59C 180.968,59.2915 180.635,60.4582 183.5,62.5C 183.631,63.2389 183.464,63.9056 183,64.5C 181.549,62.5359 179.716,61.2026 177.5,60.5C 177.027,59.0937 176.027,58.427 174.5,58.5C 173.942,57.2101 172.942,56.3768 171.5,56C 167.789,55.8253 164.122,55.3253 160.5,54.5C 161.857,52.8144 163.19,51.1477 164.5,49.5 Z"/></g>
<g><path style="opacity:1" fill="#2d607e" d="M 181.5,54.5 C 184.163,56.0886 186.163,58.4219 187.5,61.5C 186.214,61.4764 184.88,61.8097 183.5,62.5C 180.635,60.4582 180.968,59.2915 184.5,59C 183.614,57.3853 182.614,55.8853 181.5,54.5 Z"/></g>
<g><path style="opacity:1" fill="#307894" d="M 164.5,49.5 C 163.19,51.1477 161.857,52.8144 160.5,54.5C 164.122,55.3253 167.789,55.8253 171.5,56C 172.942,56.3768 173.942,57.2101 174.5,58.5C 173.127,58.3433 171.793,58.51 170.5,59C 171.056,59.3826 171.389,59.8826 171.5,60.5C 169.847,60.3404 168.514,59.6737 167.5,58.5C 168.239,58.631 168.906,58.4643 169.5,58C 166.309,56.1884 162.976,56.0217 159.5,57.5C 158.541,53.4158 160.207,50.7492 164.5,49.5 Z"/></g>
<g><path style="opacity:1" fill="#fbfbfb" d="M 155.5,65.5 C 160.303,59.7891 165.97,58.9558 172.5,63C 191.511,75.5019 202.511,93.0019 205.5,115.5C 205.087,122.403 203.087,128.737 199.5,134.5C 194.883,135.559 190.716,137.559 187,140.5C 174.056,132.761 160.556,131.594 146.5,137C 144.253,138.277 142.253,139.777 140.5,141.5C 138.883,142.038 137.216,142.371 135.5,142.5C 132.01,139.585 128.01,137.418 123.5,136C 115.596,134.109 107.596,132.776 99.5,132C 98.9558,131.283 98.2891,130.783 97.5,130.5C 86.5021,111.053 88.6688,93.053 104,76.5C 109.713,71.0634 115.88,66.2301 122.5,62C 134.759,55.9573 145.593,57.7906 155,67.5C 155.464,66.9056 155.631,66.2389 155.5,65.5 Z"/></g>
<g><path style="opacity:1" fill="#31a7cb" d="M 148.5,57.5 C 148.833,58.1667 149.167,58.8333 149.5,59.5C 136.549,55.4192 124.549,57.2525 113.5,65C 107.815,70.2443 102.482,75.7443 97.5,81.5C 97.5,81.1667 97.5,80.8333 97.5,80.5C 96.962,78.8828 96.6287,77.2161 96.5,75.5C 100.487,75.9886 102.82,74.322 103.5,70.5C 107.606,67.5711 111.606,64.4044 115.5,61C 125.879,54.0135 136.879,52.8468 148.5,57.5 Z"/></g>
<g><path style="opacity:1" fill="#3ac7f2" d="M 188.5,49.5 C 188.461,50.5832 188.127,51.5832 187.5,52.5C 187.97,53.463 188.637,53.463 189.5,52.5C 190.833,52.5 192.167,52.5 193.5,52.5C 197.607,52.9246 201.274,54.4246 204.5,57C 200.167,57.3333 195.833,57.6667 191.5,58C 191.167,58.3333 190.833,58.6667 190.5,59C 192.709,60.8734 194.542,63.04 196,65.5C 196.624,63.5355 196.124,61.8689 194.5,60.5C 202.966,58.6406 210.132,60.9739 216,67.5C 221.018,72.5376 224.185,78.5376 225.5,85.5C 218.825,85.6663 212.158,85.4996 205.5,85C 204.244,84.5831 203.577,83.7498 203.5,82.5C 203.414,81.5041 203.748,80.6708 204.5,80C 200.472,77.6506 196.806,74.8173 193.5,71.5C 193.167,71.6667 192.833,71.8333 192.5,72C 196.114,75.1033 199.114,78.6033 201.5,82.5C 210.155,94.4802 215.488,107.814 217.5,122.5C 223.077,122.371 227.244,124.704 230,129.5C 231.964,136.859 231.964,144.192 230,151.5C 228.974,148.761 227.474,146.428 225.5,144.5C 224.972,143.279 224.305,142.113 223.5,141C 222.668,140.312 222.002,140.479 221.5,141.5C 222.522,142.354 223.355,143.354 224,144.5C 224.497,147.146 224.664,149.813 224.5,152.5C 220.461,167.48 217.794,167.147 216.5,151.5C 214.708,157.465 212.208,163.132 209,168.5C 207.296,170.373 205.463,172.04 203.5,173.5C 202.503,173.53 201.836,173.03 201.5,172C 202.414,170.594 203.08,169.094 203.5,167.5C 204.497,167.53 205.164,167.03 205.5,166C 206.751,160.088 206.418,154.254 204.5,148.5C 203.686,146.727 202.352,146.227 200.5,147C 202.077,149.86 201.41,152.027 198.5,153.5C 196.118,148.752 192.784,144.752 188.5,141.5C 191.745,138.711 195.412,136.711 199.5,135.5C 199.833,135.5 200.167,135.5 200.5,135.5C 204.182,135.665 207.848,135.499 211.5,135C 208.834,133.939 206.167,133.106 203.5,132.5C 208.825,119.038 208.325,105.705 202,92.5C 194.293,79.3574 184.126,68.6907 171.5,60.5C 171.389,59.8826 171.056,59.3826 170.5,59C 171.793,58.51 173.127,58.3433 174.5,58.5C 176.027,58.427 177.027,59.0937 177.5,60.5C 179.502,63.3338 182.002,65.6671 185,67.5C 185.599,65.4652 185.099,63.7985 183.5,62.5C 184.88,61.8097 186.214,61.4764 187.5,61.5C 186.163,58.4219 184.163,56.0886 181.5,54.5C 179.223,53.5514 177.223,52.2181 175.5,50.5C 174.833,49.8333 174.167,49.1667 173.5,48.5C 173.369,47.7611 173.536,47.0944 174,46.5C 174.667,47.8333 175.333,47.8333 176,46.5C 177.863,48.3762 179.363,50.5428 180.5,53C 182.488,53.1805 184.488,53.0138 186.5,52.5C 186.285,50.8212 186.952,49.8212 188.5,49.5 Z"/></g>
<g><path style="opacity:1" fill="#2a5a7c" d="M 177.5,60.5 C 179.716,61.2026 181.549,62.5359 183,64.5C 183.464,63.9056 183.631,63.2389 183.5,62.5C 185.099,63.7985 185.599,65.4652 185,67.5C 182.002,65.6671 179.502,63.3338 177.5,60.5 Z"/></g>
<g><path style="opacity:1" fill="#7ce3f3" d="M 47.5,76.5 C 41.145,78.6538 35.645,82.3205 31,87.5C 26.4458,92.6269 22.9458,98.2935 20.5,104.5C 23.0236,93.4473 29.0236,84.6139 38.5,78C 41.403,75.7124 44.403,75.2124 47.5,76.5 Z"/></g>
<g><path style="opacity:1" fill="#1e90c0" d="M 203.5,82.5 C 202.604,81.4937 201.938,81.4937 201.5,82.5C 199.114,78.6033 196.114,75.1033 192.5,72C 192.833,71.8333 193.167,71.6667 193.5,71.5C 196.806,74.8173 200.472,77.6506 204.5,80C 203.748,80.6708 203.414,81.5041 203.5,82.5 Z"/></g>
<g><path style="opacity:1" fill="#15171c" d="M 167.5,58.5 C 168.514,59.6737 169.847,60.3404 171.5,60.5C 184.126,68.6907 194.293,79.3574 202,92.5C 208.325,105.705 208.825,119.038 203.5,132.5C 202.167,133.167 201.167,134.167 200.5,135.5C 200.167,135.5 199.833,135.5 199.5,135.5C 199.5,135.167 199.5,134.833 199.5,134.5C 203.087,128.737 205.087,122.403 205.5,115.5C 202.511,93.0019 191.511,75.5019 172.5,63C 165.97,58.9558 160.303,59.7891 155.5,65.5C 157.456,59.9098 161.456,57.5765 167.5,58.5 Z"/></g>
<g><path style="opacity:1" fill="#131414" d="M 163.5,91.5 C 165.39,91.2965 166.89,91.9632 168,93.5C 172.303,100.969 172.636,108.635 169,116.5C 165.841,119.341 163.508,118.674 162,114.5C 158.269,106.497 158.769,98.8303 163.5,91.5 Z"/></g>
<g><path style="opacity:1" fill="#ebebeb" d="M 164.5,94.5 C 165.675,94.281 166.675,94.6143 167.5,95.5C 168.348,97.4086 168.682,99.4086 168.5,101.5C 167.325,101.719 166.325,101.386 165.5,100.5C 164.652,98.5914 164.318,96.5914 164.5,94.5 Z"/></g>
<g><path style="opacity:1" fill="#32cafa" d="M 44.5,50.5 C 50.5548,62.8902 60.2215,70.8902 73.5,74.5C 74.1499,74.1961 74.8165,73.8627 75.5,73.5C 75.4056,74.9715 76.4056,76.1382 78.5,77C 84.7797,78.5754 91.113,79.7421 97.5,80.5C 97.5,80.8333 97.5,81.1667 97.5,81.5C 92.2178,89.005 88.8845,97.3383 87.5,106.5C 87.5538,116.027 90.8872,124.027 97.5,130.5C 97.4142,131.496 97.7476,132.329 98.5,133C 91.8656,133.823 91.8656,134.323 98.5,134.5C 96.7078,135.309 94.7078,135.809 92.5,136C 93.5,136.333 94.5,136.667 95.5,137C 106.283,137.545 116.95,138.878 127.5,141C 132.004,143.689 136.337,146.522 140.5,149.5C 141.222,149.918 141.722,150.584 142,151.5C 142.741,148.981 141.908,147.315 139.5,146.5C 139.5,146.167 139.5,145.833 139.5,145.5C 146.106,142.908 152.773,140.408 159.5,138C 163.167,137.333 166.833,137.333 170.5,138C 171.737,138.232 172.737,138.732 173.5,139.5C 166.549,138.224 160.549,139.891 155.5,144.5C 154.422,150.755 156.422,155.922 161.5,160C 164.527,161.513 167.527,163.013 170.5,164.5C 171.145,165.812 172.145,166.812 173.5,167.5C 174.452,169.045 174.785,170.712 174.5,172.5C 171.716,176.736 167.716,179.236 162.5,180C 145.895,183.683 131.728,179.516 120,167.5C 117.359,163.884 115.526,159.884 114.5,155.5C 114.875,153.541 115.541,151.707 116.5,150C 114.465,149.401 112.799,149.901 111.5,151.5C 102.846,160.973 101.346,171.64 107,183.5C 107.667,182.167 108.333,180.833 109,179.5C 109.333,179.833 109.667,180.167 110,180.5C 110.348,184.18 111.515,187.514 113.5,190.5C 96.2259,188.44 82.2259,180.773 71.5,167.5C 71.6716,166.508 71.3382,165.842 70.5,165.5C 67.6331,169.62 66.2998,174.287 66.5,179.5C 63.7374,179.256 61.5707,177.923 60,175.5C 55.9158,168.143 55.4158,160.476 58.5,152.5C 60.6114,151.395 61.9447,149.729 62.5,147.5C 63.5841,144.723 62.4174,143.39 59,143.5C 56.8656,144.085 55.3656,145.418 54.5,147.5C 50.9797,141.045 52.6464,136.545 59.5,134C 61.8911,132.965 64.2244,132.798 66.5,133.5C 68.7594,133.216 70.4261,132.216 71.5,130.5C 70.4264,129.115 69.0931,127.949 67.5,127C 63.9984,126.718 60.6651,126.551 57.5,126.5C 59.1901,123.976 61.3568,121.976 64,120.5C 64.6667,119.833 64.6667,119.167 64,118.5C 57.3751,123.149 51.0418,128.149 45,133.5C 42.4562,125.52 43.2896,117.853 47.5,110.5C 49.4534,109.239 51.4534,108.073 53.5,107C 44.9871,108.5 36.3204,108.833 27.5,108C 25.6447,107.578 23.8114,107.078 22,106.5C 20.9701,106.164 20.4701,105.497 20.5,104.5C 22.9458,98.2935 26.4458,92.6269 31,87.5C 35.645,82.3205 41.145,78.6538 47.5,76.5C 50.1873,76.6641 52.854,76.4974 55.5,76C 46.0236,74.3636 38.0236,70.1969 31.5,63.5C 31.5228,61.4004 30.8561,59.5671 29.5,58C 33.6682,53.9159 38.6682,51.4159 44.5,50.5 Z"/></g>
<g><path style="opacity:1" fill="#0f0f0f" d="M 128.5,113.5 C 130.017,113.511 131.184,114.177 132,115.5C 133.797,113.326 133.964,110.993 132.5,108.5C 131.675,107.614 130.675,107.281 129.5,107.5C 129.923,109.781 129.256,111.448 127.5,112.5C 125.518,105.52 126.518,99.0204 130.5,93C 132.044,91.8129 133.711,91.4795 135.5,92C 137.894,93.9522 139.394,96.4522 140,99.5C 141.069,105.985 139.903,111.985 136.5,117.5C 132.293,119.299 129.626,117.966 128.5,113.5 Z"/></g>
<g><path style="opacity:1" fill="#ededed" d="M 132.5,94.5 C 136.976,94.8003 138.31,96.9669 136.5,101C 135.365,101.749 134.365,101.583 133.5,100.5C 132.652,98.5914 132.318,96.5914 132.5,94.5 Z"/></g>
<g><path style="opacity:1" fill="#14171b" d="M 149.5,59.5 C 151.167,61.8333 153.167,63.8333 155.5,65.5C 155.631,66.2389 155.464,66.9056 155,67.5C 145.593,57.7906 134.759,55.9573 122.5,62C 115.88,66.2301 109.713,71.0634 104,76.5C 88.6688,93.053 86.5021,111.053 97.5,130.5C 90.8872,124.027 87.5538,116.027 87.5,106.5C 88.8845,97.3383 92.2178,89.005 97.5,81.5C 102.482,75.7443 107.815,70.2443 113.5,65C 124.549,57.2525 136.549,55.4192 149.5,59.5 Z"/></g>
<g><path style="opacity:1" fill="#19465b" d="M 53.5,-0.5 C 69.1667,-0.5 84.8333,-0.5 100.5,-0.5C 100.5,-0.166667 100.5,0.166667 100.5,0.5C 96.3176,1.95156 91.9843,2.61823 87.5,2.5C 77.5705,0.781748 67.5705,0.281748 57.5,1C 47.8656,5.43349 42.5323,12.9335 41.5,23.5C 40.9619,33.1518 42.9619,42.1518 47.5,50.5C 53.3077,61.6427 61.9743,69.6427 73.5,74.5C 60.2215,70.8902 50.5548,62.8902 44.5,50.5C 44.516,48.5159 43.516,47.5159 41.5,47.5C 34.9466,48.4406 29.6132,51.4406 25.5,56.5C 26.8079,59.464 28.8079,61.7974 31.5,63.5C 38.0236,70.1969 46.0236,74.3636 55.5,76C 52.854,76.4974 50.1873,76.6641 47.5,76.5C 44.403,75.2124 41.403,75.7124 38.5,78C 29.0236,84.6139 23.0236,93.4473 20.5,104.5C 20.4701,105.497 20.9701,106.164 22,106.5C 23.8114,107.078 25.6447,107.578 27.5,108C 36.3204,108.833 44.9871,108.5 53.5,107C 51.4534,108.073 49.4534,109.239 47.5,110.5C 43.2896,117.853 42.4562,125.52 45,133.5C 51.0418,128.149 57.3751,123.149 64,118.5C 64.6667,119.167 64.6667,119.833 64,120.5C 61.3568,121.976 59.1901,123.976 57.5,126.5C 60.6651,126.551 63.9984,126.718 67.5,127C 69.0931,127.949 70.4264,129.115 71.5,130.5C 67.204,129.537 62.8706,129.371 58.5,130C 56.714,130.785 55.214,131.951 54,133.5C 48.3672,141.698 46.3672,150.698 48,160.5C 52.4423,155.477 57.2756,151.144 62.5,147.5C 61.9447,149.729 60.6114,151.395 58.5,152.5C 55.4158,160.476 55.9158,168.143 60,175.5C 61.5707,177.923 63.7374,179.256 66.5,179.5C 66.2998,174.287 67.6331,169.62 70.5,165.5C 69.8955,170.194 70.7289,174.528 73,178.5C 74.6196,180.241 76.1196,182.075 77.5,184C 82.0155,187.03 86.3488,190.197 90.5,193.5C 88.5,193.5 86.5,193.5 84.5,193.5C 81.7326,190.147 78.0659,188.647 73.5,189C 60.0964,188.029 46.7631,188.529 33.5,190.5C 32.8333,190.167 32.1667,189.833 31.5,189.5C 32.9213,186.991 34.5879,184.657 36.5,182.5C 27.7268,181.35 19.8934,178.017 13,172.5C 5.02645,162.25 2.19311,150.75 4.5,138C 2.32882,133.197 0.66215,128.364 -0.5,123.5C -0.5,119.833 -0.5,116.167 -0.5,112.5C 0.870892,109.433 2.53756,106.433 4.5,103.5C 5.93633,107.835 7.43633,112.168 9,116.5C 20.5189,125.932 33.1856,133.599 47,139.5C 49.2603,137.193 51.427,134.693 53.5,132C 51.0245,132.747 48.6911,134.081 46.5,136C 45.1667,136.667 43.8333,136.667 42.5,136C 39.5033,127.964 39.8366,120.13 43.5,112.5C 36.1434,111.803 28.8101,110.97 21.5,110C 20.5,109.5 19.5,109 18.5,108.5C 17.2271,104.45 17.3938,100.45 19,96.5C 24.0675,86.765 31.2342,78.9316 40.5,73C 33.4875,68.6542 27.8209,62.9875 23.5,56C 27.4232,49.697 33.0899,45.8636 40.5,44.5C 40.8333,43.6667 41.1667,42.8333 41.5,42C 35.3861,24.6966 39.3861,10.5299 53.5,-0.5 Z"/></g>
<g><path style="opacity:1" fill="#7ee3f3" d="M 44.5,50.5 C 38.6682,51.4159 33.6682,53.9159 29.5,58C 30.8561,59.5671 31.5228,61.4004 31.5,63.5C 28.8079,61.7974 26.8079,59.464 25.5,56.5C 29.6132,51.4406 34.9466,48.4406 41.5,47.5C 43.516,47.5159 44.516,48.5159 44.5,50.5 Z"/></g>
<g><path style="opacity:1" fill="#373a46" d="M 128.5,113.5 C 127.833,113.5 127.5,113.167 127.5,112.5C 129.256,111.448 129.923,109.781 129.5,107.5C 130.675,107.281 131.675,107.614 132.5,108.5C 133.964,110.993 133.797,113.326 132,115.5C 131.184,114.177 130.017,113.511 128.5,113.5 Z"/></g>
<g><path style="opacity:1" fill="#397693" d="M 203.5,132.5 C 206.167,133.106 208.834,133.939 211.5,135C 207.848,135.499 204.182,135.665 200.5,135.5C 201.167,134.167 202.167,133.167 203.5,132.5 Z"/></g>
<g><path style="opacity:1" fill="#7fe9f9" d="M 98.5,134.5 C 111.443,134.355 123.777,137.022 135.5,142.5C 136.5,144.167 137.833,145.5 139.5,146.5C 139.557,147.609 139.89,148.609 140.5,149.5C 136.337,146.522 132.004,143.689 127.5,141C 116.95,138.878 106.283,137.545 95.5,137C 94.5,136.667 93.5,136.333 92.5,136C 94.7078,135.809 96.7078,135.309 98.5,134.5 Z"/></g>
<g><path style="opacity:1" fill="#1b4453" d="M 97.5,130.5 C 98.2891,130.783 98.9558,131.283 99.5,132C 107.596,132.776 115.596,134.109 123.5,136C 128.01,137.418 132.01,139.585 135.5,142.5C 123.777,137.022 111.443,134.355 98.5,134.5C 91.8656,134.323 91.8656,133.823 98.5,133C 97.7476,132.329 97.4142,131.496 97.5,130.5 Z"/></g>
<g><path style="opacity:1" fill="#f9fafb" d="M -0.5,123.5 C 0.66215,128.364 2.32882,133.197 4.5,138C 2.19311,150.75 5.02645,162.25 13,172.5C 19.8934,178.017 27.7268,181.35 36.5,182.5C 34.5879,184.657 32.9213,186.991 31.5,189.5C 32.1667,189.833 32.8333,190.167 33.5,190.5C 46.7631,188.529 60.0964,188.029 73.5,189C 78.0659,188.647 81.7326,190.147 84.5,193.5C 56.1667,193.5 27.8333,193.5 -0.5,193.5C -0.5,170.167 -0.5,146.833 -0.5,123.5 Z"/></g>
<g><path style="opacity:1" fill="#7de2f1" d="M 187.5,143.5 C 186.833,143.5 186.5,143.833 186.5,144.5C 186.167,144.5 185.833,144.5 185.5,144.5C 184.657,142.827 183.324,141.66 181.5,141C 178.793,140.605 176.127,140.105 173.5,139.5C 172.737,138.732 171.737,138.232 170.5,138C 166.833,137.333 163.167,137.333 159.5,138C 152.773,140.408 146.106,142.908 139.5,145.5C 138.529,144.038 138.862,142.705 140.5,141.5C 154.523,134.13 168.856,133.63 183.5,140C 185.093,140.949 186.426,142.115 187.5,143.5 Z"/></g>
<g><path style="opacity:1" fill="#20545e" d="M 140.5,141.5 C 138.862,142.705 138.529,144.038 139.5,145.5C 139.5,145.833 139.5,146.167 139.5,146.5C 137.833,145.5 136.5,144.167 135.5,142.5C 137.216,142.371 138.883,142.038 140.5,141.5 Z"/></g>
<g><path style="opacity:1" fill="#217391" d="M 139.5,146.5 C 141.908,147.315 142.741,148.981 142,151.5C 141.722,150.584 141.222,149.918 140.5,149.5C 139.89,148.609 139.557,147.609 139.5,146.5 Z"/></g>
<g><path style="opacity:1" fill="#44cef4" d="M 71.5,130.5 C 70.4261,132.216 68.7594,133.216 66.5,133.5C 64.2244,132.798 61.8911,132.965 59.5,134C 52.6464,136.545 50.9797,141.045 54.5,147.5C 55.3656,145.418 56.8656,144.085 59,143.5C 62.4174,143.39 63.5841,144.723 62.5,147.5C 57.2756,151.144 52.4423,155.477 48,160.5C 46.3672,150.698 48.3672,141.698 54,133.5C 55.214,131.951 56.714,130.785 58.5,130C 62.8706,129.371 67.204,129.537 71.5,130.5 Z"/></g>
<g><path style="opacity:1" fill="#0c3246" d="M 173.5,139.5 C 176.127,140.105 178.793,140.605 181.5,141C 183.324,141.66 184.657,142.827 185.5,144.5C 185.833,144.5 186.167,144.5 186.5,144.5C 190.7,150.107 190.366,155.44 185.5,160.5C 183.405,161.412 181.405,162.579 179.5,164C 176.518,164.498 173.518,164.665 170.5,164.5C 167.527,163.013 164.527,161.513 161.5,160C 156.422,155.922 154.422,150.755 155.5,144.5C 160.549,139.891 166.549,138.224 173.5,139.5 Z"/></g>
<g><path style="opacity:1" fill="#164c5f" d="M 164.5,142.5 C 165.151,143.091 165.818,143.757 166.5,144.5C 172.435,143.117 178.101,143.784 183.5,146.5C 184.298,146.043 184.631,145.376 184.5,144.5C 184.833,144.5 185.167,144.5 185.5,144.5C 185.793,146.689 186.293,148.689 187,150.5C 184.923,149.042 182.59,148.376 180,148.5C 175.828,148.959 171.662,149.459 167.5,150C 165.579,150.36 163.912,151.194 162.5,152.5C 162.164,150.199 160.831,148.032 158.5,146C 159.337,144.989 159.67,143.822 159.5,142.5C 161.167,142.5 162.833,142.5 164.5,142.5 Z"/></g>
<g><path style="opacity:1" fill="#4b8798" d="M 164.5,142.5 C 169.316,141.35 174.316,141.184 179.5,142C 181.452,142.366 183.118,143.199 184.5,144.5C 184.631,145.376 184.298,146.043 183.5,146.5C 178.101,143.784 172.435,143.117 166.5,144.5C 165.818,143.757 165.151,143.091 164.5,142.5 Z"/></g>
<g><path style="opacity:1" fill="#35cbf9" d="M 46.5,144.5 C 44.0536,151.176 44.0536,157.842 46.5,164.5C 48.5241,162.642 50.6908,160.975 53,159.5C 53.4966,161.81 53.6633,164.143 53.5,166.5C 53.5,167.5 53.5,168.5 53.5,169.5C 46.2533,169.387 39.2533,168.053 32.5,165.5C 31.7025,165.043 31.3691,164.376 31.5,163.5C 32.0431,163.44 32.3764,163.107 32.5,162.5C 30.6667,158.833 28.8333,155.167 27,151.5C 26.3333,147.833 26.3333,144.167 27,140.5C 28.1171,138.876 29.6171,137.876 31.5,137.5C 36.6677,139.585 41.6677,141.919 46.5,144.5 Z"/></g>
<g><path style="opacity:1" fill="#a5e9f9" d="M 46.5,144.5 C 41.6677,141.919 36.6677,139.585 31.5,137.5C 29.6171,137.876 28.1171,138.876 27,140.5C 26.3333,144.167 26.3333,147.833 27,151.5C 28.8333,155.167 30.6667,158.833 32.5,162.5C 32.3764,163.107 32.0431,163.44 31.5,163.5C 26.5568,161.111 21.2234,159.777 15.5,159.5C 15.0935,155.915 13.2602,153.248 10,151.5C 9.83333,152.667 9.66667,153.833 9.5,155C 10.6849,160.056 12.3515,164.89 14.5,169.5C 7.0424,162.018 4.37574,153.018 6.5,142.5C 8.1878,144.854 10.1878,146.854 12.5,148.5C 7.6662,141.158 4.1662,133.158 2,124.5C 1.15204,118.644 1.81871,112.978 4,107.5C 4.79114,113.25 7.29114,118.083 11.5,122C 22.8121,128.993 34.4788,135.493 46.5,141.5C 47.5624,142.425 47.5624,143.425 46.5,144.5 Z"/></g>
<g><path style="opacity:1" fill="#2d5f71" d="M 12.5,148.5 C 15.3948,150.202 17.2281,152.536 18,155.5C 15.5464,153.559 13.713,151.225 12.5,148.5 Z"/></g>
<g><path style="opacity:1" fill="#1c475c" d="M 214.5,-0.5 C 215.167,-0.5 215.833,-0.5 216.5,-0.5C 217.852,3.02673 219.852,6.19339 222.5,9C 228.155,10.6654 233.822,12.3321 239.5,14C 242.295,15.7932 244.795,17.9598 247,20.5C 253.159,31.4972 256.993,43.1638 258.5,55.5C 258.5,58.1667 258.5,60.8333 258.5,63.5C 256.499,69.8353 252.165,72.002 245.5,70C 236.62,64.1208 229.454,56.6208 224,47.5C 214.904,42.8418 206.738,44.3418 199.5,52C 212.053,58.8862 221.553,68.7196 228,81.5C 228.758,83.7695 228.591,85.9361 227.5,88C 221.141,88.1694 214.807,88.6694 208.5,89.5C 214.464,99.0245 218.131,109.358 219.5,120.5C 222.928,120.547 225.928,121.713 228.5,124C 234.578,132.338 236.078,141.505 233,151.5C 230.417,157.987 228.417,157.654 227,150.5C 226.288,157.258 223.455,162.924 218.5,167.5C 217.573,165.887 216.739,164.221 216,162.5C 208.924,176.411 198.424,186.744 184.5,193.5C 182.833,193.5 181.167,193.5 179.5,193.5C 180.926,190.478 181.926,187.312 182.5,184C 182.6,180.196 180.934,177.529 177.5,176C 172.574,178.786 167.241,181.119 161.5,183C 145.349,185.329 131.183,181.162 119,170.5C 114.013,165.379 112.18,159.379 113.5,152.5C 113.043,151.702 112.376,151.369 111.5,151.5C 112.799,149.901 114.465,149.401 116.5,150C 115.541,151.707 114.875,153.541 114.5,155.5C 115.526,159.884 117.359,163.884 120,167.5C 131.728,179.516 145.895,183.683 162.5,180C 167.716,179.236 171.716,176.736 174.5,172.5C 175.675,171.026 176.675,169.36 177.5,167.5C 176.296,175.127 179.629,178.293 187.5,177C 189.544,176.502 190.878,175.335 191.5,173.5C 193.988,172.26 195.821,170.26 197,167.5C 199.094,157.362 195.927,149.362 187.5,143.5C 186.426,142.115 185.093,140.949 183.5,140C 168.856,133.63 154.523,134.13 140.5,141.5C 142.253,139.777 144.253,138.277 146.5,137C 160.556,131.594 174.056,132.761 187,140.5C 190.716,137.559 194.883,135.559 199.5,134.5C 199.5,134.833 199.5,135.167 199.5,135.5C 195.412,136.711 191.745,138.711 188.5,141.5C 192.784,144.752 196.118,148.752 198.5,153.5C 198.232,155.099 198.566,156.432 199.5,157.5C 199.665,160.85 199.498,164.183 199,167.5C 197.579,169.405 196.412,171.405 195.5,173.5C 192.518,176.617 188.851,178.617 184.5,179.5C 183.343,182.784 183.176,186.118 184,189.5C 191.134,186.049 197.467,181.382 203,175.5C 203.464,174.906 203.631,174.239 203.5,173.5C 205.463,172.04 207.296,170.373 209,168.5C 212.208,163.132 214.708,157.465 216.5,151.5C 217.794,167.147 220.461,167.48 224.5,152.5C 225.473,150.052 225.806,147.385 225.5,144.5C 227.474,146.428 228.974,148.761 230,151.5C 231.964,144.192 231.964,136.859 230,129.5C 227.244,124.704 223.077,122.371 217.5,122.5C 215.488,107.814 210.155,94.4802 201.5,82.5C 201.938,81.4937 202.604,81.4937 203.5,82.5C 203.577,83.7498 204.244,84.5831 205.5,85C 212.158,85.4996 218.825,85.6663 225.5,85.5C 224.185,78.5376 221.018,72.5376 216,67.5C 210.132,60.9739 202.966,58.6406 194.5,60.5C 196.124,61.8689 196.624,63.5355 196,65.5C 194.542,63.04 192.709,60.8734 190.5,59C 190.833,58.6667 191.167,58.3333 191.5,58C 195.833,57.6667 200.167,57.3333 204.5,57C 201.274,54.4246 197.607,52.9246 193.5,52.5C 193.833,51.5 194.5,50.8333 195.5,50.5C 196.251,51.5735 197.251,51.7401 198.5,51C 204.751,45.469 212.084,42.469 220.5,42C 219.541,40.5362 218.208,39.7028 216.5,39.5C 213.885,40.2692 211.219,40.6025 208.5,40.5C 208.842,39.6618 209.508,39.3284 210.5,39.5C 212.89,39.0874 215.223,38.4207 217.5,37.5C 216.873,36.5832 216.539,35.5832 216.5,34.5C 220.858,39.3731 224.691,44.7064 228,50.5C 233.14,56.9729 238.973,62.8062 245.5,68C 254.897,68.7111 258.23,64.5444 255.5,55.5C 255.078,48.7252 253.912,42.0586 252,35.5C 248.286,21.1299 238.953,13.1299 224,11.5C 222.97,11.8361 222.47,12.5028 222.5,13.5C 219.343,9.19443 216.676,4.52777 214.5,-0.5 Z"/></g>
<g><path style="opacity:1" fill="#a2e9f9" d="M 204.5,148.5 C 206.418,154.254 206.751,160.088 205.5,166C 205.164,167.03 204.497,167.53 203.5,167.5C 203.649,166.448 203.483,165.448 203,164.5C 201.713,168.612 199.213,171.612 195.5,173.5C 196.412,171.405 197.579,169.405 199,167.5C 199.498,164.183 199.665,160.85 199.5,157.5C 199.351,156.448 199.517,155.448 200,154.5C 201.491,152.336 202.991,150.336 204.5,148.5 Z"/></g>
<g><path style="opacity:1" fill="#41889e" d="M 204.5,148.5 C 202.991,150.336 201.491,152.336 200,154.5C 199.517,155.448 199.351,156.448 199.5,157.5C 198.566,156.432 198.232,155.099 198.5,153.5C 201.41,152.027 202.077,149.86 200.5,147C 202.352,146.227 203.686,146.727 204.5,148.5 Z"/></g>
<g><path style="opacity:1" fill="#1c648e" d="M 225.5,144.5 C 225.806,147.385 225.473,150.052 224.5,152.5C 224.664,149.813 224.497,147.146 224,144.5C 223.355,143.354 222.522,142.354 221.5,141.5C 222.002,140.479 222.668,140.312 223.5,141C 224.305,142.113 224.972,143.279 225.5,144.5 Z"/></g>
<g><path style="opacity:1" fill="#7cd2f3" d="M 31.5,163.5 C 29.2132,164.355 26.8799,164.522 24.5,164C 25.8333,164.667 26.8333,165.667 27.5,167C 27,167.167 26.5,167.333 26,167.5C 23.5661,166.678 21.0661,166.344 18.5,166.5C 18.7377,170.138 20.4044,172.971 23.5,175C 22.9056,175.464 22.2389,175.631 21.5,175.5C 18.1125,174.652 15.7791,172.652 14.5,169.5C 12.3515,164.89 10.6849,160.056 9.5,155C 9.66667,153.833 9.83333,152.667 10,151.5C 13.2602,153.248 15.0935,155.915 15.5,159.5C 21.2234,159.777 26.5568,161.111 31.5,163.5 Z"/></g>
<g><path style="opacity:1" fill="#33c9f8" d="M 187.5,143.5 C 195.927,149.362 199.094,157.362 197,167.5C 195.821,170.26 193.988,172.26 191.5,173.5C 188.09,173.782 184.757,174.449 181.5,175.5C 180.448,173.458 179.781,171.292 179.5,169C 180.929,165.742 182.929,162.908 185.5,160.5C 190.366,155.44 190.7,150.107 186.5,144.5C 186.5,143.833 186.833,143.5 187.5,143.5 Z"/></g>
<g><path style="opacity:1" fill="#1ea2d0" d="M 185.5,160.5 C 182.929,162.908 180.929,165.742 179.5,169C 179.781,171.292 180.448,173.458 181.5,175.5C 184.757,174.449 188.09,173.782 191.5,173.5C 190.878,175.335 189.544,176.502 187.5,177C 179.629,178.293 176.296,175.127 177.5,167.5C 176.675,169.36 175.675,171.026 174.5,172.5C 174.785,170.712 174.452,169.045 173.5,167.5C 172.145,166.812 171.145,165.812 170.5,164.5C 173.518,164.665 176.518,164.498 179.5,164C 181.405,162.579 183.405,161.412 185.5,160.5 Z"/></g>
<g><path style="opacity:1" fill="#30aedd" d="M 31.5,163.5 C 31.3691,164.376 31.7025,165.043 32.5,165.5C 39.2533,168.053 46.2533,169.387 53.5,169.5C 53.5,168.5 53.5,167.5 53.5,166.5C 55.6322,172.84 59.2988,178.34 64.5,183C 65.448,183.483 66.448,183.649 67.5,183.5C 67.2308,181.571 67.7308,179.905 69,178.5C 70.9555,180.911 72.7888,183.411 74.5,186C 63.1516,186.256 51.8183,186.756 40.5,187.5C 39.1667,187.167 37.8333,186.833 36.5,186.5C 38.4274,182.741 41.4274,180.241 45.5,179C 43.0946,178.852 40.7613,179.352 38.5,180.5C 34.2041,179.474 29.8708,178.641 25.5,178C 23.9336,177.392 22.6002,176.558 21.5,175.5C 22.2389,175.631 22.9056,175.464 23.5,175C 20.4044,172.971 18.7377,170.138 18.5,166.5C 21.0661,166.344 23.5661,166.678 26,167.5C 26.5,167.333 27,167.167 27.5,167C 26.8333,165.667 25.8333,164.667 24.5,164C 26.8799,164.522 29.2132,164.355 31.5,163.5 Z"/></g>
<g><path style="opacity:1" fill="#76caf0" d="M 203.5,167.5 C 203.08,169.094 202.414,170.594 201.5,172C 201.836,173.03 202.503,173.53 203.5,173.5C 203.631,174.239 203.464,174.906 203,175.5C 197.467,181.382 191.134,186.049 184,189.5C 183.176,186.118 183.343,182.784 184.5,179.5C 188.851,178.617 192.518,176.617 195.5,173.5C 199.213,171.612 201.713,168.612 203,164.5C 203.483,165.448 203.649,166.448 203.5,167.5 Z"/></g>
<g><path style="opacity:1" fill="#a3e8fa" d="M 111.5,151.5 C 112.376,151.369 113.043,151.702 113.5,152.5C 112.18,159.379 114.013,165.379 119,170.5C 131.183,181.162 145.349,185.329 161.5,183C 167.241,181.119 172.574,178.786 177.5,176C 180.934,177.529 182.6,180.196 182.5,184C 181.926,187.312 180.926,190.478 179.5,193.5C 174.167,193.5 168.833,193.5 163.5,193.5C 163.721,192.265 164.388,191.265 165.5,190.5C 165.167,189.5 164.5,188.833 163.5,188.5C 161.118,190.071 158.451,190.904 155.5,191C 142.171,191.5 128.837,191.667 115.5,191.5C 114.833,191.167 114.167,190.833 113.5,190.5C 111.515,187.514 110.348,184.18 110,180.5C 109.667,180.167 109.333,179.833 109,179.5C 108.333,180.833 107.667,182.167 107,183.5C 101.346,171.64 102.846,160.973 111.5,151.5 Z"/></g>
<g><path style="opacity:1" fill="#1a8dc0" d="M 70.5,165.5 C 71.3382,165.842 71.6716,166.508 71.5,167.5C 71.3398,169.199 71.5065,170.866 72,172.5C 74.3076,175.975 76.8076,179.308 79.5,182.5C 86.3278,186.24 92.9945,189.906 99.5,193.5C 96.5,193.5 93.5,193.5 90.5,193.5C 86.3488,190.197 82.0155,187.03 77.5,184C 76.1196,182.075 74.6196,180.241 73,178.5C 70.7289,174.528 69.8955,170.194 70.5,165.5 Z"/></g>
<g><path style="opacity:1" fill="#16acde" d="M 71.5,167.5 C 82.2259,180.773 96.2259,188.44 113.5,190.5C 114.167,190.833 114.833,191.167 115.5,191.5C 115.5,192.167 115.5,192.833 115.5,193.5C 110.167,193.5 104.833,193.5 99.5,193.5C 92.9945,189.906 86.3278,186.24 79.5,182.5C 76.8076,179.308 74.3076,175.975 72,172.5C 71.5065,170.866 71.3398,169.199 71.5,167.5 Z"/></g>
<g><path style="opacity:1" fill="#80d2f6" d="M 163.5,193.5 C 147.5,193.5 131.5,193.5 115.5,193.5C 115.5,192.833 115.5,192.167 115.5,191.5C 128.837,191.667 142.171,191.5 155.5,191C 158.451,190.904 161.118,190.071 163.5,188.5C 164.5,188.833 165.167,189.5 165.5,190.5C 164.388,191.265 163.721,192.265 163.5,193.5 Z"/></g>
</svg>
