<?xml version="1.0" encoding="UTF-8"?>
<!DOCTYPE svg PUBLIC "-//W3C//DTD SVG 1.1//EN" "http://www.w3.org/Graphics/SVG/1.1/DTD/svg11.dtd">
<svg xmlns="http://www.w3.org/2000/svg" version="1.1" width="228px" height="221px" style="shape-rendering:geometricPrecision; text-rendering:geometricPrecision; image-rendering:optimizeQuality; fill-rule:evenodd; clip-rule:evenodd" xmlns:xlink="http://www.w3.org/1999/xlink">
<g><path style="opacity:1" fill="#fdfdfd" d="M -0.5,-0.5 C 75.5,-0.5 151.5,-0.5 227.5,-0.5C 227.5,73.1667 227.5,146.833 227.5,220.5C 151.5,220.5 75.5,220.5 -0.5,220.5C -0.5,146.833 -0.5,73.1667 -0.5,-0.5 Z"/></g>
<g><path style="opacity:1" fill="#816025" d="M 70.5,51.5 C 67.8567,32.3138 75.5234,19.1471 93.5,12C 87.857,19.5955 85.0237,28.0955 85,37.5C 94.0757,19.0313 108.909,8.53132 129.5,6C 137.605,5.06555 145.605,5.39888 153.5,7C 143.653,10.1451 136.653,15.9785 132.5,24.5C 142.939,19.4269 153.939,17.5935 165.5,19C 175.239,21.203 184.572,24.5364 193.5,29C 185.711,30.2074 178.377,32.7074 171.5,36.5C 178.883,37.1271 185.549,39.6271 191.5,44C 199.37,51.0374 206.37,58.8708 212.5,67.5C 205.524,68.3311 198.524,68.8311 191.5,69C 199.762,74.27 205.429,81.6033 208.5,91C 208.167,91.5 207.833,92 207.5,92.5C 202.886,90.9624 198.22,90.1291 193.5,90C 209.32,109.132 215.153,130.965 211,155.5C 198.111,182.383 177.278,199.883 148.5,208C 124.641,211.757 100.974,210.757 77.5,205C 54.602,196.424 41.7687,179.924 39,155.5C 35.1759,159.814 31.8425,164.481 29,169.5C 26.543,158.3 25.8764,146.966 27,135.5C 27.8725,132.382 29.0392,129.382 30.5,126.5C 30.1667,126.167 29.8333,125.833 29.5,125.5C 21.9132,128.797 14.2465,131.797 6.5,134.5C 9.20171,116.642 17.8684,102.476 32.5,92C 22.7596,91.9212 13.093,91.2546 3.5,90C 11.1821,79.4722 21.1821,71.8055 33.5,67C 38.654,64.7562 43.9873,63.0895 49.5,62C 43.0031,58.5859 36.6697,54.9192 30.5,51C 34.1982,48.8784 38.1982,47.545 42.5,47C 50.5394,46.4706 58.5394,46.4706 66.5,47C 63.496,42.9861 62.3293,38.4861 63,33.5C 64.1412,40.1098 66.6412,46.1098 70.5,51.5 Z"/></g>
<g><path style="opacity:1" fill="#f1b511" d="M 157.5,43.5 C 171.89,43.5244 182.89,49.5244 190.5,61.5C 182.111,55.9722 173.111,51.4722 163.5,48C 158.547,47.0046 153.547,46.3379 148.5,46C 149.563,44.8118 150.897,44.3118 152.5,44.5C 154.216,44.3713 155.883,44.038 157.5,43.5 Z"/></g>
<g><path style="opacity:1" fill="#fbfac6" d="M 179.5,68.5 C 178.609,69.1098 177.609,69.4431 176.5,69.5C 175.5,69.1667 174.833,68.5 174.5,67.5C 180.141,66.0675 185.475,64.0675 190.5,61.5C 182.89,49.5244 171.89,43.5244 157.5,43.5C 173.446,37.417 186.946,41.0837 198,54.5C 200.692,57.6919 203.192,61.0252 205.5,64.5C 196.646,64.9964 187.98,66.3297 179.5,68.5 Z"/></g>
<g><path style="opacity:1" fill="#f4b817" d="M 76.5,31.5 C 76.1052,39.2305 78.4386,45.8972 83.5,51.5C 83.5,51.8333 83.5,52.1667 83.5,52.5C 83.5,53.1667 83.8333,53.5 84.5,53.5C 84.741,56.999 83.9076,57.3323 82,54.5C 78.619,49.73 75.7857,44.73 73.5,39.5C 73.7329,36.4582 74.7329,33.7916 76.5,31.5 Z"/></g>
<g><path style="opacity:1" fill="#f6b812" d="M 99.5,30.5 C 99.5,31.1667 99.5,31.8333 99.5,32.5C 95.5857,36.6878 91.919,41.0212 88.5,45.5C 90.1284,40.9099 92.2951,36.5765 95,32.5C 96.1096,30.9632 97.6096,30.2965 99.5,30.5 Z"/></g>
<g><path style="opacity:1" fill="#f7ed9b" d="M 83.5,51.5 C 78.4386,45.8972 76.1052,39.2305 76.5,31.5C 78.3885,24.8659 82.0552,20.1993 87.5,17.5C 84.8563,21.1212 83.023,25.1212 82,29.5C 80.99,37.0014 81.49,44.3348 83.5,51.5 Z"/></g>
<g><path style="opacity:1" fill="#fde934" d="M 119.5,26.5 C 117.971,31.0905 116.637,35.7572 115.5,40.5C 115.833,41.1667 116.167,41.8333 116.5,42.5C 118.725,40.89 121.059,39.5566 123.5,38.5C 127.145,37.0127 130.812,35.5127 134.5,34C 142.929,33.1604 151.263,31.9937 159.5,30.5C 159.833,30.5 160.167,30.5 160.5,30.5C 162.715,31.2679 165.048,31.9346 167.5,32.5C 164.312,34.9319 161.312,37.5985 158.5,40.5C 156.205,41.4746 154.205,42.8079 152.5,44.5C 150.897,44.3118 149.563,44.8118 148.5,46C 153.547,46.3379 158.547,47.0046 163.5,48C 173.111,51.4722 182.111,55.9722 190.5,61.5C 185.475,64.0675 180.141,66.0675 174.5,67.5C 172.629,67.1412 171.129,66.1412 170,64.5C 169.601,64.7284 169.435,65.0618 169.5,65.5C 166.852,64.3275 164.185,63.4941 161.5,63C 167.092,68.7511 172.092,74.9178 176.5,81.5C 171.669,78.1888 166.669,75.0221 161.5,72C 152.127,68.7451 142.793,68.7451 133.5,72C 131.19,73.6374 129.69,75.804 129,78.5C 127.363,76.1898 125.196,74.6898 122.5,74C 111.231,72.479 101.564,75.6457 93.5,83.5C 89.8271,81.0041 85.8271,79.1707 81.5,78C 83.0074,77.1627 83.5074,75.9961 83,74.5C 81.6152,75.5505 80.6152,76.8839 80,78.5C 79.7508,77.376 79.2508,76.376 78.5,75.5C 73.248,73.0443 68.248,70.3777 63.5,67.5C 64.791,67.7373 65.791,67.404 66.5,66.5C 70.5838,66.9559 74.5838,67.4559 78.5,68C 76.8043,66.8236 75.1376,65.657 73.5,64.5C 73.3893,63.8826 73.056,63.3826 72.5,63C 63.3551,61.7806 54.6884,59.2806 46.5,55.5C 56.124,54.2166 65.7907,54.2166 75.5,55.5C 77.144,56.3657 78.8107,56.8657 80.5,57C 74.9413,52.4967 72.608,46.6634 73.5,39.5C 75.7857,44.73 78.619,49.73 82,54.5C 83.9076,57.3323 84.741,56.999 84.5,53.5C 85.8333,50.8333 87.1667,48.1667 88.5,45.5C 91.919,41.0212 95.5857,36.6878 99.5,32.5C 100.167,32.8333 100.833,33.1667 101.5,33.5C 101.5,32.8333 101.5,32.1667 101.5,31.5C 106.695,26.9766 112.529,23.3099 119,20.5C 119.5,20.8333 120,21.1667 120.5,21.5C 119.691,23.0709 119.357,24.7376 119.5,26.5 Z"/></g>
<g><path style="opacity:1" fill="#fffbde" d="M 101.5,33.5 C 103.129,34.6253 104.629,35.9586 106,37.5C 106.671,36.7476 107.504,36.4142 108.5,36.5C 108.077,37.2646 107.743,38.0979 107.5,39C 108.85,41.6013 110.017,44.1013 111,46.5C 109.281,44.4429 107.281,42.7763 105,41.5C 102.567,43.1377 100.067,44.3044 97.5,45C 99.539,42.6255 101.872,40.6255 104.5,39C 103.242,37.2591 102.242,35.4258 101.5,33.5 Z"/></g>
<g><path style="opacity:1" fill="#faef9d" d="M 158.5,40.5 C 161.312,37.5985 164.312,34.9319 167.5,32.5C 172.991,29.8594 172.824,29.1928 167,30.5C 166.283,29.9558 165.783,29.2891 165.5,28.5C 164.72,25.8992 163.054,23.8992 160.5,22.5C 160.167,22.6667 159.833,22.8333 159.5,23C 160.843,25.2322 162.51,27.0655 164.5,28.5C 162.938,28.7329 161.605,29.3995 160.5,30.5C 160.167,30.5 159.833,30.5 159.5,30.5C 159.953,29.5416 160.619,28.7083 161.5,28C 156.528,26.1826 151.528,26.1826 146.5,28C 140.978,29.6168 135.645,31.6168 130.5,34C 127.761,35.0259 125.428,36.5259 123.5,38.5C 121.059,39.5566 118.725,40.89 116.5,42.5C 116.167,41.8333 115.833,41.1667 115.5,40.5C 116.637,35.7572 117.971,31.0905 119.5,26.5C 122.469,23.3581 125.302,20.0247 128,16.5C 128.591,15.5165 128.257,14.8499 127,14.5C 115.906,16.9489 106.739,22.2822 99.5,30.5C 97.6096,30.2965 96.1096,30.9632 95,32.5C 92.2951,36.5765 90.1284,40.9099 88.5,45.5C 87.1667,48.1667 85.8333,50.8333 84.5,53.5C 83.8333,53.5 83.5,53.1667 83.5,52.5C 86.0052,42.8459 90.3386,34.0126 96.5,26C 110.019,14.4078 125.685,8.74118 143.5,9C 132.449,14.8428 125.115,23.3428 121.5,34.5C 131.149,28.6768 141.482,24.5102 152.5,22C 163.676,21.1257 174.343,23.1257 184.5,28C 175.69,31.9055 167.023,36.0721 158.5,40.5 Z"/></g>
<g><path style="opacity:1" fill="#fff5a8" d="M 108.5,36.5 C 109.562,34.2435 111.228,33.0768 113.5,33C 112.211,34.8022 110.544,35.9688 108.5,36.5 Z"/></g>
<g><path style="opacity:1" fill="#fdeab5" d="M 99.5,30.5 C 100.167,30.8333 100.833,31.1667 101.5,31.5C 101.5,32.1667 101.5,32.8333 101.5,33.5C 100.833,33.1667 100.167,32.8333 99.5,32.5C 99.5,31.8333 99.5,31.1667 99.5,30.5 Z"/></g>
<g><path style="opacity:1" fill="#f6b817" d="M 164.5,28.5 C 164.833,28.5 165.167,28.5 165.5,28.5C 165.783,29.2891 166.283,29.9558 167,30.5C 172.824,29.1928 172.991,29.8594 167.5,32.5C 165.048,31.9346 162.715,31.2679 160.5,30.5C 161.605,29.3995 162.938,28.7329 164.5,28.5 Z"/></g>
<g><path style="opacity:1" fill="#f6b917" d="M 159.5,30.5 C 151.263,31.9937 142.929,33.1604 134.5,34C 130.812,35.5127 127.145,37.0127 123.5,38.5C 125.428,36.5259 127.761,35.0259 130.5,34C 135.645,31.6168 140.978,29.6168 146.5,28C 151.528,26.1826 156.528,26.1826 161.5,28C 160.619,28.7083 159.953,29.5416 159.5,30.5 Z"/></g>
<g><path style="opacity:1" fill="#fffcf0" d="M 165.5,28.5 C 165.167,28.5 164.833,28.5 164.5,28.5C 162.51,27.0655 160.843,25.2322 159.5,23C 159.833,22.8333 160.167,22.6667 160.5,22.5C 163.054,23.8992 164.72,25.8992 165.5,28.5 Z"/></g>
<g><path style="opacity:1" fill="#f6b913" d="M 119.5,26.5 C 119.357,24.7376 119.691,23.0709 120.5,21.5C 120,21.1667 119.5,20.8333 119,20.5C 112.529,23.3099 106.695,26.9766 101.5,31.5C 100.833,31.1667 100.167,30.8333 99.5,30.5C 106.739,22.2822 115.906,16.9489 127,14.5C 128.257,14.8499 128.591,15.5165 128,16.5C 125.302,20.0247 122.469,23.3581 119.5,26.5 Z"/></g>
<g><path style="opacity:1" fill="#f7ed9a" d="M 70.5,51.5 C 72.6616,52.1276 74.3282,53.461 75.5,55.5C 65.7907,54.2166 56.124,54.2166 46.5,55.5C 42.954,54.728 39.6207,53.3947 36.5,51.5C 41.0495,50.0898 45.7162,49.4231 50.5,49.5C 57.202,49.8863 63.8686,50.553 70.5,51.5 Z"/></g>
<g><path style="opacity:1" fill="#af942b" d="M 148.5,55.5 C 146.073,55.477 143.74,54.977 141.5,54C 144.139,53.4119 146.473,53.9119 148.5,55.5 Z"/></g>
<g><path style="opacity:1" fill="#8d6e26" d="M 127.5,53.5 C 128.873,53.3433 130.207,53.51 131.5,54C 127.648,55.5202 125.815,58.3535 126,62.5C 125.212,59.2281 125.712,56.2281 127.5,53.5 Z"/></g>
<g><path style="opacity:1" fill="#937528" d="M 148.5,55.5 C 152.538,56.0198 155.872,57.8531 158.5,61C 154.861,59.8925 151.527,58.0591 148.5,55.5 Z"/></g>
<g><path style="opacity:1" fill="#997b29" d="M 104.5,57.5 C 107.32,57.2475 109.986,57.7475 112.5,59C 116.415,64.1736 116.082,64.5069 111.5,60C 107.806,59.7221 104.139,59.7221 100.5,60C 102.066,59.3918 103.4,58.5585 104.5,57.5 Z"/></g>
<g><path style="opacity:1" fill="#977a29" d="M 96.5,61.5 C 98.9752,61.7467 98.9752,62.4134 96.5,63.5C 95.537,63.0302 95.537,62.3635 96.5,61.5 Z"/></g>
<g><path style="opacity:1" fill="#fcf09c" d="M 73.5,64.5 C 75.1376,65.657 76.8043,66.8236 78.5,68C 74.5838,67.4559 70.5838,66.9559 66.5,66.5C 55.2264,67.322 44.3931,69.9886 34,74.5C 32.9701,74.8361 32.4701,75.5028 32.5,76.5C 31.8826,76.3893 31.3826,76.056 31,75.5C 27.1676,78.3272 23.3343,80.3272 19.5,81.5C 21.576,79.4848 23.576,77.4848 25.5,75.5C 40.0003,65.5426 56.0003,61.876 73.5,64.5 Z"/></g>
<g><path style="opacity:1" fill="#fcfac6" d="M 169.5,65.5 C 185.841,80.6754 198.008,98.6754 206,119.5C 211.918,137.579 209.418,154.246 198.5,169.5C 196.611,170.604 194.945,171.937 193.5,173.5C 192.202,174.116 191.202,174.116 190.5,173.5C 193.334,168.832 195.334,163.832 196.5,158.5C 200.672,144.08 200.339,129.747 195.5,115.5C 195.363,108.213 193.196,101.547 189,95.5C 184.226,91.2343 180.059,86.5676 176.5,81.5C 172.092,74.9178 167.092,68.7511 161.5,63C 164.185,63.4941 166.852,64.3275 169.5,65.5 Z"/></g>
<g><path style="opacity:1" fill="#fee32f" d="M 63.5,67.5 C 68.248,70.3777 73.248,73.0443 78.5,75.5C 79.2508,76.376 79.7508,77.376 80,78.5C 80.6152,76.8839 81.6152,75.5505 83,74.5C 83.5074,75.9961 83.0074,77.1627 81.5,78C 85.8271,79.1707 89.8271,81.0041 93.5,83.5C 87.8553,88.8153 83.1887,94.8153 79.5,101.5C 78.3259,99.5591 76.6592,98.0591 74.5,97C 62.2539,90.6273 50.0873,84.1273 38,77.5C 37.2917,78.3805 36.4584,79.0472 35.5,79.5C 35.5,79.1667 35.5,78.8333 35.5,78.5C 35.9528,77.5416 36.6195,76.7083 37.5,76C 45.7592,71.8579 54.4258,69.0246 63.5,67.5 Z"/></g>
<g><path style="opacity:1" fill="#c9b02d" d="M 90.5,65.5 C 91.2389,65.369 91.9056,65.5357 92.5,66C 90,68.5 87.5,71 85,73.5C 84.3333,72.8333 84.3333,72.1667 85,71.5C 87.0396,69.6298 88.8729,67.6298 90.5,65.5 Z"/></g>
<g><path style="opacity:1" fill="#f9ee9b" d="M 179.5,68.5 C 190.889,71.7061 199.556,78.5395 205.5,89C 203.428,89.0363 201.428,88.5363 199.5,87.5C 196.053,81.387 191.053,77.0536 184.5,74.5C 183.292,73.7659 181.959,73.4326 180.5,73.5C 178.833,72.5 177.5,71.1667 176.5,69.5C 177.609,69.4431 178.609,69.1098 179.5,68.5 Z"/></g>
<g><path style="opacity:1" fill="#f6ba16" d="M 66.5,66.5 C 65.791,67.404 64.791,67.7373 63.5,67.5C 54.4258,69.0246 45.7592,71.8579 37.5,76C 36.6195,76.7083 35.9528,77.5416 35.5,78.5C 34.5,77.8333 33.5,77.1667 32.5,76.5C 32.4701,75.5028 32.9701,74.8361 34,74.5C 44.3931,69.9886 55.2264,67.322 66.5,66.5 Z"/></g>
<g><path style="opacity:1" fill="#f6ba15" d="M 184.5,74.5 C 191.053,77.0536 196.053,81.387 199.5,87.5C 199.167,87.5 198.833,87.5 198.5,87.5C 194.435,82.4317 189.768,78.0984 184.5,74.5 Z"/></g>
<g><path style="opacity:1" fill="#f0b30c" d="M 25.5,75.5 C 23.576,77.4848 21.576,79.4848 19.5,81.5C 23.3343,80.3272 27.1676,78.3272 31,75.5C 31.3826,76.056 31.8826,76.3893 32.5,76.5C 32.5,77.1667 32.5,77.8333 32.5,78.5C 29.6987,79.7347 27.0321,81.2347 24.5,83C 33.8333,85.3333 43.1667,87.6667 52.5,90C 53.056,90.3826 53.3893,90.8826 53.5,91.5C 38.5243,90.1044 23.5243,88.9378 8.5,88C 13.501,82.8186 19.1677,78.652 25.5,75.5 Z"/></g>
<g><path style="opacity:1" fill="#fedd29" d="M 79.5,101.5 C 77.033,106.568 75.3664,111.902 74.5,117.5C 73.7811,115.909 72.7811,114.409 71.5,113C 65.483,110.328 59.8163,107.161 54.5,103.5C 55.727,99.107 55.3936,98.7737 53.5,102.5C 48.5555,101.559 44.8888,99.5589 42.5,96.5C 45.5046,94.7234 48.8379,93.7234 52.5,93.5C 54.4241,93.2893 54.7574,92.6226 53.5,91.5C 53.3893,90.8826 53.056,90.3826 52.5,90C 43.1667,87.6667 33.8333,85.3333 24.5,83C 27.0321,81.2347 29.6987,79.7347 32.5,78.5C 33.0431,78.56 33.3764,78.8933 33.5,79.5C 28.0469,83.4038 28.2136,84.0704 34,81.5C 39.1953,85.4574 39.6953,84.7907 35.5,79.5C 36.4584,79.0472 37.2917,78.3805 38,77.5C 50.0873,84.1273 62.2539,90.6273 74.5,97C 76.6592,98.0591 78.3259,99.5591 79.5,101.5 Z"/></g>
<g><path style="opacity:1" fill="#fbe732" d="M 180.5,73.5 C 181.959,73.4326 183.292,73.7659 184.5,74.5C 189.768,78.0984 194.435,82.4317 198.5,87.5C 196.143,87.6633 193.81,87.4966 191.5,87C 187.621,82.626 183.954,78.126 180.5,73.5 Z"/></g>
<g><path style="opacity:1" fill="#fff3b9" d="M 32.5,76.5 C 33.5,77.1667 34.5,77.8333 35.5,78.5C 35.5,78.8333 35.5,79.1667 35.5,79.5C 39.6953,84.7907 39.1953,85.4574 34,81.5C 28.2136,84.0704 28.0469,83.4038 33.5,79.5C 33.3764,78.8933 33.0431,78.56 32.5,78.5C 32.5,77.8333 32.5,77.1667 32.5,76.5 Z"/></g>
<g><path style="opacity:1" fill="#faf09c" d="M 52.5,93.5 C 48.8379,93.7234 45.5046,94.7234 42.5,96.5C 30.9142,102.657 22.2475,111.657 16.5,123.5C 15.1667,124.5 13.8333,125.5 12.5,126.5C 16.3204,109.844 26.3204,98.6773 42.5,93C 46.0267,92.1925 49.3601,92.3592 52.5,93.5 Z"/></g>
<g><path style="opacity:1" fill="#826125" d="M 176.5,81.5 C 180.059,86.5676 184.226,91.2343 189,95.5C 193.196,101.547 195.363,108.213 195.5,115.5C 195.177,135.825 184.844,146.825 164.5,148.5C 158.666,148.95 152.999,148.283 147.5,146.5C 143.708,148.97 139.708,150.97 135.5,152.5C 129.466,156.401 122.799,158.735 115.5,159.5C 98.333,161.914 85.333,155.914 76.5,141.5C 74.7805,133.613 74.1139,125.613 74.5,117.5C 75.3664,111.902 77.033,106.568 79.5,101.5C 83.1887,94.8153 87.8553,88.8153 93.5,83.5C 101.564,75.6457 111.231,72.479 122.5,74C 125.196,74.6898 127.363,76.1898 129,78.5C 129.69,75.804 131.19,73.6374 133.5,72C 142.793,68.7451 152.127,68.7451 161.5,72C 166.669,75.0221 171.669,78.1888 176.5,81.5 Z"/></g>
<g><path style="opacity:1" fill="#f9f4cd" d="M 94.5,85.5 C 90.5207,90.7757 87.0207,96.4423 84,102.5C 80.8071,111.244 79.8071,120.244 81,129.5C 85.5146,144.5 95.6813,152.166 111.5,152.5C 124.207,152.164 135.54,148.164 145.5,140.5C 146.309,141.469 147.309,142.302 148.5,143C 148.272,143.399 147.938,143.565 147.5,143.5C 143.53,146.491 139.53,149.491 135.5,152.5C 128.673,154.908 121.673,156.742 114.5,158C 91.1212,159.289 78.1212,148.289 75.5,125C 76.2095,108.994 82.5428,95.8269 94.5,85.5 Z"/></g>
<g><path style="opacity:1" fill="#fee796" d="M 139.5,71.5 C 157.016,73.5109 170.182,82.1776 179,97.5C 185.512,111.672 183.345,124.172 172.5,135C 164.573,139.766 156.24,140.6 147.5,137.5C 146.575,138.357 145.908,139.357 145.5,140.5C 135.54,148.164 124.207,152.164 111.5,152.5C 95.6813,152.166 85.5146,144.5 81,129.5C 79.8071,120.244 80.8071,111.244 84,102.5C 87.0207,96.4423 90.5207,90.7757 94.5,85.5C 101.421,79.7095 109.421,76.0428 118.5,74.5C 124.247,75.0827 128.08,78.0827 130,83.5C 129.666,76.6728 132.832,72.6728 139.5,71.5 Z"/></g>
<g><path style="opacity:1" fill="#966c0f" d="M 124.5,91.5 C 127.652,90.9586 130.152,91.9586 132,94.5C 136.728,101.455 137.561,108.788 134.5,116.5C 131.437,119.107 128.604,118.774 126,115.5C 120.883,107.664 120.383,99.6639 124.5,91.5 Z"/></g>
<g><path style="opacity:1" fill="#f0ece6" d="M 124.5,93.5 C 128.473,94.0755 129.473,96.2421 127.5,100C 125.892,100.658 124.725,100.158 124,98.5C 123.616,96.8034 123.782,95.1368 124.5,93.5 Z"/></g>
<g><path style="opacity:1" fill="#946a0b" d="M 149.5,86.5 C 151.527,86.3379 153.527,86.5045 155.5,87C 162.21,93.7468 163.877,101.413 160.5,110C 158.833,110.667 157.167,110.667 155.5,110C 148.378,103.342 146.378,95.5089 149.5,86.5 Z"/></g>
<g><path style="opacity:1" fill="#eee9e0" d="M 150.5,87.5 C 152.89,87.6848 153.89,89.0182 153.5,91.5C 152.01,96.894 150.676,96.7273 149.5,91C 149.648,89.7441 149.982,88.5774 150.5,87.5 Z"/></g>
<g><path style="opacity:1" fill="#fcfbc8" d="M 147.5,143.5 C 147.938,143.565 148.272,143.399 148.5,143C 147.309,142.302 146.309,141.469 145.5,140.5C 145.908,139.357 146.575,138.357 147.5,137.5C 156.24,140.6 164.573,139.766 172.5,135C 183.345,124.172 185.512,111.672 179,97.5C 170.182,82.1776 157.016,73.5109 139.5,71.5C 150.092,69.3973 159.759,71.5639 168.5,78C 179.657,85.8403 187.823,96.007 193,108.5C 196.201,128.629 188.034,141.129 168.5,146C 163.167,146.667 157.833,146.667 152.5,146C 150.685,145.243 149.019,144.41 147.5,143.5 Z"/></g>
<g><path style="opacity:1" fill="#fed523" d="M 42.5,96.5 C 44.8888,99.5589 48.5555,101.559 53.5,102.5C 53.152,104.713 52.3187,106.713 51,108.5C 48.306,107.117 45.4726,106.617 42.5,107C 44.7173,108.275 47.0506,109.275 49.5,110C 50.2489,111.734 50.7489,113.567 51,115.5C 51.5,114.5 52,113.5 52.5,112.5C 60.8711,111.664 61.2044,110.664 53.5,109.5C 53.8333,107.5 54.1667,105.5 54.5,103.5C 59.8163,107.161 65.483,110.328 71.5,113C 72.7811,114.409 73.7811,115.909 74.5,117.5C 74.1139,125.613 74.7805,133.613 76.5,141.5C 76.5654,141.938 76.3988,142.272 76,142.5C 75.2935,140.919 74.4601,139.419 73.5,138C 63.5,132.667 53.5,127.333 43.5,122C 44.7383,121.31 44.7383,120.81 43.5,120.5C 43.5,120.167 43.5,119.833 43.5,119.5C 43.1583,118.662 42.4916,118.328 41.5,118.5C 42.9361,117.571 44.2695,116.405 45.5,115C 35.3862,116.091 25.7195,118.924 16.5,123.5C 22.2475,111.657 30.9142,102.657 42.5,96.5 Z"/></g>
<g><path style="opacity:1" fill="#c29b14" d="M 157.5,101.5 C 161.405,102.965 162.072,105.298 159.5,108.5C 156.497,106.822 155.831,104.489 157.5,101.5 Z"/></g>
<g><path style="opacity:1" fill="#fff7da" d="M 54.5,103.5 C 54.1667,105.5 53.8333,107.5 53.5,109.5C 61.2044,110.664 60.8711,111.664 52.5,112.5C 52,113.5 51.5,114.5 51,115.5C 50.7489,113.567 50.2489,111.734 49.5,110C 47.0506,109.275 44.7173,108.275 42.5,107C 45.4726,106.617 48.306,107.117 51,108.5C 52.3187,106.713 53.152,104.713 53.5,102.5C 55.3936,98.7737 55.727,99.107 54.5,103.5 Z"/></g>
<g><path style="opacity:1" fill="#c29a14" d="M 130.5,108.5 C 134.252,109.306 135.252,111.472 133.5,115C 129.631,114.492 128.631,112.325 130.5,108.5 Z"/></g>
<g><path style="opacity:1" fill="#f3b508" d="M 41.5,118.5 C 32.3248,121.392 23.1582,124.392 14,127.5C 13.2352,127.43 12.7352,127.097 12.5,126.5C 13.8333,125.5 15.1667,124.5 16.5,123.5C 25.7195,118.924 35.3862,116.091 45.5,115C 44.2695,116.405 42.9361,117.571 41.5,118.5 Z"/></g>
<g><path style="opacity:1" fill="#fdcf1c" d="M 43.5,120.5 C 44.7383,120.81 44.7383,121.31 43.5,122C 53.5,127.333 63.5,132.667 73.5,138C 74.4601,139.419 75.2935,140.919 76,142.5C 76.3988,142.272 76.5654,141.938 76.5,141.5C 85.333,155.914 98.333,161.914 115.5,159.5C 111.353,160.325 107.019,160.825 102.5,161C 107.829,161.118 112.995,161.951 118,163.5C 118.414,163.043 118.914,162.709 119.5,162.5C 122.994,164.079 126.327,165.913 129.5,168C 125.975,168.179 122.641,168.679 119.5,169.5C 116.432,168.978 113.432,168.145 110.5,167C 112.167,166 113.833,165 115.5,164C 108.422,163.685 102.088,165.685 96.5,170C 98.2555,170.14 99.9222,169.64 101.5,168.5C 102.107,168.624 102.44,168.957 102.5,169.5C 101.963,174.266 102.963,178.6 105.5,182.5C 105.265,183.097 104.765,183.43 104,183.5C 84.945,176.446 70.945,163.779 62,145.5C 56.7504,139.229 50.2504,137.396 42.5,140C 37.3872,143.43 33.0539,147.597 29.5,152.5C 29.5,149.833 29.5,147.167 29.5,144.5C 31.584,134.999 36.2507,126.999 43.5,120.5 Z"/></g>
<g><path style="opacity:1" fill="#fcf29d" d="M 43.5,119.5 C 43.5,119.833 43.5,120.167 43.5,120.5C 36.2507,126.999 31.584,134.999 29.5,144.5C 29.2541,133.317 33.9208,124.984 43.5,119.5 Z"/></g>
<g><path style="opacity:1" fill="#fde330" d="M 195.5,115.5 C 200.339,129.747 200.672,144.08 196.5,158.5C 195.844,159.278 195.011,159.944 194,160.5C 189.672,157.948 185.172,155.781 180.5,154C 182.007,153.163 182.507,151.996 182,150.5C 180.624,151.705 179.458,153.038 178.5,154.5C 177.833,154.5 177.167,154.5 176.5,154.5C 176.74,153.718 176.74,152.718 176.5,151.5C 172.496,150.07 168.496,149.07 164.5,148.5C 184.844,146.825 195.177,135.825 195.5,115.5 Z"/></g>
<g><path style="opacity:1" fill="#f4b608" d="M 105.5,182.5 C 112.455,190.977 121.121,196.977 131.5,200.5C 113.729,200.938 96.3958,198.438 79.5,193C 58.9012,185.236 47.5679,170.402 45.5,148.5C 47.0664,148.024 47.3998,147.357 46.5,146.5C 39.8592,149.974 34.6925,154.974 31,161.5C 30.0467,158.568 29.5467,155.568 29.5,152.5C 33.0539,147.597 37.3872,143.43 42.5,140C 50.2504,137.396 56.7504,139.229 62,145.5C 70.945,163.779 84.945,176.446 104,183.5C 104.765,183.43 105.265,183.097 105.5,182.5 Z"/></g>
<g><path style="opacity:1" fill="#fbe567" d="M 45.5,148.5 C 47.5679,170.402 58.9012,185.236 79.5,193C 96.3958,198.438 113.729,200.938 131.5,200.5C 138.702,201.442 145.368,200.109 151.5,196.5C 167.599,192.455 181.599,184.788 193.5,173.5C 194.945,171.937 196.611,170.604 198.5,169.5C 189.519,182.849 177.519,192.683 162.5,199C 133.231,208.765 103.897,208.765 74.5,199C 53.3485,189.887 42.8485,173.721 43,150.5C 43.7083,149.619 44.5416,148.953 45.5,148.5 Z"/></g>
<g><path style="opacity:1" fill="#fdd723" d="M 164.5,148.5 C 168.496,149.07 172.496,150.07 176.5,151.5C 176.74,152.718 176.74,153.718 176.5,154.5C 175.016,156.074 173.349,157.407 171.5,158.5C 168.759,158.707 166.426,159.707 164.5,161.5C 155.611,164.295 146.611,166.795 137.5,169C 131.509,169.499 125.509,169.666 119.5,169.5C 122.641,168.679 125.975,168.179 129.5,168C 126.327,165.913 122.994,164.079 119.5,162.5C 118.914,162.709 118.414,163.043 118,163.5C 112.995,161.951 107.829,161.118 102.5,161C 107.019,160.825 111.353,160.325 115.5,159.5C 122.799,158.735 129.466,156.401 135.5,152.5C 139.708,150.97 143.708,148.97 147.5,146.5C 152.999,148.283 158.666,148.95 164.5,148.5 Z"/></g>
<g><path style="opacity:1" fill="#9d803c" d="M 171.5,158.5 C 169.574,160.293 167.241,161.293 164.5,161.5C 166.426,159.707 168.759,158.707 171.5,158.5 Z"/></g>
<g><path style="opacity:1" fill="#f6de90" d="M 171.5,158.5 C 172.465,159.721 172.298,161.054 171,162.5C 167.613,166.446 163.446,169.28 158.5,171C 145.821,175.002 132.821,176.835 119.5,176.5C 114.036,176.238 109.369,174.238 105.5,170.5C 104.89,169.609 104.557,168.609 104.5,167.5C 108.764,168.614 113.097,169.781 117.5,171C 134.262,172.676 149.929,169.51 164.5,161.5C 167.241,161.293 169.574,160.293 171.5,158.5 Z"/></g>
<g><path style="opacity:1" fill="#fdd824" d="M 196.5,158.5 C 195.334,163.832 193.334,168.832 190.5,173.5C 186.216,177.317 181.216,180.15 175.5,182C 171.644,183.089 167.81,184.256 164,185.5C 162.97,185.164 162.47,184.497 162.5,183.5C 165.359,178.254 168.025,172.921 170.5,167.5C 171.872,162.433 174.539,158.099 178.5,154.5C 179.458,153.038 180.624,151.705 182,150.5C 182.507,151.996 182.007,153.163 180.5,154C 185.172,155.781 189.672,157.948 194,160.5C 195.011,159.944 195.844,159.278 196.5,158.5 Z"/></g>
<g><path style="opacity:1" fill="#846427" d="M 164.5,161.5 C 149.929,169.51 134.262,172.676 117.5,171C 113.097,169.781 108.764,168.614 104.5,167.5C 103.833,168.167 103.167,168.833 102.5,169.5C 102.44,168.957 102.107,168.624 101.5,168.5C 99.9222,169.64 98.2555,170.14 96.5,170C 102.088,165.685 108.422,163.685 115.5,164C 113.833,165 112.167,166 110.5,167C 113.432,168.145 116.432,168.978 119.5,169.5C 125.509,169.666 131.509,169.499 137.5,169C 146.611,166.795 155.611,164.295 164.5,161.5 Z"/></g>
<g><path style="opacity:1" fill="#836327" d="M 176.5,154.5 C 177.167,154.5 177.833,154.5 178.5,154.5C 174.539,158.099 171.872,162.433 170.5,167.5C 170.565,167.062 170.399,166.728 170,166.5C 169.292,167.381 168.458,168.047 167.5,168.5C 152.217,176.489 136.217,179.156 119.5,176.5C 132.821,176.835 145.821,175.002 158.5,171C 163.446,169.28 167.613,166.446 171,162.5C 172.298,161.054 172.465,159.721 171.5,158.5C 173.349,157.407 175.016,156.074 176.5,154.5 Z"/></g>
<g><path style="opacity:1" fill="#f4b70d" d="M 190.5,173.5 C 191.202,174.116 192.202,174.116 193.5,173.5C 181.599,184.788 167.599,192.455 151.5,196.5C 155.513,192.485 159.179,188.152 162.5,183.5C 162.47,184.497 162.97,185.164 164,185.5C 167.81,184.256 171.644,183.089 175.5,182C 181.216,180.15 186.216,177.317 190.5,173.5 Z"/></g>
<g><path style="opacity:1" fill="#6a4011" d="M 170.5,167.5 C 168.025,172.921 165.359,178.254 162.5,183.5C 159.179,188.152 155.513,192.485 151.5,196.5C 145.368,200.109 138.702,201.442 131.5,200.5C 121.121,196.977 112.455,190.977 105.5,182.5C 102.963,178.6 101.963,174.266 102.5,169.5C 103.167,168.833 103.833,168.167 104.5,167.5C 104.557,168.609 104.89,169.609 105.5,170.5C 105.586,171.496 105.252,172.329 104.5,173C 105.373,175.818 106.706,178.318 108.5,180.5C 112.783,178.462 117.117,178.629 121.5,181C 133.883,179.966 144.716,183.466 154,191.5C 159.52,184.464 164.02,176.797 167.5,168.5C 168.458,168.047 169.292,167.381 170,166.5C 170.399,166.728 170.565,167.062 170.5,167.5 Z"/></g>
<g><path style="opacity:1" fill="#c58829" d="M 139.5,198.5 C 132.744,194.93 126.077,191.097 119.5,187C 116.937,185.921 114.271,185.421 111.5,185.5C 110.373,184.878 109.373,184.045 108.5,183C 114.517,180.469 120.517,180.969 126.5,184.5C 136.751,182.458 145.418,185.291 152.5,193C 149.096,197.036 144.763,198.869 139.5,198.5 Z"/></g>
<g><path style="opacity:1" fill="#78490a" d="M 167.5,168.5 C 164.02,176.797 159.52,184.464 154,191.5C 144.716,183.466 133.883,179.966 121.5,181C 117.117,178.629 112.783,178.462 108.5,180.5C 106.706,178.318 105.373,175.818 104.5,173C 105.252,172.329 105.586,171.496 105.5,170.5C 109.369,174.238 114.036,176.238 119.5,176.5C 136.217,179.156 152.217,176.489 167.5,168.5 Z"/></g>
<g><path style="opacity:1" fill="#b66f1d" d="M 111.5,185.5 C 114.271,185.421 116.937,185.921 119.5,187C 126.077,191.097 132.744,194.93 139.5,198.5C 128.335,197.915 119.002,193.582 111.5,185.5 Z"/></g>
</svg>
