<?xml version="1.0" encoding="UTF-8"?>
<!DOCTYPE svg PUBLIC "-//W3C//DTD SVG 1.1//EN" "http://www.w3.org/Graphics/SVG/1.1/DTD/svg11.dtd">
<svg xmlns="http://www.w3.org/2000/svg" version="1.1" width="227px" height="222px" style="shape-rendering:geometricPrecision; text-rendering:geometricPrecision; image-rendering:optimizeQuality; fill-rule:evenodd; clip-rule:evenodd" xmlns:xlink="http://www.w3.org/1999/xlink">
<g><path style="opacity:1" fill="#fcfcfb" d="M -0.5,-0.5 C 46.1667,-0.5 92.8333,-0.5 139.5,-0.5C 139.5,0.166667 139.5,0.833333 139.5,1.5C 133.526,3.2721 132.359,6.60544 136,11.5C 136.333,14.1667 136.667,16.8333 137,19.5C 140.083,21.6653 141.583,24.6653 141.5,28.5C 139.064,28.683 136.897,28.0163 135,26.5C 132.444,27.2191 131.277,28.8858 131.5,31.5C 136.167,31.5 140.833,31.5 145.5,31.5C 145.5,30.5 145.5,29.5 145.5,28.5C 150.343,28.1165 155.009,28.7832 159.5,30.5C 156.165,34.1567 154.499,38.49 154.5,43.5C 153.969,46.237 153.136,48.9036 152,51.5C 151.502,54.4816 151.335,57.4816 151.5,60.5C 148.833,60.5 146.167,60.5 143.5,60.5C 141.766,58.6784 140.766,56.3451 140.5,53.5C 141.246,52.2638 141.579,50.9305 141.5,49.5C 139.723,49.2137 138.056,48.5471 136.5,47.5C 132.134,47.8941 127.967,48.8941 124,50.5C 123.623,49.0577 122.79,48.0577 121.5,47.5C 116.471,42.2364 111.304,42.2364 106,47.5C 105.211,49.7116 105.378,51.7116 106.5,53.5C 106.993,55.8056 107.326,58.139 107.5,60.5C 106.5,60.5 105.5,60.5 104.5,60.5C 102.998,58.825 101.665,56.9917 100.5,55C 96.6002,53.4349 92.9335,51.4349 89.5,49C 83.0783,46.6274 76.5783,46.1274 70,47.5C 69.4361,52.1935 69.6027,56.8602 70.5,61.5C 67.7306,62.4534 64.8973,62.1201 62,60.5C 55.3414,62.3759 48.5081,63.0426 41.5,62.5C 41.4194,66.3449 40.7527,69.6782 39.5,72.5C 40.1228,74.7105 41.1228,76.7105 42.5,78.5C 43.8123,77.5396 45.1456,77.7063 46.5,79C 45.1832,80.6591 43.5165,81.8257 41.5,82.5C 39.4257,80.1723 38.4257,80.8389 38.5,84.5C 33.2646,86.8991 29.0979,90.5657 26,95.5C 25.2797,97.1124 25.4464,98.6124 26.5,100C 29.8333,101.333 33.1667,102.667 36.5,104C 32.3217,108.529 29.3217,113.695 27.5,119.5C 27.2606,121.467 27.5939,123.301 28.5,125C 30.8098,125.497 33.1432,125.663 35.5,125.5C 35.1611,129.85 33.8278,133.85 31.5,137.5C 26.0786,132.794 20.0786,129.127 13.5,126.5C 13.1583,125.662 12.4916,125.328 11.5,125.5C 9.0521,124.527 6.38544,124.194 3.5,124.5C 3.23837,129.476 5.23837,133.309 9.5,136C 8.55198,136.483 7.55198,136.649 6.5,136.5C 4.09709,136.448 1.76375,136.781 -0.5,137.5C -0.5,91.5 -0.5,45.5 -0.5,-0.5 Z"/></g>
<g><path style="opacity:1" fill="#fbfcfb" d="M 144.5,-0.5 C 171.833,-0.5 199.167,-0.5 226.5,-0.5C 226.5,19.1667 226.5,38.8333 226.5,58.5C 219.992,57.7459 213.992,59.0793 208.5,62.5C 211.158,52.0164 215.825,42.5164 222.5,34C 221.167,33.3333 219.833,33.3333 218.5,34C 213.659,36.9212 208.659,39.5879 203.5,42C 201.962,43.9321 200.795,46.0988 200,48.5C 198.774,46.4523 197.274,46.119 195.5,47.5C 194.566,46.4324 194.232,45.099 194.5,43.5C 194.5,43.1667 194.5,42.8333 194.5,42.5C 195.81,36.7118 196.477,30.7118 196.5,24.5C 193.976,23.1997 191.309,23.1997 188.5,24.5C 184.745,24.9208 182.412,26.9208 181.5,30.5C 178.57,32.1775 177.57,31.6775 178.5,29C 178.37,27.9412 177.87,27.1079 177,26.5C 172.886,29.3749 171.719,28.8749 173.5,25C 171.212,22.928 169.546,20.428 168.5,17.5C 165.695,19.4395 162.695,19.4395 159.5,17.5C 158.167,16.5 158.167,15.5 159.5,14.5C 158.478,13.646 157.645,12.646 157,11.5C 156.667,11.8333 156.333,12.1667 156,12.5C 154.249,10.5101 153.249,8.17676 153,5.5C 150.22,3.15918 147.386,1.15918 144.5,-0.5 Z"/></g>
<g><path style="opacity:1" fill="#2f562a" d="M 139.5,-0.5 C 140.5,-0.5 141.5,-0.5 142.5,-0.5C 144.075,2.58212 146.242,5.24878 149,7.5C 150.746,11.3267 152.746,14.9934 155,18.5C 156.264,20.607 158.097,21.607 160.5,21.5C 159.952,22.6885 159.619,23.8552 159.5,25C 162.797,25.2037 165.797,26.037 168.5,27.5C 164.82,26.4282 161.153,26.4282 157.5,27.5C 151.053,27.1921 145.553,24.8588 141,20.5C 140.209,19.255 139.709,17.9217 139.5,16.5C 137.123,11.5598 137.123,6.55984 139.5,1.5C 139.5,0.833333 139.5,0.166667 139.5,-0.5 Z"/></g>
<g><path style="opacity:1" fill="#8e6560" d="M 127.5,20.5 C 127.611,21.1174 127.944,21.6174 128.5,22C 126.907,22.9487 125.574,24.1154 124.5,25.5C 123.878,27.335 122.544,28.5017 120.5,29C 116.268,30.6119 111.934,31.7786 107.5,32.5C 107.414,31.5041 107.748,30.6708 108.5,30C 114.592,28.2429 120.258,25.5762 125.5,22C 121.887,21.1155 118.22,20.6155 114.5,20.5C 111.546,20.2914 108.879,20.9581 106.5,22.5C 106.213,21.7997 105.88,21.1331 105.5,20.5C 108.12,18.1054 111.287,17.1054 115,17.5C 118.869,17.7281 122.702,18.2281 126.5,19C 127.056,19.3826 127.389,19.8826 127.5,20.5 Z"/></g>
<g><path style="opacity:1" fill="#35251c" d="M 127.5,20.5 C 129.423,20.795 131.09,21.6283 132.5,23C 129.715,23.6575 127.049,24.4909 124.5,25.5C 125.574,24.1154 126.907,22.9487 128.5,22C 127.944,21.6174 127.611,21.1174 127.5,20.5 Z"/></g>
<g><path style="opacity:1" fill="#4f1b1b" d="M 105.5,20.5 C 105.88,21.1331 106.213,21.7997 106.5,22.5C 108.879,20.9581 111.546,20.2914 114.5,20.5C 118.22,20.6155 121.887,21.1155 125.5,22C 120.258,25.5762 114.592,28.2429 108.5,30C 107.748,30.6708 107.414,31.5041 107.5,32.5C 106.167,32.8333 104.833,33.1667 103.5,33.5C 104.028,32.2794 104.695,31.1127 105.5,30C 103.536,30.2659 102.036,31.4326 101,33.5C 100.667,31.5 100.333,29.5 100,27.5C 98.7978,29.6775 98.2978,32.0108 98.5,34.5C 97.5,34.5 96.5,34.5 95.5,34.5C 96.8988,28.4371 100.232,23.7704 105.5,20.5 Z"/></g>
<g><path style="opacity:1" fill="#f1f5ee" d="M 142.5,-0.5 C 143.167,-0.5 143.833,-0.5 144.5,-0.5C 147.386,1.15918 150.22,3.15918 153,5.5C 153.249,8.17676 154.249,10.5101 156,12.5C 156.333,12.1667 156.667,11.8333 157,11.5C 157.645,12.646 158.478,13.646 159.5,14.5C 158.167,15.5 158.167,16.5 159.5,17.5C 162.695,19.4395 165.695,19.4395 168.5,17.5C 169.546,20.428 171.212,22.928 173.5,25C 171.719,28.8749 172.886,29.3749 177,26.5C 177.87,27.1079 178.37,27.9412 178.5,29C 177.57,31.6775 178.57,32.1775 181.5,30.5C 182.412,26.9208 184.745,24.9208 188.5,24.5C 191.309,23.1997 193.976,23.1997 196.5,24.5C 188.092,28.4632 180.592,33.7966 174,40.5C 172.807,42.8864 171.64,45.2198 170.5,47.5C 169.094,47.0269 168.427,46.0269 168.5,44.5C 168.5,43.8333 168.167,43.5 167.5,43.5C 167.381,38.7979 165.714,34.7979 162.5,31.5C 159.415,35.2458 156.749,39.2458 154.5,43.5C 154.499,38.49 156.165,34.1567 159.5,30.5C 155.009,28.7832 150.343,28.1165 145.5,28.5C 145.5,29.5 145.5,30.5 145.5,31.5C 140.833,31.5 136.167,31.5 131.5,31.5C 131.277,28.8858 132.444,27.2191 135,26.5C 136.897,28.0163 139.064,28.683 141.5,28.5C 141.583,24.6653 140.083,21.6653 137,19.5C 136.667,16.8333 136.333,14.1667 136,11.5C 132.359,6.60544 133.526,3.2721 139.5,1.5C 137.123,6.55984 137.123,11.5598 139.5,16.5C 139.709,17.9217 140.209,19.255 141,20.5C 145.553,24.8588 151.053,27.1921 157.5,27.5C 161.153,26.4282 164.82,26.4282 168.5,27.5C 169.791,26.4583 169.791,25.2917 168.5,24C 165.496,23.8827 162.829,23.0493 160.5,21.5C 158.097,21.607 156.264,20.607 155,18.5C 152.746,14.9934 150.746,11.3267 149,7.5C 146.242,5.24878 144.075,2.58212 142.5,-0.5 Z"/></g>
<g><path style="opacity:1" fill="#666d5e" d="M 160.5,21.5 C 162.829,23.0493 165.496,23.8827 168.5,24C 169.791,25.2917 169.791,26.4583 168.5,27.5C 165.797,26.037 162.797,25.2037 159.5,25C 159.619,23.8552 159.952,22.6885 160.5,21.5 Z"/></g>
<g><path style="opacity:1" fill="#278121" d="M 143.5,6.5 C 144.396,7.50633 145.062,7.50633 145.5,6.5C 149.244,12.3129 153.244,17.9796 157.5,23.5C 155.86,25.5828 153.86,25.9162 151.5,24.5C 149.508,23.1696 147.508,21.8363 145.5,20.5C 146.815,19.333 147.481,17.833 147.5,16C 145.87,12.939 144.537,9.77231 143.5,6.5 Z"/></g>
<g><path style="opacity:1" fill="#74ba64" d="M 145.5,6.5 C 145.062,7.50633 144.396,7.50633 143.5,6.5C 141.441,5.35361 140.441,6.18694 140.5,9C 140.749,13.561 142.416,17.3943 145.5,20.5C 147.508,21.8363 149.508,23.1696 151.5,24.5C 146.138,23.7935 142.138,21.1269 139.5,16.5C 139.228,12.0983 139.561,7.76492 140.5,3.5C 142.733,2.98392 144.4,3.98392 145.5,6.5 Z"/></g>
<g><path style="opacity:1" fill="#31a521" d="M 143.5,6.5 C 144.537,9.77231 145.87,12.939 147.5,16C 147.481,17.833 146.815,19.333 145.5,20.5C 142.416,17.3943 140.749,13.561 140.5,9C 140.441,6.18694 141.441,5.35361 143.5,6.5 Z"/></g>
<g><path style="opacity:1" fill="#834949" d="M 103.5,33.5 C 102.878,36.7756 100.878,38.1089 97.5,37.5C 97.5,36.8333 97.1667,36.5 96.5,36.5C 96.1667,35.8333 95.8333,35.1667 95.5,34.5C 96.5,34.5 97.5,34.5 98.5,34.5C 98.2978,32.0108 98.7978,29.6775 100,27.5C 100.333,29.5 100.667,31.5 101,33.5C 102.036,31.4326 103.536,30.2659 105.5,30C 104.695,31.1127 104.028,32.2794 103.5,33.5 Z"/></g>
<g><path style="opacity:1" fill="#4f281d" d="M 196.5,24.5 C 196.477,30.7118 195.81,36.7118 194.5,42.5C 194.737,41.209 194.404,40.209 193.5,39.5C 193.942,35.8455 194.276,32.1788 194.5,28.5C 182.604,32.0623 174.604,39.729 170.5,51.5C 170.5,52.1667 170.167,52.5 169.5,52.5C 169.366,50.7085 169.699,49.0418 170.5,47.5C 171.64,45.2198 172.807,42.8864 174,40.5C 180.592,33.7966 188.092,28.4632 196.5,24.5 Z"/></g>
<g><path style="opacity:1" fill="#dd5b44" d="M 185.5,37.5 C 182.866,39.9693 180.366,42.636 178,45.5C 177.991,49.1783 176.157,51.3449 172.5,52C 172.085,54.0263 171.085,55.5263 169.5,56.5C 169.5,55.5 169.5,54.5 169.5,53.5C 169.5,53.1667 169.5,52.8333 169.5,52.5C 170.167,52.5 170.5,52.1667 170.5,51.5C 173.687,48.4693 176.353,44.9693 178.5,41C 180.527,39.1207 182.86,37.954 185.5,37.5 Z"/></g>
<g><path style="opacity:1" fill="#315322" d="M 208.5,62.5 C 207.391,62.5569 206.391,62.8902 205.5,63.5C 208.69,57.7822 211.357,51.7822 213.5,45.5C 214.655,42.5251 216.322,39.8584 218.5,37.5C 218.167,37.1667 217.833,36.8333 217.5,36.5C 213.167,38.6667 208.833,40.8333 204.5,43C 202.822,45.1937 201.822,47.6937 201.5,50.5C 198.465,49.3335 195.798,50.0002 193.5,52.5C 194.167,50.8333 194.833,49.1667 195.5,47.5C 197.274,46.119 198.774,46.4523 200,48.5C 200.795,46.0988 201.962,43.9321 203.5,42C 208.659,39.5879 213.659,36.9212 218.5,34C 219.833,33.3333 221.167,33.3333 222.5,34C 215.825,42.5164 211.158,52.0164 208.5,62.5 Z"/></g>
<g><path style="opacity:1" fill="#e99a7c" d="M 193.5,39.5 C 192.834,36.9723 192.168,34.3056 191.5,31.5C 189.146,33.1878 187.146,35.1878 185.5,37.5C 182.86,37.954 180.527,39.1207 178.5,41C 176.353,44.9693 173.687,48.4693 170.5,51.5C 174.604,39.729 182.604,32.0623 194.5,28.5C 194.276,32.1788 193.942,35.8455 193.5,39.5 Z"/></g>
<g><path style="opacity:1" fill="#5f5857" d="M 96.5,36.5 C 97.1667,36.5 97.5,36.8333 97.5,37.5C 96.7814,39.7638 96.448,42.0971 96.5,44.5C 95.5,44.5 94.5,44.5 93.5,44.5C 93.3939,41.3855 94.3939,38.7188 96.5,36.5 Z"/></g>
<g><path style="opacity:1" fill="#29861d" d="M 166.5,43.5 C 166.833,43.5 167.167,43.5 167.5,43.5C 168.167,43.5 168.5,43.8333 168.5,44.5C 167.523,47.2869 167.19,50.2869 167.5,53.5C 163.838,54.3629 161.672,53.0296 161,49.5C 160.501,53.1516 160.335,56.8183 160.5,60.5C 158.833,60.5 157.167,60.5 155.5,60.5C 155.5,60.1667 155.5,59.8333 155.5,59.5C 156.833,59.5 158.167,59.5 159.5,59.5C 159.5,54.8333 159.5,50.1667 159.5,45.5C 160.3,43.104 161.3,40.7707 162.5,38.5C 163.151,40.8474 164.484,42.5141 166.5,43.5 Z"/></g>
<g><path style="opacity:1" fill="#9ce070" d="M 166.5,43.5 C 164.484,42.5141 163.151,40.8474 162.5,38.5C 161.3,40.7707 160.3,43.104 159.5,45.5C 158.842,46.3984 158.176,47.3984 157.5,48.5C 156.614,47.675 156.281,46.675 156.5,45.5C 157.713,41.4073 159.713,37.7407 162.5,34.5C 164.991,36.9671 166.324,39.9671 166.5,43.5 Z"/></g>
<g><path style="opacity:1" fill="#58352f" d="M 121.5,47.5 C 121.795,49.7354 121.461,51.7354 120.5,53.5C 120.167,53.5 119.833,53.5 119.5,53.5C 119.756,51.2075 119.423,49.0408 118.5,47C 115.5,46.3333 112.5,46.3333 109.5,47C 108.177,47.8159 107.511,48.9826 107.5,50.5C 106.89,51.391 106.557,52.391 106.5,53.5C 105.378,51.7116 105.211,49.7116 106,47.5C 111.304,42.2364 116.471,42.2364 121.5,47.5 Z"/></g>
<g><path style="opacity:1" fill="#a1d976" d="M 213.5,45.5 C 212.833,45.5 212.5,45.1667 212.5,44.5C 212.483,42.9719 211.816,42.4719 210.5,43C 207.919,46.0884 204.919,48.5884 201.5,50.5C 201.822,47.6937 202.822,45.1937 204.5,43C 208.833,40.8333 213.167,38.6667 217.5,36.5C 217.833,36.8333 218.167,37.1667 218.5,37.5C 216.322,39.8584 214.655,42.5251 213.5,45.5 Z"/></g>
<g><path style="opacity:1" fill="#f1a785" d="M 119.5,53.5 C 119.158,54.3382 118.492,54.6716 117.5,54.5C 117.236,51.2429 115.57,49.2429 112.5,48.5C 110.833,49.1667 109.167,49.8333 107.5,50.5C 107.511,48.9826 108.177,47.8159 109.5,47C 112.5,46.3333 115.5,46.3333 118.5,47C 119.423,49.0408 119.756,51.2075 119.5,53.5 Z"/></g>
<g><path style="opacity:1" fill="#ad2037" d="M 193.5,39.5 C 192.682,44.148 190.682,48.148 187.5,51.5C 185.876,51.3601 184.71,52.0267 184,53.5C 183.261,51.7795 182.427,50.1128 181.5,48.5C 180.502,50.4899 179.502,52.4899 178.5,54.5C 178.043,55.2975 177.376,55.6309 176.5,55.5C 178.506,48.661 182.173,42.8276 187.5,38C 186.906,37.5357 186.239,37.369 185.5,37.5C 187.146,35.1878 189.146,33.1878 191.5,31.5C 192.168,34.3056 192.834,36.9723 193.5,39.5 Z"/></g>
<g><path style="opacity:1" fill="#355922" d="M 167.5,43.5 C 167.167,43.5 166.833,43.5 166.5,43.5C 166.324,39.9671 164.991,36.9671 162.5,34.5C 159.713,37.7407 157.713,41.4073 156.5,45.5C 155.655,46.6715 154.989,48.0048 154.5,49.5C 153.656,53.0991 153.323,56.7657 153.5,60.5C 152.833,60.5 152.167,60.5 151.5,60.5C 151.335,57.4816 151.502,54.4816 152,51.5C 153.136,48.9036 153.969,46.237 154.5,43.5C 156.749,39.2458 159.415,35.2458 162.5,31.5C 165.714,34.7979 167.381,38.7979 167.5,43.5 Z"/></g>
<g><path style="opacity:1" fill="#e5d8d6" d="M 121.5,47.5 C 122.79,48.0577 123.623,49.0577 124,50.5C 127.967,48.8941 132.134,47.8941 136.5,47.5C 138.056,48.5471 139.723,49.2137 141.5,49.5C 141.579,50.9305 141.246,52.2638 140.5,53.5C 140.766,56.3451 141.766,58.6784 143.5,60.5C 142.5,61.8333 141.5,61.8333 140.5,60.5C 140.675,58.3792 140.341,56.3792 139.5,54.5C 137.312,49.8903 133.645,48.3903 128.5,50C 126.907,52.9357 125.907,56.1024 125.5,59.5C 123.99,60.7279 122.49,60.7279 121,59.5C 120.505,57.5273 120.338,55.5273 120.5,53.5C 121.461,51.7354 121.795,49.7354 121.5,47.5 Z"/></g>
<g><path style="opacity:1" fill="#c1a99b" d="M 194.5,43.5 C 194.232,45.099 194.566,46.4324 195.5,47.5C 194.833,49.1667 194.167,50.8333 193.5,52.5C 192.833,52.5 192.167,52.5 191.5,52.5C 192.331,49.341 193.331,46.341 194.5,43.5 Z"/></g>
<g><path style="opacity:1" fill="#ce3124" d="M 112.5,48.5 C 115.57,49.2429 117.236,51.2429 117.5,54.5C 116.534,58.1722 115.034,58.1722 113,54.5C 111.148,52.7703 111.314,51.6036 113.5,51C 112.748,50.3292 112.414,49.4959 112.5,48.5 Z"/></g>
<g><path style="opacity:1" fill="#492718" d="M 139.5,54.5 C 139.167,54.5 138.833,54.5 138.5,54.5C 138.167,54.5 137.833,54.5 137.5,54.5C 135.593,51.6676 132.927,50.8343 129.5,52C 127.923,54.5954 126.923,57.4287 126.5,60.5C 125.833,60.5 125.5,60.1667 125.5,59.5C 125.907,56.1024 126.907,52.9357 128.5,50C 133.645,48.3903 137.312,49.8903 139.5,54.5 Z"/></g>
<g><path style="opacity:1" fill="#2d7024" d="M 167.5,53.5 C 167.539,54.7562 167.039,55.7562 166,56.5C 165,55.1667 164,55.1667 163,56.5C 162.251,60.6029 159.751,62.2696 155.5,61.5C 154.508,61.6716 153.842,61.3382 153.5,60.5C 154.167,60.5 154.833,60.5 155.5,60.5C 157.167,60.5 158.833,60.5 160.5,60.5C 160.335,56.8183 160.501,53.1516 161,49.5C 161.672,53.0296 163.838,54.3629 167.5,53.5 Z"/></g>
<g><path style="opacity:1" fill="#3c2e15" d="M 191.5,52.5 C 192.167,52.5 192.833,52.5 193.5,52.5C 192.167,54.5 190.833,56.5 189.5,58.5C 188.833,58.8333 188.167,59.1667 187.5,59.5C 187.725,56.4542 189.058,54.1209 191.5,52.5 Z"/></g>
<g><path style="opacity:1" fill="#efebd4" d="M 85.5,50.5 C 88.4062,51.108 90.7396,52.4413 92.5,54.5C 88.5413,56.0727 86.8747,59.0727 87.5,63.5C 84.5825,63.3651 81.9158,64.0318 79.5,65.5C 78.0813,64.5489 76.4147,64.2155 74.5,64.5C 73.3028,60.9054 72.3028,57.2388 71.5,53.5C 76.1785,53.6658 80.8452,53.4992 85.5,53C 86.5981,52.2303 86.5981,51.397 85.5,50.5 Z"/></g>
<g><path style="opacity:1" fill="#e79a80" d="M 137.5,54.5 C 137.631,55.3764 137.298,56.0431 136.5,56.5C 134.902,55.5153 133.235,55.3486 131.5,56C 130.378,58.1238 128.878,59.9571 127,61.5C 126.601,61.2716 126.435,60.9382 126.5,60.5C 126.923,57.4287 127.923,54.5954 129.5,52C 132.927,50.8343 135.593,51.6676 137.5,54.5 Z"/></g>
<g><path style="opacity:1" fill="#3e5c22" d="M 168.5,44.5 C 168.427,46.0269 169.094,47.0269 170.5,47.5C 169.699,49.0418 169.366,50.7085 169.5,52.5C 169.5,52.8333 169.5,53.1667 169.5,53.5C 168.284,57.6 166.284,61.2667 163.5,64.5C 162.167,64.1667 160.833,63.8333 159.5,63.5C 158.5,63.5 157.5,63.5 156.5,63.5C 156.5,62.8333 156.167,62.5 155.5,62.5C 155.5,62.1667 155.5,61.8333 155.5,61.5C 159.751,62.2696 162.251,60.6029 163,56.5C 164,55.1667 165,55.1667 166,56.5C 167.039,55.7562 167.539,54.7562 167.5,53.5C 167.19,50.2869 167.523,47.2869 168.5,44.5 Z"/></g>
<g><path style="opacity:1" fill="#a92020" d="M 185.5,37.5 C 186.239,37.369 186.906,37.5357 187.5,38C 182.173,42.8276 178.506,48.661 176.5,55.5C 174.07,58.5916 172.07,61.9249 170.5,65.5C 168.654,65.7778 167.32,65.1112 166.5,63.5C 168.082,61.4229 169.082,59.0896 169.5,56.5C 171.085,55.5263 172.085,54.0263 172.5,52C 176.157,51.3449 177.991,49.1783 178,45.5C 180.366,42.636 182.866,39.9693 185.5,37.5 Z"/></g>
<g><path style="opacity:1" fill="#a82244" d="M 187.5,51.5 C 187.587,54.7387 186.92,57.7387 185.5,60.5C 180.813,59.7437 177.147,61.2437 174.5,65C 173.054,66.298 171.721,66.4646 170.5,65.5C 172.07,61.9249 174.07,58.5916 176.5,55.5C 177.376,55.6309 178.043,55.2975 178.5,54.5C 179.502,52.4899 180.502,50.4899 181.5,48.5C 182.427,50.1128 183.261,51.7795 184,53.5C 184.71,52.0267 185.876,51.3601 187.5,51.5 Z"/></g>
<g><path style="opacity:1" fill="#97e278" d="M 154.5,49.5 C 155.479,52.6248 155.813,55.9581 155.5,59.5C 155.5,59.8333 155.5,60.1667 155.5,60.5C 154.833,60.5 154.167,60.5 153.5,60.5C 153.323,56.7657 153.656,53.0991 154.5,49.5 Z"/></g>
<g><path style="opacity:1" fill="#43ac2d" d="M 156.5,45.5 C 156.281,46.675 156.614,47.675 157.5,48.5C 158.176,47.3984 158.842,46.3984 159.5,45.5C 159.5,50.1667 159.5,54.8333 159.5,59.5C 158.167,59.5 156.833,59.5 155.5,59.5C 155.813,55.9581 155.479,52.6248 154.5,49.5C 154.989,48.0048 155.655,46.6715 156.5,45.5 Z"/></g>
<g><path style="opacity:1" fill="#43ad2f" d="M 201.5,50.5 C 198.213,54.639 195.046,58.9723 192,63.5C 190.989,64.3366 189.822,64.67 188.5,64.5C 188.517,62.4352 188.85,60.4352 189.5,58.5C 190.833,56.5 192.167,54.5 193.5,52.5C 195.798,50.0002 198.465,49.3335 201.5,50.5 Z"/></g>
<g><path style="opacity:1" fill="#24881a" d="M 212.5,44.5 C 211.076,46.5145 210.41,48.8478 210.5,51.5C 207.978,51.1281 205.978,51.9614 204.5,54C 206.107,55.049 206.773,56.549 206.5,58.5C 204.105,57.6365 201.771,57.6365 199.5,58.5C 200.04,59.7481 200.707,60.9148 201.5,62C 200.551,62.6172 199.718,62.4506 199,61.5C 198.215,63.286 197.049,64.786 195.5,66C 192.769,65.7788 190.102,65.9455 187.5,66.5C 186.287,66.2528 185.62,65.5862 185.5,64.5C 185.5,64.1667 185.5,63.8333 185.5,63.5C 186.345,62.3285 187.011,60.9952 187.5,59.5C 188.167,59.1667 188.833,58.8333 189.5,58.5C 188.85,60.4352 188.517,62.4352 188.5,64.5C 189.822,64.67 190.989,64.3366 192,63.5C 195.046,58.9723 198.213,54.639 201.5,50.5C 204.919,48.5884 207.919,46.0884 210.5,43C 211.816,42.4719 212.483,42.9719 212.5,44.5 Z"/></g>
<g><path style="opacity:1" fill="#2e822c" d="M 212.5,44.5 C 212.5,45.1667 212.833,45.5 213.5,45.5C 211.357,51.7822 208.69,57.7822 205.5,63.5C 201.833,65.5 198.167,67.5 194.5,69.5C 191.447,69.0893 188.447,68.4226 185.5,67.5C 184.224,66.3864 184.224,65.3864 185.5,64.5C 185.62,65.5862 186.287,66.2528 187.5,66.5C 190.102,65.9455 192.769,65.7788 195.5,66C 197.049,64.786 198.215,63.286 199,61.5C 199.718,62.4506 200.551,62.6172 201.5,62C 200.707,60.9148 200.04,59.7481 199.5,58.5C 201.771,57.6365 204.105,57.6365 206.5,58.5C 206.773,56.549 206.107,55.049 204.5,54C 205.978,51.9614 207.978,51.1281 210.5,51.5C 210.41,48.8478 211.076,46.5145 212.5,44.5 Z"/></g>
<g><path style="opacity:1" fill="#4c3c15" d="M 140.5,60.5 C 141.5,61.8333 142.5,61.8333 143.5,60.5C 146.167,60.5 148.833,60.5 151.5,60.5C 152.167,60.5 152.833,60.5 153.5,60.5C 153.842,61.3382 154.508,61.6716 155.5,61.5C 155.5,61.8333 155.5,62.1667 155.5,62.5C 150.12,62.3243 144.787,62.6576 139.5,63.5C 139.263,62.209 139.596,61.209 140.5,60.5 Z"/></g>
<g><path style="opacity:1" fill="#a3243c" d="M 112.5,48.5 C 112.414,49.4959 112.748,50.3292 113.5,51C 111.314,51.6036 111.148,52.7703 113,54.5C 115.034,58.1722 116.534,58.1722 117.5,54.5C 118.492,54.6716 119.158,54.3382 119.5,53.5C 119.833,53.5 120.167,53.5 120.5,53.5C 120.338,55.5273 120.505,57.5273 121,59.5C 122.49,60.7279 123.99,60.7279 125.5,59.5C 125.5,60.1667 125.833,60.5 126.5,60.5C 126.435,60.9382 126.601,61.2716 127,61.5C 128.878,59.9571 130.378,58.1238 131.5,56C 133.235,55.3486 134.902,55.5153 136.5,56.5C 137.298,56.0431 137.631,55.3764 137.5,54.5C 137.833,54.5 138.167,54.5 138.5,54.5C 138.461,57.3214 137.795,59.9881 136.5,62.5C 132.372,64.3979 128.372,66.5646 124.5,69C 125.094,69.4643 125.761,69.631 126.5,69.5C 125.032,70.7791 124.365,72.4458 124.5,74.5C 124.5,75.1667 124.5,75.8333 124.5,76.5C 121.99,73.384 121.99,70.0506 124.5,66.5C 123.975,65.8076 123.308,65.3076 122.5,65C 123.357,64.3109 124.023,63.4776 124.5,62.5C 122.433,61.8659 120.6,60.8659 119,59.5C 118.51,60.7932 118.343,62.1266 118.5,63.5C 117.167,63.5 115.833,63.5 114.5,63.5C 114.318,58.2063 113.818,58.2063 113,63.5C 111.127,60.9875 109.293,61.1542 107.5,64C 109.863,64.5885 110.863,66.0885 110.5,68.5C 109.167,69.1667 107.833,69.8333 106.5,70.5C 104.901,70.7678 103.568,70.4345 102.5,69.5C 102.938,69.5654 103.272,69.3988 103.5,69C 102.833,68.6667 102.167,68.3333 101.5,68C 97.9627,67.855 94.6294,67.0216 91.5,65.5C 89.401,62.9338 89.0677,60.2672 90.5,57.5C 91.3257,66.1206 93.9924,67.1206 98.5,60.5C 100.139,60.9258 101.472,60.9258 102.5,60.5C 103.396,61.5063 104.062,61.5063 104.5,60.5C 105.5,60.5 106.5,60.5 107.5,60.5C 107.326,58.139 106.993,55.8056 106.5,53.5C 106.557,52.391 106.89,51.391 107.5,50.5C 109.167,49.8333 110.833,49.1667 112.5,48.5 Z"/></g>
<g><path style="opacity:1" fill="#c3272c" d="M 90.5,57.5 C 93.8306,57.0181 96.4973,58.0181 98.5,60.5C 93.9924,67.1206 91.3257,66.1206 90.5,57.5 Z"/></g>
<g><path style="opacity:1" fill="#69242c" d="M 138.5,54.5 C 138.833,54.5 139.167,54.5 139.5,54.5C 140.341,56.3792 140.675,58.3792 140.5,60.5C 139.596,61.209 139.263,62.209 139.5,63.5C 137.847,63.6596 136.514,64.3263 135.5,65.5C 132.515,66.3257 129.849,67.659 127.5,69.5C 127.167,69.5 126.833,69.5 126.5,69.5C 125.761,69.631 125.094,69.4643 124.5,69C 128.372,66.5646 132.372,64.3979 136.5,62.5C 137.795,59.9881 138.461,57.3214 138.5,54.5 Z"/></g>
<g><path style="opacity:1" fill="#dcd18a" d="M 155.5,62.5 C 156.167,62.5 156.5,62.8333 156.5,63.5C 152.167,63.5 147.833,63.5 143.5,63.5C 143.5,64.5 143.5,65.5 143.5,66.5C 140.873,65.9084 138.206,65.5751 135.5,65.5C 136.514,64.3263 137.847,63.6596 139.5,63.5C 144.787,62.6576 150.12,62.3243 155.5,62.5 Z"/></g>
<g><path style="opacity:1" fill="#f7f590" d="M 156.5,63.5 C 157.5,63.5 158.5,63.5 159.5,63.5C 159.5,64.5 159.5,65.5 159.5,66.5C 154.167,66.5 148.833,66.5 143.5,66.5C 143.5,65.5 143.5,64.5 143.5,63.5C 147.833,63.5 152.167,63.5 156.5,63.5 Z"/></g>
<g><path style="opacity:1" fill="#e28f81" d="M 213.5,76.5 C 212.957,76.44 212.624,76.1067 212.5,75.5C 223.041,60.708 221.041,58.708 206.5,69.5C 204.079,69.8782 201.746,70.5448 199.5,71.5C 201.649,69.2542 204.316,67.7542 207.5,67C 208.305,65.8873 208.972,64.7206 209.5,63.5C 211.63,62.9681 213.63,62.1348 215.5,61C 218.227,60.1816 220.894,60.3483 223.5,61.5C 220.391,66.7375 217.058,71.7375 213.5,76.5 Z"/></g>
<g><path style="opacity:1" fill="#542620" d="M 226.5,58.5 C 226.5,59.5 226.5,60.5 226.5,61.5C 225.624,61.3691 224.957,61.7025 224.5,62.5C 220.641,69.5727 216.307,76.2394 211.5,82.5C 211.5,81.8333 211.5,81.1667 211.5,80.5C 212.167,79.1667 212.833,77.8333 213.5,76.5C 217.058,71.7375 220.391,66.7375 223.5,61.5C 220.894,60.3483 218.227,60.1816 215.5,61C 213.63,62.1348 211.63,62.9681 209.5,63.5C 209.167,63.5 208.833,63.5 208.5,63.5C 208.5,63.1667 208.5,62.8333 208.5,62.5C 213.992,59.0793 219.992,57.7459 226.5,58.5 Z"/></g>
<g><path style="opacity:1" fill="#c89f87" d="M 87.5,63.5 C 88.7847,65.4516 90.4514,67.1182 92.5,68.5C 88.8591,70.8103 85.5257,73.477 82.5,76.5C 80.9373,75.0552 79.604,73.3885 78.5,71.5C 77.1944,69.1838 75.8611,66.8505 74.5,64.5C 76.4147,64.2155 78.0813,64.5489 79.5,65.5C 79.4914,67.3084 79.9914,68.9751 81,70.5C 83.0408,69.5769 85.2075,69.2436 87.5,69.5C 87.5,67.5 87.5,65.5 87.5,63.5 Z"/></g>
<g><path style="opacity:1" fill="#d49b71" d="M 208.5,63.5 C 208.833,63.5 209.167,63.5 209.5,63.5C 208.972,64.7206 208.305,65.8873 207.5,67C 204.316,67.7542 201.649,69.2542 199.5,71.5C 198.167,71.5 197.5,72.1667 197.5,73.5C 196.167,73.5 194.833,73.5 193.5,73.5C 197.937,69.4392 202.937,66.1058 208.5,63.5 Z"/></g>
<g><path style="opacity:1" fill="#d0b37f" d="M 87.5,63.5 C 87.5,65.5 87.5,67.5 87.5,69.5C 85.2075,69.2436 83.0408,69.5769 81,70.5C 79.9914,68.9751 79.4914,67.3084 79.5,65.5C 81.9158,64.0318 84.5825,63.3651 87.5,63.5 Z"/></g>
<g><path style="opacity:1" fill="#3d3b0d" d="M 208.5,62.5 C 208.5,62.8333 208.5,63.1667 208.5,63.5C 202.937,66.1058 197.937,69.4392 193.5,73.5C 191.938,73.7329 190.605,74.3995 189.5,75.5C 188.833,75.5 188.167,75.5 187.5,75.5C 189.833,73.5 192.167,71.5 194.5,69.5C 198.167,67.5 201.833,65.5 205.5,63.5C 206.391,62.8902 207.391,62.5569 208.5,62.5 Z"/></g>
<g><path style="opacity:1" fill="#6f756d" d="M 14.5,73.5 C 14.1667,72.5 13.5,71.8333 12.5,71.5C 12.1667,68.5 13.5,67.1667 16.5,67.5C 16.7406,69.8984 16.0739,71.8984 14.5,73.5 Z"/></g>
<g><path style="opacity:1" fill="#ae1f3c" d="M 124.5,76.5 C 124.741,78.8984 124.074,80.8984 122.5,82.5C 113.565,80.3522 104.565,78.8522 95.5,78C 97.1667,79 98.8333,80 100.5,81C 99.6705,82.8161 98.8372,84.6494 98,86.5C 96.9032,84.9474 95.5699,83.614 94,82.5C 93.2174,84.9296 92.0508,87.0962 90.5,89C 89.9233,91.137 89.59,93.3037 89.5,95.5C 87.8333,95.5 86.1667,95.5 84.5,95.5C 84.4431,94.391 84.1098,93.391 83.5,92.5C 87.4806,91.985 89.1473,89.3183 88.5,84.5C 89.6883,83.6364 90.8549,82.6364 92,81.5C 93.0189,78.1284 94.5189,75.1284 96.5,72.5C 100.329,73.069 103.663,72.4023 106.5,70.5C 107.833,69.8333 109.167,69.1667 110.5,68.5C 110.863,66.0885 109.863,64.5885 107.5,64C 109.293,61.1542 111.127,60.9875 113,63.5C 113.818,58.2063 114.318,58.2063 114.5,63.5C 115.833,63.5 117.167,63.5 118.5,63.5C 118.343,62.1266 118.51,60.7932 119,59.5C 120.6,60.8659 122.433,61.8659 124.5,62.5C 124.023,63.4776 123.357,64.3109 122.5,65C 123.308,65.3076 123.975,65.8076 124.5,66.5C 121.99,70.0506 121.99,73.384 124.5,76.5 Z"/></g>
<g><path style="opacity:1" fill="#f1ecce" d="M 159.5,63.5 C 160.833,63.8333 162.167,64.1667 163.5,64.5C 164.478,64.811 165.145,65.4777 165.5,66.5C 164.544,68.0754 163.877,69.742 163.5,71.5C 161.863,73.4752 160.196,75.4752 158.5,77.5C 157.5,78.1667 156.5,78.8333 155.5,79.5C 154.375,78.6522 154.375,77.6522 155.5,76.5C 156.478,76.189 157.145,75.5223 157.5,74.5C 155.631,73.3764 153.631,72.5431 151.5,72C 143.686,70.9808 136.019,71.4808 128.5,73.5C 127.833,73.1667 127.167,72.8333 126.5,72.5C 127.127,71.5832 127.461,70.5832 127.5,69.5C 129.849,67.659 132.515,66.3257 135.5,65.5C 138.206,65.5751 140.873,65.9084 143.5,66.5C 148.833,66.5 154.167,66.5 159.5,66.5C 159.5,65.5 159.5,64.5 159.5,63.5 Z"/></g>
<g><path style="opacity:1" fill="#385e2f" d="M 185.5,63.5 C 185.5,63.8333 185.5,64.1667 185.5,64.5C 184.224,65.3864 184.224,66.3864 185.5,67.5C 188.447,68.4226 191.447,69.0893 194.5,69.5C 192.167,71.5 189.833,73.5 187.5,75.5C 186.415,77.5822 184.915,77.9156 183,76.5C 182.833,75.6667 182.667,74.8333 182.5,74C 182.65,70.0143 183.65,66.5143 185.5,63.5 Z"/></g>
<g><path style="opacity:1" fill="#ea7c71" d="M 95.5,70.5 C 97.6074,69.5318 99.9407,69.1984 102.5,69.5C 103.568,70.4345 104.901,70.7678 106.5,70.5C 103.663,72.4023 100.329,73.069 96.5,72.5C 99.2583,71.0335 98.925,70.3668 95.5,70.5 Z"/></g>
<g><path style="opacity:1" fill="#433a23" d="M 104.5,60.5 C 104.062,61.5063 103.396,61.5063 102.5,60.5C 100.652,56.7445 97.652,54.7445 93.5,54.5C 93.1667,54.5 92.8333,54.5 92.5,54.5C 90.7396,52.4413 88.4062,51.108 85.5,50.5C 81.0335,48.7846 76.3669,48.1179 71.5,48.5C 71.5,50.1667 71.5,51.8333 71.5,53.5C 72.3028,57.2388 73.3028,60.9054 74.5,64.5C 75.8611,66.8505 77.1944,69.1838 78.5,71.5C 73.0597,68.1309 67.0597,66.1309 60.5,65.5C 59.036,64.8401 57.3693,64.5068 55.5,64.5C 52.5143,64.3817 49.8476,65.0483 47.5,66.5C 45.6231,67.6591 45.1231,69.3258 46,71.5C 47.2775,73.7472 48.7775,75.7472 50.5,77.5C 51.2026,79.7157 52.5359,81.549 54.5,83C 51.3054,83.1805 48.3054,83.6805 45.5,84.5C 39.6136,85.1077 34.9469,87.7744 31.5,92.5C 29.7376,93.2623 28.7376,94.5956 28.5,96.5C 27.5154,99.4374 28.8488,100.771 32.5,100.5C 35.7577,101.171 39.0911,102.004 42.5,103C 41.2625,103.232 40.2625,103.732 39.5,104.5C 32.7422,109.015 29.4089,115.348 29.5,123.5C 28.8333,122.167 28.1667,120.833 27.5,119.5C 29.3217,113.695 32.3217,108.529 36.5,104C 33.1667,102.667 29.8333,101.333 26.5,100C 25.4464,98.6124 25.2797,97.1124 26,95.5C 29.0979,90.5657 33.2646,86.8991 38.5,84.5C 42.4184,83.3176 46.4184,82.3176 50.5,81.5C 38.7795,68.3743 41.6128,62.3743 59,63.5C 63.2419,63.2572 67.2419,63.9239 71,65.5C 72.5439,64.1623 72.3773,62.829 70.5,61.5C 69.6027,56.8602 69.4361,52.1935 70,47.5C 76.5783,46.1274 83.0783,46.6274 89.5,49C 92.9335,51.4349 96.6002,53.4349 100.5,55C 101.665,56.9917 102.998,58.825 104.5,60.5 Z"/></g>
<g><path style="opacity:1" fill="#e7e181" d="M 60.5,65.5 C 58.4924,67.9272 55.8257,68.9272 52.5,68.5C 50.3603,68.4439 48.6936,67.7773 47.5,66.5C 49.8476,65.0483 52.5143,64.3817 55.5,64.5C 57.3693,64.5068 59.036,64.8401 60.5,65.5 Z"/></g>
<g><path style="opacity:1" fill="#ed9681" d="M 93.5,54.5 C 97.652,54.7445 100.652,56.7445 102.5,60.5C 101.472,60.9258 100.139,60.9258 98.5,60.5C 96.4973,58.0181 93.8306,57.0181 90.5,57.5C 91.3065,56.2719 92.3065,55.2719 93.5,54.5 Z"/></g>
<g><path style="opacity:1" fill="#ebe995" d="M 85.5,50.5 C 86.5981,51.397 86.5981,52.2303 85.5,53C 80.8452,53.4992 76.1785,53.6658 71.5,53.5C 71.5,51.8333 71.5,50.1667 71.5,48.5C 76.3669,48.1179 81.0335,48.7846 85.5,50.5 Z"/></g>
<g><path style="opacity:1" fill="#efe9cb" d="M 60.5,65.5 C 67.0597,66.1309 73.0597,68.1309 78.5,71.5C 79.604,73.3885 80.9373,75.0552 82.5,76.5C 82.5,76.8333 82.5,77.1667 82.5,77.5C 73.2046,76.1519 63.8713,75.6519 54.5,76C 53.944,76.3826 53.6107,76.8826 53.5,77.5C 52.7978,78.1157 51.7978,78.1157 50.5,77.5C 48.7775,75.7472 47.2775,73.7472 46,71.5C 45.1231,69.3258 45.6231,67.6591 47.5,66.5C 48.6936,67.7773 50.3603,68.4439 52.5,68.5C 55.8257,68.9272 58.4924,67.9272 60.5,65.5 Z"/></g>
<g><path style="opacity:1" fill="#f0ad77" d="M 95.5,70.5 C 98.925,70.3668 99.2583,71.0335 96.5,72.5C 94.5189,75.1284 93.0189,78.1284 92,81.5C 90.8549,82.6364 89.6883,83.6364 88.5,84.5C 86.3888,85.3799 84.3888,85.3799 82.5,84.5C 82.5,83.8333 82.5,83.1667 82.5,82.5C 84.2769,75.7228 88.6103,71.7228 95.5,70.5 Z"/></g>
<g><path style="opacity:1" fill="#cba37d" d="M 155.5,76.5 C 154.375,77.6522 154.375,78.6522 155.5,79.5C 152.165,82.8389 148.165,85.1722 143.5,86.5C 143.5,85.5 143.5,84.5 143.5,83.5C 147.164,83.7565 149.164,82.4232 149.5,79.5C 151.214,80.6085 151.881,79.9418 151.5,77.5C 145.866,76.8116 140.199,76.3116 134.5,76C 133.263,75.7679 132.263,75.2679 131.5,74.5C 139.801,71.7267 147.801,72.3933 155.5,76.5 Z"/></g>
<g><path style="opacity:1" fill="#dec69e" d="M 126.5,69.5 C 126.833,69.5 127.167,69.5 127.5,69.5C 127.461,70.5832 127.127,71.5832 126.5,72.5C 127.167,72.8333 127.833,73.1667 128.5,73.5C 136.019,71.4808 143.686,70.9808 151.5,72C 153.631,72.5431 155.631,73.3764 157.5,74.5C 157.145,75.5223 156.478,76.189 155.5,76.5C 147.801,72.3933 139.801,71.7267 131.5,74.5C 128.959,74.8499 126.626,74.8499 124.5,74.5C 124.365,72.4458 125.032,70.7791 126.5,69.5 Z"/></g>
<g><path style="opacity:1" fill="#be2421" d="M 174.5,70.5 C 176.202,74.1635 175.202,76.9969 171.5,79C 169.421,79.8077 167.421,79.641 165.5,78.5C 166.91,77.4305 167.91,76.0972 168.5,74.5C 170.246,72.7484 172.246,71.4151 174.5,70.5 Z"/></g>
<g><path style="opacity:1" fill="#ecebe1" d="M 70.5,61.5 C 72.3773,62.829 72.5439,64.1623 71,65.5C 67.2419,63.9239 63.2419,63.2572 59,63.5C 41.6128,62.3743 38.7795,68.3743 50.5,81.5C 46.4184,82.3176 42.4184,83.3176 38.5,84.5C 38.4257,80.8389 39.4257,80.1723 41.5,82.5C 43.5165,81.8257 45.1832,80.6591 46.5,79C 45.1456,77.7063 43.8123,77.5396 42.5,78.5C 41.1228,76.7105 40.1228,74.7105 39.5,72.5C 40.7527,69.6782 41.4194,66.3449 41.5,62.5C 48.5081,63.0426 55.3414,62.3759 62,60.5C 64.8973,62.1201 67.7306,62.4534 70.5,61.5 Z"/></g>
<g><path style="opacity:1" fill="#dbc094" d="M 82.5,77.5 C 81.2485,79.0009 80.2485,80.6675 79.5,82.5C 75.6281,81.5179 71.9615,80.0179 68.5,78C 63.2985,77.6409 58.2985,77.4742 53.5,77.5C 53.6107,76.8826 53.944,76.3826 54.5,76C 63.8713,75.6519 73.2046,76.1519 82.5,77.5 Z"/></g>
<g><path style="opacity:1" fill="#fcfbfb" d="M 226.5,61.5 C 226.5,114.833 226.5,168.167 226.5,221.5C 193.5,221.5 160.5,221.5 127.5,221.5C 135.759,218.538 144.426,216.372 153.5,215C 155.723,214.434 157.723,213.6 159.5,212.5C 163.59,210.892 167.923,209.725 172.5,209C 176.784,206.553 179.784,203.053 181.5,198.5C 181.182,197.353 180.516,196.519 179.5,196C 174.728,194.877 169.895,194.043 165,193.5C 163.624,193.316 162.791,192.649 162.5,191.5C 162.833,190.833 163.167,190.167 163.5,189.5C 164.434,188.432 164.768,187.099 164.5,185.5C 167.028,186.023 169.361,187.023 171.5,188.5C 173.397,188.272 174.73,187.272 175.5,185.5C 178.421,186.407 181.421,186.74 184.5,186.5C 184.518,183.264 185.518,180.597 187.5,178.5C 189.792,178.756 191.959,178.423 194,177.5C 195.335,174.185 195.835,170.851 195.5,167.5C 199.697,166.606 203.697,165.273 207.5,163.5C 206.687,160.011 204.687,157.344 201.5,155.5C 200.167,154.5 200.167,153.5 201.5,152.5C 212.793,145.218 211.46,141.718 197.5,142C 201.27,138.903 204.27,135.236 206.5,131C 206.355,130.228 206.022,129.561 205.5,129C 202.447,128.821 199.447,128.321 196.5,127.5C 197.524,126.148 198.524,124.815 199.5,123.5C 200.404,122.791 200.737,121.791 200.5,120.5C 197.167,120.5 193.833,120.5 190.5,120.5C 188.585,120.784 186.919,120.451 185.5,119.5C 186.167,119.5 186.5,119.167 186.5,118.5C 187.833,118.5 189.167,118.5 190.5,118.5C 190.5,117.167 190.5,115.833 190.5,114.5C 191.952,113.287 193.286,113.62 194.5,115.5C 195.322,113.861 195.989,112.195 196.5,110.5C 199.32,110.752 201.986,110.252 204.5,109C 207.802,105.544 210.469,101.711 212.5,97.5C 213.167,97.5 213.5,97.1667 213.5,96.5C 214.404,95.791 214.737,94.791 214.5,93.5C 210.116,93.8256 205.783,93.4922 201.5,92.5C 202.243,91.8182 202.909,91.1515 203.5,90.5C 206.5,88.1667 209.167,85.5 211.5,82.5C 216.307,76.2394 220.641,69.5727 224.5,62.5C 224.957,61.7025 225.624,61.3691 226.5,61.5 Z"/></g>
<g><path style="opacity:1" fill="#68281a" d="M 92.5,54.5 C 92.8333,54.5 93.1667,54.5 93.5,54.5C 92.3065,55.2719 91.3065,56.2719 90.5,57.5C 89.0677,60.2672 89.401,62.9338 91.5,65.5C 94.6294,67.0216 97.9627,67.855 101.5,68C 102.167,68.3333 102.833,68.6667 103.5,69C 103.272,69.3988 102.938,69.5654 102.5,69.5C 99.9407,69.1984 97.6074,69.5318 95.5,70.5C 88.6103,71.7228 84.2769,75.7228 82.5,82.5C 81.6618,82.8417 81.3284,83.5084 81.5,84.5C 81.1667,84.5 80.8333,84.5 80.5,84.5C 79.5,84.5 78.5,84.5 77.5,84.5C 78.1667,83.8333 78.8333,83.1667 79.5,82.5C 80.2485,80.6675 81.2485,79.0009 82.5,77.5C 82.5,77.1667 82.5,76.8333 82.5,76.5C 85.5257,73.477 88.8591,70.8103 92.5,68.5C 90.4514,67.1182 88.7847,65.4516 87.5,63.5C 86.8747,59.0727 88.5413,56.0727 92.5,54.5 Z"/></g>
<g><path style="opacity:1" fill="#a9213c" d="M 181.5,69.5 C 179.703,70.3845 178.703,72.3845 178.5,75.5C 178.676,82.9884 175.01,86.3218 167.5,85.5C 166.03,82.6819 165.03,79.6819 164.5,76.5C 165.5,75.8333 166.5,75.1667 167.5,74.5C 167.833,74.5 168.167,74.5 168.5,74.5C 167.91,76.0972 166.91,77.4305 165.5,78.5C 167.421,79.641 169.421,79.8077 171.5,79C 175.202,76.9969 176.202,74.1635 174.5,70.5C 177.04,69.6391 179.04,67.9725 180.5,65.5C 181.429,66.6888 181.762,68.0222 181.5,69.5 Z"/></g>
<g><path style="opacity:1" fill="#b95644" d="M 193.5,73.5 C 194.833,73.5 196.167,73.5 197.5,73.5C 194.665,74.5182 191.998,76.0182 189.5,78C 186.967,81.0309 184.3,83.8643 181.5,86.5C 183.368,82.2917 186.035,78.6251 189.5,75.5C 190.605,74.3995 191.938,73.7329 193.5,73.5 Z"/></g>
<g><path style="opacity:1" fill="#ae213a" d="M 213.5,76.5 C 212.833,77.8333 212.167,79.1667 211.5,80.5C 209.457,83.5431 206.79,85.8764 203.5,87.5C 197.927,88.8062 192.594,88.8062 187.5,87.5C 189.279,85.5374 190.946,83.3707 192.5,81C 196.714,77.2085 201.381,73.8751 206.5,71C 207.738,70.31 207.738,69.81 206.5,69.5C 221.041,58.708 223.041,60.708 212.5,75.5C 212.624,76.1067 212.957,76.44 213.5,76.5 Z"/></g>
<g><path style="opacity:1" fill="#49442c" d="M 158.5,77.5 C 159.237,80.7254 159.903,84.0588 160.5,87.5C 155.167,86.1667 149.833,86.1667 144.5,87.5C 143.833,87.5 143.5,87.1667 143.5,86.5C 148.165,85.1722 152.165,82.8389 155.5,79.5C 156.5,78.8333 157.5,78.1667 158.5,77.5 Z"/></g>
<g><path style="opacity:1" fill="#f7ebd4" d="M 45.5,84.5 C 50.4848,83.9598 55.1515,84.7931 59.5,87C 55.3911,87.6648 51.3911,88.4982 47.5,89.5C 46.5,89.5 45.5,89.5 44.5,89.5C 44.5,88.1667 44.5,86.8333 44.5,85.5C 45.1667,85.5 45.5,85.1667 45.5,84.5 Z"/></g>
<g><path style="opacity:1" fill="#b62428" d="M 206.5,69.5 C 207.738,69.81 207.738,70.31 206.5,71C 201.381,73.8751 196.714,77.2085 192.5,81C 190.946,83.3707 189.279,85.5374 187.5,87.5C 186.059,90.9421 183.725,93.2755 180.5,94.5C 179.539,92.7354 179.205,90.7354 179.5,88.5C 179.833,87.5 180.5,86.8333 181.5,86.5C 184.3,83.8643 186.967,81.0309 189.5,78C 191.998,76.0182 194.665,74.5182 197.5,73.5C 197.5,72.1667 198.167,71.5 199.5,71.5C 201.746,70.5448 204.079,69.8782 206.5,69.5 Z"/></g>
<g><path style="opacity:1" fill="#300d0a" d="M 77.5,84.5 C 78.5,84.5 79.5,84.5 80.5,84.5C 80.81,87.7131 80.4767,90.7131 79.5,93.5C 79.8134,90.7531 79.48,88.0865 78.5,85.5C 76.2706,86.5771 73.9372,87.2437 71.5,87.5C 73.1815,85.9925 75.1815,84.9925 77.5,84.5 Z"/></g>
<g><path style="opacity:1" fill="#6f2d27" d="M 193.5,39.5 C 194.404,40.209 194.737,41.209 194.5,42.5C 194.5,42.8333 194.5,43.1667 194.5,43.5C 193.331,46.341 192.331,49.341 191.5,52.5C 189.058,54.1209 187.725,56.4542 187.5,59.5C 187.011,60.9952 186.345,62.3285 185.5,63.5C 183.65,66.5143 182.65,70.0143 182.5,74C 182.667,74.8333 182.833,75.6667 183,76.5C 184.915,77.9156 186.415,77.5822 187.5,75.5C 188.167,75.5 188.833,75.5 189.5,75.5C 186.035,78.6251 183.368,82.2917 181.5,86.5C 180.5,86.8333 179.833,87.5 179.5,88.5C 178.521,89.7653 177.521,91.0986 176.5,92.5C 178.149,94.6499 179.982,96.6499 182,98.5C 182.632,101.875 182.132,102.209 180.5,99.5C 178.833,97.5 177.167,95.5 175.5,93.5C 175.5,92.1667 175.5,90.8333 175.5,89.5C 174.5,89.5 173.5,89.5 172.5,89.5C 175.105,87.663 177.272,85.3297 179,82.5C 179.796,79.9615 179.629,77.6282 178.5,75.5C 178.703,72.3845 179.703,70.3845 181.5,69.5C 182.461,67.7354 182.795,65.7354 182.5,63.5C 178.86,64.15 175.527,65.65 172.5,68C 170.21,69.7772 168.543,71.9438 167.5,74.5C 166.5,75.1667 165.5,75.8333 164.5,76.5C 163.222,76.7822 162.222,77.4489 161.5,78.5C 161.585,76.0712 162.585,74.0712 164.5,72.5C 164.376,71.8933 164.043,71.56 163.5,71.5C 163.877,69.742 164.544,68.0754 165.5,66.5C 165.145,65.4777 164.478,64.811 163.5,64.5C 166.284,61.2667 168.284,57.6 169.5,53.5C 169.5,54.5 169.5,55.5 169.5,56.5C 169.082,59.0896 168.082,61.4229 166.5,63.5C 167.32,65.1112 168.654,65.7778 170.5,65.5C 171.721,66.4646 173.054,66.298 174.5,65C 177.147,61.2437 180.813,59.7437 185.5,60.5C 186.92,57.7387 187.587,54.7387 187.5,51.5C 190.682,48.148 192.682,44.148 193.5,39.5 Z"/></g>
<g><path style="opacity:1" fill="#eb8a80" d="M 181.5,69.5 C 181.762,68.0222 181.429,66.6888 180.5,65.5C 179.04,67.9725 177.04,69.6391 174.5,70.5C 172.246,71.4151 170.246,72.7484 168.5,74.5C 168.167,74.5 167.833,74.5 167.5,74.5C 168.543,71.9438 170.21,69.7772 172.5,68C 175.527,65.65 178.86,64.15 182.5,63.5C 182.795,65.7354 182.461,67.7354 181.5,69.5 Z"/></g>
<g><path style="opacity:1" fill="#892b3d" d="M 178.5,75.5 C 179.629,77.6282 179.796,79.9615 179,82.5C 177.272,85.3297 175.105,87.663 172.5,89.5C 168.855,88.0127 165.188,86.5127 161.5,85C 160.189,82.7265 160.189,80.5598 161.5,78.5C 162.222,77.4489 163.222,76.7822 164.5,76.5C 165.03,79.6819 166.03,82.6819 167.5,85.5C 175.01,86.3218 178.676,82.9884 178.5,75.5 Z"/></g>
<g><path style="opacity:1" fill="#36952c" d="M 19.5,99.5 C 15.7291,100.959 13.7291,99.9587 13.5,96.5C 11.9547,95.5481 10.288,95.2148 8.5,95.5C 7.53747,91.204 7.3708,86.8706 8,82.5C 9.15445,81.2567 10.4878,80.2567 12,79.5C 13.5407,84.9125 15.874,89.9125 19,94.5C 19.4935,96.1341 19.6602,97.8008 19.5,99.5 Z"/></g>
<g><path style="opacity:1" fill="#b82622" d="M 82.5,84.5 C 84.3888,85.3799 86.3888,85.3799 88.5,84.5C 89.1473,89.3183 87.4806,91.985 83.5,92.5C 82.5269,90.0521 82.1936,87.3854 82.5,84.5 Z"/></g>
<g><path style="opacity:1" fill="#592f2c" d="M 163.5,71.5 C 164.043,71.56 164.376,71.8933 164.5,72.5C 162.585,74.0712 161.585,76.0712 161.5,78.5C 160.189,80.5598 160.189,82.7265 161.5,85C 165.188,86.5127 168.855,88.0127 172.5,89.5C 173.5,89.5 174.5,89.5 175.5,89.5C 175.5,90.8333 175.5,92.1667 175.5,93.5C 170.841,90.723 165.841,88.723 160.5,87.5C 159.903,84.0588 159.237,80.7254 158.5,77.5C 160.196,75.4752 161.863,73.4752 163.5,71.5 Z"/></g>
<g><path style="opacity:1" fill="#e3e382" d="M 45.5,84.5 C 45.5,85.1667 45.1667,85.5 44.5,85.5C 40.6991,88.3442 36.8657,91.3442 33,94.5C 32.7216,93.5842 32.2216,92.9175 31.5,92.5C 34.9469,87.7744 39.6136,85.1077 45.5,84.5 Z"/></g>
<g><path style="opacity:1" fill="#cb9f84" d="M 50.5,77.5 C 51.7978,78.1157 52.7978,78.1157 53.5,77.5C 58.2985,77.4742 63.2985,77.6409 68.5,78C 71.9615,80.0179 75.6281,81.5179 79.5,82.5C 78.8333,83.1667 78.1667,83.8333 77.5,84.5C 75.1815,84.9925 73.1815,85.9925 71.5,87.5C 68.9837,87.7553 66.6504,88.5886 64.5,90C 59.9983,93.6699 55.665,97.5032 51.5,101.5C 51.573,99.9731 50.9063,98.9731 49.5,98.5C 48.6715,97.6676 47.8382,98.001 47,99.5C 43.5346,105.435 40.3679,111.435 37.5,117.5C 37.7375,114.788 37.7375,112.288 37.5,110C 39.3615,108.972 40.6948,107.472 41.5,105.5C 41.0431,104.702 40.3764,104.369 39.5,104.5C 40.2625,103.732 41.2625,103.232 42.5,103C 39.0911,102.004 35.7577,101.171 32.5,100.5C 33.675,100.719 34.675,100.386 35.5,99.5C 38.2967,96.274 41.2967,93.274 44.5,90.5C 45.791,90.7373 46.791,90.404 47.5,89.5C 51.3911,88.4982 55.3911,87.6648 59.5,87C 55.1515,84.7931 50.4848,83.9598 45.5,84.5C 48.3054,83.6805 51.3054,83.1805 54.5,83C 52.5359,81.549 51.2026,79.7157 50.5,77.5 Z"/></g>
<g><path style="opacity:1" fill="#ef928e" d="M 82.5,82.5 C 82.5,83.1667 82.5,83.8333 82.5,84.5C 82.1936,87.3854 82.5269,90.0521 83.5,92.5C 84.1098,93.391 84.4431,94.391 84.5,95.5C 84.1667,95.5 83.8333,95.5 83.5,95.5C 82.7784,95.0825 82.2784,94.4158 82,93.5C 81.502,90.5184 81.3354,87.5184 81.5,84.5C 81.3284,83.5084 81.6618,82.8417 82.5,82.5 Z"/></g>
<g><path style="opacity:1" fill="#ae2048" d="M 122.5,82.5 C 121.167,83.1667 119.833,83.8333 118.5,84.5C 114.253,83.3982 109.92,83.2316 105.5,84C 104.563,87.5158 103.563,91.0158 102.5,94.5C 100.405,95.412 98.4048,96.5787 96.5,98C 93.1667,98.6667 89.8333,98.6667 86.5,98C 85.0577,97.6232 84.0577,96.7899 83.5,95.5C 83.8333,95.5 84.1667,95.5 84.5,95.5C 86.1667,95.5 87.8333,95.5 89.5,95.5C 89.59,93.3037 89.9233,91.137 90.5,89C 92.0508,87.0962 93.2174,84.9296 94,82.5C 95.5699,83.614 96.9032,84.9474 98,86.5C 98.8372,84.6494 99.6705,82.8161 100.5,81C 98.8333,80 97.1667,79 95.5,78C 104.565,78.8522 113.565,80.3522 122.5,82.5 Z"/></g>
<g><path style="opacity:1" fill="#752233" d="M 118.5,84.5 C 118.5,84.8333 118.5,85.1667 118.5,85.5C 118.5,85.8333 118.5,86.1667 118.5,86.5C 117.292,85.7659 115.959,85.4326 114.5,85.5C 112.372,84.3709 110.039,84.2042 107.5,85C 106.73,88.7088 105.064,91.8754 102.5,94.5C 103.563,91.0158 104.563,87.5158 105.5,84C 109.92,83.2316 114.253,83.3982 118.5,84.5 Z"/></g>
<g><path style="opacity:1" fill="#315f2e" d="M 12.5,71.5 C 13.5,71.8333 14.1667,72.5 14.5,73.5C 14.6775,74.6948 15.0109,75.8615 15.5,77C 14.8333,78 14.1667,79 13.5,80C 16.4604,85.2928 18.9604,90.7928 21,96.5C 21.7891,98.7116 21.6225,100.712 20.5,102.5C 20.7373,101.209 20.404,100.209 19.5,99.5C 19.6602,97.8008 19.4935,96.1341 19,94.5C 15.874,89.9125 13.5407,84.9125 12,79.5C 10.4878,80.2567 9.15445,81.2567 8,82.5C 7.3708,86.8706 7.53747,91.204 8.5,95.5C 5.78252,92.3631 4.94919,88.6964 6,84.5C 7.32632,79.6494 9.49299,75.3161 12.5,71.5 Z"/></g>
<g><path style="opacity:1" fill="#d6b8b4" d="M 203.5,90.5 C 202.909,91.1515 202.243,91.8182 201.5,92.5C 205.783,93.4922 210.116,93.8256 214.5,93.5C 214.737,94.791 214.404,95.791 213.5,96.5C 208.431,94.9969 203.098,93.6636 197.5,92.5C 197.167,92.1667 196.833,91.8333 196.5,91.5C 198.743,90.5258 201.076,90.1924 203.5,90.5 Z"/></g>
<g><path style="opacity:1" fill="#f2ebac" d="M 44.5,85.5 C 44.5,86.8333 44.5,88.1667 44.5,89.5C 45.5,89.5 46.5,89.5 47.5,89.5C 46.791,90.404 45.791,90.7373 44.5,90.5C 39.0721,91.9342 34.2387,94.6009 30,98.5C 29.7216,97.5842 29.2216,96.9175 28.5,96.5C 28.7376,94.5956 29.7376,93.2623 31.5,92.5C 32.2216,92.9175 32.7216,93.5842 33,94.5C 36.8657,91.3442 40.6991,88.3442 44.5,85.5 Z"/></g>
<g><path style="opacity:1" fill="#dabdb4" d="M 114.5,85.5 C 113.448,85.3505 112.448,85.5172 111.5,86C 120.281,88.4493 126.614,93.7826 130.5,102C 131.675,105.708 133.509,109.542 136,113.5C 136.818,116.227 136.652,118.894 135.5,121.5C 132.228,120.071 130.562,121.237 130.5,125C 131.471,128.269 133.471,129.102 136.5,127.5C 137.858,134.376 136.525,140.709 132.5,146.5C 130.922,147.298 129.256,147.798 127.5,148C 128.86,149.938 128.527,151.604 126.5,153C 119.994,154.963 113.327,155.963 106.5,156C 107.737,156.232 108.737,156.732 109.5,157.5C 105.327,157.333 101.66,156 98.5,153.5C 101.624,150.769 105.291,148.769 109.5,147.5C 110.5,148.167 111.5,148.833 112.5,149.5C 119.965,144.147 122.465,136.813 120,127.5C 119.333,126.167 118.667,124.833 118,123.5C 117.667,124.5 117.333,125.5 117,126.5C 116.333,125.167 115.667,123.833 115,122.5C 114.617,123.056 114.117,123.389 113.5,123.5C 114.736,119.035 114.736,114.701 113.5,110.5C 113.443,109.391 113.11,108.391 112.5,107.5C 112.611,105.352 111.944,105.019 110.5,106.5C 104.368,102.726 97.7011,101.56 90.5,103C 90.8333,103.333 91.1667,103.667 91.5,104C 90.5,104.833 89.5,105.667 88.5,106.5C 89.7665,108.972 89.7665,111.306 88.5,113.5C 88.9492,111.023 88.2825,109.023 86.5,107.5C 84.3483,109.162 82.6817,111.162 81.5,113.5C 81.4152,110.253 82.4152,107.419 84.5,105C 82.9751,103.991 81.3084,103.491 79.5,103.5C 79.5,102.5 79.5,101.5 79.5,100.5C 74.6366,100.739 69.9699,101.739 65.5,103.5C 65.1001,108.097 62.7668,111.097 58.5,112.5C 56.7569,115.574 54.9236,118.574 53,121.5C 52.1868,129.08 52.3534,136.58 53.5,144C 52.8333,144.333 52.1667,144.667 51.5,145C 57.6693,147.455 64.0026,147.955 70.5,146.5C 71.8419,145.124 73.1752,143.791 74.5,142.5C 75.1835,142.863 75.8501,143.196 76.5,143.5C 75.8333,144.5 75.1667,145.5 74.5,146.5C 72.9731,146.427 71.9731,147.094 71.5,148.5C 67.6432,150.096 63.6432,151.096 59.5,151.5C 60.6085,150.71 61.9419,150.21 63.5,150C 59.5,149.667 55.5,149.333 51.5,149C 46.7796,142.249 45.2796,134.749 47,126.5C 48,122.5 49,118.5 50,114.5C 54.6667,108.5 59.3333,102.5 64,96.5C 67.1329,93.6657 70.6329,91.3323 74.5,89.5C 73.3002,88.7084 71.9669,88.7084 70.5,89.5C 70.8333,88.8333 71.1667,88.1667 71.5,87.5C 73.9372,87.2437 76.2706,86.5771 78.5,85.5C 79.48,88.0865 79.8134,90.7531 79.5,93.5C 81.2898,98.4645 84.7898,100.798 90,100.5C 95.4993,101.066 99.6659,99.0661 102.5,94.5C 105.064,91.8754 106.73,88.7088 107.5,85C 110.039,84.2042 112.372,84.3709 114.5,85.5 Z"/></g>
<g><path style="opacity:1" fill="#f1eacf" d="M 160.5,87.5 C 165.841,88.723 170.841,90.723 175.5,93.5C 177.167,95.5 178.833,97.5 180.5,99.5C 180.5,100.167 180.5,100.833 180.5,101.5C 179.609,102.11 178.609,102.443 177.5,102.5C 173.405,100.857 169.572,98.5236 166,95.5C 158.236,94.1797 150.736,92.1797 143.5,89.5C 143.833,88.8333 144.167,88.1667 144.5,87.5C 149.833,86.1667 155.167,86.1667 160.5,87.5 Z"/></g>
<g><path style="opacity:1" fill="#742a2d" d="M 211.5,80.5 C 211.5,81.1667 211.5,81.8333 211.5,82.5C 209.167,85.5 206.5,88.1667 203.5,90.5C 201.076,90.1924 198.743,90.5258 196.5,91.5C 196.833,91.8333 197.167,92.1667 197.5,92.5C 203.098,93.6636 208.431,94.9969 213.5,96.5C 213.5,97.1667 213.167,97.5 212.5,97.5C 211.486,96.2353 209.986,95.5687 208,95.5C 206.014,95.5687 204.514,96.2353 203.5,97.5C 201.167,97.5 198.833,97.5 196.5,97.5C 196.306,94.6703 195.639,92.0037 194.5,89.5C 198.012,90.0545 201.012,89.3878 203.5,87.5C 206.79,85.8764 209.457,83.5431 211.5,80.5 Z"/></g>
<g><path style="opacity:1" fill="#f3e7c9" d="M 44.5,90.5 C 41.2967,93.274 38.2967,96.274 35.5,99.5C 34.675,100.386 33.675,100.719 32.5,100.5C 28.8488,100.771 27.5154,99.4374 28.5,96.5C 29.2216,96.9175 29.7216,97.5842 30,98.5C 34.2387,94.6009 39.0721,91.9342 44.5,90.5 Z"/></g>
<g><path style="opacity:1" fill="#722834" d="M 80.5,84.5 C 80.8333,84.5 81.1667,84.5 81.5,84.5C 81.3354,87.5184 81.502,90.5184 82,93.5C 82.2784,94.4158 82.7784,95.0825 83.5,95.5C 84.0577,96.7899 85.0577,97.6232 86.5,98C 89.8333,98.6667 93.1667,98.6667 96.5,98C 98.4048,96.5787 100.405,95.412 102.5,94.5C 99.6659,99.0661 95.4993,101.066 90,100.5C 84.7898,100.798 81.2898,98.4645 79.5,93.5C 80.4767,90.7131 80.81,87.7131 80.5,84.5 Z"/></g>
<g><path style="opacity:1" fill="#58874f" d="M 8.5,95.5 C 10.288,95.2148 11.9547,95.5481 13.5,96.5C 13.7291,99.9587 15.7291,100.959 19.5,99.5C 20.404,100.209 20.7373,101.209 20.5,102.5C 17.8728,101.908 15.2062,101.575 12.5,101.5C 12.5,100.5 12.5,99.5 12.5,98.5C 10.0274,98.9118 8.69408,97.9118 8.5,95.5 Z"/></g>
<g><path style="opacity:1" fill="#443029" d="M 118.5,86.5 C 118.5,86.1667 118.5,85.8333 118.5,85.5C 125.059,88.0603 130.059,92.3936 133.5,98.5C 135.391,101.614 136.724,104.948 137.5,108.5C 133.351,99.3464 127.018,92.0131 118.5,86.5 Z"/></g>
<g><path style="opacity:1" fill="#d2a785" d="M 143.5,89.5 C 150.736,92.1797 158.236,94.1797 166,95.5C 169.572,98.5236 173.405,100.857 177.5,102.5C 175.735,103.461 173.735,103.795 171.5,103.5C 167.452,103.605 163.452,103.272 159.5,102.5C 159.67,101.178 159.337,100.011 158.5,99C 153.722,97.4438 149.055,95.6105 144.5,93.5C 143.571,92.3112 143.238,90.9778 143.5,89.5 Z"/></g>
<g><path style="opacity:1" fill="#e49d94" d="M 212.5,97.5 C 209.542,100.131 206.875,103.131 204.5,106.5C 203.06,107.952 201.394,108.952 199.5,109.5C 202.855,106.143 205.855,102.476 208.5,98.5C 206.955,97.5481 205.288,97.2148 203.5,97.5C 204.514,96.2353 206.014,95.5687 208,95.5C 209.986,95.5687 211.486,96.2353 212.5,97.5 Z"/></g>
<g><path style="opacity:1" fill="#d39a8b" d="M 124.5,74.5 C 126.626,74.8499 128.959,74.8499 131.5,74.5C 132.263,75.2679 133.263,75.7679 134.5,76C 140.199,76.3116 145.866,76.8116 151.5,77.5C 151.881,79.9418 151.214,80.6085 149.5,79.5C 149.164,82.4232 147.164,83.7565 143.5,83.5C 143.5,84.5 143.5,85.5 143.5,86.5C 143.5,87.1667 143.833,87.5 144.5,87.5C 144.167,88.1667 143.833,88.8333 143.5,89.5C 143.238,90.9778 143.571,92.3112 144.5,93.5C 149.055,95.6105 153.722,97.4438 158.5,99C 159.337,100.011 159.67,101.178 159.5,102.5C 163.452,103.272 167.452,103.605 171.5,103.5C 166.747,104.984 161.747,105.818 156.5,106C 156.167,106.333 155.833,106.667 155.5,107C 158.365,107.183 161.031,107.683 163.5,108.5C 162.127,108.343 160.793,108.51 159.5,109C 163.617,112.15 167.451,115.65 171,119.5C 171.366,121.452 172.199,123.118 173.5,124.5C 170.635,125.783 167.635,125.783 164.5,124.5C 163.438,125.425 163.438,126.425 164.5,127.5C 163.662,127.842 163.328,128.508 163.5,129.5C 162.778,129.082 162.278,128.416 162,127.5C 162.902,133.401 163.568,139.401 164,145.5C 164.417,146.756 165.25,147.423 166.5,147.5C 165.019,151.319 164.186,155.319 164,159.5C 162.89,161.037 161.39,161.703 159.5,161.5C 159.5,158.833 159.5,156.167 159.5,153.5C 160.816,150.913 161.483,147.913 161.5,144.5C 160.484,137.457 159.151,130.457 157.5,123.5C 155.417,125.875 152.75,127.208 149.5,127.5C 148.867,125.95 147.201,124.95 144.5,124.5C 143.314,122.806 143.481,121.139 145,119.5C 148.086,123.996 151.419,124.329 155,120.5C 155.495,117.469 155.329,114.469 154.5,111.5C 151.027,109.915 147.361,108.915 143.5,108.5C 143.33,107.178 143.663,106.011 144.5,105C 149.155,104.501 153.821,104.334 158.5,104.5C 158.5,103.167 158.5,101.833 158.5,100.5C 152.232,99.6305 146.232,97.9638 140.5,95.5C 138.407,95.4858 136.574,96.1524 135,97.5C 133.893,96.2881 133.393,96.6214 133.5,98.5C 130.059,92.3936 125.059,88.0603 118.5,85.5C 118.5,85.1667 118.5,84.8333 118.5,84.5C 119.833,83.8333 121.167,83.1667 122.5,82.5C 124.074,80.8984 124.741,78.8984 124.5,76.5C 124.5,75.8333 124.5,75.1667 124.5,74.5 Z"/></g>
<g><path style="opacity:1" fill="#a2233a" d="M 203.5,87.5 C 201.012,89.3878 198.012,90.0545 194.5,89.5C 195.639,92.0037 196.306,94.6703 196.5,97.5C 198.833,97.5 201.167,97.5 203.5,97.5C 205.288,97.2148 206.955,97.5481 208.5,98.5C 205.855,102.476 202.855,106.143 199.5,109.5C 199.167,109.5 198.833,109.5 198.5,109.5C 196.374,108.897 194.041,108.897 191.5,109.5C 191.5,108.167 191.5,106.833 191.5,105.5C 194.288,105.923 196.288,104.923 197.5,102.5C 196.333,102.167 195.167,101.833 194,101.5C 191.103,102.463 188.27,103.297 185.5,104C 185.833,103.667 186.167,103.333 186.5,103C 184.408,100.203 182.408,97.3696 180.5,94.5C 183.725,93.2755 186.059,90.9421 187.5,87.5C 192.594,88.8062 197.927,88.8062 203.5,87.5 Z"/></g>
<g><path style="opacity:1" fill="#582e25" d="M 180.5,101.5 C 180.631,102.376 180.298,103.043 179.5,103.5C 176.074,104.711 172.741,106.044 169.5,107.5C 172.336,109.983 174.67,113.483 176.5,118C 179.817,118.498 183.15,118.665 186.5,118.5C 186.5,119.167 186.167,119.5 185.5,119.5C 182.553,119.925 179.886,120.925 177.5,122.5C 174.478,116.145 169.812,111.478 163.5,108.5C 161.031,107.683 158.365,107.183 155.5,107C 155.833,106.667 156.167,106.333 156.5,106C 161.747,105.818 166.747,104.984 171.5,103.5C 173.735,103.795 175.735,103.461 177.5,102.5C 178.609,102.443 179.609,102.11 180.5,101.5 Z"/></g>
<g><path style="opacity:1" fill="#8a2b41" d="M 179.5,88.5 C 179.205,90.7354 179.539,92.7354 180.5,94.5C 182.408,97.3696 184.408,100.203 186.5,103C 186.167,103.333 185.833,103.667 185.5,104C 188.27,103.297 191.103,102.463 194,101.5C 195.167,101.833 196.333,102.167 197.5,102.5C 196.288,104.923 194.288,105.923 191.5,105.5C 191.5,106.833 191.5,108.167 191.5,109.5C 194.041,108.897 196.374,108.897 198.5,109.5C 197.508,109.328 196.842,109.662 196.5,110.5C 193.579,110.146 191.246,111.146 189.5,113.5C 189.624,114.107 189.957,114.44 190.5,114.5C 190.5,115.833 190.5,117.167 190.5,118.5C 189.167,118.5 187.833,118.5 186.5,118.5C 183.15,118.665 179.817,118.498 176.5,118C 174.67,113.483 172.336,109.983 169.5,107.5C 172.741,106.044 176.074,104.711 179.5,103.5C 180.298,103.043 180.631,102.376 180.5,101.5C 180.5,100.833 180.5,100.167 180.5,99.5C 182.132,102.209 182.632,101.875 182,98.5C 179.982,96.6499 178.149,94.6499 176.5,92.5C 177.521,91.0986 178.521,89.7653 179.5,88.5 Z"/></g>
<g><path style="opacity:1" fill="#5d302b" d="M 212.5,97.5 C 210.469,101.711 207.802,105.544 204.5,109C 201.986,110.252 199.32,110.752 196.5,110.5C 196.842,109.662 197.508,109.328 198.5,109.5C 198.833,109.5 199.167,109.5 199.5,109.5C 201.394,108.952 203.06,107.952 204.5,106.5C 206.875,103.131 209.542,100.131 212.5,97.5 Z"/></g>
<g><path style="opacity:1" fill="#f4ece2" d="M 59.5,151.5 C 59.1667,151.5 58.8333,151.5 58.5,151.5C 56.1667,151.5 53.8333,151.5 51.5,151.5C 45.8333,150.5 42.5,147.167 41.5,141.5C 41.5,136.5 41.5,131.5 41.5,126.5C 45.2031,109.397 54.8697,97.0638 70.5,89.5C 71.9669,88.7084 73.3002,88.7084 74.5,89.5C 70.6329,91.3323 67.1329,93.6657 64,96.5C 59.3333,102.5 54.6667,108.5 50,114.5C 49,118.5 48,122.5 47,126.5C 45.2796,134.749 46.7796,142.249 51.5,149C 55.5,149.333 59.5,149.667 63.5,150C 61.9419,150.21 60.6085,150.71 59.5,151.5 Z"/></g>
<g><path style="opacity:1" fill="#d2d0ca" d="M 111.5,111.5 C 111.672,112.492 111.338,113.158 110.5,113.5C 109.218,112.292 109.218,110.958 110.5,109.5C 111.298,109.957 111.631,110.624 111.5,111.5 Z"/></g>
<g><path style="opacity:1" fill="#473a36" d="M 112.5,107.5 C 113.11,108.391 113.443,109.391 113.5,110.5C 112.833,110.833 112.167,111.167 111.5,111.5C 111.631,110.624 111.298,109.957 110.5,109.5C 109.218,110.958 109.218,112.292 110.5,113.5C 108.925,115.114 108.259,117.114 108.5,119.5C 107.021,115.618 107.355,111.784 109.5,108C 110.448,107.517 111.448,107.351 112.5,107.5 Z"/></g>
<g><path style="opacity:1" fill="#eee1c3" d="M 163.5,108.5 C 169.812,111.478 174.478,116.145 177.5,122.5C 177.5,122.833 177.5,123.167 177.5,123.5C 177.688,125.103 177.188,126.437 176,127.5C 175.764,125.881 174.931,124.881 173.5,124.5C 172.199,123.118 171.366,121.452 171,119.5C 167.451,115.65 163.617,112.15 159.5,109C 160.793,108.51 162.127,108.343 163.5,108.5 Z"/></g>
<g><path style="opacity:1" fill="#86665d" d="M 196.5,110.5 C 195.989,112.195 195.322,113.861 194.5,115.5C 193.286,113.62 191.952,113.287 190.5,114.5C 189.957,114.44 189.624,114.107 189.5,113.5C 191.246,111.146 193.579,110.146 196.5,110.5 Z"/></g>
<g><path style="opacity:1" fill="#17100e" d="M 113.5,110.5 C 114.736,114.701 114.736,119.035 113.5,123.5C 110.454,123.817 108.787,122.484 108.5,119.5C 108.259,117.114 108.925,115.114 110.5,113.5C 111.338,113.158 111.672,112.492 111.5,111.5C 112.167,111.167 112.833,110.833 113.5,110.5 Z"/></g>
<g><path style="opacity:1" fill="#3d372f" d="M 71.5,87.5 C 71.1667,88.1667 70.8333,88.8333 70.5,89.5C 54.8697,97.0638 45.2031,109.397 41.5,126.5C 40.5119,122.845 41.0119,119.179 43,115.5C 45.6618,110.684 48.4951,106.018 51.5,101.5C 55.665,97.5032 59.9983,93.6699 64.5,90C 66.6504,88.5886 68.9837,87.7553 71.5,87.5 Z"/></g>
<g><path style="opacity:1" fill="#f0ead5" d="M 39.5,104.5 C 40.3764,104.369 41.0431,104.702 41.5,105.5C 40.6948,107.472 39.3615,108.972 37.5,110C 37.7375,112.288 37.7375,114.788 37.5,117.5C 37.519,123.469 34.8523,125.469 29.5,123.5C 29.4089,115.348 32.7422,109.015 39.5,104.5 Z"/></g>
<g><path style="opacity:1" fill="#648447" d="M 190.5,120.5 C 193.833,120.5 197.167,120.5 200.5,120.5C 200.737,121.791 200.404,122.791 199.5,123.5C 198.796,121.656 197.463,121.156 195.5,122C 196.308,122.308 196.975,122.808 197.5,123.5C 196.479,124.901 195.479,126.235 194.5,127.5C 193.1,128.1 192.1,129.1 191.5,130.5C 191.721,127.721 191.388,125.054 190.5,122.5C 190.5,122.167 190.5,121.833 190.5,121.5C 190.5,121.167 190.5,120.833 190.5,120.5 Z"/></g>
<g><path style="opacity:1" fill="#ecc7c6" d="M 81.5,113.5 C 81.5,114.167 81.5,114.833 81.5,115.5C 80.5318,117.607 80.1984,119.941 80.5,122.5C 81.791,122.737 82.791,122.404 83.5,121.5C 85.6801,119.137 87.3468,116.47 88.5,113.5C 89.7665,111.306 89.7665,108.972 88.5,106.5C 89.5,105.667 90.5,104.833 91.5,104C 91.1667,103.667 90.8333,103.333 90.5,103C 97.7011,101.56 104.368,102.726 110.5,106.5C 111.944,105.019 112.611,105.352 112.5,107.5C 111.448,107.351 110.448,107.517 109.5,108C 107.355,111.784 107.021,115.618 108.5,119.5C 108.787,122.484 110.454,123.817 113.5,123.5C 114.117,123.389 114.617,123.056 115,122.5C 115.667,123.833 116.333,125.167 117,126.5C 117.333,125.5 117.667,124.5 118,123.5C 118.667,124.833 119.333,126.167 120,127.5C 122.465,136.813 119.965,144.147 112.5,149.5C 111.5,148.833 110.5,148.167 109.5,147.5C 105.291,148.769 101.624,150.769 98.5,153.5C 96.7446,152.928 95.0779,152.094 93.5,151C 90.9668,147.969 88.3002,145.136 85.5,142.5C 85.6168,140.516 84.9501,138.85 83.5,137.5C 81.1472,139.523 78.8138,141.523 76.5,143.5C 75.8501,143.196 75.1835,142.863 74.5,142.5C 73.1752,143.791 71.8419,145.124 70.5,146.5C 64.0026,147.955 57.6693,147.455 51.5,145C 52.1667,144.667 52.8333,144.333 53.5,144C 52.3534,136.58 52.1868,129.08 53,121.5C 54.9236,118.574 56.7569,115.574 58.5,112.5C 62.7668,111.097 65.1001,108.097 65.5,103.5C 69.9699,101.739 74.6366,100.739 79.5,100.5C 79.5,101.5 79.5,102.5 79.5,103.5C 81.3084,103.491 82.9751,103.991 84.5,105C 82.4152,107.419 81.4152,110.253 81.5,113.5 Z"/></g>
<g><path style="opacity:1" fill="#7c6262" d="M 81.5,115.5 C 81.0254,118.082 81.6921,120.082 83.5,121.5C 82.791,122.404 81.791,122.737 80.5,122.5C 80.1984,119.941 80.5318,117.607 81.5,115.5 Z"/></g>
<g><path style="opacity:1" fill="#241d1c" d="M 88.5,113.5 C 87.3468,116.47 85.6801,119.137 83.5,121.5C 81.6921,120.082 81.0254,118.082 81.5,115.5C 81.5,114.833 81.5,114.167 81.5,113.5C 82.6817,111.162 84.3483,109.162 86.5,107.5C 88.2825,109.023 88.9492,111.023 88.5,113.5 Z"/></g>
<g><path style="opacity:1" fill="#dfd2d1" d="M 85.5,109.5 C 87.6559,109.872 87.6559,110.872 85.5,112.5C 84.4376,111.575 84.4376,110.575 85.5,109.5 Z"/></g>
<g><path style="opacity:1" fill="#278220" d="M 190.5,122.5 C 191.388,125.054 191.721,127.721 191.5,130.5C 182.486,134.508 179.82,132.008 183.5,123C 185.81,122.503 188.143,122.337 190.5,122.5 Z"/></g>
<g><path style="opacity:1" fill="#d2977c" d="M 159.5,153.5 C 159.5,151.5 159.5,149.5 159.5,147.5C 154.242,147.79 149.576,147.79 145.5,147.5C 144.503,139.862 144.169,132.196 144.5,124.5C 147.201,124.95 148.867,125.95 149.5,127.5C 152.75,127.208 155.417,125.875 157.5,123.5C 159.151,130.457 160.484,137.457 161.5,144.5C 161.483,147.913 160.816,150.913 159.5,153.5 Z"/></g>
<g><path style="opacity:1" fill="#d1b9b4" d="M 177.5,123.5 C 178.72,125.05 178.72,126.716 177.5,128.5C 172.968,128.818 168.634,128.485 164.5,127.5C 163.438,126.425 163.438,125.425 164.5,124.5C 167.635,125.783 170.635,125.783 173.5,124.5C 174.931,124.881 175.764,125.881 176,127.5C 177.188,126.437 177.688,125.103 177.5,123.5 Z"/></g>
<g><path style="opacity:1" fill="#c7ac7d" d="M 11.5,125.5 C 12.4916,125.328 13.1583,125.662 13.5,126.5C 12.2617,126.81 12.2617,127.31 13.5,128C 15.9944,129.032 18.3277,130.198 20.5,131.5C 18.8212,131.285 17.8212,131.952 17.5,133.5C 15.0446,130.971 12.0446,130.138 8.5,131C 9.69559,131.654 9.69559,132.154 8.5,132.5C 6.45703,131.421 5.1237,129.754 4.5,127.5C 6.96877,126.832 9.30211,126.165 11.5,125.5 Z"/></g>
<g><path style="opacity:1" fill="#434334" d="M 164.5,127.5 C 168.634,128.485 172.968,128.818 177.5,128.5C 177.938,128.435 178.272,128.601 178.5,129C 174.974,130.337 171.308,130.837 167.5,130.5C 167.311,134.037 167.977,137.37 169.5,140.5C 168.732,141.263 168.232,142.263 168,143.5C 166.391,138.842 164.891,134.175 163.5,129.5C 163.328,128.508 163.662,127.842 164.5,127.5 Z"/></g>
<g><path style="opacity:1" fill="#37532b" d="M 185.5,119.5 C 186.919,120.451 188.585,120.784 190.5,120.5C 190.5,120.833 190.5,121.167 190.5,121.5C 186.774,121.177 183.107,121.511 179.5,122.5C 181.479,129.702 178.646,133.369 171,133.5C 170.019,136.557 171.019,138.557 174,139.5C 177.232,137.8 180.399,135.966 183.5,134C 184.749,133.26 185.749,133.427 186.5,134.5C 185.508,134.328 184.842,134.662 184.5,135.5C 178.297,138.697 172.63,142.697 167.5,147.5C 168.543,144.944 170.21,142.777 172.5,141C 171.552,140.517 170.552,140.351 169.5,140.5C 167.977,137.37 167.311,134.037 167.5,130.5C 171.308,130.837 174.974,130.337 178.5,129C 178.272,128.601 177.938,128.435 177.5,128.5C 178.72,126.716 178.72,125.05 177.5,123.5C 177.5,123.167 177.5,122.833 177.5,122.5C 179.886,120.925 182.553,119.925 185.5,119.5 Z"/></g>
<g><path style="opacity:1" fill="#337228" d="M 190.5,121.5 C 190.5,121.833 190.5,122.167 190.5,122.5C 188.143,122.337 185.81,122.503 183.5,123C 179.82,132.008 182.486,134.508 191.5,130.5C 192.1,129.1 193.1,128.1 194.5,127.5C 193.89,128.391 193.557,129.391 193.5,130.5C 191.207,131.828 188.873,133.161 186.5,134.5C 185.749,133.427 184.749,133.26 183.5,134C 180.399,135.966 177.232,137.8 174,139.5C 171.019,138.557 170.019,136.557 171,133.5C 178.646,133.369 181.479,129.702 179.5,122.5C 183.107,121.511 186.774,121.177 190.5,121.5 Z"/></g>
<g><path style="opacity:1" fill="#d7d1c6" d="M 49.5,98.5 C 50.9063,98.9731 51.573,99.9731 51.5,101.5C 48.4951,106.018 45.6618,110.684 43,115.5C 41.0119,119.179 40.5119,122.845 41.5,126.5C 41.5,131.5 41.5,136.5 41.5,141.5C 40.6745,137.018 40.1745,132.351 40,127.5C 38.8512,130.393 38.3512,133.393 38.5,136.5C 37.7784,136.082 37.2784,135.416 37,134.5C 36.6174,135.056 36.1174,135.389 35.5,135.5C 37.403,122.125 42.0697,109.791 49.5,98.5 Z"/></g>
<g><path style="opacity:1" fill="#d7aeb5" d="M 163.5,129.5 C 164.891,134.175 166.391,138.842 168,143.5C 168.232,142.263 168.732,141.263 169.5,140.5C 170.552,140.351 171.552,140.517 172.5,141C 170.21,142.777 168.543,144.944 167.5,147.5C 167.167,147.5 166.833,147.5 166.5,147.5C 165.25,147.423 164.417,146.756 164,145.5C 163.568,139.401 162.902,133.401 162,127.5C 162.278,128.416 162.778,129.082 163.5,129.5 Z"/></g>
<g><path style="opacity:1" fill="#efe4d2" d="M 20.5,131.5 C 23.7889,133.616 26.9556,135.949 30,138.5C 30.765,140.066 30.5983,141.399 29.5,142.5C 26.5026,140.822 23.8359,138.822 21.5,136.5C 19.5956,136.262 18.2623,135.262 17.5,133.5C 17.8212,131.952 18.8212,131.285 20.5,131.5 Z"/></g>
<g><path style="opacity:1" fill="#c7b571" d="M 193.5,130.5 C 205.355,128.775 207.021,131.442 198.5,138.5C 195.484,136.769 192.151,135.769 188.5,135.5C 187.167,135.5 185.833,135.5 184.5,135.5C 184.842,134.662 185.508,134.328 186.5,134.5C 188.873,133.161 191.207,131.828 193.5,130.5 Z"/></g>
<g><path style="opacity:1" fill="#43392d" d="M 49.5,98.5 C 42.0697,109.791 37.403,122.125 35.5,135.5C 33.4381,139.484 31.2714,143.484 29,147.5C 28.2571,154.302 28.9238,160.968 31,167.5C 34.3401,174.189 38.1734,180.522 42.5,186.5C 41.8333,186.5 41.1667,186.5 40.5,186.5C 37.3269,182.815 34.6602,178.815 32.5,174.5C 32.0679,173.29 31.4013,172.29 30.5,171.5C 30.5,170.833 30.1667,170.5 29.5,170.5C 29.405,168.214 28.7384,166.214 27.5,164.5C 27.3713,162.784 27.038,161.117 26.5,159.5C 25.8901,153.489 26.8901,147.822 29.5,142.5C 30.5983,141.399 30.765,140.066 30,138.5C 26.9556,135.949 23.7889,133.616 20.5,131.5C 18.3277,130.198 15.9944,129.032 13.5,128C 12.2617,127.31 12.2617,126.81 13.5,126.5C 20.0786,129.127 26.0786,132.794 31.5,137.5C 33.8278,133.85 35.1611,129.85 35.5,125.5C 33.1432,125.663 30.8098,125.497 28.5,125C 27.5939,123.301 27.2606,121.467 27.5,119.5C 28.1667,120.833 28.8333,122.167 29.5,123.5C 34.8523,125.469 37.519,123.469 37.5,117.5C 40.3679,111.435 43.5346,105.435 47,99.5C 47.8382,98.001 48.6715,97.6676 49.5,98.5 Z"/></g>
<g><path style="opacity:1" fill="#4d473a" d="M 41.5,141.5 C 42.5,147.167 45.8333,150.5 51.5,151.5C 49.9504,152.72 48.2837,152.72 46.5,151.5C 45.1667,150.5 43.8333,149.5 42.5,148.5C 40.1706,144.845 38.8372,140.845 38.5,136.5C 38.3512,133.393 38.8512,130.393 40,127.5C 40.1745,132.351 40.6745,137.018 41.5,141.5 Z"/></g>
<g><path style="opacity:1" fill="#eae7cb" d="M 184.5,135.5 C 185.833,135.5 187.167,135.5 188.5,135.5C 188.737,136.791 188.404,137.791 187.5,138.5C 182.555,141.309 177.555,144.143 172.5,147C 170.457,148.811 168.957,150.978 168,153.5C 167.517,152.552 167.351,151.552 167.5,150.5C 167.5,149.5 167.5,148.5 167.5,147.5C 172.63,142.697 178.297,138.697 184.5,135.5 Z"/></g>
<g><path style="opacity:1" fill="#623e39" d="M 85.5,142.5 C 84.6851,141.571 83.8518,140.571 83,139.5C 80.5644,142.447 77.7311,144.78 74.5,146.5C 75.1667,145.5 75.8333,144.5 76.5,143.5C 78.8138,141.523 81.1472,139.523 83.5,137.5C 84.9501,138.85 85.6168,140.516 85.5,142.5 Z"/></g>
<g><path style="opacity:1" fill="#4c3623" d="M 6.5,136.5 C 4.61359,137.065 2.94692,138.065 1.5,139.5C 3.19011,142.024 5.35677,144.024 8,145.5C 8.48278,146.448 8.64945,147.448 8.5,148.5C 5.72766,148.595 3.72766,149.929 2.5,152.5C 5.39015,154.77 8.39015,156.77 11.5,158.5C 10.6285,161.062 10.6285,163.728 11.5,166.5C 14.3878,165.99 16.7211,166.656 18.5,168.5C 17.1667,169.833 17.1667,171.167 18.5,172.5C 18.1583,173.338 17.4916,173.672 16.5,173.5C 16.5,171.5 16.5,169.5 16.5,167.5C 14.5,167.5 12.5,167.5 10.5,167.5C 9.79287,164.214 9.45954,160.881 9.5,157.5C 6.16667,156.5 2.83333,155.5 -0.5,154.5C -0.5,153.5 -0.5,152.5 -0.5,151.5C 2.07511,150.272 4.40844,148.605 6.5,146.5C 4.40844,144.395 2.07511,142.728 -0.5,141.5C -0.5,140.167 -0.5,138.833 -0.5,137.5C 1.76375,136.781 4.09709,136.448 6.5,136.5 Z"/></g>
<g><path style="opacity:1" fill="#4d422b" d="M 199.5,123.5 C 198.524,124.815 197.524,126.148 196.5,127.5C 199.447,128.321 202.447,128.821 205.5,129C 206.022,129.561 206.355,130.228 206.5,131C 204.27,135.236 201.27,138.903 197.5,142C 211.46,141.718 212.793,145.218 201.5,152.5C 201.062,152.565 200.728,152.399 200.5,152C 201.381,151.292 202.047,150.458 202.5,149.5C 204.723,148.886 206.389,147.552 207.5,145.5C 202.162,144.321 196.828,144.321 191.5,145.5C 193.479,142.854 195.812,140.521 198.5,138.5C 207.021,131.442 205.355,128.775 193.5,130.5C 193.557,129.391 193.89,128.391 194.5,127.5C 195.479,126.235 196.479,124.901 197.5,123.5C 196.975,122.808 196.308,122.308 195.5,122C 197.463,121.156 198.796,121.656 199.5,123.5 Z"/></g>
<g><path style="opacity:1" fill="#eee6d2" d="M 38.5,136.5 C 38.8372,140.845 40.1706,144.845 42.5,148.5C 38.0931,149.875 36.0931,153.375 36.5,159C 36.6287,163.07 37.9621,166.57 40.5,169.5C 42.4884,175.485 45.4884,180.818 49.5,185.5C 49.8333,186.167 50.1667,186.833 50.5,187.5C 48.3234,188.502 46.3234,188.502 44.5,187.5C 43.8333,187.167 43.1667,186.833 42.5,186.5C 38.1734,180.522 34.3401,174.189 31,167.5C 28.9238,160.968 28.2571,154.302 29,147.5C 31.2714,143.484 33.4381,139.484 35.5,135.5C 36.1174,135.389 36.6174,135.056 37,134.5C 37.2784,135.416 37.7784,136.082 38.5,136.5 Z"/></g>
<g><path style="opacity:1" fill="#c1a57a" d="M 202.5,149.5 C 202.586,148.504 202.252,147.671 201.5,147C 198.821,146.566 196.154,146.732 193.5,147.5C 191.024,147.767 190.357,147.101 191.5,145.5C 196.828,144.321 202.162,144.321 207.5,145.5C 206.389,147.552 204.723,148.886 202.5,149.5 Z"/></g>
<g><path style="opacity:1" fill="#e7e1da" d="M -0.5,141.5 C 2.07511,142.728 4.40844,144.395 6.5,146.5C 4.40844,148.605 2.07511,150.272 -0.5,151.5C -0.5,148.167 -0.5,144.833 -0.5,141.5 Z"/></g>
<g><path style="opacity:1" fill="#5c3c2c" d="M 71.5,148.5 C 66.3939,153.06 60.3939,154.56 53.5,153C 55.3817,152.802 57.0484,152.302 58.5,151.5C 58.8333,151.5 59.1667,151.5 59.5,151.5C 63.6432,151.096 67.6432,150.096 71.5,148.5 Z"/></g>
<g><path style="opacity:1" fill="#986e44" d="M 188.5,135.5 C 192.151,135.769 195.484,136.769 198.5,138.5C 195.812,140.521 193.479,142.854 191.5,145.5C 190.357,147.101 191.024,147.767 193.5,147.5C 196.154,146.732 198.821,146.566 201.5,147C 202.252,147.671 202.586,148.504 202.5,149.5C 202.047,150.458 201.381,151.292 200.5,152C 200.728,152.399 201.062,152.565 201.5,152.5C 200.167,153.5 200.167,154.5 201.5,155.5C 200.2,154.892 198.867,154.225 197.5,153.5C 195.279,153.439 194.946,154.105 196.5,155.5C 195.761,155.369 195.094,155.536 194.5,156C 197.073,158.091 199.74,159.925 202.5,161.5C 200.289,162.66 198.289,163.993 196.5,165.5C 195.833,165.833 195.167,166.167 194.5,166.5C 193.602,165.842 192.602,165.176 191.5,164.5C 190.877,162.289 189.877,160.289 188.5,158.5C 188.015,160.777 188.681,162.944 190.5,165C 187.998,167.212 184.998,168.045 181.5,167.5C 181.633,164.075 180.967,163.742 179.5,166.5C 179.451,163.901 178.451,161.734 176.5,160C 179.525,159.867 182.192,158.867 184.5,157C 183.687,155.686 182.687,154.519 181.5,153.5C 184.302,152.288 186.802,150.621 189,148.5C 189.617,147.551 189.451,146.718 188.5,146C 186.167,145.667 183.833,145.333 181.5,145C 183.366,142.637 185.366,140.47 187.5,138.5C 188.404,137.791 188.737,136.791 188.5,135.5 Z"/></g>
<g><path style="opacity:1" fill="#bf9e8a" d="M 21.5,136.5 C 23.8359,138.822 26.5026,140.822 29.5,142.5C 26.8901,147.822 25.8901,153.489 26.5,159.5C 23.7569,159.923 22.4235,158.756 22.5,156C 22.8443,154.635 23.5109,153.468 24.5,152.5C 22.9547,151.548 21.288,151.215 19.5,151.5C 19.3573,149.738 19.6906,148.071 20.5,146.5C 18.6397,145.061 16.973,143.395 15.5,141.5C 15.7093,140.914 16.0426,140.414 16.5,140C 18.5,139.667 20.5,139.333 22.5,139C 21.7476,138.329 21.4142,137.496 21.5,136.5 Z"/></g>
<g><path style="opacity:1" fill="#c89683" d="M 85.5,142.5 C 90.932,152.903 99.5987,158.57 111.5,159.5C 110.602,160.158 109.602,160.824 108.5,161.5C 110.717,164.068 111.884,167.068 112,170.5C 114.408,172.426 116.908,174.093 119.5,175.5C 121.95,175.239 124.283,174.572 126.5,173.5C 129.022,171.144 131.688,168.977 134.5,167C 136.113,164.772 136.78,162.272 136.5,159.5C 138.043,160.736 139.043,162.402 139.5,164.5C 135.413,167.256 132.413,170.923 130.5,175.5C 129.833,175.5 129.167,175.5 128.5,175.5C 123.58,177.127 118.58,178.46 113.5,179.5C 111.478,172.621 107.811,166.787 102.5,162C 102.833,161.667 103.167,161.333 103.5,161C 97.117,160.228 94.7837,163.062 96.5,169.5C 94.7244,165.266 92.8911,160.933 91,156.5C 88.7569,154.718 86.2569,154.218 83.5,155C 79.644,157.655 75.644,159.822 71.5,161.5C 70.5416,161.047 69.7083,160.381 69,159.5C 66.295,160.483 64.1284,159.65 62.5,157C 57.1667,156.333 51.8333,156.333 46.5,157C 45.8333,157.667 45.1667,158.333 44.5,159C 45.3764,164.112 45.543,169.278 45,174.5C 47.445,178.001 49.6117,181.668 51.5,185.5C 50.8333,185.5 50.1667,185.5 49.5,185.5C 45.4884,180.818 42.4884,175.485 40.5,169.5C 40.5688,164.146 40.9022,158.813 41.5,153.5C 43.7812,153.923 45.4479,153.256 46.5,151.5C 48.2837,152.72 49.9504,152.72 51.5,151.5C 53.8333,151.5 56.1667,151.5 58.5,151.5C 57.0484,152.302 55.3817,152.802 53.5,153C 60.3939,154.56 66.3939,153.06 71.5,148.5C 71.9731,147.094 72.9731,146.427 74.5,146.5C 77.7311,144.78 80.5644,142.447 83,139.5C 83.8518,140.571 84.6851,141.571 85.5,142.5 Z"/></g>
<g><path style="opacity:1" fill="#4b3229" d="M 137.5,108.5 C 145.164,122.255 145.33,136.255 138,150.5C 135.559,153.454 132.725,155.787 129.5,157.5C 123.616,159.066 117.616,159.732 111.5,159.5C 99.5987,158.57 90.932,152.903 85.5,142.5C 88.3002,145.136 90.9668,147.969 93.5,151C 95.0779,152.094 96.7446,152.928 98.5,153.5C 101.66,156 105.327,157.333 109.5,157.5C 130.262,160.152 140.928,151.152 141.5,130.5C 141.333,127.5 141.167,124.5 141,121.5C 139.362,117.278 138.195,112.945 137.5,108.5 Z"/></g>
<g><path style="opacity:1" fill="#ebdccf" d="M 114.5,85.5 C 115.959,85.4326 117.292,85.7659 118.5,86.5C 127.018,92.0131 133.351,99.3464 137.5,108.5C 138.195,112.945 139.362,117.278 141,121.5C 141.167,124.5 141.333,127.5 141.5,130.5C 140.928,151.152 130.262,160.152 109.5,157.5C 108.737,156.732 107.737,156.232 106.5,156C 113.327,155.963 119.994,154.963 126.5,153C 128.527,151.604 128.86,149.938 127.5,148C 129.256,147.798 130.922,147.298 132.5,146.5C 136.525,140.709 137.858,134.376 136.5,127.5C 133.471,129.102 131.471,128.269 130.5,125C 130.562,121.237 132.228,120.071 135.5,121.5C 136.652,118.894 136.818,116.227 136,113.5C 133.509,109.542 131.675,105.708 130.5,102C 126.614,93.7826 120.281,88.4493 111.5,86C 112.448,85.5172 113.448,85.3505 114.5,85.5 Z"/></g>
<g><path style="opacity:1" fill="#d5b18c" d="M 42.5,148.5 C 43.8333,149.5 45.1667,150.5 46.5,151.5C 45.4479,153.256 43.7812,153.923 41.5,153.5C 40.9022,158.813 40.5688,164.146 40.5,169.5C 37.9621,166.57 36.6287,163.07 36.5,159C 36.0931,153.375 38.0931,149.875 42.5,148.5 Z"/></g>
<g><path style="opacity:1" fill="#fcfcfc" d="M -0.5,154.5 C 2.83333,155.5 6.16667,156.5 9.5,157.5C 9.45954,160.881 9.79287,164.214 10.5,167.5C 12.5,167.5 14.5,167.5 16.5,167.5C 16.5,169.5 16.5,171.5 16.5,173.5C 20.052,174.059 23.552,175.059 27,176.5C 28.8003,175.68 30.6336,175.014 32.5,174.5C 34.6602,178.815 37.3269,182.815 40.5,186.5C 40.8333,187.167 41.1667,187.833 41.5,188.5C 38.5463,190.512 35.213,192.179 31.5,193.5C 32.5,194.167 33.5,194.833 34.5,195.5C 31.895,196.472 29.895,198.139 28.5,200.5C 31.2167,202.276 34.2167,203.61 37.5,204.5C 44.271,208.425 50.9377,212.592 57.5,217C 69.187,216.913 80.5204,218.413 91.5,221.5C 60.8333,221.5 30.1667,221.5 -0.5,221.5C -0.5,199.167 -0.5,176.833 -0.5,154.5 Z"/></g>
<g><path style="opacity:1" fill="#8f6c44" d="M 11.5,125.5 C 9.30211,126.165 6.96877,126.832 4.5,127.5C 5.1237,129.754 6.45703,131.421 8.5,132.5C 9.69559,132.154 9.69559,131.654 8.5,131C 12.0446,130.138 15.0446,130.971 17.5,133.5C 18.2623,135.262 19.5956,136.262 21.5,136.5C 21.4142,137.496 21.7476,138.329 22.5,139C 20.5,139.333 18.5,139.667 16.5,140C 16.0426,140.414 15.7093,140.914 15.5,141.5C 16.973,143.395 18.6397,145.061 20.5,146.5C 19.6906,148.071 19.3573,149.738 19.5,151.5C 21.288,151.215 22.9547,151.548 24.5,152.5C 23.5109,153.468 22.8443,154.635 22.5,156C 22.4235,158.756 23.7569,159.923 26.5,159.5C 27.038,161.117 27.3713,162.784 27.5,164.5C 25.4727,164.662 23.4727,164.495 21.5,164C 20.6198,162.644 20.2865,161.144 20.5,159.5C 17.4299,159.632 14.4299,159.299 11.5,158.5C 8.39015,156.77 5.39015,154.77 2.5,152.5C 3.72766,149.929 5.72766,148.595 8.5,148.5C 8.64945,147.448 8.48278,146.448 8,145.5C 5.35677,144.024 3.19011,142.024 1.5,139.5C 2.94692,138.065 4.61359,137.065 6.5,136.5C 7.55198,136.649 8.55198,136.483 9.5,136C 5.23837,133.309 3.23837,129.476 3.5,124.5C 6.38544,124.194 9.0521,124.527 11.5,125.5 Z"/></g>
<g><path style="opacity:1" fill="#d39a97" d="M 144.5,124.5 C 144.169,132.196 144.503,139.862 145.5,147.5C 149.576,147.79 154.242,147.79 159.5,147.5C 159.5,149.5 159.5,151.5 159.5,153.5C 159.5,156.167 159.5,158.833 159.5,161.5C 154.944,161.101 152.278,163.101 151.5,167.5C 150.166,169.466 148.832,171.466 147.5,173.5C 145.434,170.702 143.934,171.035 143,174.5C 141.293,173.541 139.459,172.875 137.5,172.5C 135.361,173.977 133.028,174.977 130.5,175.5C 132.413,170.923 135.413,167.256 139.5,164.5C 139.043,162.402 138.043,160.736 136.5,159.5C 134.035,159.233 131.701,158.566 129.5,157.5C 132.725,155.787 135.559,153.454 138,150.5C 145.33,136.255 145.164,122.255 137.5,108.5C 136.724,104.948 135.391,101.614 133.5,98.5C 133.393,96.6214 133.893,96.2881 135,97.5C 136.574,96.1524 138.407,95.4858 140.5,95.5C 146.232,97.9638 152.232,99.6305 158.5,100.5C 158.5,101.833 158.5,103.167 158.5,104.5C 153.821,104.334 149.155,104.501 144.5,105C 143.663,106.011 143.33,107.178 143.5,108.5C 147.361,108.915 151.027,109.915 154.5,111.5C 155.329,114.469 155.495,117.469 155,120.5C 151.419,124.329 148.086,123.996 145,119.5C 143.481,121.139 143.314,122.806 144.5,124.5 Z"/></g>
<g><path style="opacity:1" fill="#ba9b82" d="M 196.5,155.5 C 208.152,159.389 208.152,162.722 196.5,165.5C 198.289,163.993 200.289,162.66 202.5,161.5C 199.74,159.925 197.073,158.091 194.5,156C 195.094,155.536 195.761,155.369 196.5,155.5 Z"/></g>
<g><path style="opacity:1" fill="#d3928f" d="M 71.5,161.5 C 73.8863,161.259 75.8863,161.925 77.5,163.5C 77.5,163.833 77.5,164.167 77.5,164.5C 77.2792,167.097 76.7792,167.097 76,164.5C 75.3645,165.966 74.5312,167.3 73.5,168.5C 75.4133,170.291 77.08,172.291 78.5,174.5C 74.888,174.513 71.2213,175.346 67.5,177C 69.6079,177.36 71.6079,178.027 73.5,179C 71.8934,180.049 71.2267,181.549 71.5,183.5C 66.539,184.313 62.2056,183.147 58.5,180C 59.8333,178.667 59.8333,177.333 58.5,176C 56.1902,175.503 53.8568,175.337 51.5,175.5C 52.1511,177.826 52.8178,180.159 53.5,182.5C 53.3601,184.03 52.6935,185.03 51.5,185.5C 49.6117,181.668 47.445,178.001 45,174.5C 45.543,169.278 45.3764,164.112 44.5,159C 45.1667,158.333 45.8333,157.667 46.5,157C 51.8333,156.333 57.1667,156.333 62.5,157C 64.1284,159.65 66.295,160.483 69,159.5C 69.7083,160.381 70.5416,161.047 71.5,161.5 Z"/></g>
<g><path style="opacity:1" fill="#b08575" d="M 11.5,158.5 C 14.4299,159.299 17.4299,159.632 20.5,159.5C 20.2865,161.144 20.6198,162.644 21.5,164C 23.4727,164.495 25.4727,164.662 27.5,164.5C 28.7384,166.214 29.405,168.214 29.5,170.5C 28.8485,169.909 28.1818,169.243 27.5,168.5C 24.4241,171.13 21.4241,171.13 18.5,168.5C 16.7211,166.656 14.3878,165.99 11.5,166.5C 10.6285,163.728 10.6285,161.062 11.5,158.5 Z"/></g>
<g><path style="opacity:1" fill="#7b4b3b" d="M 166.5,147.5 C 166.833,147.5 167.167,147.5 167.5,147.5C 167.5,148.5 167.5,149.5 167.5,150.5C 166.847,154.093 166.014,157.759 165,161.5C 161.901,162.455 158.734,163.289 155.5,164C 154.29,165.039 153.29,166.206 152.5,167.5C 152.167,167.5 151.833,167.5 151.5,167.5C 152.278,163.101 154.944,161.101 159.5,161.5C 161.39,161.703 162.89,161.037 164,159.5C 164.186,155.319 165.019,151.319 166.5,147.5 Z"/></g>
<g><path style="opacity:1" fill="#ce9482" d="M 187.5,138.5 C 185.366,140.47 183.366,142.637 181.5,145C 183.833,145.333 186.167,145.667 188.5,146C 189.451,146.718 189.617,147.551 189,148.5C 186.802,150.621 184.302,152.288 181.5,153.5C 182.687,154.519 183.687,155.686 184.5,157C 182.192,158.867 179.525,159.867 176.5,160C 178.451,161.734 179.451,163.901 179.5,166.5C 176.566,168.46 173.566,170.127 170.5,171.5C 168.21,169.967 167.544,170.3 168.5,172.5C 165.914,173.48 163.247,173.813 160.5,173.5C 160.366,175.292 160.699,176.958 161.5,178.5C 159.983,178.511 158.816,179.177 158,180.5C 155.828,179.491 154.662,177.824 154.5,175.5C 155.675,175.719 156.675,175.386 157.5,174.5C 155.25,173.171 153.584,170.837 152.5,167.5C 153.29,166.206 154.29,165.039 155.5,164C 158.734,163.289 161.901,162.455 165,161.5C 166.014,157.759 166.847,154.093 167.5,150.5C 167.351,151.552 167.517,152.552 168,153.5C 168.957,150.978 170.457,148.811 172.5,147C 177.555,144.143 182.555,141.309 187.5,138.5 Z"/></g>
<g><path style="opacity:1" fill="#473227" d="M 201.5,155.5 C 204.687,157.344 206.687,160.011 207.5,163.5C 203.697,165.273 199.697,166.606 195.5,167.5C 195.835,170.851 195.335,174.185 194,177.5C 191.959,178.423 189.792,178.756 187.5,178.5C 188.833,177.833 190.167,177.167 191.5,176.5C 192.167,176.5 192.5,176.167 192.5,175.5C 193.461,173.735 193.795,171.735 193.5,169.5C 193.263,168.209 193.596,167.209 194.5,166.5C 195.167,166.167 195.833,165.833 196.5,165.5C 208.152,162.722 208.152,159.389 196.5,155.5C 194.946,154.105 195.279,153.439 197.5,153.5C 198.867,154.225 200.2,154.892 201.5,155.5 Z"/></g>
<g><path style="opacity:1" fill="#622123" d="M 86.5,178.5 C 82.6114,181.511 81.6114,185.344 83.5,190C 84.8333,190.667 86.1667,190.667 87.5,190C 89.6743,187.416 92.341,185.582 95.5,184.5C 94.2937,187.298 92.2937,189.465 89.5,191C 87.5273,191.495 85.5273,191.662 83.5,191.5C 81.2649,190.714 80.2649,189.048 80.5,186.5C 83.6042,178.564 82.6042,171.231 77.5,164.5C 77.5,164.167 77.5,163.833 77.5,163.5C 77.81,162.262 78.31,162.262 79,163.5C 78.9461,160.809 80.1128,158.976 82.5,158C 83.5177,158.61 85.1843,159.11 87.5,159.5C 87.136,164.291 86.136,168.958 84.5,173.5C 84.8008,175.422 85.4675,177.088 86.5,178.5 Z"/></g>
<g><path style="opacity:1" fill="#ca8a7c" d="M 128.5,175.5 C 127.699,177.042 127.366,178.708 127.5,180.5C 123.711,180.598 120.211,181.598 117,183.5C 115.893,183.415 114.893,183.081 114,182.5C 111.895,185.107 111.062,188.107 111.5,191.5C 107.596,191.061 103.763,191.061 100,191.5C 99.7679,190.263 99.2679,189.263 98.5,188.5C 98.5581,182.081 97.8915,175.747 96.5,169.5C 94.7837,163.062 97.117,160.228 103.5,161C 103.167,161.333 102.833,161.667 102.5,162C 107.811,166.787 111.478,172.621 113.5,179.5C 118.58,178.46 123.58,177.127 128.5,175.5 Z"/></g>
<g><path style="opacity:1" fill="#764e26" d="M 194.5,166.5 C 193.596,167.209 193.263,168.209 193.5,169.5C 192.41,167.237 191.077,167.07 189.5,169C 186.854,169.497 184.187,169.664 181.5,169.5C 180.996,173.335 179.996,173.335 178.5,169.5C 174.861,169.883 172.028,171.549 170,174.5C 169.53,173.423 169.697,172.423 170.5,171.5C 173.566,170.127 176.566,168.46 179.5,166.5C 180.967,163.742 181.633,164.075 181.5,167.5C 184.998,168.045 187.998,167.212 190.5,165C 188.681,162.944 188.015,160.777 188.5,158.5C 189.877,160.289 190.877,162.289 191.5,164.5C 192.602,165.176 193.602,165.842 194.5,166.5 Z"/></g>
<g><path style="opacity:1" fill="#d2a882" d="M 129.5,157.5 C 131.701,158.566 134.035,159.233 136.5,159.5C 136.78,162.272 136.113,164.772 134.5,167C 131.688,168.977 129.022,171.144 126.5,173.5C 124.283,174.572 121.95,175.239 119.5,175.5C 116.908,174.093 114.408,172.426 112,170.5C 111.884,167.068 110.717,164.068 108.5,161.5C 109.602,160.824 110.602,160.158 111.5,159.5C 117.616,159.732 123.616,159.066 129.5,157.5 Z"/></g>
<g><path style="opacity:1" fill="#c39fab" d="M 18.5,168.5 C 21.4241,171.13 24.4241,171.13 27.5,168.5C 28.1818,169.243 28.8485,169.909 29.5,170.5C 30.1667,170.5 30.5,170.833 30.5,171.5C 30.2381,173.564 29.0714,174.897 27,175.5C 26.5172,174.552 26.3505,173.552 26.5,172.5C 23.8333,172.5 21.1667,172.5 18.5,172.5C 17.1667,171.167 17.1667,169.833 18.5,168.5 Z"/></g>
<g><path style="opacity:1" fill="#a67959" d="M 193.5,169.5 C 193.795,171.735 193.461,173.735 192.5,175.5C 192.657,174.127 192.49,172.793 192,171.5C 190.505,175.38 187.839,176.38 184,174.5C 182.48,175.697 181.313,177.197 180.5,179C 173.947,179.196 167.614,179.029 161.5,178.5C 160.699,176.958 160.366,175.292 160.5,173.5C 163.247,173.813 165.914,173.48 168.5,172.5C 167.544,170.3 168.21,169.967 170.5,171.5C 169.697,172.423 169.53,173.423 170,174.5C 172.028,171.549 174.861,169.883 178.5,169.5C 179.996,173.335 180.996,173.335 181.5,169.5C 184.187,169.664 186.854,169.497 189.5,169C 191.077,167.07 192.41,167.237 193.5,169.5 Z"/></g>
<g><path style="opacity:1" fill="#6d5761" d="M 30.5,171.5 C 31.4013,172.29 32.0679,173.29 32.5,174.5C 30.6336,175.014 28.8003,175.68 27,176.5C 23.552,175.059 20.052,174.059 16.5,173.5C 17.4916,173.672 18.1583,173.338 18.5,172.5C 21.1667,172.5 23.8333,172.5 26.5,172.5C 26.3505,173.552 26.5172,174.552 27,175.5C 29.0714,174.897 30.2381,173.564 30.5,171.5 Z"/></g>
<g><path style="opacity:1" fill="#c08986" d="M 151.5,167.5 C 151.833,167.5 152.167,167.5 152.5,167.5C 153.584,170.837 155.25,173.171 157.5,174.5C 156.675,175.386 155.675,175.719 154.5,175.5C 154.662,177.824 155.828,179.491 158,180.5C 158.816,179.177 159.983,178.511 161.5,178.5C 167.614,179.029 173.947,179.196 180.5,179C 181.313,177.197 182.48,175.697 184,174.5C 187.839,176.38 190.505,175.38 192,171.5C 192.49,172.793 192.657,174.127 192.5,175.5C 192.5,176.167 192.167,176.5 191.5,176.5C 188.833,176.5 186.167,176.5 183.5,176.5C 183.5,177.833 183.5,179.167 183.5,180.5C 180.199,181.713 176.866,181.713 173.5,180.5C 171.626,180.39 170.126,181.056 169,182.5C 165.915,181.568 162.748,180.901 159.5,180.5C 159.5,181.833 159.5,183.167 159.5,184.5C 153.226,180.843 150.56,175.176 151.5,167.5 Z"/></g>
<g><path style="opacity:1" fill="#c88289" d="M 151.5,167.5 C 150.56,175.176 153.226,180.843 159.5,184.5C 160.167,184.5 160.833,184.5 161.5,184.5C 161.557,185.609 161.89,186.609 162.5,187.5C 161.525,189.795 160.192,191.795 158.5,193.5C 157.625,191.194 156.292,190.527 154.5,191.5C 151.039,190.889 148.372,192.056 146.5,195C 143.895,196.444 141.729,196.277 140,194.5C 138.144,195.736 136.311,195.736 134.5,194.5C 131.284,197.648 128.451,197.648 126,194.5C 121.59,194.817 117.09,194.983 112.5,195C 111.577,197.041 111.244,199.208 111.5,201.5C 106.07,202.119 100.737,202.119 95.5,201.5C 96.3849,197.064 97.3849,192.731 98.5,188.5C 99.2679,189.263 99.7679,190.263 100,191.5C 103.763,191.061 107.596,191.061 111.5,191.5C 111.062,188.107 111.895,185.107 114,182.5C 114.893,183.081 115.893,183.415 117,183.5C 120.211,181.598 123.711,180.598 127.5,180.5C 127.366,178.708 127.699,177.042 128.5,175.5C 129.167,175.5 129.833,175.5 130.5,175.5C 133.028,174.977 135.361,173.977 137.5,172.5C 139.459,172.875 141.293,173.541 143,174.5C 143.934,171.035 145.434,170.702 147.5,173.5C 148.832,171.466 150.166,169.466 151.5,167.5 Z"/></g>
<g><path style="opacity:1" fill="#ca858b" d="M 77.5,164.5 C 82.6042,171.231 83.6042,178.564 80.5,186.5C 80.2649,189.048 81.2649,190.714 83.5,191.5C 84.3686,193.717 84.702,196.05 84.5,198.5C 83.5041,198.586 82.6708,198.252 82,197.5C 81.7747,193.53 80.4414,192.863 78,195.5C 76.1284,194.932 74.2951,194.265 72.5,193.5C 69.1581,194.865 65.8248,195.865 62.5,196.5C 57.9343,194.269 53.9343,191.269 50.5,187.5C 50.1667,186.833 49.8333,186.167 49.5,185.5C 50.1667,185.5 50.8333,185.5 51.5,185.5C 52.6935,185.03 53.3601,184.03 53.5,182.5C 52.8178,180.159 52.1511,177.826 51.5,175.5C 53.8568,175.337 56.1902,175.503 58.5,176C 59.8333,177.333 59.8333,178.667 58.5,180C 62.2056,183.147 66.539,184.313 71.5,183.5C 71.2267,181.549 71.8934,180.049 73.5,179C 71.6079,178.027 69.6079,177.36 67.5,177C 71.2213,175.346 74.888,174.513 78.5,174.5C 77.08,172.291 75.4133,170.291 73.5,168.5C 74.5312,167.3 75.3645,165.966 76,164.5C 76.7792,167.097 77.2792,167.097 77.5,164.5 Z"/></g>
<g><path style="opacity:1" fill="#ce9bae" d="M 183.5,180.5 C 183.5,181.833 183.5,183.167 183.5,184.5C 180.223,184.784 177.057,184.451 174,183.5C 173.517,184.448 173.351,185.448 173.5,186.5C 170.19,186.539 167.524,185.206 165.5,182.5C 164.378,183.63 163.044,184.297 161.5,184.5C 160.833,184.5 160.167,184.5 159.5,184.5C 159.5,183.167 159.5,181.833 159.5,180.5C 162.748,180.901 165.915,181.568 169,182.5C 170.126,181.056 171.626,180.39 173.5,180.5C 176.866,181.713 180.199,181.713 183.5,180.5 Z"/></g>
<g><path style="opacity:1" fill="#ac544f" d="M 86.5,178.5 C 89.4824,178.963 92.4824,179.296 95.5,179.5C 95.5,181.167 95.5,182.833 95.5,184.5C 92.341,185.582 89.6743,187.416 87.5,190C 86.1667,190.667 84.8333,190.667 83.5,190C 81.6114,185.344 82.6114,181.511 86.5,178.5 Z"/></g>
<g><path style="opacity:1" fill="#5e3d4c" d="M 191.5,176.5 C 190.167,177.167 188.833,177.833 187.5,178.5C 185.518,180.597 184.518,183.264 184.5,186.5C 181.421,186.74 178.421,186.407 175.5,185.5C 174.73,187.272 173.397,188.272 171.5,188.5C 169.361,187.023 167.028,186.023 164.5,185.5C 164.768,187.099 164.434,188.432 163.5,189.5C 163.672,188.508 163.338,187.842 162.5,187.5C 161.89,186.609 161.557,185.609 161.5,184.5C 163.044,184.297 164.378,183.63 165.5,182.5C 167.524,185.206 170.19,186.539 173.5,186.5C 173.351,185.448 173.517,184.448 174,183.5C 177.057,184.451 180.223,184.784 183.5,184.5C 183.5,183.167 183.5,181.833 183.5,180.5C 183.5,179.167 183.5,177.833 183.5,176.5C 186.167,176.5 188.833,176.5 191.5,176.5 Z"/></g>
<g><path style="opacity:1" fill="#4a1b1e" d="M 96.5,169.5 C 97.8915,175.747 98.5581,182.081 98.5,188.5C 97.3849,192.731 96.3849,197.064 95.5,201.5C 93.6366,203.705 91.3033,205.039 88.5,205.5C 86.8564,205.19 85.8564,204.19 85.5,202.5C 85.1667,201.167 84.8333,199.833 84.5,198.5C 84.702,196.05 84.3686,193.717 83.5,191.5C 85.5273,191.662 87.5273,191.495 89.5,191C 92.2937,189.465 94.2937,187.298 95.5,184.5C 95.5,182.833 95.5,181.167 95.5,179.5C 92.4824,179.296 89.4824,178.963 86.5,178.5C 85.4675,177.088 84.8008,175.422 84.5,173.5C 86.136,168.958 87.136,164.291 87.5,159.5C 85.1843,159.11 83.5177,158.61 82.5,158C 80.1128,158.976 78.9461,160.809 79,163.5C 78.31,162.262 77.81,162.262 77.5,163.5C 75.8863,161.925 73.8863,161.259 71.5,161.5C 75.644,159.822 79.644,157.655 83.5,155C 86.2569,154.218 88.7569,154.718 91,156.5C 92.8911,160.933 94.7244,165.266 96.5,169.5 Z"/></g>
<g><path style="opacity:1" fill="#2a151e" d="M 90.5,166.5 C 92.0744,166.937 93.2411,167.937 94,169.5C 94.2868,171.891 94.7868,174.224 95.5,176.5C 88.478,178.309 85.978,175.642 88,168.5C 88.9947,167.934 89.828,167.267 90.5,166.5 Z"/></g>
<g><path style="opacity:1" fill="#e4b0cb" d="M 50.5,187.5 C 53.9343,191.269 57.9343,194.269 62.5,196.5C 67.8418,200.917 74.0085,203.584 81,204.5C 82.221,203.728 83.221,202.728 84,201.5C 84.3826,202.056 84.8826,202.389 85.5,202.5C 85.8564,204.19 86.8564,205.19 88.5,205.5C 90.8333,206.167 93.1667,206.833 95.5,207.5C 91.7066,207.885 87.7066,207.885 83.5,207.5C 68.3691,204.769 55.3691,198.102 44.5,187.5C 46.3234,188.502 48.3234,188.502 50.5,187.5 Z"/></g>
<g><path style="opacity:1" fill="#4a2737" d="M 40.5,186.5 C 41.1667,186.5 41.8333,186.5 42.5,186.5C 43.1667,186.833 43.8333,187.167 44.5,187.5C 55.3691,198.102 68.3691,204.769 83.5,207.5C 103.662,211.034 123.662,209.867 143.5,204C 149.467,201.864 154.467,198.364 158.5,193.5C 160.192,191.795 161.525,189.795 162.5,187.5C 163.338,187.842 163.672,188.508 163.5,189.5C 163.167,190.167 162.833,190.833 162.5,191.5C 158.967,197.528 153.967,202.028 147.5,205C 121.009,214.546 94.3423,214.879 67.5,206C 57.5587,201.877 48.892,196.044 41.5,188.5C 41.1667,187.833 40.8333,187.167 40.5,186.5 Z"/></g>
<g><path style="opacity:1" fill="#d394b6" d="M 158.5,193.5 C 154.467,198.364 149.467,201.864 143.5,204C 123.662,209.867 103.662,211.034 83.5,207.5C 87.7066,207.885 91.7066,207.885 95.5,207.5C 107.72,208.326 119.72,207.159 131.5,204C 136.13,202.333 140.797,200.667 145.5,199C 148.571,196.482 151.571,193.982 154.5,191.5C 156.292,190.527 157.625,191.194 158.5,193.5 Z"/></g>
<g><path style="opacity:1" fill="#e0d8df" d="M 37.5,204.5 C 55.2962,209.228 73.2962,213.395 91.5,217C 114.345,218.025 137.012,216.525 159.5,212.5C 157.723,213.6 155.723,214.434 153.5,215C 144.426,216.372 135.759,218.538 127.5,221.5C 115.5,221.5 103.5,221.5 91.5,221.5C 80.5204,218.413 69.187,216.913 57.5,217C 50.9377,212.592 44.271,208.425 37.5,204.5 Z"/></g>
<g><path style="opacity:1" fill="#b4a5b0" d="M 41.5,188.5 C 48.892,196.044 57.5587,201.877 67.5,206C 94.3423,214.879 121.009,214.546 147.5,205C 153.967,202.028 158.967,197.528 162.5,191.5C 162.791,192.649 163.624,193.316 165,193.5C 169.895,194.043 174.728,194.877 179.5,196C 180.516,196.519 181.182,197.353 181.5,198.5C 179.784,203.053 176.784,206.553 172.5,209C 167.923,209.725 163.59,210.892 159.5,212.5C 137.012,216.525 114.345,218.025 91.5,217C 73.2962,213.395 55.2962,209.228 37.5,204.5C 34.2167,203.61 31.2167,202.276 28.5,200.5C 29.895,198.139 31.895,196.472 34.5,195.5C 33.5,194.833 32.5,194.167 31.5,193.5C 35.213,192.179 38.5463,190.512 41.5,188.5 Z"/></g>
<g><path style="opacity:1" fill="#c17384" d="M 154.5,191.5 C 151.571,193.982 148.571,196.482 145.5,199C 140.797,200.667 136.13,202.333 131.5,204C 119.72,207.159 107.72,208.326 95.5,207.5C 93.1667,206.833 90.8333,206.167 88.5,205.5C 91.3033,205.039 93.6366,203.705 95.5,201.5C 100.737,202.119 106.07,202.119 111.5,201.5C 111.244,199.208 111.577,197.041 112.5,195C 117.09,194.983 121.59,194.817 126,194.5C 128.451,197.648 131.284,197.648 134.5,194.5C 136.311,195.736 138.144,195.736 140,194.5C 141.729,196.277 143.895,196.444 146.5,195C 148.372,192.056 151.039,190.889 154.5,191.5 Z"/></g>
<g><path style="opacity:1" fill="#c6778d" d="M 84.5,198.5 C 84.8333,199.833 85.1667,201.167 85.5,202.5C 84.8826,202.389 84.3826,202.056 84,201.5C 83.221,202.728 82.221,203.728 81,204.5C 74.0085,203.584 67.8418,200.917 62.5,196.5C 65.8248,195.865 69.1581,194.865 72.5,193.5C 74.2951,194.265 76.1284,194.932 78,195.5C 80.4414,192.863 81.7747,193.53 82,197.5C 82.6708,198.252 83.5041,198.586 84.5,198.5 Z"/></g>
</svg>
