<?xml version="1.0" encoding="UTF-8"?>
<!DOCTYPE svg PUBLIC "-//W3C//DTD SVG 1.1//EN" "http://www.w3.org/Graphics/SVG/1.1/DTD/svg11.dtd">
<svg xmlns="http://www.w3.org/2000/svg" version="1.1" width="1646px" height="1683px" style="shape-rendering:geometricPrecision; text-rendering:geometricPrecision; image-rendering:optimizeQuality; fill-rule:evenodd; clip-rule:evenodd" xmlns:xlink="http://www.w3.org/1999/xlink">
<g><path style="opacity:1" fill="#144458" d="M 717.5,-0.5 C 734.833,-0.5 752.167,-0.5 769.5,-0.5C 839.085,7.46145 899.085,35.6281 949.5,84C 976.506,110.863 999.006,141.03 1017,174.5C 1033.91,204.885 1047.91,236.552 1059,269.5C 1061.63,294.882 1064.63,320.215 1068,345.5C 1077.73,321.309 1086.06,296.642 1093,271.5C 1101.08,222.86 1097.08,175.193 1081,128.5C 1063.49,96.135 1045.99,63.8017 1028.5,31.5C 1031.39,30.9401 1033.72,32.1068 1035.5,35C 1040.6,36.7171 1045.6,38.7171 1050.5,41C 1093.54,93.0743 1117.21,153.074 1121.5,221C 1117.81,250.364 1113.14,279.531 1107.5,308.5C 1106.66,308.842 1106.33,309.508 1106.5,310.5C 1104.84,312.493 1103.67,314.826 1103,317.5C 1102.67,321.833 1102.33,326.167 1102,330.5C 1099.68,337.761 1098.02,345.095 1097,352.5C 1112,326.833 1127,301.167 1142,275.5C 1148.67,267.5 1155.33,259.5 1162,251.5C 1182.42,218.332 1203.08,185.332 1224,152.5C 1227.79,151.205 1231.62,151.205 1235.5,152.5C 1221.3,179.736 1205.97,206.236 1189.5,232C 1190.28,233.073 1190.11,234.24 1189,235.5C 1177.38,251.139 1167.38,267.805 1159,285.5C 1148.96,302.416 1138.79,319.25 1128.5,336C 1154.47,329.978 1180.8,325.478 1207.5,322.5C 1275.34,323.805 1341,336.305 1404.5,360C 1416.74,364.784 1428.74,370.117 1440.5,376C 1459.32,387.459 1478.65,399.125 1498.5,411C 1509.5,418.429 1519.67,426.929 1529,436.5C 1533.59,443.095 1538.92,449.095 1545,454.5C 1547.82,458.97 1549.65,463.803 1550.5,469C 1549.6,474.024 1548.1,478.857 1546,483.5C 1542,487.5 1538,491.5 1534,495.5C 1531.22,499.951 1528.05,504.117 1524.5,508C 1507.17,522 1489.83,536 1472.5,550C 1464.67,554.416 1457,559.082 1449.5,564C 1482.11,586.277 1514.44,608.944 1546.5,632C 1594.18,671.391 1624.01,721.558 1636,782.5C 1638.98,811.336 1642.15,840.003 1645.5,868.5C 1645.5,873.167 1645.5,877.833 1645.5,882.5C 1639.2,886.656 1632.86,890.823 1626.5,895C 1624,895.167 1621.5,895.333 1619,895.5C 1586.49,893.07 1553.99,890.904 1521.5,889C 1536.69,907.226 1551.53,925.726 1566,944.5C 1596.8,991.569 1614.47,1043.24 1619,1099.5C 1619.67,1110.5 1619.67,1121.5 1619,1132.5C 1616,1138.17 1613,1143.83 1610,1149.5C 1600.53,1150.84 1591.03,1150.67 1581.5,1149C 1532.75,1139.15 1484.09,1128.98 1435.5,1118.5C 1440.88,1149.85 1440.72,1181.18 1435,1212.5C 1418.97,1314.08 1377.97,1403.75 1312,1481.5C 1282.4,1513.79 1249.23,1541.62 1212.5,1565C 1152.82,1601.33 1089.15,1628.67 1021.5,1647C 948.272,1666.65 873.939,1678.48 798.5,1682.5C 784.167,1682.5 769.833,1682.5 755.5,1682.5C 578.692,1680.39 418.359,1628.56 274.5,1527C 238.5,1497 202.5,1467 166.5,1437C 144.818,1413.33 124.652,1388.49 106,1362.5C 90.1657,1338.17 74.8324,1313.5 60,1288.5C 20.6178,1219.96 0.451171,1146.29 -0.5,1067.5C -0.5,1058.17 -0.5,1048.83 -0.5,1039.5C 8.32803,982.508 26.828,928.841 55,878.5C 64.6032,861.903 74.6032,845.569 85,829.5C 124.658,774.852 163.824,719.852 202.5,664.5C 151.35,657.427 100.017,651.26 48.5,646C 38.7646,644.712 30.2646,640.879 23,634.5C 22.0581,631.007 20.7248,627.674 19,624.5C 18.3333,620.5 18.3333,616.5 19,612.5C 44.3839,561.273 79.2172,517.44 123.5,481C 125.5,478.333 127.5,475.667 129.5,473C 157.233,449.787 187.899,431.121 221.5,417C 186.675,407.617 153.675,393.951 122.5,376C 115.797,370.095 110.964,362.928 108,354.5C 106.38,346.698 108.047,339.698 113,333.5C 137.642,301.114 166.809,273.614 200.5,251C 239.409,224.333 281.743,204.333 327.5,191C 351.18,185.499 375.18,183.165 399.5,184C 386.537,170.71 374.704,156.544 364,141.5C 358.149,130.14 359.649,119.974 368.5,111C 372.228,109.897 375.228,107.897 377.5,105C 446.025,89.0977 514.692,88.431 583.5,103C 602.264,106.953 620.931,111.286 639.5,116C 661.093,123.047 681.26,132.881 700,145.5C 690.935,114.966 681.435,84.4662 671.5,54C 672.167,53 672.833,52 673.5,51C 671.196,44.4216 668.696,37.9216 666,31.5C 664.544,23.9548 665.877,16.9548 670,10.5C 672.408,8.04392 675.241,6.21059 678.5,5C 691.61,2.90525 704.61,1.07192 717.5,-0.5 Z"/></g>
<g><path style="opacity:1" fill="#7be4e3" d="M 800.5,34.5 C 791.937,33.3896 783.104,32.3896 774,31.5C 756.693,31.5171 739.027,31.5171 721,31.5C 715.311,32.3545 709.645,33.3545 704,34.5C 702.215,33.6462 701.049,34.3129 700.5,36.5C 697.765,33.4832 698.765,32.1499 703.5,32.5C 728.437,29.0737 753.437,28.5737 778.5,31C 786.126,31.2062 793.46,32.3729 800.5,34.5 Z"/></g>
<g><path style="opacity:1" fill="#7ffdef" d="M 800.5,34.5 C 838.086,41.1301 871.42,56.6301 900.5,81C 912.604,91.1012 924.104,101.935 935,113.5C 954.186,140.558 973.352,167.558 992.5,194.5C 979.089,182.261 965.755,169.761 952.5,157C 910.357,131.087 867.357,106.42 823.5,83C 798.379,73.9033 773.046,65.7367 747.5,58.5C 748.105,64.2328 746.938,69.5661 744,74.5C 743.851,89.9453 744.851,105.612 747,121.5C 749.949,139.245 753.282,156.912 757,174.5C 761.833,190.836 766.999,207.169 772.5,223.5C 739.332,164.809 715.332,102.476 700.5,36.5C 701.049,34.3129 702.215,33.6462 704,34.5C 709.645,33.3545 715.311,32.3545 721,31.5C 739.027,31.5171 756.693,31.5171 774,31.5C 783.104,32.3896 791.937,33.3896 800.5,34.5 Z"/></g>
<g><path style="opacity:1" fill="#37dbfe" d="M 992.5,194.5 C 994.451,195.716 995.951,197.382 997,199.5C 1024.91,242.901 1041.91,290.234 1048,341.5C 1050.32,349.796 1052.65,358.129 1055,366.5C 1055.5,371.489 1055.67,376.489 1055.5,381.5C 1044.98,355.478 1027.48,335.478 1003,321.5C 1001.74,321.759 1000.74,322.426 1000,323.5C 999.299,326.928 999.632,330.262 1001,333.5C 1014,359.499 1026.5,385.832 1038.5,412.5C 1040.52,413.694 1042.52,413.694 1044.5,412.5C 1040.5,419.504 1042.5,423.171 1050.5,423.5C 1064.38,420.113 1078.04,415.946 1091.5,411C 1109.09,406.515 1126.76,402.348 1144.5,398.5C 1162.02,396.306 1179.52,393.973 1197,391.5C 1221.12,392.697 1246.29,393.864 1272.5,395C 1300.41,398.857 1327.41,406.19 1353.5,417C 1403.02,439.593 1452.35,462.427 1501.5,485.5C 1501.16,486.338 1500.49,486.672 1499.5,486.5C 1452.96,492.552 1407.96,504.386 1364.5,522C 1327.22,531.315 1290.55,542.648 1254.5,556C 1246.87,556.244 1239.54,556.244 1232.5,556C 1244.36,561.049 1256.7,564.383 1269.5,566C 1265.32,566.949 1261.32,568.282 1257.5,570C 1260.15,570.497 1262.81,570.664 1265.5,570.5C 1269.55,570.395 1273.55,570.728 1277.5,571.5C 1292.9,575.293 1308.56,578.46 1324.5,581C 1389.97,603.36 1448.64,637.193 1500.5,682.5C 1520.86,704.854 1541.52,726.854 1562.5,748.5C 1574.47,767.619 1586.8,786.453 1599.5,805C 1604.32,817.64 1609.98,829.807 1616.5,841.5C 1616.5,847.5 1616.5,853.5 1616.5,859.5C 1607.35,860.609 1598.19,861.609 1589,862.5C 1578.41,861.687 1567.91,860.354 1557.5,858.5C 1545.08,854.525 1532.75,850.025 1520.5,845C 1495.75,831.264 1470.75,817.931 1445.5,805C 1428.58,798.137 1411.58,791.471 1394.5,785C 1385,782.978 1375.5,781.144 1366,779.5C 1348.58,779.745 1331.25,779.745 1314,779.5C 1312.81,781.233 1311.64,782.9 1310.5,784.5C 1307.17,782.222 1303.5,781.055 1299.5,781C 1308.5,788.667 1317.5,796.333 1326.5,804C 1344.96,813.397 1363.29,823.064 1381.5,833C 1407.25,841.804 1433.25,849.804 1459.5,857C 1463.65,859.803 1466.15,863.636 1467,868.5C 1476.71,878.703 1486.21,889.037 1495.5,899.5C 1489.89,896.358 1484.22,893.191 1478.5,890C 1474.47,885.632 1470.13,881.632 1465.5,878C 1461.99,877.073 1458.49,876.239 1455,875.5C 1455.69,880.583 1457.02,885.583 1459,890.5C 1463.99,900.48 1469.99,909.813 1477,918.5C 1487.72,929.624 1499.22,939.958 1511.5,949.5C 1527.55,969.538 1544.55,988.538 1562.5,1006.5C 1563.69,1007.65 1564.69,1007.65 1565.5,1006.5C 1572.6,1024.28 1579.43,1042.28 1586,1060.5C 1589.32,1080.69 1591.49,1101.03 1592.5,1121.5C 1579.7,1119.8 1567.04,1117.47 1554.5,1114.5C 1475.37,1080.11 1396.04,1045.94 1316.5,1012C 1313.38,1010.27 1310.05,1009.44 1306.5,1009.5C 1292.39,1006.64 1278.22,1003.98 1264,1001.5C 1263.17,1001.83 1262.33,1002.17 1261.5,1002.5C 1266.86,1022.61 1272.19,1042.61 1277.5,1062.5C 1276.87,1100.02 1272.37,1137.35 1264,1174.5C 1253.9,1205.31 1242.73,1235.64 1230.5,1265.5C 1203.87,1296.54 1176.87,1327.38 1149.5,1358C 1136.17,1368.67 1122.83,1379.33 1109.5,1390C 1067.9,1416.61 1026.56,1443.61 985.5,1471C 955.004,1488.08 924.671,1505.41 894.5,1523C 875.832,1531.34 857.498,1540.17 839.5,1549.5C 838.078,1549.71 836.745,1550.21 835.5,1551C 778.975,1555.23 722.809,1559.73 667,1564.5C 659.876,1564.84 652.709,1564.17 645.5,1562.5C 634.818,1558.91 624.984,1553.57 616,1546.5C 615,1547.17 614,1547.83 613,1548.5C 599.759,1540.57 586.092,1533.57 572,1527.5C 561.976,1529.03 551.809,1531.53 541.5,1535C 535.824,1537.17 530.824,1540.33 526.5,1544.5C 524.955,1545.45 523.288,1545.79 521.5,1545.5C 406.294,1519.56 303.627,1469.23 213.5,1394.5C 168.809,1336.15 124.143,1277.81 79.5,1219.5C 77.5289,1214.89 75.0289,1210.56 72,1206.5C 69.5861,1196.93 66.5861,1187.59 63,1178.5C 56.6442,1155.59 54.3109,1132.26 56,1108.5C 58.8128,1076.2 61.1461,1043.87 63,1011.5C 65.412,1003.6 67.412,995.598 69,987.5C 85.7561,948.319 104.423,909.986 125,872.5C 149.748,830.002 174.748,787.669 200,745.5C 212.463,722.587 226.463,700.587 242,679.5C 267.53,646.937 292.697,614.104 317.5,581C 313.827,579.639 310.16,578.473 306.5,577.5C 308.672,573.878 310.506,570.211 312,566.5C 308.298,570.37 304.464,574.037 300.5,577.5C 230.861,591.097 161.527,604.097 92.5,616.5C 81.4378,615.101 70.4378,613.267 59.5,611C 59.0426,610.586 58.7093,610.086 58.5,609.5C 68.6096,593.345 78.4429,577.012 88,560.5C 90.5184,557.429 93.0184,554.429 95.5,551.5C 95.4346,551.938 95.6012,552.272 96,552.5C 128.39,531.718 160.557,510.552 192.5,489C 240.203,464.101 290.869,447.768 344.5,440C 364.697,438.273 384.697,436.106 404.5,433.5C 412.08,433.295 419.246,433.962 426,435.5C 426.333,435.167 426.667,434.833 427,434.5C 430.437,435.562 433.937,436.062 437.5,436C 404.49,419.33 370.823,403.997 336.5,390C 305.143,379.099 273.477,368.099 241.5,357C 231.309,354.742 221.142,352.576 211,350.5C 210,350.833 209,351.167 208,351.5C 186.349,349.147 164.849,348.147 143.5,348.5C 143.5,347.833 143.833,347.5 144.5,347.5C 150.952,347.916 157.285,347.416 163.5,346C 185.219,329.292 207.553,313.292 230.5,298C 242.8,292.517 254.8,286.517 266.5,280C 276.486,276.676 286.486,273.343 296.5,270C 321.753,264.625 347.087,259.792 372.5,255.5C 412.089,257.937 451.755,260.437 491.5,263C 497.106,264.815 502.773,266.315 508.5,267.5C 516.811,272.324 525.144,277.157 533.5,282C 565.683,296.103 597.683,310.103 629.5,324C 603.89,305.185 577.223,287.852 549.5,272C 531.109,258.61 512.443,245.61 493.5,233C 462.921,209.755 436.421,182.588 414,151.5C 409.751,144 405.251,136.666 400.5,129.5C 407.58,128.033 414.746,127.367 422,127.5C 438.67,127.919 455.17,128.586 471.5,129.5C 540.206,136.958 607.206,155.458 672.5,185C 682.38,190.228 691.046,196.895 698.5,205C 725.021,225.847 750.021,248.514 773.5,273C 780.268,277.468 786.768,282.301 793,287.5C 793.399,287.272 793.565,286.938 793.5,286.5C 805.751,304.603 819.751,321.436 835.5,337C 836.167,337.667 836.833,337.667 837.5,337C 824,315.5 810.5,294 797,272.5C 787.783,256.733 779.617,240.4 772.5,223.5C 766.999,207.169 761.833,190.836 757,174.5C 753.282,156.912 749.949,139.245 747,121.5C 744.851,105.612 743.851,89.9453 744,74.5C 746.938,69.5661 748.105,64.2328 747.5,58.5C 773.046,65.7367 798.379,73.9033 823.5,83C 867.357,106.42 910.357,131.087 952.5,157C 965.755,169.761 979.089,182.261 992.5,194.5 Z"/></g>
<g><path style="opacity:1" fill="#7efcef" d="M 471.5,129.5 C 508.831,130.342 546.165,131.176 583.5,132C 611.141,139.547 638.141,148.88 664.5,160C 689.973,172.066 712.64,188.066 732.5,208C 740.279,213.112 746.779,219.612 752,227.5C 754.656,229.996 757.656,231.996 761,233.5C 771.265,251.58 782.099,269.247 793.5,286.5C 793.565,286.938 793.399,287.272 793,287.5C 786.768,282.301 780.268,277.468 773.5,273C 750.021,248.514 725.021,225.847 698.5,205C 691.046,196.895 682.38,190.228 672.5,185C 607.206,155.458 540.206,136.958 471.5,129.5 Z"/></g>
<g><path style="opacity:1" fill="#7ffdef" d="M 508.5,267.5 C 502.773,266.315 497.106,264.815 491.5,263C 451.755,260.437 412.089,257.937 372.5,255.5C 347.087,259.792 321.753,264.625 296.5,270C 286.486,273.343 276.486,276.676 266.5,280C 254.8,286.517 242.8,292.517 230.5,298C 207.553,313.292 185.219,329.292 163.5,346C 157.285,347.416 150.952,347.916 144.5,347.5C 195.488,280.658 261.821,236.825 343.5,216C 352.618,214.602 361.785,213.769 371,213.5C 391.862,214.592 412.695,216.092 433.5,218C 441.278,220.723 448.945,223.723 456.5,227C 474.019,240.364 491.353,253.864 508.5,267.5 Z"/></g>
<g><path style="opacity:1" fill="#7cfef0" d="M 956.5,213.5 C 965.981,215.907 974.314,220.407 981.5,227C 990.878,238.384 1001.04,249.217 1012,259.5C 1012.19,261.9 1012.69,264.234 1013.5,266.5C 1019.02,268.528 1021.85,272.528 1022,278.5C 1022.67,281.833 1022.67,285.167 1022,288.5C 1011.78,280.769 1000.95,274.102 989.5,268.5C 972.096,254.027 961.096,235.694 956.5,213.5 Z"/></g>
<g><path style="opacity:0.271" fill="#184153" d="M 1107.5,308.5 C 1108.83,309.167 1108.83,309.167 1107.5,308.5 Z"/></g>
<g><path style="opacity:0.271" fill="#184153" d="M 1106.5,310.5 C 1107.53,310.897 1107.69,311.563 1107,312.5C 1106.54,311.906 1106.37,311.239 1106.5,310.5 Z"/></g>
<g><path style="opacity:0.271" fill="#184153" d="M 1106.5,314.5 C 1107.83,315.167 1107.83,315.167 1106.5,314.5 Z"/></g>
<g><path style="opacity:1" fill="#34c0e0" d="M 1055.5,381.5 C 1058.8,384.816 1060.8,388.816 1061.5,393.5C 1058.59,394.906 1056.09,396.906 1054,399.5C 1050.97,404.015 1047.8,408.349 1044.5,412.5C 1042.52,413.694 1040.52,413.694 1038.5,412.5C 1026.5,385.832 1014,359.499 1001,333.5C 999.632,330.262 999.299,326.928 1000,323.5C 1000.74,322.426 1001.74,321.759 1003,321.5C 1027.48,335.478 1044.98,355.478 1055.5,381.5 Z"/></g>
<g><path style="opacity:1" fill="#34bfdf" d="M 143.5,348.5 C 164.849,348.147 186.349,349.147 208,351.5C 209,351.167 210,350.833 211,350.5C 221.142,352.576 231.309,354.742 241.5,357C 273.477,368.099 305.143,379.099 336.5,390C 370.823,403.997 404.49,419.33 437.5,436C 433.937,436.062 430.437,435.562 427,434.5C 426.667,434.833 426.333,435.167 426,435.5C 419.246,433.962 412.08,433.295 404.5,433.5C 398.835,432.75 393.168,431.917 387.5,431C 386.584,430.722 385.918,430.222 385.5,429.5C 388.518,429.665 391.518,429.498 394.5,429C 394.167,428.667 393.833,428.333 393.5,428C 355.66,418.372 317.66,409.705 279.5,402C 235.928,386.031 191.928,371.031 147.5,357C 145.353,354.763 143.02,352.763 140.5,351C 141.373,349.955 142.373,349.122 143.5,348.5 Z"/></g>
<g><path style="opacity:1" fill="#7ffeef" d="M 1501.5,485.5 C 1452.35,462.427 1403.02,439.593 1353.5,417C 1327.41,406.19 1300.41,398.857 1272.5,395C 1246.29,393.864 1221.12,392.697 1197,391.5C 1179.52,393.973 1162.02,396.306 1144.5,398.5C 1126.76,402.348 1109.09,406.515 1091.5,411C 1078.04,415.946 1064.38,420.113 1050.5,423.5C 1042.5,423.171 1040.5,419.504 1044.5,412.5C 1047.8,408.349 1050.97,404.015 1054,399.5C 1056.09,396.906 1058.59,394.906 1061.5,393.5C 1061.24,394.978 1061.57,396.311 1062.5,397.5C 1086.99,387.586 1110.66,376.086 1133.5,363C 1142.29,359.908 1151.29,357.575 1160.5,356C 1174.31,354.533 1188.14,353.366 1202,352.5C 1237.59,355.202 1273.09,358.702 1308.5,363C 1362.34,374.707 1412.01,395.707 1457.5,426C 1476.5,441.667 1495.5,457.333 1514.5,473C 1510.13,477.174 1505.8,481.34 1501.5,485.5 Z"/></g>
<g><path style="opacity:1" fill="#7efcef" d="M 385.5,429.5 C 385.918,430.222 386.584,430.722 387.5,431C 393.168,431.917 398.835,432.75 404.5,433.5C 384.697,436.106 364.697,438.273 344.5,440C 290.869,447.768 240.203,464.101 192.5,489C 160.557,510.552 128.39,531.718 96,552.5C 95.6012,552.272 95.4346,551.938 95.5,551.5C 106.52,536.972 118.854,523.472 132.5,511C 152.702,493.461 174.035,477.461 196.5,463C 244.158,437.272 295.158,425.439 349.5,427.5C 361.491,428.388 373.491,429.055 385.5,429.5 Z"/></g>
<g><path style="opacity:1" fill="#34bfdf" d="M 1499.5,486.5 C 1481.71,501.988 1463.21,516.654 1444,530.5C 1418.48,540.015 1393.32,550.181 1368.5,561C 1350.64,561.716 1332.8,562.883 1315,564.5C 1311.62,563.715 1308.45,563.882 1305.5,565C 1291.8,565.967 1278.13,567.3 1264.5,569C 1265.06,569.383 1265.39,569.883 1265.5,570.5C 1262.81,570.664 1260.15,570.497 1257.5,570C 1261.32,568.282 1265.32,566.949 1269.5,566C 1256.7,564.383 1244.36,561.049 1232.5,556C 1239.54,556.244 1246.87,556.244 1254.5,556C 1290.55,542.648 1327.22,531.315 1364.5,522C 1407.96,504.386 1452.96,492.552 1499.5,486.5 Z"/></g>
<g><path style="opacity:1" fill="#010204" d="M 849.5,528.5 C 861.617,531.609 873.951,534.276 886.5,536.5C 941.097,555.722 987.597,587.056 1026,630.5C 1092.01,710.46 1135.51,801.46 1156.5,903.5C 1164.24,955.321 1165.58,1007.32 1160.5,1059.5C 1159.16,1066.33 1157.99,1073.33 1157,1080.5C 1151.33,1092.85 1148.33,1105.85 1148,1119.5C 1146.94,1124.56 1144.94,1129.23 1142,1133.5C 1140.69,1137.75 1139.85,1142.09 1139.5,1146.5C 1137.08,1149.22 1134.08,1151.22 1130.5,1152.5C 1125.41,1149.01 1120.25,1149.01 1115,1152.5C 1113.68,1150.75 1113.18,1148.75 1113.5,1146.5C 1114.79,1146.74 1115.79,1146.4 1116.5,1145.5C 1140.81,1061.91 1144.31,977.239 1127,891.5C 1117.96,854.603 1106.29,818.603 1092,783.5C 1087.47,775.105 1082.97,766.772 1078.5,758.5C 1077.42,755.996 1076.08,753.663 1074.5,751.5C 1070.45,742.404 1065.62,733.737 1060,725.5C 1047.6,709.695 1035.93,693.362 1025,676.5C 1000.08,641.582 969.916,612.082 934.5,588C 887.184,560.005 836.184,548.338 781.5,553C 765.891,555.972 751.558,561.972 738.5,571C 722.122,583.538 706.788,597.372 692.5,612.5C 681.065,589.804 665.065,570.97 644.5,556C 639.226,552.53 633.56,549.864 627.5,548C 607.941,542.389 588.274,537.222 568.5,532.5C 552.171,534.37 535.838,536.203 519.5,538C 483.473,548.205 451.473,565.538 423.5,590C 405.065,608.087 386.899,626.254 369,644.5C 358.621,656.544 348.621,668.877 339,681.5C 327.667,700.167 316.333,718.833 305,737.5C 298.881,750.069 293.048,762.735 287.5,775.5C 282.687,783.727 278.52,792.394 275,801.5C 269.429,819.988 264.429,838.654 260,857.5C 259,858.5 258,859.5 257,860.5C 250.231,883.908 244.565,907.575 240,931.5C 237.73,945.76 236.23,960.093 235.5,974.5C 232.555,1017.39 239.055,1058.72 255,1098.5C 270.749,1131.58 291.916,1160.75 318.5,1186C 362.66,1223.8 413.66,1237.8 471.5,1228C 488.461,1224.9 504.461,1219.24 519.5,1211C 535.011,1198.15 550.511,1185.32 566,1172.5C 576.011,1186.85 587.177,1200.35 599.5,1213C 639.108,1248.81 685.108,1272.47 737.5,1284C 745.135,1285.16 752.802,1286 760.5,1286.5C 763.305,1287.32 766.305,1287.82 769.5,1288C 768.5,1289 767.5,1290 766.5,1291C 766.833,1291.17 767.167,1291.33 767.5,1291.5C 769.246,1289.75 771.246,1288.42 773.5,1287.5C 774.675,1287.28 775.675,1287.61 776.5,1288.5C 774.448,1291.66 772.782,1295 771.5,1298.5C 772.802,1301.13 774.468,1303.46 776.5,1305.5C 775.167,1308.83 772.833,1311.17 769.5,1312.5C 767.167,1312.5 764.833,1312.5 762.5,1312.5C 691.464,1299.47 630.631,1267.47 580,1216.5C 575.638,1210.48 570.971,1204.81 566,1199.5C 540.785,1219.69 512.618,1234.53 481.5,1244C 437.619,1255.48 394.952,1252.15 353.5,1234C 297.925,1208.42 258.758,1167.26 236,1110.5C 222.165,1075.16 214.665,1038.49 213.5,1000.5C 213.333,985.83 213.5,971.163 214,956.5C 215.829,944.536 217.329,932.536 218.5,920.5C 235.764,827.658 270.931,742.324 324,664.5C 352.833,622.333 388.333,586.833 430.5,558C 487.095,522.771 548.761,508.438 615.5,515C 651.568,524.05 678.735,544.883 697,577.5C 705.541,565.959 715.707,556.125 727.5,548C 745.719,539.558 764.386,532.225 783.5,526C 795.989,522.826 808.655,521.826 821.5,523C 830.861,524.789 840.195,526.622 849.5,528.5 Z"/></g>
<g><path style="opacity:1" fill="#42b4ce" d="M 849.5,528.5 C 859.887,529.484 870.221,530.984 880.5,533C 883.019,533.586 885.019,534.753 886.5,536.5C 873.951,534.276 861.617,531.609 849.5,528.5 Z"/></g>
<g><path style="opacity:1" fill="#fefefe" d="M 1074.5,751.5 C 1076.66,760.13 1078.82,768.797 1081,777.5C 1087.39,818.562 1092.89,859.396 1097.5,900C 1097.5,911 1097.5,922 1097.5,933C 1095.66,962.906 1092.49,992.739 1088,1022.5C 1078.36,1060.43 1065.36,1097.1 1049,1132.5C 1044.81,1139.56 1040.64,1146.56 1036.5,1153.5C 1034.07,1154.96 1031.4,1156.12 1028.5,1157C 987.061,1165.29 946.394,1176.63 906.5,1191C 883.269,1200.88 860.936,1212.55 839.5,1226C 838.364,1227.15 837.364,1228.31 836.5,1229.5C 797.515,1237.19 758.515,1237.36 719.5,1230C 696.926,1225.04 676.259,1216.04 657.5,1203C 631.141,1183.82 605.141,1164.15 579.5,1144C 575.984,1140.65 572.651,1137.15 569.5,1133.5C 549.054,1150.56 527.054,1165.4 503.5,1178C 465.074,1197 426.074,1198.34 386.5,1182C 350.716,1164.55 319.882,1140.71 294,1110.5C 276.164,1087.03 264.497,1060.69 259,1031.5C 249.379,990.713 248.046,949.713 255,908.5C 265.677,864.125 276.51,819.792 287.5,775.5C 293.048,762.735 298.881,750.069 305,737.5C 316.333,718.833 327.667,700.167 339,681.5C 348.621,668.877 358.621,656.544 369,644.5C 386.899,626.254 405.065,608.087 423.5,590C 451.473,565.538 483.473,548.205 519.5,538C 535.838,536.203 552.171,534.37 568.5,532.5C 588.274,537.222 607.941,542.389 627.5,548C 633.56,549.864 639.226,552.53 644.5,556C 665.065,570.97 681.065,589.804 692.5,612.5C 706.788,597.372 722.122,583.538 738.5,571C 751.558,561.972 765.891,555.972 781.5,553C 836.184,548.338 887.184,560.005 934.5,588C 969.916,612.082 1000.08,641.582 1025,676.5C 1035.93,693.362 1047.6,709.695 1060,725.5C 1065.62,733.737 1070.45,742.404 1074.5,751.5 Z"/></g>
<g><path style="opacity:1" fill="#7ffdef" d="M 1277.5,571.5 C 1317.18,574.386 1356.85,577.553 1396.5,581C 1426.28,591.394 1454.62,604.727 1481.5,621C 1560.95,673.015 1605.95,746.515 1616.5,841.5C 1609.98,829.807 1604.32,817.64 1599.5,805C 1586.8,786.453 1574.47,767.619 1562.5,748.5C 1541.52,726.854 1520.86,704.854 1500.5,682.5C 1448.64,637.193 1389.97,603.36 1324.5,581C 1308.56,578.46 1292.9,575.293 1277.5,571.5 Z"/></g>
<g><path style="opacity:1" fill="#34bfde" d="M 300.5,577.5 C 284.626,597.726 266.626,615.892 246.5,632C 243.167,632.667 239.833,632.667 236.5,632C 188.555,624.998 140.555,619.832 92.5,616.5C 161.527,604.097 230.861,591.097 300.5,577.5 Z"/></g>
<g><path style="opacity:1" fill="#7efdef" d="M 306.5,577.5 C 310.16,578.473 313.827,579.639 317.5,581C 292.697,614.104 267.53,646.937 242,679.5C 226.463,700.587 212.463,722.587 200,745.5C 174.748,787.669 149.748,830.002 125,872.5C 104.423,909.986 85.7561,948.319 69,987.5C 67.412,995.598 65.412,1003.6 63,1011.5C 61.1461,1043.87 58.8128,1076.2 56,1108.5C 54.3109,1132.26 56.6442,1155.59 63,1178.5C 66.5861,1187.59 69.5861,1196.93 72,1206.5C 75.0289,1210.56 77.5289,1214.89 79.5,1219.5C 72.5,1211.5 65.5,1203.5 58.5,1195.5C 48.8461,1167.88 42.1794,1139.55 38.5,1110.5C 37.4557,1097.57 36.4557,1084.4 35.5,1071C 35.5757,1063.18 35.5757,1055.35 35.5,1047.5C 36.1351,1037.14 37.1351,1026.8 38.5,1016.5C 44.6119,986.046 54.1119,956.713 67,928.5C 82.4573,895.58 99.4573,863.58 118,832.5C 158,775.167 198,717.833 238,660.5C 253.967,642.865 270.301,625.531 287,608.5C 293.025,597.765 299.525,587.432 306.5,577.5 Z"/></g>
<g><path style="opacity:1" fill="#d7d8e0" d="M 1074.5,751.5 C 1076.08,753.663 1077.42,755.996 1078.5,758.5C 1079.76,767.78 1082.59,776.78 1087,785.5C 1086.75,790.717 1088.08,795.384 1091,799.5C 1091.76,801.769 1091.59,803.936 1090.5,806C 1093.8,812.859 1096.63,820.359 1099,828.5C 1099.25,830.433 1099.75,832.266 1100.5,834C 1100.04,834.414 1099.71,834.914 1099.5,835.5C 1100.64,837.378 1101.64,839.212 1102.5,841C 1105.4,854.204 1109.06,867.871 1113.5,882C 1111.56,885.537 1112.22,888.871 1115.5,892C 1115.29,896.396 1115.29,901.063 1115.5,906C 1117.62,911.731 1118.96,917.731 1119.5,924C 1119.06,931.122 1119.06,938.455 1119.5,946C 1122.17,946.667 1122.17,947.333 1119.5,948C 1120.17,948.667 1120.83,949.333 1121.5,950C 1120.83,957.333 1120.17,964.667 1119.5,972C 1119.59,986.271 1119.59,1000.44 1119.5,1014.5C 1117.01,1015.54 1117.01,1016.37 1119.5,1017C 1118.83,1017.33 1118.17,1017.67 1117.5,1018C 1117.83,1020.33 1118.17,1022.67 1118.5,1025C 1113.55,1064.97 1104.71,1104.14 1092,1142.5C 1090.99,1142.98 1089.82,1143.15 1088.5,1143C 1087.26,1143.69 1087.26,1144.19 1088.5,1144.5C 1071.25,1147.48 1053.92,1150.48 1036.5,1153.5C 1040.64,1146.56 1044.81,1139.56 1049,1132.5C 1065.36,1097.1 1078.36,1060.43 1088,1022.5C 1092.49,992.739 1095.66,962.906 1097.5,933C 1097.5,922 1097.5,911 1097.5,900C 1092.89,859.396 1087.39,818.562 1081,777.5C 1078.82,768.797 1076.66,760.13 1074.5,751.5 Z"/></g>
<g><path style="opacity:1" fill="#d7d8df" d="M 287.5,775.5 C 276.51,819.792 265.677,864.125 255,908.5C 248.046,949.713 249.379,990.713 259,1031.5C 264.497,1060.69 276.164,1087.03 294,1110.5C 319.882,1140.71 350.716,1164.55 386.5,1182C 426.074,1198.34 465.074,1197 503.5,1178C 527.054,1165.4 549.054,1150.56 569.5,1133.5C 572.651,1137.15 575.984,1140.65 579.5,1144C 605.141,1164.15 631.141,1183.82 657.5,1203C 676.259,1216.04 696.926,1225.04 719.5,1230C 758.515,1237.36 797.515,1237.19 836.5,1229.5C 829.624,1235.19 822.29,1240.36 814.5,1245C 804.937,1254.4 795.604,1263.9 786.5,1273.5C 785.199,1272.36 784.032,1271.03 783,1269.5C 779.378,1269.94 775.378,1270.27 771,1270.5C 765.827,1269.05 760.494,1268.05 755,1267.5C 753.333,1267.83 751.667,1268.17 750,1268.5C 741.52,1267.14 733.187,1265.14 725,1262.5C 723.984,1263.63 723.317,1263.3 723,1261.5C 722.667,1262.17 722.333,1262.83 722,1263.5C 712.851,1260.23 703.851,1256.56 695,1252.5C 693.984,1253.63 693.317,1253.3 693,1251.5C 691.667,1251.5 690.333,1251.5 689,1251.5C 685.283,1249.17 681.616,1246.83 678,1244.5C 676.984,1245.63 676.317,1245.3 676,1243.5C 675.667,1243.83 675.333,1244.17 675,1244.5C 651.908,1231.55 629.741,1216.38 608.5,1199C 603,1193.5 597.5,1188 592,1182.5C 588.408,1177.23 584.408,1172.23 580,1167.5C 577.718,1162.89 575.051,1158.56 572,1154.5C 567.182,1158.32 562.682,1162.48 558.5,1167C 553.572,1169.63 549.405,1173.13 546,1177.5C 545.667,1177.17 545.333,1176.83 545,1176.5C 541.481,1180.03 537.648,1183.19 533.5,1186C 533.833,1186.33 534.167,1186.67 534.5,1187C 531.703,1189.03 528.536,1191.53 525,1194.5C 524.667,1194.17 524.333,1193.83 524,1193.5C 523.558,1195.68 522.558,1196.35 521,1195.5C 519.43,1196.61 518.097,1197.95 517,1199.5C 516.333,1196.83 515.667,1196.83 515,1199.5C 514.667,1199.17 514.333,1198.83 514,1198.5C 504.773,1204.03 495.106,1207.36 485,1208.5C 472.888,1211.47 460.555,1212.8 448,1212.5C 438.965,1211.95 430.965,1211.95 424,1212.5C 420.667,1211.83 417.333,1211.17 414,1210.5C 392.927,1208.7 372.427,1202.2 352.5,1191C 348.282,1187.2 343.616,1184.03 338.5,1181.5C 335.146,1178.98 332.312,1175.98 330,1172.5C 329.667,1172.83 329.333,1173.17 329,1173.5C 316.969,1164.8 306.969,1154.13 299,1141.5C 298.667,1141.83 298.333,1142.17 298,1142.5C 286.214,1126.81 275.547,1110.81 266,1094.5C 262.682,1087.86 259.349,1081.2 256,1074.5C 253.301,1065.03 250.301,1055.69 247,1046.5C 243.993,1030.45 241.493,1014.28 239.5,998C 239.645,997.228 239.978,996.561 240.5,996C 239.645,990.311 238.645,984.645 237.5,979C 238.38,977.644 238.714,976.144 238.5,974.5C 237.5,974.5 236.5,974.5 235.5,974.5C 236.23,960.093 237.73,945.76 240,931.5C 244.565,907.575 250.231,883.908 257,860.5C 258,859.5 259,858.5 260,857.5C 264.429,838.654 269.429,819.988 275,801.5C 278.52,792.394 282.687,783.727 287.5,775.5 Z"/></g>
<g><path style="opacity:1" fill="#168fc5" d="M 1557.5,858.5 C 1548.23,858.032 1539.06,857.032 1530,855.5C 1524.89,856.804 1519.72,856.804 1514.5,855.5C 1512.7,853.668 1510.87,853.335 1509,854.5C 1504.28,853.221 1499.45,852.388 1494.5,852C 1489.98,850.447 1485.48,848.947 1481,847.5C 1478.28,848.661 1475.95,847.994 1474,845.5C 1472.21,845.377 1470.38,845.377 1468.5,845.5C 1465.12,844.538 1461.95,843.204 1459,841.5C 1457.66,842.214 1456.32,841.88 1455,840.5C 1450.88,841.576 1447.21,840.576 1444,837.5C 1440.91,838.894 1438.24,838.227 1436,835.5C 1434.54,836.035 1432.87,836.035 1431,835.5C 1427.42,834.602 1424.09,833.269 1421,831.5C 1418.2,832.443 1415.37,832.276 1412.5,831C 1408.64,829.12 1404.81,827.287 1401,825.5C 1398.82,826.108 1396.82,825.441 1395,823.5C 1392.85,824.476 1390.69,824.309 1388.5,823C 1364.74,814.117 1342.41,803.283 1321.5,790.5C 1317.75,788.358 1314.08,786.358 1310.5,784.5C 1311.64,782.9 1312.81,781.233 1314,779.5C 1331.25,779.745 1348.58,779.745 1366,779.5C 1375.5,781.144 1385,782.978 1394.5,785C 1411.58,791.471 1428.58,798.137 1445.5,805C 1470.75,817.931 1495.75,831.264 1520.5,845C 1532.75,850.025 1545.08,854.525 1557.5,858.5 Z"/></g>
<g><path style="opacity:1" fill="#d5daea" d="M 1078.5,758.5 C 1082.97,766.772 1087.47,775.105 1092,783.5C 1106.29,818.603 1117.96,854.603 1127,891.5C 1144.31,977.239 1140.81,1061.91 1116.5,1145.5C 1107.19,1144.65 1097.86,1144.31 1088.5,1144.5C 1087.26,1144.19 1087.26,1143.69 1088.5,1143C 1089.82,1143.15 1090.99,1142.98 1092,1142.5C 1104.71,1104.14 1113.55,1064.97 1118.5,1025C 1118.17,1022.67 1117.83,1020.33 1117.5,1018C 1118.17,1017.67 1118.83,1017.33 1119.5,1017C 1117.01,1016.37 1117.01,1015.54 1119.5,1014.5C 1119.59,1000.44 1119.59,986.271 1119.5,972C 1120.17,964.667 1120.83,957.333 1121.5,950C 1120.83,949.333 1120.17,948.667 1119.5,948C 1122.17,947.333 1122.17,946.667 1119.5,946C 1119.06,938.455 1119.06,931.122 1119.5,924C 1118.96,917.731 1117.62,911.731 1115.5,906C 1115.29,901.063 1115.29,896.396 1115.5,892C 1112.22,888.871 1111.56,885.537 1113.5,882C 1109.06,867.871 1105.4,854.204 1102.5,841C 1101.64,839.212 1100.64,837.378 1099.5,835.5C 1099.71,834.914 1100.04,834.414 1100.5,834C 1099.75,832.266 1099.25,830.433 1099,828.5C 1096.63,820.359 1093.8,812.859 1090.5,806C 1091.59,803.936 1091.76,801.769 1091,799.5C 1088.08,795.384 1086.75,790.717 1087,785.5C 1082.59,776.78 1079.76,767.78 1078.5,758.5 Z"/></g>
<g><path style="opacity:1" fill="#010103" d="M 567.5,806.5 C 580.627,804.98 590.46,809.98 597,821.5C 603.649,835.069 607.649,849.402 609,864.5C 612.353,908.413 603.686,949.746 583,988.5C 576.642,999.861 567.475,1008.03 555.5,1013C 543.713,1014.86 534.213,1011.02 527,1001.5C 519.205,988.229 514.538,973.896 513,958.5C 512.194,942.141 512.527,925.808 514,909.5C 516.823,894.721 520.156,880.054 524,865.5C 530.571,845.844 541.071,828.677 555.5,814C 559.429,811.212 563.429,808.712 567.5,806.5 Z"/></g>
<g><path style="opacity:1" fill="#fafbfb" d="M 572.5,828.5 C 575.518,828.335 578.518,828.502 581.5,829C 595.504,842.514 599.004,858.348 592,876.5C 588.906,881.266 584.906,884.932 580,887.5C 575.744,886.032 572.411,883.366 570,879.5C 563.87,867.894 561.87,855.561 564,842.5C 565.086,836.641 567.92,831.975 572.5,828.5 Z"/></g>
<g><path style="opacity:1" fill="#010102" d="M 807.5,835.5 C 821.116,834.424 832.283,839.091 841,849.5C 852.832,866.647 860.165,885.647 863,906.5C 868.148,944.414 862.815,980.747 847,1015.5C 840.5,1027.33 831.333,1036.5 819.5,1043C 803.07,1048.2 789.57,1044.03 779,1030.5C 762.38,1005.42 754.88,977.758 756.5,947.5C 755.362,911.695 765.195,879.362 786,850.5C 791.987,843.659 799.154,838.659 807.5,835.5 Z"/></g>
<g><path style="opacity:1" fill="#fafbfb" d="M 812.5,856.5 C 827.528,857.678 837.028,865.678 841,880.5C 841.667,885.833 841.667,891.167 841,896.5C 831.202,917.143 819.869,917.81 807,898.5C 801.887,888.616 800.554,878.283 803,867.5C 804.798,862.518 807.965,858.851 812.5,856.5 Z"/></g>
<g><path style="opacity:1" fill="#7efdef" d="M 1495.5,899.5 C 1508.46,914.732 1520.96,930.399 1533,946.5C 1542.33,962.5 1551.67,978.5 1561,994.5C 1563,998.33 1564.5,1002.33 1565.5,1006.5C 1564.69,1007.65 1563.69,1007.65 1562.5,1006.5C 1544.55,988.538 1527.55,969.538 1511.5,949.5C 1499.22,939.958 1487.72,929.624 1477,918.5C 1469.99,909.813 1463.99,900.48 1459,890.5C 1457.02,885.583 1455.69,880.583 1455,875.5C 1458.49,876.239 1461.99,877.073 1465.5,878C 1470.13,881.632 1474.47,885.632 1478.5,890C 1484.22,893.191 1489.89,896.358 1495.5,899.5 Z"/></g>
<g><path style="opacity:1" fill="#39424c" d="M 539.5,918.5 C 543.906,922.417 547.406,927.083 550,932.5C 551.036,940.073 552.203,947.906 553.5,956C 551.718,962.962 549.551,969.796 547,976.5C 544.561,979.612 541.561,981.945 538,983.5C 534.972,980.132 532.306,976.466 530,972.5C 526.033,956.256 526.699,939.922 532,923.5C 533.599,920.368 536.099,918.701 539.5,918.5 Z"/></g>
<g><path style="opacity:1" fill="#3faec7" d="M 218.5,920.5 C 217.329,932.536 215.829,944.536 214,956.5C 213.5,971.163 213.333,985.83 213.5,1000.5C 212.58,983.082 212.246,965.915 212.5,949C 213.126,948.25 213.626,947.416 214,946.5C 213.762,938.135 214.762,929.801 217,921.5C 217.383,920.944 217.883,920.611 218.5,920.5 Z"/></g>
<g><path style="opacity:1" fill="#39424c" d="M 787.5,955.5 C 792.982,957.802 797.815,961.136 802,965.5C 804.833,973.167 807.667,980.833 810.5,988.5C 810.006,995.03 808.84,1001.7 807,1008.5C 804.268,1012.39 801.101,1015.73 797.5,1018.5C 793.277,1016.45 789.444,1013.79 786,1010.5C 782.958,1001.71 780.124,992.874 777.5,984C 778.179,976.856 779.013,969.689 780,962.5C 781.441,958.888 783.941,956.554 787.5,955.5 Z"/></g>
<g><path style="opacity:1" fill="#48c6e3" d="M 1156.5,903.5 C 1157.12,903.611 1157.62,903.944 1158,904.5C 1164.33,949.886 1166.33,995.553 1164,1041.5C 1163.58,1047.92 1162.41,1053.92 1160.5,1059.5C 1165.58,1007.32 1164.24,955.321 1156.5,903.5 Z"/></g>
<g><path style="opacity:1" fill="#d4d9ea" d="M 235.5,974.5 C 236.5,974.5 237.5,974.5 238.5,974.5C 238.714,976.144 238.38,977.644 237.5,979C 238.645,984.645 239.645,990.311 240.5,996C 239.978,996.561 239.645,997.228 239.5,998C 241.493,1014.28 243.993,1030.45 247,1046.5C 250.301,1055.69 253.301,1065.03 256,1074.5C 259.349,1081.2 262.682,1087.86 266,1094.5C 275.547,1110.81 286.214,1126.81 298,1142.5C 298.333,1142.17 298.667,1141.83 299,1141.5C 306.969,1154.13 316.969,1164.8 329,1173.5C 329.333,1173.17 329.667,1172.83 330,1172.5C 332.312,1175.98 335.146,1178.98 338.5,1181.5C 343.616,1184.03 348.282,1187.2 352.5,1191C 372.427,1202.2 392.927,1208.7 414,1210.5C 417.333,1211.17 420.667,1211.83 424,1212.5C 430.965,1211.95 438.965,1211.95 448,1212.5C 460.555,1212.8 472.888,1211.47 485,1208.5C 495.106,1207.36 504.773,1204.03 514,1198.5C 514.333,1198.83 514.667,1199.17 515,1199.5C 515.667,1196.83 516.333,1196.83 517,1199.5C 518.097,1197.95 519.43,1196.61 521,1195.5C 522.558,1196.35 523.558,1195.68 524,1193.5C 524.333,1193.83 524.667,1194.17 525,1194.5C 528.536,1191.53 531.703,1189.03 534.5,1187C 534.167,1186.67 533.833,1186.33 533.5,1186C 537.648,1183.19 541.481,1180.03 545,1176.5C 545.333,1176.83 545.667,1177.17 546,1177.5C 549.405,1173.13 553.572,1169.63 558.5,1167C 562.682,1162.48 567.182,1158.32 572,1154.5C 575.051,1158.56 577.718,1162.89 580,1167.5C 584.408,1172.23 588.408,1177.23 592,1182.5C 597.5,1188 603,1193.5 608.5,1199C 629.741,1216.38 651.908,1231.55 675,1244.5C 675.333,1244.17 675.667,1243.83 676,1243.5C 676.317,1245.3 676.984,1245.63 678,1244.5C 681.616,1246.83 685.283,1249.17 689,1251.5C 690.333,1251.5 691.667,1251.5 693,1251.5C 693.317,1253.3 693.984,1253.63 695,1252.5C 703.851,1256.56 712.851,1260.23 722,1263.5C 722.333,1262.83 722.667,1262.17 723,1261.5C 723.317,1263.3 723.984,1263.63 725,1262.5C 733.187,1265.14 741.52,1267.14 750,1268.5C 751.667,1268.17 753.333,1267.83 755,1267.5C 760.494,1268.05 765.827,1269.05 771,1270.5C 775.378,1270.27 779.378,1269.94 783,1269.5C 784.032,1271.03 785.199,1272.36 786.5,1273.5C 784.3,1275.26 783.133,1277.6 783,1280.5C 780.669,1284.03 777.503,1286.03 773.5,1286.5C 769.167,1286.5 764.833,1286.5 760.5,1286.5C 752.802,1286 745.135,1285.16 737.5,1284C 685.108,1272.47 639.108,1248.81 599.5,1213C 587.177,1200.35 576.011,1186.85 566,1172.5C 550.511,1185.32 535.011,1198.15 519.5,1211C 504.461,1219.24 488.461,1224.9 471.5,1228C 413.66,1237.8 362.66,1223.8 318.5,1186C 291.916,1160.75 270.749,1131.58 255,1098.5C 239.055,1058.72 232.555,1017.39 235.5,974.5 Z"/></g>
<g><path style="opacity:1" fill="#19aee1" d="M 1306.5,1009.5 C 1303.06,1010.77 1299.73,1012.44 1296.5,1014.5C 1285,1028.77 1278.67,1044.77 1277.5,1062.5C 1272.19,1042.61 1266.86,1022.61 1261.5,1002.5C 1262.33,1002.17 1263.17,1001.83 1264,1001.5C 1278.22,1003.98 1292.39,1006.64 1306.5,1009.5 Z"/></g>
<g><path style="opacity:1" fill="#168fc6" d="M 1306.5,1009.5 C 1310.05,1009.44 1313.38,1010.27 1316.5,1012C 1396.04,1045.94 1475.37,1080.11 1554.5,1114.5C 1551.48,1114.66 1548.48,1114.5 1545.5,1114C 1539.99,1111.05 1534.16,1108.88 1528,1107.5C 1527.67,1107.83 1527.33,1108.17 1527,1108.5C 1513.82,1104.84 1500.65,1102.01 1487.5,1100C 1484.05,1098.05 1480.55,1097.22 1477,1097.5C 1468.86,1095.55 1460.52,1093.22 1452,1090.5C 1445.22,1091.35 1439.22,1089.35 1434,1084.5C 1429.95,1084.64 1425.95,1084.64 1422,1084.5C 1418.71,1083.74 1415.71,1082.41 1413,1080.5C 1409.85,1081.55 1406.69,1081.38 1403.5,1080C 1396.81,1077.28 1390.14,1074.62 1383.5,1072C 1381.53,1069.89 1379.36,1069.06 1377,1069.5C 1371.97,1067.16 1366.97,1064.83 1362,1062.5C 1358.71,1063.53 1356.04,1062.53 1354,1059.5C 1349.53,1060.11 1345.86,1058.44 1343,1054.5C 1342.67,1054.83 1342.33,1055.17 1342,1055.5C 1339.08,1054.27 1336.41,1052.6 1334,1050.5C 1333.5,1051 1333,1051.5 1332.5,1052C 1338.03,1056.92 1343.7,1061.59 1349.5,1066C 1362.35,1073.75 1375.35,1080.92 1388.5,1087.5C 1387.85,1088.27 1387.52,1089.27 1387.5,1090.5C 1396.07,1137.74 1392.9,1186.74 1378,1237.5C 1363.81,1290.2 1340.81,1338.53 1309,1382.5C 1291.96,1401.87 1275.29,1421.54 1259,1441.5C 1248.83,1451 1238.67,1460.5 1228.5,1470C 1195.83,1492 1163.17,1514 1130.5,1536C 1081.82,1560.01 1030.82,1577.67 977.5,1589C 890.888,1608.67 804.721,1617.84 719,1616.5C 566.038,1608.41 424.204,1562.24 293.5,1478C 279.5,1467.33 265.5,1456.67 251.5,1446C 223.575,1418.24 195.241,1391.07 166.5,1364.5C 166.369,1363.76 166.536,1363.09 167,1362.5C 182.75,1373.91 198.25,1384.58 213.5,1394.5C 303.627,1469.23 406.294,1519.56 521.5,1545.5C 562.599,1551.76 603.932,1557.42 645.5,1562.5C 652.709,1564.17 659.876,1564.84 667,1564.5C 722.809,1559.73 778.975,1555.23 835.5,1551C 836.745,1550.21 838.078,1549.71 839.5,1549.5C 864.427,1542.71 889.76,1535.21 915.5,1527C 949.5,1511 983.5,1495 1017.5,1479C 1061.92,1455.72 1102.59,1427.22 1139.5,1393.5C 1178.62,1355.76 1208.96,1313.09 1230.5,1265.5C 1242.73,1235.64 1253.9,1205.31 1264,1174.5C 1272.37,1137.35 1276.87,1100.02 1277.5,1062.5C 1278.67,1044.77 1285,1028.77 1296.5,1014.5C 1299.73,1012.44 1303.06,1010.77 1306.5,1009.5 Z"/></g>
<g><path style="opacity:1" fill="#83ede9" d="M 38.5,1016.5 C 37.1351,1026.8 36.1351,1037.14 35.5,1047.5C 35.5757,1055.35 35.5757,1063.18 35.5,1071C 36.4557,1084.4 37.4557,1097.57 38.5,1110.5C 34.2221,1082.43 33.3888,1054.09 36,1025.5C 36.6595,1022.32 37.4928,1019.32 38.5,1016.5 Z"/></g>
<g><path style="opacity:1" fill="#5cbfef" d="M 1388.5,1087.5 C 1390.17,1087.75 1391.67,1088.42 1393,1089.5C 1397.82,1115.36 1401.15,1141.36 1403,1167.5C 1403.79,1181.53 1403.46,1195.53 1402,1209.5C 1389.75,1292.31 1357.75,1366.31 1306,1431.5C 1282.83,1456 1259,1479.83 1234.5,1503C 1166.78,1556.19 1090.78,1592.85 1006.5,1613C 915.798,1634.67 823.798,1645 730.5,1644C 576.162,1636.22 434.162,1590.55 304.5,1507C 272.249,1481.42 240.583,1455.09 209.5,1428C 182.673,1402.36 158.673,1374.53 137.5,1344.5C 137.435,1344.06 137.601,1343.73 138,1343.5C 148.561,1350.01 158.061,1357.01 166.5,1364.5C 195.241,1391.07 223.575,1418.24 251.5,1446C 265.5,1456.67 279.5,1467.33 293.5,1478C 424.204,1562.24 566.038,1608.41 719,1616.5C 804.721,1617.84 890.888,1608.67 977.5,1589C 1030.82,1577.67 1081.82,1560.01 1130.5,1536C 1163.17,1514 1195.83,1492 1228.5,1470C 1238.67,1460.5 1248.83,1451 1259,1441.5C 1275.29,1421.54 1291.96,1401.87 1309,1382.5C 1340.81,1338.53 1363.81,1290.2 1378,1237.5C 1392.9,1186.74 1396.07,1137.74 1387.5,1090.5C 1387.52,1089.27 1387.85,1088.27 1388.5,1087.5 Z"/></g>
<g><path style="opacity:1" fill="#69fbfb" d="M 1165.5,1152.5 C 1165.5,1154.5 1165.5,1156.5 1165.5,1158.5C 1109.97,1164.42 1054.97,1173.59 1000.5,1186C 938.885,1225.47 873.219,1256.97 803.5,1280.5C 833.019,1252.5 866.019,1229.33 902.5,1211C 945.911,1194.53 990.245,1180.86 1035.5,1170C 1078.44,1161.25 1121.77,1155.41 1165.5,1152.5 Z"/></g>
<g><path style="opacity:1" fill="#1a4559" d="M 1088.5,1144.5 C 1097.86,1144.31 1107.19,1144.65 1116.5,1145.5C 1115.79,1146.4 1114.79,1146.74 1113.5,1146.5C 1113.18,1148.75 1113.68,1150.75 1115,1152.5C 1120.25,1149.01 1125.41,1149.01 1130.5,1152.5C 1134.08,1151.22 1137.08,1149.22 1139.5,1146.5C 1155.91,1146.26 1172.24,1147.09 1188.5,1149C 1180.76,1149.84 1173.09,1151.01 1165.5,1152.5C 1121.77,1155.41 1078.44,1161.25 1035.5,1170C 990.245,1180.86 945.911,1194.53 902.5,1211C 866.019,1229.33 833.019,1252.5 803.5,1280.5C 792.893,1287.11 783.893,1295.44 776.5,1305.5C 774.468,1303.46 772.802,1301.13 771.5,1298.5C 772.782,1295 774.448,1291.66 776.5,1288.5C 775.675,1287.61 774.675,1287.28 773.5,1287.5C 773.5,1287.17 773.5,1286.83 773.5,1286.5C 777.503,1286.03 780.669,1284.03 783,1280.5C 783.133,1277.6 784.3,1275.26 786.5,1273.5C 795.604,1263.9 804.937,1254.4 814.5,1245C 822.29,1240.36 829.624,1235.19 836.5,1229.5C 837.364,1228.31 838.364,1227.15 839.5,1226C 860.936,1212.55 883.269,1200.88 906.5,1191C 946.394,1176.63 987.061,1165.29 1028.5,1157C 1031.4,1156.12 1034.07,1154.96 1036.5,1153.5C 1053.92,1150.48 1071.25,1147.48 1088.5,1144.5 Z"/></g>
<g><path style="opacity:1" fill="#34bfdf" d="M 58.5,1195.5 C 65.5,1203.5 72.5,1211.5 79.5,1219.5C 124.143,1277.81 168.809,1336.15 213.5,1394.5C 198.25,1384.58 182.75,1373.91 167,1362.5C 166.536,1363.09 166.369,1363.76 166.5,1364.5C 158.061,1357.01 148.561,1350.01 138,1343.5C 137.601,1343.73 137.435,1344.06 137.5,1344.5C 102.569,1299.65 76.2354,1249.98 58.5,1195.5 Z"/></g>
<g><path style="opacity:1" fill="#144559" d="M 636.5,1425.5 C 637.622,1426.95 639.122,1427.95 641,1428.5C 642.583,1428.51 644.249,1428.17 646,1427.5C 650.749,1428.31 655.582,1428.81 660.5,1429C 661.416,1429.37 662.25,1429.87 663,1430.5C 666.061,1429.54 669.394,1429.87 673,1431.5C 685.323,1430.88 697.823,1430.21 710.5,1429.5C 758.306,1427.98 803.306,1416.14 845.5,1394C 876.744,1375.94 903.244,1352.44 925,1323.5C 927.848,1317.14 930.681,1310.81 933.5,1304.5C 934.493,1296.35 934.826,1288.02 934.5,1279.5C 933.209,1279.26 932.209,1279.6 931.5,1280.5C 912.174,1286.66 892.841,1292.49 873.5,1298C 890.501,1283.49 909.168,1271.49 929.5,1262C 947.281,1258.56 965.114,1255.4 983,1252.5C 995.304,1255.62 1007.47,1259.12 1019.5,1263C 1019.96,1263.41 1020.29,1263.91 1020.5,1264.5C 1018.96,1269.37 1018.29,1274.37 1018.5,1279.5C 1002.56,1276.97 986.558,1274.97 970.5,1273.5C 971.645,1289.94 968.479,1305.61 961,1320.5C 950.673,1335.84 938.839,1350 925.5,1363C 881.291,1402.11 830.291,1428.77 772.5,1443C 759.48,1444.87 746.48,1446.87 733.5,1449C 716.853,1450.38 700.186,1450.71 683.5,1450C 646.082,1445.65 608.749,1440.65 571.5,1435C 555.734,1431.08 540.067,1426.75 524.5,1422C 499.337,1412.26 478.337,1396.93 461.5,1376C 484.287,1385.05 506.954,1394.72 529.5,1405C 556.789,1410.52 584.122,1416.52 611.5,1423C 619.849,1423.75 628.182,1424.59 636.5,1425.5 Z"/></g>
<g><path style="opacity:1" fill="#19aee0" d="M 1230.5,1265.5 C 1208.96,1313.09 1178.62,1355.76 1139.5,1393.5C 1102.59,1427.22 1061.92,1455.72 1017.5,1479C 983.5,1495 949.5,1511 915.5,1527C 889.76,1535.21 864.427,1542.71 839.5,1549.5C 857.498,1540.17 875.832,1531.34 894.5,1523C 924.671,1505.41 955.004,1488.08 985.5,1471C 1026.56,1443.61 1067.9,1416.61 1109.5,1390C 1122.83,1379.33 1136.17,1368.67 1149.5,1358C 1176.87,1327.38 1203.87,1296.54 1230.5,1265.5 Z"/></g>
<g><path style="opacity:1" fill="#2f879f" d="M 931.5,1280.5 C 932.209,1279.6 933.209,1279.26 934.5,1279.5C 934.826,1288.02 934.493,1296.35 933.5,1304.5C 934.134,1296.1 933.467,1288.1 931.5,1280.5 Z"/></g>
<g><path style="opacity:1" fill="#588e9d" d="M 760.5,1286.5 C 764.833,1286.5 769.167,1286.5 773.5,1286.5C 773.5,1286.83 773.5,1287.17 773.5,1287.5C 771.246,1288.42 769.246,1289.75 767.5,1291.5C 767.167,1291.33 766.833,1291.17 766.5,1291C 767.5,1290 768.5,1289 769.5,1288C 766.305,1287.82 763.305,1287.32 760.5,1286.5 Z"/></g>
<g><path style="opacity:1" fill="#1b4a5d" d="M 762.5,1312.5 C 764.833,1312.5 767.167,1312.5 769.5,1312.5C 764.902,1317.49 760.235,1322.49 755.5,1327.5C 754.353,1325.24 754.186,1322.9 755,1320.5C 757.705,1317.96 760.205,1315.3 762.5,1312.5 Z"/></g>
<g><path style="opacity:1" fill="#155e73" d="M 636.5,1425.5 C 661.077,1428.42 685.743,1429.76 710.5,1429.5C 697.823,1430.21 685.323,1430.88 673,1431.5C 669.394,1429.87 666.061,1429.54 663,1430.5C 662.25,1429.87 661.416,1429.37 660.5,1429C 655.582,1428.81 650.749,1428.31 646,1427.5C 644.249,1428.17 642.583,1428.51 641,1428.5C 639.122,1427.95 637.622,1426.95 636.5,1425.5 Z"/></g>
<g><path style="opacity:1" fill="#34bfdf" d="M 645.5,1562.5 C 603.932,1557.42 562.599,1551.76 521.5,1545.5C 523.288,1545.79 524.955,1545.45 526.5,1544.5C 530.824,1540.33 535.824,1537.17 541.5,1535C 551.809,1531.53 561.976,1529.03 572,1527.5C 586.092,1533.57 599.759,1540.57 613,1548.5C 614,1547.83 615,1547.17 616,1546.5C 624.984,1553.57 634.818,1558.91 645.5,1562.5 Z"/></g>
</svg>
