<?xml version="1.0" encoding="UTF-8"?>
<!DOCTYPE svg PUBLIC "-//W3C//DTD SVG 1.1//EN" "http://www.w3.org/Graphics/SVG/1.1/DTD/svg11.dtd">
<svg xmlns="http://www.w3.org/2000/svg" version="1.1" width="229px" height="220px" style="shape-rendering:geometricPrecision; text-rendering:geometricPrecision; image-rendering:optimizeQuality; fill-rule:evenodd; clip-rule:evenodd" xmlns:xlink="http://www.w3.org/1999/xlink">
<g><path style="opacity:1" fill="#fbfbfb" d="M -0.5,-0.5 C 47.8333,-0.5 96.1667,-0.5 144.5,-0.5C 150.122,11.897 152.288,24.897 151,38.5C 150.71,40.9519 150.044,43.2852 149,45.5C 144.92,34.0085 139.254,23.3418 132,13.5C 126.151,5.46478 118.318,1.13145 108.5,0.5C 107.423,8.82986 107.257,17.1632 108,25.5C 91.2468,7.35438 71.0801,1.18772 47.5,7C 51.4281,18.2579 57.7615,27.9245 66.5,36C 41.5512,31.3208 19.2179,36.8208 -0.5,52.5C -0.5,34.8333 -0.5,17.1667 -0.5,-0.5 Z"/></g>
<g><path style="opacity:1" fill="#262528" d="M 144.5,-0.5 C 144.833,-0.5 145.167,-0.5 145.5,-0.5C 149.302,7.07388 151.802,15.0739 153,23.5C 153.176,30.8965 152.842,38.2298 152,45.5C 156.729,40.6025 161.562,35.9359 166.5,31.5C 165.333,35.147 163.166,38.147 160,40.5C 159.333,41.1667 159.333,41.8333 160,42.5C 177.231,34.6069 193.398,36.4402 208.5,48C 202.023,54.8144 194.69,60.4811 186.5,65C 208.713,70.0469 222.379,83.5469 227.5,105.5C 219.725,108.088 211.725,109.588 203.5,110C 210.343,118.358 213.009,127.858 211.5,138.5C 207.86,140.042 204.027,140.709 200,140.5C 196.779,140.459 193.612,140.125 190.5,139.5C 190.124,142.373 190.124,145.373 190.5,148.5C 190.131,152.768 189.131,156.768 187.5,160.5C 188.051,145.252 185.384,130.586 179.5,116.5C 179.846,115.304 180.346,115.304 181,116.5C 184.02,122.746 186.52,129.079 188.5,135.5C 194.581,137.412 200.914,137.912 207.5,137C 209.007,135.527 209.674,133.693 209.5,131.5C 207.488,115.65 199.154,104.483 184.5,98C 185.094,97.5357 185.761,97.369 186.5,97.5C 189.024,98.9269 191.69,100.094 194.5,101C 196.35,103.018 198.35,104.851 200.5,106.5C 205.974,105.96 211.641,105.46 217.5,105C 219.723,104.434 221.723,103.6 223.5,102.5C 222.085,96.4523 219.418,91.119 215.5,86.5C 208.672,76.9064 199.339,71.073 187.5,69C 182.845,68.5008 178.179,68.3342 173.5,68.5C 172.262,68.19 172.262,67.69 173.5,67C 183.998,63.3053 193.331,57.8053 201.5,50.5C 204.007,48.0374 203.34,46.2041 199.5,45C 184.534,39.8581 169.867,40.5248 155.5,47C 153.382,48.0491 151.716,49.5491 150.5,51.5C 149.85,51.8039 149.183,52.1373 148.5,52.5C 147.83,50.7086 147.163,49.0419 146.5,47.5C 142.549,30.3822 133.549,16.5489 119.5,6C 116.568,4.85513 113.568,4.0218 110.5,3.5C 110.154,13.9169 110.821,24.2503 112.5,34.5C 96.9984,14.9221 76.6651,5.92209 51.5,7.5C 53.703,13.572 56.703,19.2387 60.5,24.5C 65.2317,31.4916 70.2317,37.4916 75.5,42.5C 55.5832,36.5568 35.9165,37.3901 16.5,45C 12.4204,47.0285 8.75373,49.5285 5.5,52.5C 4.76109,52.369 4.09442,52.5357 3.5,53C 12.0874,61.3522 22.0874,67.1855 33.5,70.5C 36.0281,69.0585 38.6947,68.5585 41.5,69C 38.9309,69.8984 36.5976,71.065 34.5,72.5C 20.8492,78.8153 11.8492,89.1486 7.5,103.5C 6.56552,104.568 6.23219,105.901 6.5,107.5C 14.9579,109.575 23.6246,109.908 32.5,108.5C 35.2974,104.382 37.6308,100.048 39.5,95.5C 40.0431,95.56 40.3764,95.8933 40.5,96.5C 32.4859,111.209 27.4859,126.876 25.5,143.5C 23.8573,154.206 24.6906,164.873 28,175.5C 28.6082,177.066 29.4415,178.4 30.5,179.5C 30.3915,181.514 31.0582,183.18 32.5,184.5C 31.6554,185.671 30.9887,187.005 30.5,188.5C 20.3139,171.017 17.8139,152.35 23,132.5C 25.6732,125.981 27.8398,119.314 29.5,112.5C 20.7158,112.962 12.0491,112.295 3.5,110.5C 2.69773,102.396 4.86439,95.0628 10,88.5C 15.5697,81.9327 22.0697,76.4327 29.5,72C 18.0955,68.3977 8.09551,62.5643 -0.5,54.5C -0.5,53.8333 -0.5,53.1667 -0.5,52.5C 19.2179,36.8208 41.5512,31.3208 66.5,36C 57.7615,27.9245 51.4281,18.2579 47.5,7C 71.0801,1.18772 91.2468,7.35438 108,25.5C 107.257,17.1632 107.423,8.82986 108.5,0.5C 118.318,1.13145 126.151,5.46478 132,13.5C 139.254,23.3418 144.92,34.0085 149,45.5C 150.044,43.2852 150.71,40.9519 151,38.5C 152.288,24.897 150.122,11.897 144.5,-0.5 Z"/></g>
<g><path style="opacity:1" fill="#7c7d76" d="M 112.5,34.5 C 112.795,36.4233 113.628,38.0899 115,39.5C 115.333,38.8333 115.667,38.1667 116,37.5C 116.212,40.2522 117.045,42.7522 118.5,45C 118.167,45.5 117.833,46 117.5,46.5C 115.229,42.7261 112.396,39.3928 109,36.5C 107.991,34.9751 107.491,33.3084 107.5,31.5C 104.511,30.9172 101.845,29.5838 99.5,27.5C 98.6143,26.675 98.281,25.675 98.5,24.5C 92.4966,21.1696 86.1633,18.3363 79.5,16C 72.8929,14.4525 66.2263,13.7858 59.5,14C 58.9781,14.5613 58.6448,15.228 58.5,16C 59.83,18.6491 61.1634,21.3157 62.5,24C 61.9056,24.4643 61.2389,24.631 60.5,24.5C 56.703,19.2387 53.703,13.572 51.5,7.5C 76.6651,5.92209 96.9984,14.9221 112.5,34.5 Z"/></g>
<g><path style="opacity:1" fill="#656565" d="M 112.5,34.5 C 113.458,34.9528 114.292,35.6195 115,36.5C 115.167,36.1667 115.333,35.8333 115.5,35.5C 114.525,29.0974 114.359,22.4308 115,15.5C 117.064,14.4086 119.231,14.2419 121.5,15C 132.502,23.0011 140.002,33.5011 144,46.5C 144.838,47.999 145.671,48.3324 146.5,47.5C 147.163,49.0419 147.83,50.7086 148.5,52.5C 149.183,52.1373 149.85,51.8039 150.5,51.5C 150.56,52.0431 150.893,52.3764 151.5,52.5C 161.101,49.3084 170.934,46.9751 181,45.5C 185.87,45.6469 190.703,46.1469 195.5,47C 197.887,47.5637 199.887,48.7304 201.5,50.5C 193.331,57.8053 183.998,63.3053 173.5,67C 172.262,67.69 172.262,68.19 173.5,68.5C 172.77,69.7124 171.77,70.7124 170.5,71.5C 178.173,72.292 185.839,73.1253 193.5,74C 197.133,75.3703 200.467,77.2036 203.5,79.5C 204.086,79.2907 204.586,78.9574 205,78.5C 208.252,81.5369 211.752,84.2036 215.5,86.5C 219.418,91.119 222.085,96.4523 223.5,102.5C 221.901,100.691 219.901,99.3576 217.5,98.5C 216.902,97.2054 216.402,95.8721 216,94.5C 207.918,94.6997 199.751,94.8664 191.5,95C 189.509,95.3736 187.842,96.207 186.5,97.5C 185.761,97.369 185.094,97.5357 184.5,98C 199.154,104.483 207.488,115.65 209.5,131.5C 209.674,133.693 209.007,135.527 207.5,137C 200.914,137.912 194.581,137.412 188.5,135.5C 188.369,134.624 188.702,133.957 189.5,133.5C 195.36,136.306 201.36,136.806 207.5,135C 208.246,131.769 207.746,128.603 206,125.5C 202.058,120.7 197.224,117.367 191.5,115.5C 191.5,114.5 191.5,113.5 191.5,112.5C 188.076,112.315 184.909,111.315 182,109.5C 180.527,109.903 179.194,110.57 178,111.5C 177.717,115.294 178.383,118.961 180,122.5C 180.773,134.866 180.607,147.2 179.5,159.5C 178.5,159.5 177.5,159.5 176.5,159.5C 176.509,161.308 176.009,162.975 175,164.5C 172.281,166.219 170.281,168.553 169,171.5C 164.481,174.058 160.647,177.392 157.5,181.5C 152.935,183.95 148.268,186.117 143.5,188C 142.638,190.734 141.805,190.901 141,188.5C 140,189.167 139,189.833 138,190.5C 137.601,190.272 137.435,189.938 137.5,189.5C 141.845,182.995 145.345,175.995 148,168.5C 149.399,167.773 150.899,167.273 152.5,167C 148.131,166.575 143.797,166.908 139.5,168C 135.329,170.893 130.662,172.893 125.5,174C 105.833,176.759 86.6662,174.926 68,168.5C 67.1667,168.667 66.3333,168.833 65.5,169C 72.9839,175.138 78.6506,182.638 82.5,191.5C 80.2574,192.312 77.9241,192.979 75.5,193.5C 67.9372,192.306 60.6039,190.306 53.5,187.5C 47.7899,182.154 41.7899,177.487 35.5,173.5C 32.7734,169.29 30.9401,164.623 30,159.5C 29.3333,162.167 28.6667,162.167 28,159.5C 26.2154,154.314 25.3821,148.98 25.5,143.5C 27.4859,126.876 32.4859,111.209 40.5,96.5C 40.3764,95.8933 40.0431,95.56 39.5,95.5C 32.3752,96.3199 25.3752,98.4865 18.5,102C 15.6475,106.259 11.6475,108.092 6.5,107.5C 6.23219,105.901 6.56552,104.568 7.5,103.5C 8.32851,104.332 9.16184,103.999 10,102.5C 14.5522,93.6154 20.8856,86.2821 29,80.5C 31.1376,78.0253 33.3042,75.5253 35.5,73C 35.2716,72.6012 34.9382,72.4346 34.5,72.5C 36.5976,71.065 38.9309,69.8984 41.5,69C 38.6947,68.5585 36.0281,69.0585 33.5,70.5C 22.0874,67.1855 12.0874,61.3522 3.5,53C 4.09442,52.5357 4.76109,52.369 5.5,52.5C 6.60093,53.5983 7.93426,53.765 9.5,53C 17.1924,48.3233 25.5257,45.3233 34.5,44C 50.7111,42.7539 66.3777,43.7539 81.5,47C 79.8587,44.837 77.8587,43.337 75.5,42.5C 70.2317,37.4916 65.2317,31.4916 60.5,24.5C 61.2389,24.631 61.9056,24.4643 62.5,24C 61.1634,21.3157 59.83,18.6491 58.5,16C 58.6448,15.228 58.9781,14.5613 59.5,14C 66.2263,13.7858 72.8929,14.4525 79.5,16C 86.1633,18.3363 92.4966,21.1696 98.5,24.5C 98.281,25.675 98.6143,26.675 99.5,27.5C 101.845,29.5838 104.511,30.9172 107.5,31.5C 107.491,33.3084 107.991,34.9751 109,36.5C 112.396,39.3928 115.229,42.7261 117.5,46.5C 117.833,46 118.167,45.5 118.5,45C 117.045,42.7522 116.212,40.2522 116,37.5C 115.667,38.1667 115.333,38.8333 115,39.5C 113.628,38.0899 112.795,36.4233 112.5,34.5 Z"/></g>
<g><path style="opacity:1" fill="#7c7e75" d="M 146.5,47.5 C 145.671,48.3324 144.838,47.999 144,46.5C 140.002,33.5011 132.502,23.0011 121.5,15C 119.231,14.2419 117.064,14.4086 115,15.5C 114.359,22.4308 114.525,29.0974 115.5,35.5C 115.333,35.8333 115.167,36.1667 115,36.5C 114.292,35.6195 113.458,34.9528 112.5,34.5C 110.821,24.2503 110.154,13.9169 110.5,3.5C 113.568,4.0218 116.568,4.85513 119.5,6C 133.549,16.5489 142.549,30.3822 146.5,47.5 Z"/></g>
<g><path style="opacity:1" fill="#7b7c77" d="M 201.5,50.5 C 199.887,48.7304 197.887,47.5637 195.5,47C 190.703,46.1469 185.87,45.6469 181,45.5C 170.934,46.9751 161.101,49.3084 151.5,52.5C 150.893,52.3764 150.56,52.0431 150.5,51.5C 151.716,49.5491 153.382,48.0491 155.5,47C 169.867,40.5248 184.534,39.8581 199.5,45C 203.34,46.2041 204.007,48.0374 201.5,50.5 Z"/></g>
<g><path style="opacity:1" fill="#7b7d75" d="M 75.5,42.5 C 77.8587,43.337 79.8587,44.837 81.5,47C 66.3777,43.7539 50.7111,42.7539 34.5,44C 25.5257,45.3233 17.1924,48.3233 9.5,53C 7.93426,53.765 6.60093,53.5983 5.5,52.5C 8.75373,49.5285 12.4204,47.0285 16.5,45C 35.9165,37.3901 55.5832,36.5568 75.5,42.5 Z"/></g>
<g><path style="opacity:1" fill="#7a7a75" d="M 173.5,68.5 C 178.179,68.3342 182.845,68.5008 187.5,69C 199.339,71.073 208.672,76.9064 215.5,86.5C 211.752,84.2036 208.252,81.5369 205,78.5C 204.586,78.9574 204.086,79.2907 203.5,79.5C 200.467,77.2036 197.133,75.3703 193.5,74C 185.839,73.1253 178.173,72.292 170.5,71.5C 171.77,70.7124 172.77,69.7124 173.5,68.5 Z"/></g>
<g><path style="opacity:1" fill="#797a74" d="M 34.5,72.5 C 34.9382,72.4346 35.2716,72.6012 35.5,73C 33.3042,75.5253 31.1376,78.0253 29,80.5C 20.8856,86.2821 14.5522,93.6154 10,102.5C 9.16184,103.999 8.32851,104.332 7.5,103.5C 11.8492,89.1486 20.8492,78.8153 34.5,72.5 Z"/></g>
<g><path style="opacity:1" fill="#0d0d0e" d="M 79.5,72.5 C 79.8966,71.475 80.5632,71.3083 81.5,72C 89.9919,82.1488 95.9919,93.6488 99.5,106.5C 101.186,103.964 103.186,102.131 105.5,101C 103.877,104.033 102.544,107.2 101.5,110.5C 103.465,115.504 107.132,118.671 112.5,120C 132.496,125.261 152.829,128.428 173.5,129.5C 171.257,130.474 168.924,130.808 166.5,130.5C 169.993,140.027 168.326,148.527 161.5,156C 163.731,157.147 166.065,158.147 168.5,159C 151.246,156.084 135.246,159.251 120.5,168.5C 108.185,169.06 97.5186,165.06 88.5,156.5C 61.7015,167.254 47.7015,158.088 46.5,129C 46.5449,108.222 55.5449,92.8891 73.5,83C 77.8711,82.8275 82.2044,82.3275 86.5,81.5C 84.4939,78.1708 82.1606,75.1708 79.5,72.5 Z"/></g>
<g><path style="opacity:1" fill="#fbfbfc" d="M 99.5,120.5 C 107.135,128.145 116.468,132.311 127.5,133C 128.252,133.671 128.586,134.504 128.5,135.5C 126.703,140.751 127.203,145.751 130,150.5C 133.482,152.077 136.148,151.077 138,147.5C 139.949,143.371 141.116,139.037 141.5,134.5C 147.758,134.81 153.924,134.476 160,133.5C 164.518,144.297 161.684,151.964 151.5,156.5C 143.117,156.452 135.117,158.118 127.5,161.5C 119.799,162.997 112.132,162.831 104.5,161C 98.7333,157.368 92.9,153.868 87,150.5C 74.7293,156.647 63.2293,155.647 52.5,147.5C 49.124,136.018 48.624,124.351 51,112.5C 54.1232,102.38 59.9566,94.2132 68.5,88C 74.8995,84.3998 81.5662,83.7331 88.5,86C 89.4601,87.4194 90.2935,88.9194 91,90.5C 92.8926,97.4113 95.3926,104.078 98.5,110.5C 90.2566,113.956 86.2566,120.289 86.5,129.5C 86.07,137.622 88.9034,139.289 95,134.5C 97.8111,130.234 99.3111,125.567 99.5,120.5 Z"/></g>
<g><path style="opacity:1" fill="#545355" d="M 223.5,102.5 C 221.723,103.6 219.723,104.434 217.5,105C 211.641,105.46 205.974,105.96 200.5,106.5C 198.35,104.851 196.35,103.018 194.5,101C 191.69,100.094 189.024,98.9269 186.5,97.5C 187.842,96.207 189.509,95.3736 191.5,95C 199.751,94.8664 207.918,94.6997 216,94.5C 216.402,95.8721 216.902,97.2054 217.5,98.5C 219.901,99.3576 221.901,100.691 223.5,102.5 Z"/></g>
<g><path style="opacity:1" fill="#535356" d="M 39.5,95.5 C 37.6308,100.048 35.2974,104.382 32.5,108.5C 23.6246,109.908 14.9579,109.575 6.5,107.5C 11.6475,108.092 15.6475,106.259 18.5,102C 25.3752,98.4865 32.3752,96.3199 39.5,95.5 Z"/></g>
<g><path style="opacity:1" fill="#fdfdfd" d="M 145.5,-0.5 C 173.167,-0.5 200.833,-0.5 228.5,-0.5C 228.5,72.8333 228.5,146.167 228.5,219.5C 189.5,219.5 150.5,219.5 111.5,219.5C 134.595,218.725 155.261,211.225 173.5,197C 187.415,183.757 193.082,167.59 190.5,148.5C 190.124,145.373 190.124,142.373 190.5,139.5C 193.612,140.125 196.779,140.459 200,140.5C 204.027,140.709 207.86,140.042 211.5,138.5C 213.009,127.858 210.343,118.358 203.5,110C 211.725,109.588 219.725,108.088 227.5,105.5C 222.379,83.5469 208.713,70.0469 186.5,65C 194.69,60.4811 202.023,54.8144 208.5,48C 193.398,36.4402 177.231,34.6069 160,42.5C 159.333,41.8333 159.333,41.1667 160,40.5C 163.166,38.147 165.333,35.147 166.5,31.5C 161.562,35.9359 156.729,40.6025 152,45.5C 152.842,38.2298 153.176,30.8965 153,23.5C 151.802,15.0739 149.302,7.07388 145.5,-0.5 Z"/></g>
<g><path style="opacity:1" fill="#4c4c4c" d="M 166.5,31.5 C 166.685,29.8042 167.519,28.4709 169,27.5C 169.279,29.4122 168.446,30.7456 166.5,31.5 Z"/></g>
<g><path style="opacity:1" fill="#717171" d="M 171.5,21.5 C 172.797,22.8488 172.63,24.1821 171,25.5C 170.805,24.1807 170.972,22.8474 171.5,21.5 Z"/></g>
<g><path style="opacity:1" fill="#fcfcfc" d="M -0.5,54.5 C 8.09551,62.5643 18.0955,68.3977 29.5,72C 22.0697,76.4327 15.5697,81.9327 10,88.5C 4.86439,95.0628 2.69773,102.396 3.5,110.5C 12.0491,112.295 20.7158,112.962 29.5,112.5C 27.8398,119.314 25.6732,125.981 23,132.5C 17.8139,152.35 20.3139,171.017 30.5,188.5C 42.0972,205.88 58.4306,215.713 79.5,218C 86.0133,218.172 92.3466,218.672 98.5,219.5C 65.5,219.5 32.5,219.5 -0.5,219.5C -0.5,164.5 -0.5,109.5 -0.5,54.5 Z"/></g>
<g><path style="opacity:1" fill="#535455" d="M 188.5,135.5 C 186.52,129.079 184.02,122.746 181,116.5C 180.346,115.304 179.846,115.304 179.5,116.5C 185.384,130.586 188.051,145.252 187.5,160.5C 187.802,163.059 187.468,165.393 186.5,167.5C 186.66,165.801 186.494,164.134 186,162.5C 185.08,165.101 184.413,167.768 184,170.5C 181.68,174.468 179.347,178.468 177,182.5C 159.281,200.348 137.781,209.681 112.5,210.5C 113.5,209.833 114.5,209.167 115.5,208.5C 122.673,205.001 128.673,200.001 133.5,193.5C 135.194,192.473 136.527,191.139 137.5,189.5C 137.435,189.938 137.601,190.272 138,190.5C 139,189.833 140,189.167 141,188.5C 141.805,190.901 142.638,190.734 143.5,188C 148.268,186.117 152.935,183.95 157.5,181.5C 160.647,177.392 164.481,174.058 169,171.5C 170.281,168.553 172.281,166.219 175,164.5C 176.009,162.975 176.509,161.308 176.5,159.5C 177.5,159.5 178.5,159.5 179.5,159.5C 180.607,147.2 180.773,134.866 180,122.5C 178.383,118.961 177.717,115.294 178,111.5C 179.194,110.57 180.527,109.903 182,109.5C 184.909,111.315 188.076,112.315 191.5,112.5C 191.5,113.5 191.5,114.5 191.5,115.5C 197.224,117.367 202.058,120.7 206,125.5C 207.746,128.603 208.246,131.769 207.5,135C 201.36,136.806 195.36,136.306 189.5,133.5C 188.702,133.957 188.369,134.624 188.5,135.5 Z"/></g>
<g><path style="opacity:1" fill="#e3e3e4" d="M 95.5,113.5 C 99.3448,115.648 99.5115,118.315 96,121.5C 92.9604,119.073 92.7937,116.407 95.5,113.5 Z"/></g>
<g><path style="opacity:1" fill="#c8cacc" d="M 128.5,135.5 C 128.586,134.504 128.252,133.671 127.5,133C 116.468,132.311 107.135,128.145 99.5,120.5C 99.3379,118.473 99.5045,116.473 100,114.5C 108.703,122.077 118.869,126.577 130.5,128C 130.957,128.414 131.291,128.914 131.5,129.5C 130.481,131.604 129.481,133.604 128.5,135.5 Z"/></g>
<g><path style="opacity:1" fill="#434346" d="M 88.5,126.5 C 89.5,126.5 90.5,126.5 91.5,126.5C 91.838,129.157 91.1713,131.49 89.5,133.5C 88.5258,131.257 88.1924,128.924 88.5,126.5 Z"/></g>
<g><path style="opacity:1" fill="#e5e5e6" d="M 135.5,127.5 C 138.243,127.077 139.576,128.244 139.5,131C 138.106,136.6 136.439,136.767 134.5,131.5C 134.846,130.151 135.179,128.817 135.5,127.5 Z"/></g>
<g><path style="opacity:1" fill="#c6c7c8" d="M 151.5,156.5 C 161.684,151.964 164.518,144.297 160,133.5C 153.924,134.476 147.758,134.81 141.5,134.5C 141.5,132.833 141.5,131.167 141.5,129.5C 148.482,130.124 155.482,130.624 162.5,131C 165.839,136.906 166.339,143.072 164,149.5C 161.188,154.321 157.021,156.655 151.5,156.5 Z"/></g>
<g><path style="opacity:1" fill="#c5c7c8" d="M 52.5,147.5 C 63.2293,155.647 74.7293,156.647 87,150.5C 92.9,153.868 98.7333,157.368 104.5,161C 112.132,162.831 119.799,162.997 127.5,161.5C 127.389,162.117 127.056,162.617 126.5,163C 115.471,166.147 105.137,164.814 95.5,159C 93.5296,156.684 91.1963,154.851 88.5,153.5C 81.6637,157.504 74.3303,159.338 66.5,159C 60.1933,157.196 55.5266,153.363 52.5,147.5 Z"/></g>
<g><path style="opacity:1" fill="#16161a" d="M 137.5,189.5 C 136.527,191.139 135.194,192.473 133.5,193.5C 133.421,192.07 133.754,190.736 134.5,189.5C 134.043,188.702 133.376,188.369 132.5,188.5C 132.586,187.504 132.252,186.671 131.5,186C 128.635,185.817 125.969,185.317 123.5,184.5C 130.647,183.51 136.813,180.51 142,175.5C 142.791,174.255 143.291,172.922 143.5,171.5C 144.885,170.698 144.718,170.031 143,169.5C 137.15,172.946 130.983,175.279 124.5,176.5C 107.936,178.275 91.6023,177.442 75.5,174C 77.4019,175.73 79.0686,177.563 80.5,179.5C 80.5569,180.609 80.8902,181.609 81.5,182.5C 84.2646,186.261 86.5979,190.261 88.5,194.5C 88.5,195.5 88.5,196.5 88.5,197.5C 88.5,198.5 88.5,199.5 88.5,200.5C 86.2399,197.638 84.2399,194.638 82.5,191.5C 78.6506,182.638 72.9839,175.138 65.5,169C 66.3333,168.833 67.1667,168.667 68,168.5C 86.6662,174.926 105.833,176.759 125.5,174C 130.662,172.893 135.329,170.893 139.5,168C 143.797,166.908 148.131,166.575 152.5,167C 150.899,167.273 149.399,167.773 148,168.5C 145.345,175.995 141.845,182.995 137.5,189.5 Z"/></g>
<g><path style="opacity:1" fill="#ecedee" d="M 124.5,176.5 C 125.043,176.56 125.376,176.893 125.5,177.5C 124.174,178.642 123.174,179.976 122.5,181.5C 108.38,184.151 94.3804,183.485 80.5,179.5C 79.0686,177.563 77.4019,175.73 75.5,174C 91.6023,177.442 107.936,178.275 124.5,176.5 Z"/></g>
<g><path style="opacity:1" fill="#c0c7c9" d="M 143.5,171.5 C 137.35,176.743 130.35,180.076 122.5,181.5C 123.174,179.976 124.174,178.642 125.5,177.5C 125.376,176.893 125.043,176.56 124.5,176.5C 130.983,175.279 137.15,172.946 143,169.5C 144.718,170.031 144.885,170.698 143.5,171.5 Z"/></g>
<g><path style="opacity:1" fill="#535454" d="M 25.5,143.5 C 25.3821,148.98 26.2154,154.314 28,159.5C 28.6667,162.167 29.3333,162.167 30,159.5C 30.9401,164.623 32.7734,169.29 35.5,173.5C 41.7899,177.487 47.7899,182.154 53.5,187.5C 60.6039,190.306 67.9372,192.306 75.5,193.5C 77.9241,192.979 80.2574,192.312 82.5,191.5C 84.2399,194.638 86.2399,197.638 88.5,200.5C 90.8998,203.903 93.8998,206.57 97.5,208.5C 98.1667,209.167 98.8333,209.833 99.5,210.5C 85.4681,210.995 71.8014,208.995 58.5,204.5C 52.1971,200.522 46.1971,196.189 40.5,191.5C 37.574,188.645 35.4073,185.311 34,181.5C 32.8873,180.695 31.7206,180.028 30.5,179.5C 29.4415,178.4 28.6082,177.066 28,175.5C 24.6906,164.873 23.8573,154.206 25.5,143.5 Z"/></g>
<g><path style="opacity:1" fill="#595860" d="M 143.5,171.5 C 143.291,172.922 142.791,174.255 142,175.5C 136.813,180.51 130.647,183.51 123.5,184.5C 115.215,185.606 106.882,185.773 98.5,185C 92.94,183.468 87.2733,182.634 81.5,182.5C 80.8902,181.609 80.5569,180.609 80.5,179.5C 94.3804,183.485 108.38,184.151 122.5,181.5C 130.35,180.076 137.35,176.743 143.5,171.5 Z"/></g>
<g><path style="opacity:1" fill="#6e6e7c" d="M 186.5,167.5 C 185.381,174.071 182.881,180.071 179,185.5C 161.157,204.011 139.324,213.844 113.5,215C 97.2636,216.091 81.2636,214.758 65.5,211C 51.6349,205.625 40.6349,196.792 32.5,184.5C 31.0582,183.18 30.3915,181.514 30.5,179.5C 31.7206,180.028 32.8873,180.695 34,181.5C 35.4073,185.311 37.574,188.645 40.5,191.5C 46.1971,196.189 52.1971,200.522 58.5,204.5C 71.8014,208.995 85.4681,210.995 99.5,210.5C 103.818,211.754 108.152,211.754 112.5,210.5C 137.781,209.681 159.281,200.348 177,182.5C 179.347,178.468 181.68,174.468 184,170.5C 184.413,167.768 185.08,165.101 186,162.5C 186.494,164.134 186.66,165.801 186.5,167.5 Z"/></g>
<g><path style="opacity:1" fill="#2b302b" d="M 81.5,182.5 C 87.2733,182.634 92.94,183.468 98.5,185C 106.882,185.773 115.215,185.606 123.5,184.5C 125.969,185.317 128.635,185.817 131.5,186C 132.252,186.671 132.586,187.504 132.5,188.5C 129.384,187.925 126.217,187.591 123,187.5C 113.878,188.829 104.711,189.662 95.5,190C 93.2833,191.723 90.95,193.223 88.5,194.5C 86.5979,190.261 84.2646,186.261 81.5,182.5 Z"/></g>
<g><path style="opacity:1" fill="#24242e" d="M 190.5,148.5 C 193.082,167.59 187.415,183.757 173.5,197C 155.261,211.225 134.595,218.725 111.5,219.5C 107.167,219.5 102.833,219.5 98.5,219.5C 92.3466,218.672 86.0133,218.172 79.5,218C 58.4306,215.713 42.0972,205.88 30.5,188.5C 30.9887,187.005 31.6554,185.671 32.5,184.5C 40.6349,196.792 51.6349,205.625 65.5,211C 81.2636,214.758 97.2636,216.091 113.5,215C 139.324,213.844 161.157,204.011 179,185.5C 182.881,180.071 185.381,174.071 186.5,167.5C 187.468,165.393 187.802,163.059 187.5,160.5C 189.131,156.768 190.131,152.768 190.5,148.5 Z"/></g>
<g><path style="opacity:1" fill="#181923" d="M 97.5,208.5 C 103.5,208.5 109.5,208.5 115.5,208.5C 114.5,209.167 113.5,209.833 112.5,210.5C 108.152,211.754 103.818,211.754 99.5,210.5C 98.8333,209.833 98.1667,209.167 97.5,208.5 Z"/></g>
<g><path style="opacity:1" fill="#6fb82f" d="M 92.5,194.5 C 93.5,194.5 94.5,194.5 95.5,194.5C 91.6108,197.624 91.9441,200.624 96.5,203.5C 101.056,206.227 106.056,207.227 111.5,206.5C 111.5,205.5 111.5,204.5 111.5,203.5C 114.237,203.599 116.904,203.265 119.5,202.5C 118.106,204.708 116.106,206.208 113.5,207C 102.702,210.298 94.7025,207.132 89.5,197.5C 89.5,195.5 90.5,194.5 92.5,194.5 Z"/></g>
<g><path style="opacity:1" fill="#0d1b0d" d="M 132.5,188.5 C 133.376,188.369 134.043,188.702 134.5,189.5C 133.754,190.736 133.421,192.07 133.5,193.5C 128.673,200.001 122.673,205.001 115.5,208.5C 109.5,208.5 103.5,208.5 97.5,208.5C 93.8998,206.57 90.8998,203.903 88.5,200.5C 88.5,199.5 88.5,198.5 88.5,197.5C 88.8333,197.5 89.1667,197.5 89.5,197.5C 94.7025,207.132 102.702,210.298 113.5,207C 116.106,206.208 118.106,204.708 119.5,202.5C 122.563,200.975 125.23,198.975 127.5,196.5C 131.573,195.413 133.239,192.746 132.5,188.5 Z"/></g>
<g><path style="opacity:1" fill="#6ed013" d="M 95.5,194.5 C 96.1667,194.5 96.8333,194.5 97.5,194.5C 98.2894,197.434 100.289,199.268 103.5,200C 108.854,200.529 114.187,200.362 119.5,199.5C 119.5,200.5 119.5,201.5 119.5,202.5C 116.904,203.265 114.237,203.599 111.5,203.5C 111.5,204.5 111.5,205.5 111.5,206.5C 106.056,207.227 101.056,206.227 96.5,203.5C 91.9441,200.624 91.6108,197.624 95.5,194.5 Z"/></g>
<g><path style="opacity:1" fill="#4f9b08" d="M 127.5,195.5 C 127.5,195.833 127.5,196.167 127.5,196.5C 125.23,198.975 122.563,200.975 119.5,202.5C 119.5,201.5 119.5,200.5 119.5,199.5C 114.187,200.362 108.854,200.529 103.5,200C 100.289,199.268 98.2894,197.434 97.5,194.5C 100.486,195.471 103.486,196.471 106.5,197.5C 109.602,197.503 109.935,197.003 107.5,196C 108.593,194.635 109.926,194.301 111.5,195C 111.167,196 110.833,197 110.5,198C 111.333,198.167 112.167,198.333 113,198.5C 115.149,197.701 117.316,196.867 119.5,196C 117.865,194.252 115.865,193.085 113.5,192.5C 118.167,191.349 122.834,191.349 127.5,192.5C 127.5,193.5 127.5,194.5 127.5,195.5 Z"/></g>
<g><path style="opacity:1" fill="#4f8d0e" d="M 127.5,195.5 C 127.5,194.5 127.5,193.5 127.5,192.5C 122.834,191.349 118.167,191.349 113.5,192.5C 115.865,193.085 117.865,194.252 119.5,196C 117.316,196.867 115.149,197.701 113,198.5C 112.167,198.333 111.333,198.167 110.5,198C 110.833,197 111.167,196 111.5,195C 109.926,194.301 108.593,194.635 107.5,196C 109.935,197.003 109.602,197.503 106.5,197.5C 103.486,196.471 100.486,195.471 97.5,194.5C 96.8333,194.5 96.1667,194.5 95.5,194.5C 94.5,194.5 93.5,194.5 92.5,194.5C 94.4621,192.983 96.7954,192.316 99.5,192.5C 101.167,192.667 102.833,192.833 104.5,193C 103.304,193.654 103.304,194.154 104.5,194.5C 112.856,190.076 121.523,189.409 130.5,192.5C 129.812,193.855 128.812,194.855 127.5,195.5 Z"/></g>
<g><path style="opacity:1" fill="#284411" d="M 132.5,188.5 C 133.239,192.746 131.573,195.413 127.5,196.5C 127.5,196.167 127.5,195.833 127.5,195.5C 128.812,194.855 129.812,193.855 130.5,192.5C 121.523,189.409 112.856,190.076 104.5,194.5C 103.304,194.154 103.304,193.654 104.5,193C 102.833,192.833 101.167,192.667 99.5,192.5C 96.7954,192.316 94.4621,192.983 92.5,194.5C 90.5,194.5 89.5,195.5 89.5,197.5C 89.1667,197.5 88.8333,197.5 88.5,197.5C 88.5,196.5 88.5,195.5 88.5,194.5C 90.95,193.223 93.2833,191.723 95.5,190C 104.711,189.662 113.878,188.829 123,187.5C 126.217,187.591 129.384,187.925 132.5,188.5 Z"/></g>
</svg>
