<?xml version="1.0" encoding="UTF-8"?>
<!DOCTYPE svg PUBLIC "-//W3C//DTD SVG 1.1//EN" "http://www.w3.org/Graphics/SVG/1.1/DTD/svg11.dtd">
<svg xmlns="http://www.w3.org/2000/svg" version="1.1" width="224px" height="225px" style="shape-rendering:geometricPrecision; text-rendering:geometricPrecision; image-rendering:optimizeQuality; fill-rule:evenodd; clip-rule:evenodd" xmlns:xlink="http://www.w3.org/1999/xlink">
<g><path style="opacity:1" fill="#fcfbfc" d="M -0.5,-0.5 C 24.5,-0.5 49.5,-0.5 74.5,-0.5C 75.5119,9.41478 76.8452,19.2481 78.5,29C 72.5817,27.7034 66.5817,26.3701 60.5,25C 46.5326,21.7825 34.366,24.9492 24,34.5C 23.3333,35.1667 23.3333,35.8333 24,36.5C 29.8542,41.3562 35.3542,46.5229 40.5,52C 25.6565,53.6693 13.4899,60.1693 4,71.5C 2.24148,74.6076 1.40814,77.941 1.5,81.5C 6.89929,81.309 12.2326,81.809 17.5,83C 9.46588,88.5282 3.46588,95.6948 -0.5,104.5C -0.5,69.5 -0.5,34.5 -0.5,-0.5 Z"/></g>
<g><path style="opacity:1" fill="#fdfcfd" d="M 87.5,-0.5 C 132.833,-0.5 178.167,-0.5 223.5,-0.5C 223.5,34.1667 223.5,68.8333 223.5,103.5C 213.499,89.1562 199.832,80.3229 182.5,77C 188.959,72.2096 195.126,67.0429 201,61.5C 200.452,57.6261 198.285,54.7927 194.5,53C 187.532,48.3509 179.865,46.3509 171.5,47C 159.193,45.5198 147.527,47.1865 136.5,52C 137.381,51.2917 138.047,50.4584 138.5,49.5C 143.829,42.6619 150.495,37.4953 158.5,34C 149.3,36.2736 141.634,41.107 135.5,48.5C 134.833,43.5 134.167,38.5 133.5,33.5C 132.901,29.3454 131.735,25.3454 130,21.5C 129,19.1667 127.333,17.5 125,16.5C 126.531,22.4935 127.365,28.6601 127.5,35C 127.545,38.9214 127.045,42.7547 126,46.5C 120.949,24.2979 108.116,8.63127 87.5,-0.5 Z"/></g>
<g><path style="opacity:1" fill="#ac5fc4" d="M 78.5,9.5 C 80.1234,13.4236 81.1234,17.7569 81.5,22.5C 82.84,21.3122 83.5066,19.8122 83.5,18C 82.4812,15.4514 82.4812,12.9514 83.5,10.5C 90.3481,13.7062 97.0148,17.2062 103.5,21C 107.974,25.796 112.307,30.6294 116.5,35.5C 116.351,36.552 116.517,37.552 117,38.5C 119.043,39.5794 120.376,41.246 121,43.5C 121.488,47.8328 122.655,51.8328 124.5,55.5C 124.234,60.6719 125.401,61.3385 128,57.5C 128.671,58.2524 129.504,58.5858 130.5,58.5C 130.833,58.5 131.167,58.5 131.5,58.5C 129.828,62.8999 128.328,67.2332 127,71.5C 143.634,55.2456 163.134,50.9123 185.5,58.5C 187.784,59.6134 190.117,60.6134 192.5,61.5C 191.391,63.2141 192.058,63.8808 194.5,63.5C 186.899,69.2561 179.399,75.2561 172,81.5C 171.308,82.4368 171.475,83.1034 172.5,83.5C 171.71,84.7942 170.71,85.9609 169.5,87C 175.825,86.3744 182.158,86.7078 188.5,88C 200.271,91.967 210.271,98.467 218.5,107.5C 205.642,106.826 192.976,107.993 180.5,111C 184.467,111.003 188.134,111.836 191.5,113.5C 193.152,118.248 195.652,122.582 199,126.5C 199.494,128.134 199.66,129.801 199.5,131.5C 189.884,130.015 180.884,126.848 172.5,122C 170.866,121.506 169.199,121.34 167.5,121.5C 167.421,122.93 167.754,124.264 168.5,125.5C 171.493,126.833 173.827,128.833 175.5,131.5C 175.5,131.833 175.5,132.167 175.5,132.5C 175.255,135.865 175.922,139.032 177.5,142C 176.293,143.3 175.626,144.8 175.5,146.5C 174.072,150.349 172.739,154.349 171.5,158.5C 170.675,159.386 169.675,159.719 168.5,159.5C 167.94,162.713 166.773,165.713 165,168.5C 161.267,171.285 157.434,173.952 153.5,176.5C 150.746,175.054 147.746,174.054 144.5,173.5C 150.586,166.054 152.586,157.721 150.5,148.5C 150.577,147.25 151.244,146.417 152.5,146C 150.951,144.786 149.785,143.286 149,141.5C 148.586,141.957 148.086,142.291 147.5,142.5C 134.761,137.629 122.428,131.963 110.5,125.5C 105.933,123.106 101.766,120.106 98,116.5C 97.9933,111.666 99.8267,107.499 103.5,104C 103.167,103.833 102.833,103.667 102.5,103.5C 99.4838,106.52 96.8171,109.854 94.5,113.5C 80.7742,106.32 66.1076,103.154 50.5,104C 53.1667,101.667 55.8333,99.3333 58.5,97C 58.1667,96.8333 57.8333,96.6667 57.5,96.5C 50.7527,100.255 45.4194,105.255 41.5,111.5C 38.6742,114.484 36.3409,117.817 34.5,121.5C 32.1725,122.736 31.0058,124.736 31,127.5C 30.3333,134.5 30.3333,141.5 31,148.5C 32.7878,153.748 34.4544,159.081 36,164.5C 37.6147,165.386 39.1147,166.386 40.5,167.5C 41.1667,167.5 41.5,167.833 41.5,168.5C 41.9954,170.482 42.4954,172.482 43,174.5C 44.073,173.72 45.2396,173.887 46.5,175C 49.1881,177.344 51.8548,179.677 54.5,182C 58.3598,182.105 62.0265,182.938 65.5,184.5C 74.5236,179.217 83.857,178.55 93.5,182.5C 94.4164,182.457 95.0831,182.124 95.5,181.5C 95.8333,181.5 96.1667,181.5 96.5,181.5C 101.179,181.666 105.845,181.499 110.5,181C 117.134,179.84 123.467,178.007 129.5,175.5C 131.5,175.5 133.5,175.5 135.5,175.5C 135.739,177.467 135.406,179.301 134.5,181C 132.19,181.497 129.857,181.663 127.5,181.5C 127.5,182.5 127.5,183.5 127.5,184.5C 124.436,184.144 121.769,184.977 119.5,187C 122.562,187.741 125.562,187.575 128.5,186.5C 129.429,187.689 129.762,189.022 129.5,190.5C 129.5,190.833 129.5,191.167 129.5,191.5C 121.731,197.047 113.064,200.38 103.5,201.5C 100.784,201.678 98.1168,202.178 95.5,203C 98.8168,203.498 102.15,203.665 105.5,203.5C 106.492,203.328 107.158,203.662 107.5,204.5C 94.109,204.879 80.7756,204.212 67.5,202.5C 60.4976,200.945 53.831,198.611 47.5,195.5C 47.762,194.022 47.4287,192.689 46.5,191.5C 43.442,189.759 40.442,187.925 37.5,186C 33.4261,179.092 28.4261,172.925 22.5,167.5C 22.0014,164.783 20.8347,162.449 19,160.5C 18.1265,156.465 17.1265,152.465 16,148.5C 15.872,141.599 15.0386,134.932 13.5,128.5C 13.5,128.167 13.5,127.833 13.5,127.5C 15.8846,121.062 18.5513,114.729 21.5,108.5C 24.3133,104.902 27.1467,101.235 30,97.5C 30.6667,96.8333 30.6667,96.1667 30,95.5C 27.1454,99.3437 23.3121,101.177 18.5,101C 13.9101,102.724 9.57677,104.89 5.5,107.5C 6.65591,103.191 8.82257,99.524 12,96.5C 15.4646,94.0374 18.6312,91.2041 21.5,88C 23.5,87 25.5,86 27.5,85C 26.2625,84.7679 25.2625,84.2679 24.5,83.5C 22.9812,82.5902 21.3146,81.7568 19.5,81C 14.3752,80.0747 9.37517,79.2414 4.5,78.5C 6.30839,78.5086 7.97506,78.0086 9.5,77C 15.81,68.8538 23.81,63.1871 33.5,60C 38.4995,59.8875 43.4995,60.2208 48.5,61C 49.0677,62.6036 50.0677,63.2703 51.5,63C 50.3353,61.0083 49.002,59.175 47.5,57.5C 48.625,56.6522 48.625,55.6522 47.5,54.5C 47.6495,53.448 47.4828,52.448 47,51.5C 43.1855,47.5368 40.0188,43.2035 37.5,38.5C 35.6453,38.728 34.8119,38.0613 35,36.5C 38.8689,32.6544 43.5356,30.9878 49,31.5C 59.3836,32.0437 69.217,34.377 78.5,38.5C 79.2975,38.0431 79.6309,37.3764 79.5,36.5C 80.3138,38.631 80.8138,40.9644 81,43.5C 81.1667,41.1667 81.3333,38.8333 81.5,36.5C 80.3896,27.5063 79.3896,18.5063 78.5,9.5 Z"/></g>
<g><path style="opacity:1" fill="#2a1c2e" d="M 138.5,49.5 C 137.5,49.5 136.5,49.5 135.5,49.5C 135.5,49.1667 135.5,48.8333 135.5,48.5C 141.634,41.107 149.3,36.2736 158.5,34C 150.495,37.4953 143.829,42.6619 138.5,49.5 Z"/></g>
<g><path style="opacity:1" fill="#978799" d="M 133.5,33.5 C 134.167,38.5 134.833,43.5 135.5,48.5C 135.5,48.8333 135.5,49.1667 135.5,49.5C 133.554,44.6042 132.887,39.2709 133.5,33.5 Z"/></g>
<g><path style="opacity:1" fill="#fdfcfd" d="M 223.5,109.5 C 223.5,147.833 223.5,186.167 223.5,224.5C 183.5,224.5 143.5,224.5 103.5,224.5C 106.625,223.521 109.958,223.187 113.5,223.5C 114.391,222.89 115.391,222.557 116.5,222.5C 132.524,222.602 146.857,217.936 159.5,208.5C 167.777,202.948 173.944,195.615 178,186.5C 183.194,174.363 185.36,161.696 184.5,148.5C 184.167,146.5 183.833,144.5 183.5,142.5C 192.506,145.169 201.506,147.836 210.5,150.5C 211.7,134.066 205.7,120.9 192.5,111C 202.91,110.809 213.243,110.309 223.5,109.5 Z"/></g>
<g><path style="opacity:1" fill="#3d184a" d="M 74.5,-0.5 C 78.8333,-0.5 83.1667,-0.5 87.5,-0.5C 108.116,8.63127 120.949,24.2979 126,46.5C 127.045,42.7547 127.545,38.9214 127.5,35C 127.365,28.6601 126.531,22.4935 125,16.5C 127.333,17.5 129,19.1667 130,21.5C 131.735,25.3454 132.901,29.3454 133.5,33.5C 132.887,39.2709 133.554,44.6042 135.5,49.5C 136.5,49.5 137.5,49.5 138.5,49.5C 138.047,50.4584 137.381,51.2917 136.5,52C 147.527,47.1865 159.193,45.5198 171.5,47C 179.865,46.3509 187.532,48.3509 194.5,53C 198.285,54.7927 200.452,57.6261 201,61.5C 195.126,67.0429 188.959,72.2096 182.5,77C 199.832,80.3229 213.499,89.1562 223.5,103.5C 223.5,105.5 223.5,107.5 223.5,109.5C 213.243,110.309 202.91,110.809 192.5,111C 205.7,120.9 211.7,134.066 210.5,150.5C 201.506,147.836 192.506,145.169 183.5,142.5C 183.833,144.5 184.167,146.5 184.5,148.5C 183.673,153.651 183.173,158.984 183,164.5C 181.287,169.396 179.954,174.396 179,179.5C 176.641,182.884 174.808,186.551 173.5,190.5C 172.817,190.863 172.15,191.196 171.5,191.5C 174.062,186.376 176.062,181.043 177.5,175.5C 183.134,160.848 182.467,146.515 175.5,132.5C 175.5,132.167 175.5,131.833 175.5,131.5C 175.435,131.062 175.601,130.728 176,130.5C 177.736,132.063 179.236,133.73 180.5,135.5C 180.36,137.124 181.027,138.29 182.5,139C 191.146,140.938 199.479,143.771 207.5,147.5C 208.782,146.042 208.782,144.708 207.5,143.5C 206.375,131.249 201.041,121.249 191.5,113.5C 188.134,111.836 184.467,111.003 180.5,111C 192.976,107.993 205.642,106.826 218.5,107.5C 219.376,107.631 220.043,107.298 220.5,106.5C 211.679,91.0327 198.346,82.3661 180.5,80.5C 177.174,80.0728 174.508,81.0728 172.5,83.5C 171.475,83.1034 171.308,82.4368 172,81.5C 179.399,75.2561 186.899,69.2561 194.5,63.5C 196.958,63.0739 198.124,61.7406 198,59.5C 194.636,55.7346 190.469,53.4012 185.5,52.5C 172.458,48.1248 159.125,47.6248 145.5,51C 142.316,51.7542 139.649,53.2542 137.5,55.5C 135.517,56.4706 133.517,57.4706 131.5,58.5C 131.167,58.5 130.833,58.5 130.5,58.5C 131.484,49.1857 131.651,39.8524 131,30.5C 130.64,28.3921 129.973,26.3921 129,24.5C 130.365,34.7208 129.365,44.7208 126,54.5C 125.617,55.056 125.117,55.3893 124.5,55.5C 122.499,32.0286 111.166,14.862 90.5,4C 85.9342,2.69076 81.2675,2.19076 76.5,2.5C 76.7215,5.06729 77.3882,7.40063 78.5,9.5C 79.3896,18.5063 80.3896,27.5063 81.5,36.5C 81.3333,38.8333 81.1667,41.1667 81,43.5C 80.8138,40.9644 80.3138,38.631 79.5,36.5C 79.719,35.325 79.3857,34.325 78.5,33.5C 62.6321,25.3403 46.6321,24.8403 30.5,32C 28.6707,33.1133 27.8374,34.6133 28,36.5C 34.6964,42.3661 41.1964,48.3661 47.5,54.5C 48.625,55.6522 48.625,56.6522 47.5,57.5C 40.4845,54.7678 33.4845,54.9344 26.5,58C 18.0644,61.1253 11.2311,66.292 6,73.5C 4.99136,75.0249 4.49136,76.6916 4.5,78.5C 9.37517,79.2414 14.3752,80.0747 19.5,81C 21.3146,81.7568 22.9812,82.5902 24.5,83.5C 19.4376,84.6154 14.9376,86.9488 11,90.5C 6.52709,96.1115 3.69375,102.445 2.5,109.5C 3.3339,110.748 4.66723,111.415 6.5,111.5C 11.7822,111.294 16.7822,110.294 21.5,108.5C 18.5513,114.729 15.8846,121.062 13.5,127.5C 10.2209,135.045 8.38753,143.045 8,151.5C 7.25832,157.077 7.75832,162.41 9.5,167.5C 9.23219,169.099 9.56552,170.432 10.5,171.5C 15.1402,190.639 26.4735,204.139 44.5,212C 52.5854,215.418 60.9187,217.918 69.5,219.5C 72.0232,220.384 74.6898,221.218 77.5,222C 89.6737,222.169 101.674,222.669 113.5,223.5C 109.958,223.187 106.625,223.521 103.5,224.5C 95.1667,224.5 86.8333,224.5 78.5,224.5C 60.3207,223.28 43.654,217.446 28.5,207C 7.2965,186.705 0.46317,162.205 8,133.5C 10.491,126.351 13.6577,119.518 17.5,113C 11.4676,112.884 5.46756,113.384 -0.5,114.5C -0.5,111.167 -0.5,107.833 -0.5,104.5C 3.46588,95.6948 9.46588,88.5282 17.5,83C 12.2326,81.809 6.89929,81.309 1.5,81.5C 1.40814,77.941 2.24148,74.6076 4,71.5C 13.4899,60.1693 25.6565,53.6693 40.5,52C 35.3542,46.5229 29.8542,41.3562 24,36.5C 23.3333,35.8333 23.3333,35.1667 24,34.5C 34.366,24.9492 46.5326,21.7825 60.5,25C 66.5817,26.3701 72.5817,27.7034 78.5,29C 76.8452,19.2481 75.5119,9.41478 74.5,-0.5 Z"/></g>
<g><path style="opacity:1" fill="#321240" d="M 110.5,125.5 C 109.5,125.5 108.5,125.5 107.5,125.5C 100.827,122.818 95.16,118.651 90.5,113C 86.9317,111.382 83.265,110.049 79.5,109C 69.2116,107.495 58.8782,107.162 48.5,108C 47.2949,109.376 45.9616,110.542 44.5,111.5C 43.5,111.5 42.5,111.5 41.5,111.5C 45.4194,105.255 50.7527,100.255 57.5,96.5C 57.8333,96.6667 58.1667,96.8333 58.5,97C 55.8333,99.3333 53.1667,101.667 50.5,104C 66.1076,103.154 80.7742,106.32 94.5,113.5C 96.8171,109.854 99.4838,106.52 102.5,103.5C 102.833,103.667 103.167,103.833 103.5,104C 99.8267,107.499 97.9933,111.666 98,116.5C 101.766,120.106 105.933,123.106 110.5,125.5 Z"/></g>
<g><path style="opacity:1" fill="#fbfbfb" d="M 107.5,125.5 C 112.02,128.929 117.02,131.595 122.5,133.5C 116.837,140.47 115.504,148.136 118.5,156.5C 121.567,158.052 124.067,157.385 126,154.5C 129.043,148.892 130.209,142.892 129.5,136.5C 135.828,139.165 142.162,141.832 148.5,144.5C 147.781,149.118 147.281,153.785 147,158.5C 145.517,162.435 144.351,166.435 143.5,170.5C 143.389,171.117 143.056,171.617 142.5,172C 129.329,172.876 116.329,174.876 103.5,178C 99.1794,178.499 94.8461,178.666 90.5,178.5C 86.4068,177.178 82.5735,175.178 79,172.5C 78.5172,173.448 78.3505,174.448 78.5,175.5C 75.4318,176.022 72.4318,176.855 69.5,178C 65.9733,178.808 62.6399,178.641 59.5,177.5C 58.0283,175.866 56.3617,174.366 54.5,173C 53.5509,172.383 52.7175,172.549 52,173.5C 48.21,168.548 44.0433,164.215 39.5,160.5C 30.1907,142.884 31.8574,126.551 44.5,111.5C 45.9616,110.542 47.2949,109.376 48.5,108C 58.8782,107.162 69.2116,107.495 79.5,109C 83.265,110.049 86.9317,111.382 90.5,113C 95.16,118.651 100.827,122.818 107.5,125.5 Z"/></g>
<g><path style="opacity:1" fill="#7a40a4" d="M 21.5,108.5 C 16.7822,110.294 11.7822,111.294 6.5,111.5C 4.66723,111.415 3.3339,110.748 2.5,109.5C 3.70951,109.068 4.70951,108.401 5.5,107.5C 9.57677,104.89 13.9101,102.724 18.5,101C 23.3121,101.177 27.1454,99.3437 30,95.5C 30.6667,96.1667 30.6667,96.8333 30,97.5C 27.1467,101.235 24.3133,104.902 21.5,108.5 Z"/></g>
<g><path style="opacity:1" fill="#c679d8" d="M 24.5,83.5 C 25.2625,84.2679 26.2625,84.7679 27.5,85C 25.5,86 23.5,87 21.5,88C 18.6312,91.2041 15.4646,94.0374 12,96.5C 8.82257,99.524 6.65591,103.191 5.5,107.5C 4.70951,108.401 3.70951,109.068 2.5,109.5C 3.69375,102.445 6.52709,96.1115 11,90.5C 14.9376,86.9488 19.4376,84.6154 24.5,83.5 Z"/></g>
<g><path style="opacity:1" fill="#c776da" d="M 218.5,107.5 C 210.271,98.467 200.271,91.967 188.5,88C 182.158,86.7078 175.825,86.3744 169.5,87C 170.71,85.9609 171.71,84.7942 172.5,83.5C 174.508,81.0728 177.174,80.0728 180.5,80.5C 198.346,82.3661 211.679,91.0327 220.5,106.5C 220.043,107.298 219.376,107.631 218.5,107.5 Z"/></g>
<g><path style="opacity:1" fill="#c577db" d="M 47.5,57.5 C 49.002,59.175 50.3353,61.0083 51.5,63C 50.0677,63.2703 49.0677,62.6036 48.5,61C 43.4995,60.2208 38.4995,59.8875 33.5,60C 23.81,63.1871 15.81,68.8538 9.5,77C 7.97506,78.0086 6.30839,78.5086 4.5,78.5C 4.49136,76.6916 4.99136,75.0249 6,73.5C 11.2311,66.292 18.0644,61.1253 26.5,58C 33.4845,54.9344 40.4845,54.7678 47.5,57.5 Z"/></g>
<g><path style="opacity:1" fill="#ca75e0" d="M 185.5,52.5 C 190.469,53.4012 194.636,55.7346 198,59.5C 198.124,61.7406 196.958,63.0739 194.5,63.5C 192.058,63.8808 191.391,63.2141 192.5,61.5C 190.117,60.6134 187.784,59.6134 185.5,58.5C 163.134,50.9123 143.634,55.2456 127,71.5C 128.328,67.2332 129.828,62.8999 131.5,58.5C 133.517,57.4706 135.517,56.4706 137.5,55.5C 143.181,53.0199 149.181,51.8532 155.5,52C 165.519,51.3343 175.519,51.5009 185.5,52.5 Z"/></g>
<g><path style="opacity:1" fill="#c077d0" d="M 185.5,52.5 C 175.519,51.5009 165.519,51.3343 155.5,52C 149.181,51.8532 143.181,53.0199 137.5,55.5C 139.649,53.2542 142.316,51.7542 145.5,51C 159.125,47.6248 172.458,48.1248 185.5,52.5 Z"/></g>
<g><path style="opacity:1" fill="#bc74ce" d="M 130.5,58.5 C 129.504,58.5858 128.671,58.2524 128,57.5C 125.401,61.3385 124.234,60.6719 124.5,55.5C 125.117,55.3893 125.617,55.056 126,54.5C 129.365,44.7208 130.365,34.7208 129,24.5C 129.973,26.3921 130.64,28.3921 131,30.5C 131.651,39.8524 131.484,49.1857 130.5,58.5 Z"/></g>
<g><path style="opacity:1" fill="#c377d8" d="M 79.5,36.5 C 79.6309,37.3764 79.2975,38.0431 78.5,38.5C 69.217,34.377 59.3836,32.0437 49,31.5C 43.5356,30.9878 38.8689,32.6544 35,36.5C 34.8119,38.0613 35.6453,38.728 37.5,38.5C 40.0188,43.2035 43.1855,47.5368 47,51.5C 47.4828,52.448 47.6495,53.448 47.5,54.5C 41.1964,48.3661 34.6964,42.3661 28,36.5C 27.8374,34.6133 28.6707,33.1133 30.5,32C 46.6321,24.8403 62.6321,25.3403 78.5,33.5C 79.3857,34.325 79.719,35.325 79.5,36.5 Z"/></g>
<g><path style="opacity:1" fill="#be76d0" d="M 124.5,55.5 C 122.655,51.8328 121.488,47.8328 121,43.5C 120.376,41.246 119.043,39.5794 117,38.5C 116.517,37.552 116.351,36.552 116.5,35.5C 115.77,28.0091 112.103,22.6758 105.5,19.5C 104.594,17.6136 103.594,15.7803 102.5,14C 99.8505,13.2063 97.6839,11.7063 96,9.5C 94.308,11.2446 92.4747,11.5779 90.5,10.5C 94.3642,9.05004 94.3642,7.55004 90.5,6C 86.687,4.22802 82.687,3.39469 78.5,3.5C 78.5,5.5 78.5,7.5 78.5,9.5C 77.3882,7.40063 76.7215,5.06729 76.5,2.5C 81.2675,2.19076 85.9342,2.69076 90.5,4C 111.166,14.862 122.499,32.0286 124.5,55.5 Z"/></g>
<g><path style="opacity:1" fill="#cc75e1" d="M 116.5,35.5 C 112.307,30.6294 107.974,25.796 103.5,21C 97.0148,17.2062 90.3481,13.7062 83.5,10.5C 82.4812,12.9514 82.4812,15.4514 83.5,18C 83.5066,19.8122 82.84,21.3122 81.5,22.5C 81.1234,17.7569 80.1234,13.4236 78.5,9.5C 78.5,7.5 78.5,5.5 78.5,3.5C 82.687,3.39469 86.687,4.22802 90.5,6C 94.3642,7.55004 94.3642,9.05004 90.5,10.5C 92.4747,11.5779 94.308,11.2446 96,9.5C 97.6839,11.7063 99.8505,13.2063 102.5,14C 103.594,15.7803 104.594,17.6136 105.5,19.5C 112.103,22.6758 115.77,28.0091 116.5,35.5 Z"/></g>
<g><path style="opacity:1" fill="#131313" d="M 86.5,119.5 C 92.1783,119.291 94.5117,122.124 93.5,128C 93.3664,132.44 92.1998,136.607 90,140.5C 87.6,144.687 84.6,145.354 81,142.5C 79.0756,133.831 80.9089,126.164 86.5,119.5 Z"/></g>
<g><path style="opacity:1" fill="#f2f0f0" d="M 88.5,121.5 C 93.289,123.2 93.6224,125.533 89.5,128.5C 87.2395,126.516 86.9061,124.183 88.5,121.5 Z"/></g>
<g><path style="opacity:1" fill="#2c1736" d="M 107.5,125.5 C 108.5,125.5 109.5,125.5 110.5,125.5C 122.428,131.963 134.761,137.629 147.5,142.5C 148.086,142.291 148.586,141.957 149,141.5C 149.785,143.286 150.951,144.786 152.5,146C 151.244,146.417 150.577,147.25 150.5,148.5C 150.802,151.059 150.468,153.393 149.5,155.5C 149.815,151.629 149.482,147.962 148.5,144.5C 142.162,141.832 135.828,139.165 129.5,136.5C 128.833,136.5 128.5,136.833 128.5,137.5C 127.5,136.833 126.5,136.167 125.5,135.5C 125.027,134.094 124.027,133.427 122.5,133.5C 117.02,131.595 112.02,128.929 107.5,125.5 Z"/></g>
<g><path style="opacity:1" fill="#8046ae" d="M 191.5,113.5 C 201.041,121.249 206.375,131.249 207.5,143.5C 198.837,140.06 189.837,137.394 180.5,135.5C 179.236,133.73 177.736,132.063 176,130.5C 175.601,130.728 175.435,131.062 175.5,131.5C 173.827,128.833 171.493,126.833 168.5,125.5C 167.754,124.264 167.421,122.93 167.5,121.5C 169.199,121.34 170.866,121.506 172.5,122C 180.884,126.848 189.884,130.015 199.5,131.5C 199.66,129.801 199.494,128.134 199,126.5C 195.652,122.582 193.152,118.248 191.5,113.5 Z"/></g>
<g><path style="opacity:1" fill="#131314" d="M 122.5,133.5 C 124.027,133.427 125.027,134.094 125.5,135.5C 122.932,137.669 122.932,140.002 125.5,142.5C 127.756,141.579 128.756,139.912 128.5,137.5C 128.5,136.833 128.833,136.5 129.5,136.5C 130.209,142.892 129.043,148.892 126,154.5C 124.067,157.385 121.567,158.052 118.5,156.5C 115.504,148.136 116.837,140.47 122.5,133.5 Z"/></g>
<g><path style="opacity:1" fill="#e7ebe9" d="M 125.5,135.5 C 126.5,136.167 127.5,136.833 128.5,137.5C 128.756,139.912 127.756,141.579 125.5,142.5C 122.932,140.002 122.932,137.669 125.5,135.5 Z"/></g>
<g><path style="opacity:1" fill="#a57ac7" d="M 180.5,135.5 C 189.837,137.394 198.837,140.06 207.5,143.5C 208.782,144.708 208.782,146.042 207.5,147.5C 199.479,143.771 191.146,140.938 182.5,139C 181.027,138.29 180.36,137.124 180.5,135.5 Z"/></g>
<g><path style="opacity:1" fill="#fbfafb" d="M 78.5,224.5 C 52.1667,224.5 25.8333,224.5 -0.5,224.5C -0.5,187.833 -0.5,151.167 -0.5,114.5C 5.46756,113.384 11.4676,112.884 17.5,113C 13.6577,119.518 10.491,126.351 8,133.5C 0.46317,162.205 7.2965,186.705 28.5,207C 43.654,217.446 60.3207,223.28 78.5,224.5 Z"/></g>
<g><path style="opacity:1" fill="#7e4ba0" d="M 13.5,127.5 C 13.5,127.833 13.5,128.167 13.5,128.5C 12.8686,133.657 11.8686,138.657 10.5,143.5C 9.50761,151.316 9.17428,159.316 9.5,167.5C 7.75832,162.41 7.25832,157.077 8,151.5C 8.38753,143.045 10.2209,135.045 13.5,127.5 Z"/></g>
<g><path style="opacity:1" fill="#9d64ad" d="M 34.5,121.5 C 29.7757,137.705 31.7757,153.039 40.5,167.5C 39.1147,166.386 37.6147,165.386 36,164.5C 34.4544,159.081 32.7878,153.748 31,148.5C 30.3333,141.5 30.3333,134.5 31,127.5C 31.0058,124.736 32.1725,122.736 34.5,121.5 Z"/></g>
<g><path style="opacity:1" fill="#9c4dbd" d="M 13.5,128.5 C 15.0386,134.932 15.872,141.599 16,148.5C 17.1265,152.465 18.1265,156.465 19,160.5C 20.8347,162.449 22.0014,164.783 22.5,167.5C 28.4261,172.925 33.4261,179.092 37.5,186C 40.442,187.925 43.442,189.759 46.5,191.5C 47.4287,192.689 47.762,194.022 47.5,195.5C 45.6159,195.288 44.2826,194.288 43.5,192.5C 41.2338,191.686 38.9005,191.186 36.5,191C 32.921,186.75 28.7543,183.25 24,180.5C 21.876,174.22 18.7093,168.553 14.5,163.5C 13.1273,156.703 11.794,150.036 10.5,143.5C 11.8686,138.657 12.8686,133.657 13.5,128.5 Z"/></g>
<g><path style="opacity:1" fill="#1d0f24" d="M 41.5,111.5 C 42.5,111.5 43.5,111.5 44.5,111.5C 31.8574,126.551 30.1907,142.884 39.5,160.5C 43.3145,167.481 48.6478,172.981 55.5,177C 56.7932,177.49 58.1266,177.657 59.5,177.5C 62.6399,178.641 65.9733,178.808 69.5,178C 72.4318,176.855 75.4318,176.022 78.5,175.5C 78.3505,174.448 78.5172,173.448 79,172.5C 82.5735,175.178 86.4068,177.178 90.5,178.5C 88.8333,178.5 87.1667,178.5 85.5,178.5C 84.085,177.711 82.585,177.044 81,176.5C 65.6955,183.959 52.5289,181.292 41.5,168.5C 41.5,167.833 41.1667,167.5 40.5,167.5C 31.7757,153.039 29.7757,137.705 34.5,121.5C 36.3409,117.817 38.6742,114.484 41.5,111.5 Z"/></g>
<g><path style="opacity:1" fill="#341a3d" d="M 184.5,148.5 C 185.36,161.696 183.194,174.363 178,186.5C 173.944,195.615 167.777,202.948 159.5,208.5C 159.281,207.325 159.614,206.325 160.5,205.5C 164.187,203.12 167.187,200.12 169.5,196.5C 170.562,194.978 171.229,193.312 171.5,191.5C 172.15,191.196 172.817,190.863 173.5,190.5C 174.808,186.551 176.641,182.884 179,179.5C 179.954,174.396 181.287,169.396 183,164.5C 183.173,158.984 183.673,153.651 184.5,148.5 Z"/></g>
<g><path style="opacity:1" fill="#a579c8" d="M 10.5,171.5 C 15.5735,186.786 25.2402,198.286 39.5,206C 57.3389,214.566 76.1722,218.066 96,216.5C 116.988,217.626 136.821,213.46 155.5,204C 158.5,201.5 161.5,199 164.5,196.5C 169.774,189.411 174.108,182.411 177.5,175.5C 176.062,181.043 174.062,186.376 171.5,191.5C 168.365,194.808 165.365,198.308 162.5,202C 153.885,209.641 143.885,214.641 132.5,217C 111.643,220.65 90.643,221.483 69.5,219.5C 60.9187,217.918 52.5854,215.418 44.5,212C 26.4735,204.139 15.1402,190.639 10.5,171.5 Z"/></g>
<g><path style="opacity:1" fill="#7f46b0" d="M 175.5,132.5 C 182.467,146.515 183.134,160.848 177.5,175.5C 174.108,182.411 169.774,189.411 164.5,196.5C 161.5,199 158.5,201.5 155.5,204C 136.821,213.46 116.988,217.626 96,216.5C 76.1722,218.066 57.3389,214.566 39.5,206C 25.2402,198.286 15.5735,186.786 10.5,171.5C 9.56552,170.432 9.23219,169.099 9.5,167.5C 9.17428,159.316 9.50761,151.316 10.5,143.5C 11.794,150.036 13.1273,156.703 14.5,163.5C 18.7093,168.553 21.876,174.22 24,180.5C 28.7543,183.25 32.921,186.75 36.5,191C 38.9005,191.186 41.2338,191.686 43.5,192.5C 44.2826,194.288 45.6159,195.288 47.5,195.5C 53.831,198.611 60.4976,200.945 67.5,202.5C 80.7756,204.212 94.109,204.879 107.5,204.5C 112.833,205.833 118.167,205.833 123.5,204.5C 127.542,203.149 130.875,200.815 133.5,197.5C 133.5,198.5 133.5,199.5 133.5,200.5C 139.535,198.494 145.535,196.494 151.5,194.5C 154.167,190.833 156.833,187.167 159.5,183.5C 161.144,183.714 162.644,183.38 164,182.5C 166.167,178.833 168.333,175.167 170.5,171.5C 171.335,167.195 172.835,163.195 175,159.5C 175.499,155.179 175.666,150.846 175.5,146.5C 175.626,144.8 176.293,143.3 177.5,142C 175.922,139.032 175.255,135.865 175.5,132.5 Z"/></g>
<g><path style="opacity:1" fill="#1a0e25" d="M 129.5,191.5 C 130.167,191.5 130.5,191.833 130.5,192.5C 124.454,197.688 117.454,201.022 109.5,202.5C 116.447,204.675 122.447,203.341 127.5,198.5C 127.5,199.167 127.5,199.833 127.5,200.5C 126.167,201.833 124.833,203.167 123.5,204.5C 118.167,205.833 112.833,205.833 107.5,204.5C 107.158,203.662 106.492,203.328 105.5,203.5C 104.833,202.833 104.167,202.167 103.5,201.5C 113.064,200.38 121.731,197.047 129.5,191.5 Z"/></g>
<g><path style="opacity:1" fill="#4e2057" d="M 103.5,201.5 C 104.167,202.167 104.833,202.833 105.5,203.5C 102.15,203.665 98.8168,203.498 95.5,203C 98.1168,202.178 100.784,201.678 103.5,201.5 Z"/></g>
<g><path style="opacity:1" fill="#eae6ea" d="M 130.5,192.5 C 130.938,192.435 131.272,192.601 131.5,193C 129.561,194.432 128.228,196.265 127.5,198.5C 122.447,203.341 116.447,204.675 109.5,202.5C 117.454,201.022 124.454,197.688 130.5,192.5 Z"/></g>
<g><path style="opacity:1" fill="#270a35" d="M 127.5,200.5 C 127.5,199.833 127.5,199.167 127.5,198.5C 128.228,196.265 129.561,194.432 131.5,193C 131.272,192.601 130.938,192.435 130.5,192.5C 130.5,191.833 130.167,191.5 129.5,191.5C 129.5,191.167 129.5,190.833 129.5,190.5C 131.63,188.873 133.63,187.04 135.5,185C 133.413,185.218 131.413,185.051 129.5,184.5C 133.724,182.92 138.058,182.42 142.5,183C 139.966,183.516 137.8,184.683 136,186.5C 134.427,191.987 131.594,196.654 127.5,200.5 Z"/></g>
<g><path style="opacity:1" fill="#a264b4" d="M 41.5,168.5 C 52.5289,181.292 65.6955,183.959 81,176.5C 82.585,177.044 84.085,177.711 85.5,178.5C 88.5832,179.993 91.9165,180.993 95.5,181.5C 95.0831,182.124 94.4164,182.457 93.5,182.5C 83.857,178.55 74.5236,179.217 65.5,184.5C 62.0265,182.938 58.3598,182.105 54.5,182C 51.8548,179.677 49.1881,177.344 46.5,175C 45.2396,173.887 44.073,173.72 43,174.5C 42.4954,172.482 41.9954,170.482 41.5,168.5 Z"/></g>
<g><path style="opacity:1" fill="#9c4bbf" d="M 175.5,146.5 C 175.666,150.846 175.499,155.179 175,159.5C 172.835,163.195 171.335,167.195 170.5,171.5C 168.333,175.167 166.167,178.833 164,182.5C 162.644,183.38 161.144,183.714 159.5,183.5C 156.833,187.167 154.167,190.833 151.5,194.5C 145.535,196.494 139.535,198.494 133.5,200.5C 133.5,199.5 133.5,198.5 133.5,197.5C 134.688,194.888 136.354,192.554 138.5,190.5C 137.674,189.549 137.508,188.549 138,187.5C 139.699,186.594 141.533,186.261 143.5,186.5C 143.421,185.07 143.754,183.736 144.5,182.5C 147.295,181.2 149.961,179.7 152.5,178C 151.944,177.617 151.611,177.117 151.5,176.5C 152.167,176.5 152.833,176.5 153.5,176.5C 157.434,173.952 161.267,171.285 165,168.5C 166.773,165.713 167.94,162.713 168.5,159.5C 169.675,159.719 170.675,159.386 171.5,158.5C 172.739,154.349 174.072,150.349 175.5,146.5 Z"/></g>
<g><path style="opacity:1" fill="#9258a5" d="M 129.5,175.5 C 123.467,178.007 117.134,179.84 110.5,181C 105.845,181.499 101.179,181.666 96.5,181.5C 107.284,179.012 118.284,177.012 129.5,175.5 Z"/></g>
<g><path style="opacity:1" fill="#210c2d" d="M 150.5,148.5 C 152.586,157.721 150.586,166.054 144.5,173.5C 142.167,174.167 139.833,174.833 137.5,175.5C 136.833,175.5 136.167,175.5 135.5,175.5C 133.5,175.5 131.5,175.5 129.5,175.5C 118.284,177.012 107.284,179.012 96.5,181.5C 96.1667,181.5 95.8333,181.5 95.5,181.5C 91.9165,180.993 88.5832,179.993 85.5,178.5C 87.1667,178.5 88.8333,178.5 90.5,178.5C 94.8461,178.666 99.1794,178.499 103.5,178C 116.329,174.876 129.329,172.876 142.5,172C 143.056,171.617 143.389,171.117 143.5,170.5C 147.044,166.22 149.044,161.22 149.5,155.5C 150.468,153.393 150.802,151.059 150.5,148.5 Z"/></g>
<g><path style="opacity:1" fill="#a35eb9" d="M 135.5,175.5 C 136.167,175.5 136.833,175.5 137.5,175.5C 142.214,175.353 146.881,175.686 151.5,176.5C 151.611,177.117 151.944,177.617 152.5,178C 149.961,179.7 147.295,181.2 144.5,182.5C 143.754,183.736 143.421,185.07 143.5,186.5C 141.533,186.261 139.699,186.594 138,187.5C 137.508,188.549 137.674,189.549 138.5,190.5C 136.354,192.554 134.688,194.888 133.5,197.5C 130.875,200.815 127.542,203.149 123.5,204.5C 124.833,203.167 126.167,201.833 127.5,200.5C 131.594,196.654 134.427,191.987 136,186.5C 137.8,184.683 139.966,183.516 142.5,183C 138.058,182.42 133.724,182.92 129.5,184.5C 131.413,185.051 133.413,185.218 135.5,185C 133.63,187.04 131.63,188.873 129.5,190.5C 129.762,189.022 129.429,187.689 128.5,186.5C 125.562,187.575 122.562,187.741 119.5,187C 121.769,184.977 124.436,184.144 127.5,184.5C 127.5,183.5 127.5,182.5 127.5,181.5C 129.857,181.663 132.19,181.497 134.5,181C 135.406,179.301 135.739,177.467 135.5,175.5 Z"/></g>
<g><path style="opacity:1" fill="#4d1a62" d="M 144.5,173.5 C 147.746,174.054 150.746,175.054 153.5,176.5C 152.833,176.5 152.167,176.5 151.5,176.5C 146.881,175.686 142.214,175.353 137.5,175.5C 139.833,174.833 142.167,174.167 144.5,173.5 Z"/></g>
<g><path style="opacity:1" fill="#d6d4d8" d="M 39.5,160.5 C 44.0433,164.215 48.21,168.548 52,173.5C 52.7175,172.549 53.5509,172.383 54.5,173C 56.3617,174.366 58.0283,175.866 59.5,177.5C 58.1266,177.657 56.7932,177.49 55.5,177C 48.6478,172.981 43.3145,167.481 39.5,160.5 Z"/></g>
<g><path style="opacity:1" fill="#dcd6dd" d="M 148.5,144.5 C 149.482,147.962 149.815,151.629 149.5,155.5C 149.044,161.22 147.044,166.22 143.5,170.5C 144.351,166.435 145.517,162.435 147,158.5C 147.281,153.785 147.781,149.118 148.5,144.5 Z"/></g>
<g><path style="opacity:1" fill="#3b174d" d="M 171.5,191.5 C 171.229,193.312 170.562,194.978 169.5,196.5C 167.187,200.12 164.187,203.12 160.5,205.5C 159.614,206.325 159.281,207.325 159.5,208.5C 158.127,208.343 156.793,208.51 155.5,209C 153.445,211.055 151.112,212.721 148.5,214C 142.371,215.599 136.371,217.599 130.5,220C 125.566,220.116 120.9,220.949 116.5,222.5C 115.391,222.557 114.391,222.89 113.5,223.5C 101.674,222.669 89.6737,222.169 77.5,222C 74.6898,221.218 72.0232,220.384 69.5,219.5C 90.643,221.483 111.643,220.65 132.5,217C 143.885,214.641 153.885,209.641 162.5,202C 165.365,198.308 168.365,194.808 171.5,191.5 Z"/></g>
<g><path style="opacity:1" fill="#341839" d="M 159.5,208.5 C 146.857,217.936 132.524,222.602 116.5,222.5C 120.9,220.949 125.566,220.116 130.5,220C 136.371,217.599 142.371,215.599 148.5,214C 151.112,212.721 153.445,211.055 155.5,209C 156.793,208.51 158.127,208.343 159.5,208.5 Z"/></g>
</svg>
