<?xml version="1.0" encoding="UTF-8"?>
<!DOCTYPE svg PUBLIC "-//W3C//DTD SVG 1.1//EN" "http://www.w3.org/Graphics/SVG/1.1/DTD/svg11.dtd">
<svg xmlns="http://www.w3.org/2000/svg" version="1.1" width="239px" height="211px" style="shape-rendering:geometricPrecision; text-rendering:geometricPrecision; image-rendering:optimizeQuality; fill-rule:evenodd; clip-rule:evenodd" xmlns:xlink="http://www.w3.org/1999/xlink">
<g><path style="opacity:1" fill="#fbfbfb" d="M -0.5,-0.5 C 79.1667,-0.5 158.833,-0.5 238.5,-0.5C 238.5,22.1667 238.5,44.8333 238.5,67.5C 228.44,52.494 214.106,45.3273 195.5,46C 202.788,42.3889 207.454,36.7223 209.5,29C 209.561,26.7395 208.894,24.7395 207.5,23C 200.855,19.1416 193.688,17.6416 186,18.5C 175.021,18.0441 164.521,20.0441 154.5,24.5C 154.167,24.3333 153.833,24.1667 153.5,24C 156.65,18.5657 157.817,12.7323 157,6.5C 155.2,2.765 152.2,1.09833 148,1.5C 135.734,3.97439 126.4,10.6411 120,21.5C 121.461,15.2617 123.461,9.26166 126,3.5C 123.688,6.64605 121.188,9.64605 118.5,12.5C 116.197,8.73032 113.531,5.23032 110.5,2C 109.668,1.31232 109.002,1.47899 108.5,2.5C 112.131,8.07102 114.298,14.071 115,20.5C 107.622,6.80426 96.1224,0.304257 80.5,1C 79.3333,1.5 78.5,2.33333 78,3.5C 76.3173,11.414 77.8173,18.5806 82.5,25C 73.0375,21.6793 63.2042,19.5126 53,18.5C 45.4697,19.0858 37.9697,19.9191 30.5,21C 23.5943,23.8115 21.761,28.6448 25,35.5C 27.9456,40.4449 32.1122,43.9449 37.5,46C 26.5851,45.48 16.5851,48.1467 7.5,54C 4.21655,56.772 1.54988,59.9386 -0.5,63.5C -0.5,42.1667 -0.5,20.8333 -0.5,-0.5 Z"/></g>
<g><path style="opacity:1" fill="#0d0909" d="M 238.5,67.5 C 238.5,68.5 238.5,69.5 238.5,70.5C 236.363,71.7874 234.03,72.6207 231.5,73C 224.5,73.3333 217.5,73.6667 210.5,74C 219.421,81.6805 225.421,91.1805 228.5,102.5C 228.615,110.117 224.949,112.95 217.5,111C 215.919,110.293 214.419,109.46 213,108.5C 217.78,128.767 215.946,148.434 207.5,167.5C 199.292,181.516 187.292,191.016 171.5,196C 134.453,209.965 97.4529,209.965 60.5,196C 54.0087,192.922 47.6754,189.588 41.5,186C 36.2277,181.235 31.5611,176.069 27.5,170.5C 17.7642,149.626 17.0975,128.46 25.5,107C 25.3333,106.5 25.1667,106 25,105.5C 14.4119,109.957 8.9119,106.457 8.5,95C 9.15575,85.3624 13.8224,78.3624 22.5,74C 13.6224,74.7079 5.9557,72.2079 -0.5,66.5C -0.5,65.5 -0.5,64.5 -0.5,63.5C 1.54988,59.9386 4.21655,56.772 7.5,54C 16.5851,48.1467 26.5851,45.48 37.5,46C 32.1122,43.9449 27.9456,40.4449 25,35.5C 21.761,28.6448 23.5943,23.8115 30.5,21C 37.9697,19.9191 45.4697,19.0858 53,18.5C 63.2042,19.5126 73.0375,21.6793 82.5,25C 77.8173,18.5806 76.3173,11.414 78,3.5C 78.5,2.33333 79.3333,1.5 80.5,1C 96.1224,0.304257 107.622,6.80426 115,20.5C 114.298,14.071 112.131,8.07102 108.5,2.5C 109.002,1.47899 109.668,1.31232 110.5,2C 113.531,5.23032 116.197,8.73032 118.5,12.5C 121.188,9.64605 123.688,6.64605 126,3.5C 123.461,9.26166 121.461,15.2617 120,21.5C 126.4,10.6411 135.734,3.97439 148,1.5C 152.2,1.09833 155.2,2.765 157,6.5C 157.817,12.7323 156.65,18.5657 153.5,24C 153.833,24.1667 154.167,24.3333 154.5,24.5C 164.521,20.0441 175.021,18.0441 186,18.5C 193.688,17.6416 200.855,19.1416 207.5,23C 208.894,24.7395 209.561,26.7395 209.5,29C 207.454,36.7223 202.788,42.3889 195.5,46C 214.106,45.3273 228.44,52.494 238.5,67.5 Z"/></g>
<g><path style="opacity:1" fill="#e9111b" d="M 204.5,28.5 C 202.015,33.1497 198.348,36.6497 193.5,39C 178.34,47.1659 162.34,49.4993 145.5,46C 144.643,45.3109 143.977,44.4776 143.5,43.5C 144.428,42.2322 144.595,40.8989 144,39.5C 135.332,44.3475 126.499,44.6808 117.5,40.5C 113.343,44.1603 108.843,44.4936 104,41.5C 91.4332,47.6925 78.2665,49.1925 64.5,46C 55.6201,44.0399 47.2868,40.7065 39.5,36C 36.1894,33.2052 33.5228,30.0385 31.5,26.5C 34.5575,24.8679 37.8909,23.7013 41.5,23C 59.7957,21.1556 76.7957,24.9889 92.5,34.5C 92.8333,34.3333 93.1667,34.1667 93.5,34C 84.3568,26.2371 80.5234,16.4037 82,4.5C 85.1743,3.27211 88.341,3.43877 91.5,5C 99.7998,8.30902 106.633,13.4757 112,20.5C 113.746,24.3267 115.746,27.9934 118,31.5C 123.989,17.6724 134.155,8.67238 148.5,4.5C 150.374,4.38977 151.874,5.05644 153,6.5C 154.921,16.0657 152.754,24.5657 146.5,32C 155.525,27.3231 165.192,23.9898 175.5,22C 182.5,21.3333 189.5,21.3333 196.5,22C 198.5,23 200.5,24 202.5,25C 203.823,25.8159 204.489,26.9826 204.5,28.5 Z"/></g>
<g><path style="opacity:1" fill="#fa6523" d="M 31.5,26.5 C 33.5228,30.0385 36.1894,33.2052 39.5,36C 47.2868,40.7065 55.6201,44.0399 64.5,46C 78.2665,49.1925 91.4332,47.6925 104,41.5C 108.843,44.4936 113.343,44.1603 117.5,40.5C 126.499,44.6808 135.332,44.3475 144,39.5C 144.595,40.8989 144.428,42.2322 143.5,43.5C 143.977,44.4776 144.643,45.3109 145.5,46C 162.34,49.4993 178.34,47.1659 193.5,39C 198.348,36.6497 202.015,33.1497 204.5,28.5C 205.281,31.6979 204.447,34.6979 202,37.5C 197.814,42.6743 192.647,46.5076 186.5,49C 188.134,49.4935 189.801,49.6602 191.5,49.5C 190.222,51.5442 190.388,53.5442 192,55.5C 203.531,62.5182 215.698,64.1849 228.5,60.5C 234.821,65.0477 234.488,68.2143 227.5,70C 221.167,70.6667 214.833,70.6667 208.5,70C 204.653,69.2176 200.986,68.2176 197.5,67C 205.711,72.3771 212.378,79.2104 217.5,87.5C 210.896,89.0493 204.563,88.216 198.5,85C 187.833,77.6667 177.167,70.3333 166.5,63C 158.078,58.3574 149.411,54.1907 140.5,50.5C 133.182,53.0038 125.849,53.0038 118.5,50.5C 114.5,51.1667 110.5,51.8333 106.5,52.5C 100.573,50.177 94.5729,50.0103 88.5,52C 81.1718,54.221 74.1718,57.221 67.5,61C 53.8066,70.5112 39.8066,79.5112 25.5,88C 18.449,89.7149 16.449,87.5482 19.5,81.5C 24.7689,76.417 30.7689,72.2503 37.5,69C 27.8244,69.9697 18.1578,69.6364 8.5,68C 2.36625,65.2743 2.36625,62.1076 8.5,58.5C 22.0996,61.0173 34.4329,58.0173 45.5,49.5C 47.1992,49.6602 48.8659,49.4935 50.5,49C 40.0093,46.3425 32.3426,40.1758 27.5,30.5C 27.9655,28.1917 29.2988,26.8584 31.5,26.5 Z"/></g>
<g><path style="opacity:1" fill="#e5111b" d="M 45.5,49.5 C 34.4329,58.0173 22.0996,61.0173 8.5,58.5C 19.6587,51.351 31.992,48.351 45.5,49.5 Z"/></g>
<g><path style="opacity:1" fill="#e8131b" d="M 191.5,49.5 C 205.232,48.9707 217.565,52.6374 228.5,60.5C 215.698,64.1849 203.531,62.5182 192,55.5C 190.388,53.5442 190.222,51.5442 191.5,49.5 Z"/></g>
<g><path style="opacity:1" fill="#f9ab2c" d="M 217.5,87.5 C 221.524,93.557 223.191,100.224 222.5,107.5C 216.666,107.166 211.333,105.333 206.5,102C 201.971,98.6365 197.971,94.8031 194.5,90.5C 194.5,91.1667 194.5,91.8333 194.5,92.5C 191.369,89.8712 188.369,87.0379 185.5,84C 183.655,82.872 181.655,82.372 179.5,82.5C 172.771,74.9644 164.771,69.131 155.5,65C 145.868,61.3703 136.534,62.037 127.5,67C 125.482,69.9341 123.148,72.4341 120.5,74.5C 118.676,69.1779 115.009,65.6779 109.5,64C 100.481,61.7353 91.8139,62.7353 83.5,67C 76.7859,71.0183 70.4525,75.5183 64.5,80.5C 61.8127,80.3359 59.146,80.5026 56.5,81C 51.47,84.8422 46.47,88.6755 41.5,92.5C 33.2201,101.434 23.3867,104.101 12,100.5C 10.3003,92.4204 12.8003,86.0871 19.5,81.5C 16.449,87.5482 18.449,89.7149 25.5,88C 39.8066,79.5112 53.8066,70.5112 67.5,61C 74.1718,57.221 81.1718,54.221 88.5,52C 94.5729,50.0103 100.573,50.177 106.5,52.5C 110.5,51.8333 114.5,51.1667 118.5,50.5C 125.849,53.0038 133.182,53.0038 140.5,50.5C 149.411,54.1907 158.078,58.3574 166.5,63C 177.167,70.3333 187.833,77.6667 198.5,85C 204.563,88.216 210.896,89.0493 217.5,87.5 Z"/></g>
<g><path style="opacity:1" fill="#0f110f" d="M 120.5,74.5 C 123.148,72.4341 125.482,69.9341 127.5,67C 136.534,62.037 145.868,61.3703 155.5,65C 164.771,69.131 172.771,74.9644 179.5,82.5C 188.282,92.8363 192.948,104.836 193.5,118.5C 193.19,128.454 189.19,136.454 181.5,142.5C 180.317,143.504 178.984,144.338 177.5,145C 180.377,145.956 183.044,147.289 185.5,149C 169.334,144.656 156.501,149.489 147,163.5C 147.863,159.469 150.03,156.136 153.5,153.5C 142.342,154.121 133.008,150.454 125.5,142.5C 123.66,136.851 121.66,136.518 119.5,141.5C 116.664,145.269 112.998,148.102 108.5,150C 101.33,152.195 93.9965,153.528 86.5,154C 88.9535,155.74 90.4535,157.907 91,160.5C 82.092,151.087 71.2586,147.254 58.5,149C 60.087,148.138 61.7536,147.471 63.5,147C 61.8043,145.824 60.1376,144.657 58.5,143.5C 49.0729,136.25 45.0729,126.583 46.5,114.5C 49.4856,101.529 55.4856,90.1958 64.5,80.5C 70.4525,75.5183 76.7859,71.0183 83.5,67C 91.8139,62.7353 100.481,61.7353 109.5,64C 115.009,65.6779 118.676,69.1779 120.5,74.5 Z"/></g>
<g><path style="opacity:1" fill="#fcfcfc" d="M 120.5,74.5 C 120.369,75.3764 120.702,76.0431 121.5,76.5C 130.14,65.421 141.14,62.2544 154.5,67C 172.845,75.855 185.012,90.0217 191,109.5C 193.444,125.108 187.944,136.941 174.5,145C 168.818,145.505 163.485,147.172 158.5,150C 143.152,153.15 131.152,148.317 122.5,135.5C 111.717,148.879 97.7174,154.046 80.5,151C 72.4639,149.162 65.1305,145.828 58.5,141C 46.9159,128.366 45.4159,114.533 54,99.5C 60.1074,90.3933 67.2741,82.2266 75.5,75C 80.7231,71.221 86.3898,68.221 92.5,66C 103.628,63.3231 112.961,66.1564 120.5,74.5 Z"/></g>
<g><path style="opacity:1" fill="#fdfdfd" d="M -0.5,66.5 C 5.9557,72.2079 13.6224,74.7079 22.5,74C 13.8224,78.3624 9.15575,85.3624 8.5,95C 8.9119,106.457 14.4119,109.957 25,105.5C 25.1667,106 25.3333,106.5 25.5,107C 17.0975,128.46 17.7642,149.626 27.5,170.5C 20.2492,172.035 14.4159,175.702 10,181.5C 9.33333,183.833 9.33333,186.167 10,188.5C 13.2102,192.187 17.0435,195.021 21.5,197C 27.9718,199.618 34.6385,201.618 41.5,203C 66.3433,205.242 91.01,207.742 115.5,210.5C 76.8333,210.5 38.1667,210.5 -0.5,210.5C -0.5,162.5 -0.5,114.5 -0.5,66.5 Z"/></g>
<g><path style="opacity:1" fill="#fbfbfb" d="M 238.5,70.5 C 238.5,117.167 238.5,163.833 238.5,210.5C 201.5,210.5 164.5,210.5 127.5,210.5C 151.613,207.321 175.946,204.821 200.5,203C 209.163,201.334 217.497,198.668 225.5,195C 236.934,188.672 237.267,182.005 226.5,175C 220.107,172.375 213.773,169.875 207.5,167.5C 215.946,148.434 217.78,128.767 213,108.5C 214.419,109.46 215.919,110.293 217.5,111C 224.949,112.95 228.615,110.117 228.5,102.5C 225.421,91.1805 219.421,81.6805 210.5,74C 217.5,73.6667 224.5,73.3333 231.5,73C 234.03,72.6207 236.363,71.7874 238.5,70.5 Z"/></g>
<g><path style="opacity:1" fill="#83c139" d="M 64.5,80.5 C 55.4856,90.1958 49.4856,101.529 46.5,114.5C 39.8333,114.5 33.1667,114.5 26.5,114.5C 27.0218,111.432 27.8551,108.432 29,105.5C 34.7389,102.596 38.9056,98.2627 41.5,92.5C 46.47,88.6755 51.47,84.8422 56.5,81C 59.146,80.5026 61.8127,80.3359 64.5,80.5 Z"/></g>
<g><path style="opacity:1" fill="#81bf39" d="M 179.5,82.5 C 181.655,82.372 183.655,82.872 185.5,84C 188.369,87.0379 191.369,89.8712 194.5,92.5C 198.096,97.9314 202.596,102.598 208,106.5C 209.949,110.629 211.116,114.963 211.5,119.5C 210.378,120.156 209.045,120.489 207.5,120.5C 202.807,119.925 198.14,119.258 193.5,118.5C 192.948,104.836 188.282,92.8363 179.5,82.5 Z"/></g>
<g><path style="opacity:1" fill="#30220e" d="M 194.5,90.5 C 192.915,89.9976 192.415,88.9976 193,87.5C 194.039,88.2438 194.539,89.2438 194.5,90.5 Z"/></g>
<g><path style="opacity:1" fill="#050505" d="M 103.5,97.5 C 109.59,98.0811 113.423,101.414 115,107.5C 116.447,115.156 115.28,122.322 111.5,129C 104.296,132.536 99.7963,130.369 98,122.5C 94.6151,112.907 96.4485,104.573 103.5,97.5 Z"/></g>
<g><path style="opacity:1" fill="#040404" d="M 133.5,97.5 C 141.149,96.9717 145.315,100.638 146,108.5C 146.772,113.904 146.439,119.238 145,124.5C 141.077,131.423 136.41,132.09 131,126.5C 125.719,116.215 126.552,106.548 133.5,97.5 Z"/></g>
<g><path style="opacity:1" fill="#ebebeb" d="M 135.5,100.5 C 139.295,99.9585 141.295,101.625 141.5,105.5C 140.257,110.31 137.757,111.31 134,108.5C 133.282,105.593 133.782,102.926 135.5,100.5 Z"/></g>
<g><path style="opacity:1" fill="#ebebeb" d="M 105.5,100.5 C 110.456,101.979 111.623,104.979 109,109.5C 105.561,111.192 103.395,110.192 102.5,106.5C 102.984,104.199 103.984,102.199 105.5,100.5 Z"/></g>
<g><path style="opacity:1" fill="#23b06a" d="M 26.5,114.5 C 33.1667,114.5 39.8333,114.5 46.5,114.5C 45.0729,126.583 49.0729,136.25 58.5,143.5C 47.012,144.495 35.3453,144.828 23.5,144.5C 23.3337,137.825 23.5004,131.158 24,124.5C 24.5348,120.962 25.3681,117.628 26.5,114.5 Z"/></g>
<g><path style="opacity:1" fill="#23b06a" d="M 193.5,118.5 C 198.14,119.258 202.807,119.925 207.5,120.5C 209.045,120.489 210.378,120.156 211.5,119.5C 212.833,127.833 212.833,136.167 211.5,144.5C 201.291,144.712 191.291,144.046 181.5,142.5C 189.19,136.454 193.19,128.454 193.5,118.5 Z"/></g>
<g><path style="opacity:1" fill="#22a965" d="M 125.5,142.5 C 123.265,142.795 121.265,142.461 119.5,141.5C 121.66,136.518 123.66,136.851 125.5,142.5 Z"/></g>
<g><path style="opacity:1" fill="#069092" d="M 119.5,141.5 C 121.265,142.461 123.265,142.795 125.5,142.5C 133.008,150.454 142.342,154.121 153.5,153.5C 150.03,156.136 147.863,159.469 147,163.5C 156.501,149.489 169.334,144.656 185.5,149C 183.044,147.289 180.377,145.956 177.5,145C 178.984,144.338 180.317,143.504 181.5,142.5C 191.291,144.046 201.291,144.712 211.5,144.5C 210.565,151.973 208.231,158.973 204.5,165.5C 188.485,176.23 170.818,182.73 151.5,185C 116.866,191.447 82.8663,189.113 49.5,178C 43.1136,174.807 36.7802,171.64 30.5,168.5C 26.1491,161.111 23.8158,153.111 23.5,144.5C 35.3453,144.828 47.012,144.495 58.5,143.5C 60.1376,144.657 61.8043,145.824 63.5,147C 61.7536,147.471 60.087,148.138 58.5,149C 71.2586,147.254 82.092,151.087 91,160.5C 90.4535,157.907 88.9535,155.74 86.5,154C 93.9965,153.528 101.33,152.195 108.5,150C 112.998,148.102 116.664,145.269 119.5,141.5 Z"/></g>
<g><path style="opacity:1" fill="#030b0b" d="M 154.5,163.5 C 158.019,164.309 159.352,166.309 158.5,169.5C 157.833,169.167 157.167,168.833 156.5,168.5C 133.751,182.425 110.585,183.091 87,170.5C 85.4615,171.749 84.2948,171.582 83.5,170C 84.7436,167.618 86.5769,165.785 89,164.5C 90.1405,166.078 90.6405,167.744 90.5,169.5C 111.426,180.534 132.093,180.034 152.5,168C 154.037,166.89 154.703,165.39 154.5,163.5 Z"/></g>
<g><path style="opacity:1" fill="#6859b1" d="M 204.5,165.5 C 197.644,178.784 186.977,187.617 172.5,192C 135.595,206.894 98.595,207.227 61.5,193C 48.2921,188.273 37.9588,180.107 30.5,168.5C 36.7802,171.64 43.1136,174.807 49.5,178C 82.8663,189.113 116.866,191.447 151.5,185C 170.818,182.73 188.485,176.23 204.5,165.5 Z"/></g>
<g><path style="opacity:1" fill="#989898" d="M 207.5,167.5 C 213.773,169.875 220.107,172.375 226.5,175C 237.267,182.005 236.934,188.672 225.5,195C 217.497,198.668 209.163,201.334 200.5,203C 175.946,204.821 151.613,207.321 127.5,210.5C 123.5,210.5 119.5,210.5 115.5,210.5C 91.01,207.742 66.3433,205.242 41.5,203C 34.6385,201.618 27.9718,199.618 21.5,197C 17.0435,195.021 13.2102,192.187 10,188.5C 9.33333,186.167 9.33333,183.833 10,181.5C 14.4159,175.702 20.2492,172.035 27.5,170.5C 31.5611,176.069 36.2277,181.235 41.5,186C 47.6754,189.588 54.0087,192.922 60.5,196C 97.4529,209.965 134.453,209.965 171.5,196C 187.292,191.016 199.292,181.516 207.5,167.5 Z"/></g>
</svg>
