<?xml version="1.0" encoding="UTF-8"?>
<!DOCTYPE svg PUBLIC "-//W3C//DTD SVG 1.1//EN" "http://www.w3.org/Graphics/SVG/1.1/DTD/svg11.dtd">
<svg xmlns="http://www.w3.org/2000/svg" version="1.1" width="1836px" height="1775px" style="shape-rendering:geometricPrecision; text-rendering:geometricPrecision; image-rendering:optimizeQuality; fill-rule:evenodd; clip-rule:evenodd" xmlns:xlink="http://www.w3.org/1999/xlink">
<g><path style="opacity:1" fill="#4c3441" d="M 1072.5,-0.5 C 1074.5,-0.5 1076.5,-0.5 1078.5,-0.5C 1082.54,1.24221 1086.71,2.90888 1091,4.5C 1092.18,8.76763 1093.18,13.101 1094,17.5C 1092.99,30.8743 1091.33,44.2077 1089,57.5C 1075,108.167 1061,158.833 1047,209.5C 1042.37,220.729 1038.37,232.062 1035,243.5C 1061.22,224.798 1089.39,209.298 1119.5,197C 1152.89,184.537 1186.56,172.87 1220.5,162C 1288.11,142.091 1357.11,133.757 1427.5,137C 1461.8,139.526 1495.13,146.526 1527.5,158C 1529,159.5 1530.5,161 1532,162.5C 1532.12,167.894 1531.46,173.227 1530,178.5C 1512.28,202.555 1494.95,226.889 1478,251.5C 1460.58,270.916 1443.91,290.916 1428,311.5C 1414.17,323.333 1400.33,335.167 1386.5,347C 1409.53,347.968 1432.53,349.301 1455.5,351C 1500.52,358.559 1545.52,366.225 1590.5,374C 1603.38,377.738 1616.05,382.071 1628.5,387C 1649.86,396.683 1671.2,406.35 1692.5,416C 1710.67,427.584 1729,438.917 1747.5,450C 1772.3,473.136 1796.8,496.636 1821,520.5C 1832.98,535.9 1830.48,548.4 1813.5,558C 1806.38,566.897 1797.71,573.897 1787.5,579C 1766.51,590.995 1744.84,601.661 1722.5,611C 1688.88,620.572 1654.88,628.905 1620.5,636C 1642.92,644.799 1663.59,656.465 1682.5,671C 1697.64,685.137 1712.47,699.637 1727,714.5C 1727.33,714.167 1727.67,713.833 1728,713.5C 1759.58,741.068 1787.58,771.735 1812,805.5C 1819.88,823.923 1827.72,842.256 1835.5,860.5C 1835.5,864.5 1835.5,868.5 1835.5,872.5C 1834.51,879.707 1833.51,887.041 1832.5,894.5C 1833.04,895.748 1833.71,896.915 1834.5,898C 1829.17,903 1823.83,908 1818.5,913C 1791.48,922.257 1764.14,930.59 1736.5,938C 1727.81,938.168 1719.15,938.668 1710.5,939.5C 1721.5,958.833 1733,977.833 1745,996.5C 1759.51,1026.18 1774.51,1055.52 1790,1084.5C 1799.02,1113.23 1807.02,1142.23 1814,1171.5C 1819.01,1201.64 1820.68,1231.98 1819,1262.5C 1818.67,1273.5 1818.33,1284.5 1818,1295.5C 1815.75,1304.77 1813.75,1314.11 1812,1323.5C 1799.47,1360.09 1787.14,1396.76 1775,1433.5C 1768.59,1445.99 1761.92,1458.33 1755,1470.5C 1735.33,1496.83 1715.67,1523.17 1696,1549.5C 1669.83,1572.33 1643.67,1595.17 1617.5,1618C 1612.54,1619.48 1608.21,1621.98 1604.5,1625.5C 1603.93,1623.57 1602.77,1622.23 1601,1621.5C 1570.43,1642.88 1537.93,1661.38 1503.5,1677C 1465.18,1694.55 1425.85,1709.55 1385.5,1722C 1345.88,1732.16 1306.21,1742.16 1266.5,1752C 1192.53,1764.68 1118.19,1772.18 1043.5,1774.5C 1017.5,1774.5 991.5,1774.5 965.5,1774.5C 902.939,1770.99 840.273,1766.82 777.5,1762C 754.809,1757.8 732.143,1753.46 709.5,1749C 683.833,1740.67 658.167,1732.33 632.5,1724C 550.009,1687.67 483.509,1632.17 433,1557.5C 425.269,1545.43 417.935,1533.09 411,1520.5C 407.216,1520.27 404.216,1518.61 402,1515.5C 356.234,1427.76 340.4,1334.76 354.5,1236.5C 354.167,1235.83 353.833,1235.17 353.5,1234.5C 348.291,1237.69 342.624,1239.19 336.5,1239C 298.507,1240.39 260.507,1241.05 222.5,1241C 213.843,1238.34 205.176,1235.67 196.5,1233C 194.291,1231.13 192.458,1228.96 191,1226.5C 181.787,1181.23 184.12,1136.57 198,1092.5C 208.946,1059.95 223.612,1029.28 242,1000.5C 255.167,983.333 268.333,966.167 281.5,949C 267.494,948.433 253.494,948.6 239.5,949.5C 202.177,947.167 164.843,945.001 127.5,943C 92.2331,938.342 56.8997,934.342 21.5,931C 14.7662,928.466 8.43287,925.133 2.5,921C 1.55221,917.39 0.552209,913.89 -0.5,910.5C -0.5,908.833 -0.5,907.167 -0.5,905.5C 6.01755,889.81 12.8509,874.144 20,858.5C 35.6724,832.482 52.3391,807.148 70,782.5C 113.232,728.613 166.399,687.446 229.5,659C 245.369,652.282 261.703,646.948 278.5,643C 308.64,638.107 338.974,635.441 369.5,635C 355.328,626.746 340.995,618.746 326.5,611C 280.659,579.58 234.992,547.913 189.5,516C 171.705,501.207 154.205,486.04 137,470.5C 134.732,465.803 132.898,460.969 131.5,456C 132.067,449.472 135.233,445.638 141,444.5C 185.269,418.184 233.102,401.351 284.5,394C 307.833,391 331.167,388 354.5,385C 373.876,384.336 393.209,385.002 412.5,387C 454.181,392.907 495.847,398.907 537.5,405C 546.536,406.734 555.203,409.568 563.5,413.5C 564.521,412.998 564.688,412.332 564,411.5C 548.496,386.497 533.496,361.163 519,335.5C 510.542,313.588 502.375,291.588 494.5,269.5C 496.46,269.149 498.293,267.816 500,265.5C 500.667,268.167 501.333,268.167 502,265.5C 504.298,266.446 506.132,265.779 507.5,263.5C 518.301,287.107 529.134,310.774 540,334.5C 551,352.167 562,369.833 573,387.5C 585.333,403.5 597.667,419.5 610,435.5C 609.53,429.14 608.53,422.807 607,416.5C 604.732,385.551 607.232,355.051 614.5,325C 613.74,323.559 613.074,322.059 612.5,320.5C 619.221,293.948 626.721,267.615 635,241.5C 641.922,223.657 649.922,206.324 659,189.5C 669.912,174.676 680.579,159.676 691,144.5C 707.383,123.783 726.05,105.45 747,89.5C 747.873,89.7355 748.707,90.0688 749.5,90.5C 751.053,86.6367 753.886,84.3034 758,83.5C 757.96,96.0678 754.293,107.401 747,117.5C 724.671,158.155 707.338,200.821 695,245.5C 691.434,259.665 688.767,273.998 687,288.5C 686.527,290.779 685.527,292.779 684,294.5C 683.333,319.167 683.333,343.833 684,368.5C 696.006,324.494 714.006,283.161 738,244.5C 788.735,164.097 854.902,99.5972 936.5,51C 979.322,27.2256 1024.66,10.0589 1072.5,-0.5 Z"/></g>
<g><path style="opacity:1" fill="#fdf0fe" d="M 1004.5,253.5 C 1001.8,253.341 999.799,252.174 998.5,250C 1003.51,224.969 1008.51,199.969 1013.5,175C 1013.18,169.409 1013.18,163.242 1013.5,156.5C 1012.54,146.325 1009.87,136.658 1005.5,127.5C 979.773,139.1 955.44,152.934 932.5,169C 904.035,189.233 876.702,210.9 850.5,234C 793.602,291.584 749.435,357.75 718,432.5C 703.692,468.521 694.525,505.521 690.5,543.5C 637.387,511.181 580.221,489.181 519,477.5C 503.567,477.365 488.567,477.365 474,477.5C 466.333,476.833 458.667,476.167 451,475.5C 448.667,475.833 446.333,476.167 444,476.5C 434,475.833 424,475.167 414,474.5C 409.579,474.255 404.913,474.588 400,475.5C 367.153,473.396 334.986,472.562 303.5,473C 286.433,476.011 269.433,479.344 252.5,483C 319.67,537.341 386.67,591.841 453.5,646.5C 452.069,648.938 450.069,650.604 447.5,651.5C 428.549,644.524 410.549,635.691 393.5,625C 317.305,571.736 241.639,517.736 166.5,463C 165.549,462.282 165.383,461.449 166,460.5C 203.578,439.641 243.744,426.141 286.5,420C 320.309,416.863 354.142,414.03 388,411.5C 413.827,414.06 439.661,416.56 465.5,419C 481.244,422.706 496.911,426.706 512.5,431C 517.143,431.83 521.81,432.497 526.5,433C 536.88,437.85 547.546,442.184 558.5,446C 567.802,450.985 577.135,455.985 586.5,461C 602.339,471.423 618.672,481.089 635.5,490C 638.465,495.289 642.132,499.956 646.5,504C 648.888,504.865 650.388,504.032 651,501.5C 651.667,499.167 651.667,496.833 651,494.5C 643.906,467.124 638.239,439.457 634,411.5C 631.463,381.417 632.129,351.417 636,321.5C 639.667,304.831 643.334,288.164 647,271.5C 651.704,259.193 656.871,247.193 662.5,235.5C 666.534,235.505 670.534,235.838 674.5,236.5C 669.259,262.871 664.092,289.205 659,315.5C 657.667,340.488 657.334,365.488 658,390.5C 663.569,418.343 669.902,446.009 677,473.5C 677.168,482.518 677.668,491.518 678.5,500.5C 681.04,502.139 683.207,501.806 685,499.5C 687.572,474.973 692.572,450.973 700,427.5C 700.918,419.157 701.918,410.824 703,402.5C 704.252,400.999 705.252,399.332 706,397.5C 728.505,306.299 773.338,228.132 840.5,163C 902.991,104.727 974.991,61.7271 1056.5,34C 1062.09,32.0174 1067.76,30.6841 1073.5,30C 1066.67,34.8418 1062.17,41.3418 1060,49.5C 1056.84,79.6461 1051.17,109.313 1043,138.5C 1032.64,177.748 1019.81,216.081 1004.5,253.5 Z"/></g>
<g><path style="opacity:1" fill="#fecafe" d="M 1004.5,253.5 C 994.015,277.807 983.515,302.141 973,326.5C 967.5,335.5 962,344.5 956.5,353.5C 957.384,355.942 959.051,356.775 961.5,356C 968.046,348.292 974.38,340.459 980.5,332.5C 982.149,333.649 983.649,334.982 985,336.5C 1093.72,250.449 1215.05,211.782 1349,220.5C 1355.27,219.471 1361.1,218.804 1366.5,218.5C 1387.76,221.126 1409.1,223.293 1430.5,225C 1392.88,272.29 1354.88,319.29 1316.5,366C 1316.73,366.399 1317.06,366.565 1317.5,366.5C 1315.91,367.983 1314.24,369.483 1312.5,371C 1300.9,377.604 1289.57,384.604 1278.5,392C 1297.76,388.524 1317.1,385.19 1336.5,382C 1341.49,381.501 1346.49,381.334 1351.5,381.5C 1347.69,382.324 1343.69,382.824 1339.5,383C 1362.46,389.279 1385.29,395.779 1408,402.5C 1485.33,403.874 1558.83,422.374 1628.5,458C 1661.37,477.599 1694.37,496.932 1727.5,516C 1743.78,528.796 1760.45,540.963 1777.5,552.5C 1772.07,556.083 1766.74,559.916 1761.5,564C 1757.19,565.823 1752.86,567.323 1748.5,568.5C 1747.67,567.671 1748,566.838 1749.5,566C 1747.73,563.313 1745.56,563.147 1743,565.5C 1739.44,565.325 1735.94,565.325 1732.5,565.5C 1722.76,566.537 1712.93,568.204 1703,570.5C 1698.3,570.35 1693.63,570.35 1689,570.5C 1681.04,571.766 1673.37,573.1 1666,574.5C 1663.96,573.715 1661.96,574.048 1660,575.5C 1659,575.167 1658,574.833 1657,574.5C 1646.49,576.532 1636.16,578.198 1626,579.5C 1621.94,579.432 1617.94,579.432 1614,579.5C 1570.72,585.388 1533.22,604.222 1501.5,636C 1506.02,637.984 1510.52,637.817 1515,635.5C 1518.33,635.5 1521.67,635.5 1525,635.5C 1526.67,634.833 1528.33,634.167 1530,633.5C 1531.34,634.214 1532.68,633.88 1534,632.5C 1536.42,633.488 1538.75,633.155 1541,631.5C 1545.59,631.654 1550.09,631.654 1554.5,631.5C 1544.33,634.293 1534,636.959 1523.5,639.5C 1538.2,640.627 1552.7,639.294 1567,635.5C 1570.05,638.412 1573.22,641.245 1576.5,644C 1589.83,648 1603.17,652 1616.5,656C 1647.28,672.12 1675.28,692.12 1700.5,716C 1733.28,748.427 1763.44,782.927 1791,819.5C 1797.39,829.609 1802.72,840.276 1807,851.5C 1808.05,859.478 1808.88,867.478 1809.5,875.5C 1809.44,877.653 1808.44,878.986 1806.5,879.5C 1804.79,877.187 1802.46,875.687 1799.5,875C 1795.25,874.8 1791.08,874.3 1787,873.5C 1785.42,873.493 1783.75,873.826 1782,874.5C 1730.88,865.288 1680.72,848.288 1631.5,823.5C 1630.42,824.365 1630.25,825.365 1631,826.5C 1636.95,840.733 1643.11,854.4 1649.5,867.5C 1656.28,887.272 1662.45,907.272 1668,927.5C 1690.59,965.002 1712.92,1002.67 1735,1040.5C 1742.4,1056.97 1750.07,1073.31 1758,1089.5C 1764.18,1111.88 1770.51,1134.21 1777,1156.5C 1781.16,1184 1782.99,1211.66 1782.5,1239.5C 1780.66,1238.25 1778.83,1238.25 1777,1239.5C 1765.48,1312.19 1735.48,1375.86 1687,1430.5C 1664.12,1451.68 1640.95,1472.52 1617.5,1493C 1596.55,1505.64 1575.88,1518.64 1555.5,1532C 1545.89,1535.81 1536.56,1540.14 1527.5,1545C 1505.53,1553.83 1483.53,1562.33 1461.5,1570.5C 1414.98,1581.2 1369.48,1592.2 1325,1603.5C 1324.59,1603.04 1324.09,1602.71 1323.5,1602.5C 1311.95,1604.38 1300.45,1606.38 1289,1608.5C 1288.5,1604.85 1288.33,1601.18 1288.5,1597.5C 1290.18,1520.17 1317.68,1453.84 1371,1398.5C 1372,1396.17 1373,1393.83 1374,1391.5C 1381.93,1387.02 1390.09,1383.02 1398.5,1379.5C 1408.98,1372.41 1418.98,1364.58 1428.5,1356C 1411.23,1358.9 1394.23,1363.23 1377.5,1369C 1311.85,1401.15 1245.19,1431.15 1177.5,1459C 1161.81,1463.35 1146.48,1468.01 1131.5,1473C 1117.91,1476.05 1104.24,1478.72 1090.5,1481C 1060.44,1483.81 1032.44,1477.81 1006.5,1463C 994.416,1454.76 985.082,1444.26 978.5,1431.5C 1004.29,1424.18 1029.96,1416.35 1055.5,1408C 1057.25,1405.91 1058.58,1403.58 1059.5,1401C 1057.35,1398.52 1054.85,1396.35 1052,1394.5C 1040.26,1396.58 1028.43,1398.08 1016.5,1399C 979.592,1409.08 942.592,1418.75 905.5,1428C 898.769,1430.3 896.436,1434.8 898.5,1441.5C 903.01,1444.5 907.843,1446.84 913,1448.5C 928,1444.47 943.166,1441.14 958.5,1438.5C 958.799,1442.11 959.965,1445.44 962,1448.5C 967.976,1459.15 975.476,1468.65 984.5,1477C 988.545,1479.57 992.878,1481.57 997.5,1483C 1000.09,1485.76 1002.76,1488.26 1005.5,1490.5C 1017.54,1515.92 1029.04,1541.59 1040,1567.5C 1052.31,1587.31 1068.15,1603.65 1087.5,1616.5C 1085.88,1616.36 1084.71,1617.03 1084,1618.5C 1078.21,1616.85 1072.21,1615.85 1066,1615.5C 1057.79,1615.36 1049.79,1615.36 1042,1615.5C 1034.66,1614.56 1027.33,1613.56 1020,1612.5C 1018.73,1612.62 1017.4,1612.95 1016,1613.5C 1014.33,1612.83 1012.67,1612.17 1011,1611.5C 1006,1611.63 1000.67,1611.63 995,1611.5C 994,1610.83 993,1610.17 992,1609.5C 987.462,1609.16 983.128,1609.16 979,1609.5C 974.764,1608.07 970.431,1607.07 966,1606.5C 897.106,1597.52 828.94,1577.35 761.5,1546C 675.306,1504.18 602.306,1445.51 542.5,1370C 536.754,1360.82 530.254,1351.65 523,1342.5C 512.781,1325.32 502.614,1307.15 492.5,1288C 492.833,1287.67 493.167,1287.33 493.5,1287C 483.726,1266.23 476.726,1244.89 472.5,1223C 471.921,1219.86 470.921,1216.86 469.5,1214C 469.833,1213.67 470.167,1213.33 470.5,1213C 469.872,1210.2 468.872,1207.53 467.5,1205C 467.665,1203.88 467.998,1202.72 468.5,1201.5C 467.241,1196.33 466.241,1191.16 465.5,1186C 466.174,1184.25 466.507,1182.58 466.5,1181C 465.756,1179.96 464.756,1179.46 463.5,1179.5C 471.142,1172.7 478.975,1166.03 487,1159.5C 487.499,1155.85 487.665,1152.18 487.5,1148.5C 484.482,1148.34 481.482,1148.5 478.5,1149C 472.14,1152.51 465.806,1156.01 459.5,1159.5C 474.248,1143.92 489.248,1128.42 504.5,1113C 504.167,1112.67 503.833,1112.33 503.5,1112C 504.5,1111.67 505.5,1111.33 506.5,1111C 506.167,1110.67 505.833,1110.33 505.5,1110C 512.529,1103.97 519.196,1097.64 525.5,1091C 472.841,1113.6 419.341,1133.43 365,1150.5C 364.667,1150.17 364.333,1149.83 364,1149.5C 350.31,1153.94 336.976,1157.28 324,1159.5C 318.333,1159.5 312.667,1159.5 307,1159.5C 304.546,1158.66 302.046,1157.66 299.5,1156.5C 298.914,1156.71 298.414,1157.04 298,1157.5C 295.274,1156.3 292.608,1155.3 290,1154.5C 289.667,1154.83 289.333,1155.17 289,1155.5C 284.105,1153.88 279.438,1152.55 275,1151.5C 272.812,1152.45 270.478,1152.45 268,1151.5C 265.395,1149.68 262.728,1149.01 260,1149.5C 253.941,1143.39 249.941,1136.06 248,1127.5C 247.136,1121.27 245.969,1115.44 244.5,1110C 245.779,1102.73 245.779,1095.39 244.5,1088C 245.167,1085 245.833,1082 246.5,1079C 245.981,1076.97 245.647,1074.97 245.5,1073C 247.146,1071.45 247.479,1069.78 246.5,1068C 247.133,1064.24 248.133,1060.57 249.5,1057C 249.167,1056 248.833,1055 248.5,1054C 250.956,1051.63 251.789,1048.8 251,1045.5C 250.583,1046.76 249.75,1047.42 248.5,1047.5C 262.989,1023.86 277.489,1000.19 292,976.5C 308.467,958.365 325.301,940.531 342.5,923C 361.126,908.021 380.459,894.021 400.5,881C 408.347,876.91 416.347,873.077 424.5,869.5C 425.583,868.635 425.749,867.635 425,866.5C 423.89,868.037 422.39,868.703 420.5,868.5C 421.462,866.547 421.795,864.714 421.5,863C 419.225,858.958 415.225,856.458 409.5,855.5C 403.528,856.372 397.361,856.039 391,854.5C 389.732,854.616 388.398,854.949 387,855.5C 385.559,854.74 384.059,854.074 382.5,853.5C 380.419,854.035 378.253,854.369 376,854.5C 374.295,853.237 372.628,852.903 371,853.5C 364.76,852.662 358.26,851.662 351.5,850.5C 349.36,851.106 347.193,850.773 345,849.5C 343.093,849.421 341.093,849.754 339,850.5C 337,849.833 335,849.167 333,848.5C 332.667,848.833 332.333,849.167 332,849.5C 326.834,848.399 321.334,847.399 315.5,846.5C 312.643,847.169 309.81,846.836 307,845.5C 305.093,845.421 303.093,845.754 301,846.5C 299.667,845.833 298.333,845.167 297,844.5C 286.63,843.358 276.297,843.358 266,844.5C 199.248,856.811 133.748,877.478 69.5,906.5C 69.1667,906.833 68.8333,907.167 68.5,907.5C 69.9492,908.172 71.2825,908.839 72.5,909.5C 63.3798,908.721 54.3798,907.388 45.5,905.5C 100.905,839.971 165.571,785.471 239.5,742C 275.295,722.291 313.462,709.791 354,704.5C 355,704.833 356,705.167 357,705.5C 361,704.833 365,704.167 369,703.5C 369.333,703.833 369.667,704.167 370,704.5C 388.622,703.337 406.955,702.004 425,700.5C 427.176,700.428 429.176,700.762 431,701.5C 441.716,700.429 452.716,699.429 464,698.5C 465.398,699.051 466.732,699.384 468,699.5C 473.394,698.035 478.728,696.369 484,694.5C 500.064,696.774 515.397,698.441 530,699.5C 532,700.167 534,700.833 536,701.5C 536.333,701.167 536.667,700.833 537,700.5C 542.39,701.944 547.89,702.444 553.5,702C 531.531,692.349 509.698,682.516 488,672.5C 459.712,669.957 430.712,666.624 401,662.5C 400.667,662.833 400.333,663.167 400,663.5C 397.723,662.883 395.556,662.216 393.5,661.5C 411.17,662.232 428.837,662.732 446.5,663C 448.5,661.333 450.5,659.667 452.5,658C 450.946,655.713 449.279,653.546 447.5,651.5C 450.069,650.604 452.069,648.938 453.5,646.5C 386.67,591.841 319.67,537.341 252.5,483C 269.433,479.344 286.433,476.011 303.5,473C 334.986,472.562 367.153,473.396 400,475.5C 404.913,474.588 409.579,474.255 414,474.5C 424,475.167 434,475.833 444,476.5C 446.333,476.167 448.667,475.833 451,475.5C 458.667,476.167 466.333,476.833 474,477.5C 488.567,477.365 503.567,477.365 519,477.5C 580.221,489.181 637.387,511.181 690.5,543.5C 694.525,505.521 703.692,468.521 718,432.5C 749.435,357.75 793.602,291.584 850.5,234C 876.702,210.9 904.035,189.233 932.5,169C 955.44,152.934 979.773,139.1 1005.5,127.5C 1009.87,136.658 1012.54,146.325 1013.5,156.5C 1013.18,163.242 1013.18,169.409 1013.5,175C 1008.51,199.969 1003.51,224.969 998.5,250C 999.799,252.174 1001.8,253.341 1004.5,253.5 Z"/></g>
<g><path style="opacity:1" fill="#412c38" d="M 507.5,263.5 C 506.132,265.779 504.298,266.446 502,265.5C 501.333,268.167 500.667,268.167 500,265.5C 498.293,267.816 496.46,269.149 494.5,269.5C 483.45,231.604 480.283,192.938 485,153.5C 484.837,169.695 486.503,185.695 490,201.5C 495.215,222.364 501.049,243.031 507.5,263.5 Z"/></g>
<g><path style="opacity:1" fill="#fdf0fe" d="M 1317.5,366.5 C 1317.06,366.565 1316.73,366.399 1316.5,366C 1354.88,319.29 1392.88,272.29 1430.5,225C 1409.1,223.293 1387.76,221.126 1366.5,218.5C 1361.1,218.804 1355.27,219.471 1349,220.5C 1215.05,211.782 1093.72,250.449 985,336.5C 983.649,334.982 982.149,333.649 980.5,332.5C 992.238,317.926 1005.24,304.426 1019.5,292C 1076.83,244.441 1141.16,209.108 1212.5,186C 1219.9,183.199 1227.57,181.866 1235.5,182C 1318.17,177.921 1400.83,174.254 1483.5,171C 1488.4,172.594 1493.4,173.761 1498.5,174.5C 1499.93,174.733 1500.43,175.4 1500,176.5C 1481,201.5 1462,226.5 1443,251.5C 1422.2,273.97 1401.03,296.136 1379.5,318C 1358.67,334 1338,350.166 1317.5,366.5 Z"/></g>
<g><path style="opacity:1" fill="#f5c6f6" d="M 674.5,236.5 C 670.534,235.838 666.534,235.505 662.5,235.5C 671.937,216.634 682.437,198.301 694,180.5C 689.346,193.501 684.346,206.501 679,219.5C 677.961,225.326 676.461,230.993 674.5,236.5 Z"/></g>
<g><path style="opacity:1" fill="#fdf0fe" d="M 1777.5,552.5 C 1760.45,540.963 1743.78,528.796 1727.5,516C 1694.37,496.932 1661.37,477.599 1628.5,458C 1558.83,422.374 1485.33,403.874 1408,402.5C 1385.29,395.779 1362.46,389.279 1339.5,383C 1343.69,382.824 1347.69,382.324 1351.5,381.5C 1373.37,380.848 1395.2,379.515 1417,377.5C 1447.47,380.384 1477.97,382.884 1508.5,385C 1603.54,400.088 1687.87,438.088 1761.5,499C 1768.57,505.949 1775.74,512.782 1783,519.5C 1786.46,523.595 1789.3,528.095 1791.5,533C 1787.2,539.777 1782.53,546.277 1777.5,552.5 Z"/></g>
<g><path style="opacity:1" fill="#040303" d="M 1204.5,534.5 C 1216.56,537.962 1228.89,540.795 1241.5,543C 1248.55,545.072 1255.55,547.239 1262.5,549.5C 1326.2,571.673 1384.53,603.173 1437.5,644C 1484,678.5 1524.5,719 1559,765.5C 1571.16,782.987 1582.49,800.987 1593,819.5C 1603.82,841.479 1613.82,863.812 1623,886.5C 1630.6,908.575 1636.43,930.909 1640.5,953.5C 1644.57,1001.65 1636.57,1047.65 1616.5,1091.5C 1596.75,1133.09 1568.08,1167.26 1530.5,1194C 1516.95,1200.27 1503.62,1206.77 1490.5,1213.5C 1486.12,1215.85 1481.46,1217.35 1476.5,1218C 1413.5,1221.5 1350.5,1225 1287.5,1228.5C 1286.87,1229.42 1286.54,1230.42 1286.5,1231.5C 1278.52,1245.46 1271.02,1259.79 1264,1274.5C 1248.9,1288.11 1233.4,1301.11 1217.5,1313.5C 1207.81,1312.22 1198.14,1310.72 1188.5,1309C 1186.88,1308.76 1185.88,1307.93 1185.5,1306.5C 1204.97,1302.35 1221.14,1292.68 1234,1277.5C 1242.09,1266.98 1250.43,1256.65 1259,1246.5C 1265.22,1229.23 1269.72,1211.57 1272.5,1193.5C 1274.05,1188.98 1275.55,1184.31 1277,1179.5C 1280.45,1175.21 1284.45,1174.54 1289,1177.5C 1290.2,1182.3 1291.37,1186.96 1292.5,1191.5C 1292.5,1196.83 1292.5,1202.17 1292.5,1207.5C 1316.59,1209.01 1340.59,1211.51 1364.5,1215C 1386.91,1215.12 1409.25,1213.79 1431.5,1211C 1440.65,1208.1 1449.99,1205.76 1459.5,1204C 1467.19,1200.49 1474.86,1196.99 1482.5,1193.5C 1491.72,1189.89 1500.72,1185.73 1509.5,1181C 1520.99,1172.42 1532.66,1164.09 1544.5,1156C 1570.94,1132.32 1589.78,1103.49 1601,1069.5C 1609.4,1042.43 1613.9,1014.76 1614.5,986.5C 1614.43,971.152 1613.93,955.819 1613,940.5C 1607.33,919.167 1601.67,897.833 1596,876.5C 1581.48,838.1 1561.81,802.767 1537,770.5C 1527.36,759.863 1517.36,749.529 1507,739.5C 1450.96,678.798 1385.79,630.298 1311.5,594C 1263.31,570.607 1212.47,556.107 1159,550.5C 1137.48,552.794 1115.98,555.294 1094.5,558C 1090.44,558.767 1086.44,558.6 1082.5,557.5C 1057.43,572.783 1042.93,595.116 1039,624.5C 1037.67,635.474 1037.33,646.474 1038,657.5C 1040.74,669.762 1042.74,682.095 1044,694.5C 1023.3,674.236 999.801,658.069 973.5,646C 933.726,631.743 896.392,636.41 861.5,660C 859.237,661.617 857.237,663.45 855.5,665.5C 847.779,670.374 840.446,675.874 833.5,682C 804.939,709.657 781.106,740.824 762,775.5C 704.429,884.019 677.429,999.686 681,1122.5C 682.587,1150.52 686.587,1178.18 693,1205.5C 700.831,1238.34 716.331,1266.84 739.5,1291C 760.834,1309.99 785.834,1320.83 814.5,1323.5C 818.647,1324.32 822.981,1324.82 827.5,1325C 816.042,1327.93 804.709,1331.26 793.5,1335C 794.833,1336.67 796.167,1338.33 797.5,1340C 797.272,1340.4 796.938,1340.57 796.5,1340.5C 751.779,1333.9 717.946,1311.24 695,1272.5C 687.975,1259.46 681.808,1246.12 676.5,1232.5C 661.688,1181.59 655.688,1129.59 658.5,1076.5C 663.786,960.68 694.286,852.013 750,750.5C 768.3,718.517 790.8,689.683 817.5,664C 829.509,653.809 842.176,644.642 855.5,636.5C 881.701,621.033 910.034,614.2 940.5,616C 951.152,617.428 961.486,619.928 971.5,623.5C 987.115,628.808 1002.12,635.475 1016.5,643.5C 1016.56,644.043 1016.89,644.376 1017.5,644.5C 1018.5,638.537 1018.83,632.537 1018.5,626.5C 1020.69,584.97 1040.69,555.47 1078.5,538C 1091.98,532.372 1105.98,529.039 1120.5,528C 1139.51,527.389 1158.51,527.723 1177.5,529C 1186.36,531.622 1195.36,533.455 1204.5,534.5 Z"/></g>
<g><path style="opacity:1" fill="#e1bde0" d="M 1204.5,534.5 C 1211.94,535.188 1219.27,536.521 1226.5,538.5C 1227.77,538.43 1228.94,538.097 1230,537.5C 1230.83,538.5 1231.67,539.5 1232.5,540.5C 1233.96,540.368 1235.46,540.035 1237,539.5C 1237.95,539.905 1238.61,540.572 1239,541.5C 1239.33,540.833 1239.67,540.167 1240,539.5C 1241.51,540.257 1242.85,541.257 1244,542.5C 1244.33,542.167 1244.67,541.833 1245,541.5C 1250.17,543.415 1255.34,545.248 1260.5,547C 1261.38,547.708 1262.05,548.542 1262.5,549.5C 1255.55,547.239 1248.55,545.072 1241.5,543C 1228.89,540.795 1216.56,537.962 1204.5,534.5 Z"/></g>
<g><path style="opacity:1" fill="#fefefe" d="M 1482.5,1193.5 C 1482.33,1191.14 1481.99,1188.81 1481.5,1186.5C 1466.17,1189.6 1450.84,1192.77 1435.5,1196C 1413.41,1196.31 1391.41,1195.48 1369.5,1193.5C 1362.97,1193.52 1356.47,1193.52 1350,1193.5C 1339.17,1193 1328.5,1191.33 1318,1188.5C 1316.6,1189.05 1315.27,1189.38 1314,1189.5C 1307.35,1187.34 1300.52,1186 1293.5,1185.5C 1293.79,1187.74 1293.46,1189.74 1292.5,1191.5C 1291.37,1186.96 1290.2,1182.3 1289,1177.5C 1284.45,1174.54 1280.45,1175.21 1277,1179.5C 1275.55,1184.31 1274.05,1188.98 1272.5,1193.5C 1268.26,1192.73 1264.09,1191.73 1260,1190.5C 1257.65,1197.7 1255.99,1205.36 1255,1213.5C 1251.72,1220.38 1248.72,1227.38 1246,1234.5C 1231.69,1250.98 1217.19,1267.32 1202.5,1283.5C 1196.62,1286.36 1190.79,1289.36 1185,1292.5C 1183.4,1297.42 1182.24,1302.42 1181.5,1307.5C 1122.56,1312.16 1063.73,1311.16 1005,1304.5C 970.542,1307.8 936.042,1310.64 901.5,1313C 888.135,1315.46 874.802,1317.96 861.5,1320.5C 850.96,1316.48 840.96,1311.31 831.5,1305C 781.818,1297.42 746.985,1269.92 727,1222.5C 719.113,1203.84 713.446,1184.5 710,1164.5C 707.053,1145.14 704.886,1126.31 703.5,1108C 700.769,994.825 724.269,885.325 774,779.5C 788.555,750.048 805.889,722.381 826,696.5C 834.97,685.363 844.803,675.03 855.5,665.5C 857.237,663.45 859.237,661.617 861.5,660C 896.392,636.41 933.726,631.743 973.5,646C 999.801,658.069 1023.3,674.236 1044,694.5C 1042.74,682.095 1040.74,669.762 1038,657.5C 1037.33,646.474 1037.67,635.474 1039,624.5C 1042.93,595.116 1057.43,572.783 1082.5,557.5C 1086.44,558.6 1090.44,558.767 1094.5,558C 1115.98,555.294 1137.48,552.794 1159,550.5C 1212.47,556.107 1263.31,570.607 1311.5,594C 1385.79,630.298 1450.96,678.798 1507,739.5C 1517.36,749.529 1527.36,759.863 1537,770.5C 1561.81,802.767 1581.48,838.1 1596,876.5C 1601.67,897.833 1607.33,919.167 1613,940.5C 1613.93,955.819 1614.43,971.152 1614.5,986.5C 1613.9,1014.76 1609.4,1042.43 1601,1069.5C 1589.78,1103.49 1570.94,1132.32 1544.5,1156C 1532.66,1164.09 1520.99,1172.42 1509.5,1181C 1500.72,1185.73 1491.72,1189.89 1482.5,1193.5 Z"/></g>
<g><path style="opacity:1" fill="#fdb1fe" d="M 1748.5,568.5 C 1735.82,574.607 1723.15,581.107 1710.5,588C 1708.76,588.651 1707.1,588.485 1705.5,587.5C 1696.76,592.203 1687.76,596.369 1678.5,600C 1651.58,607.087 1624.92,614.754 1598.5,623C 1583.84,625.943 1569.17,628.776 1554.5,631.5C 1550.09,631.654 1545.59,631.654 1541,631.5C 1538.75,633.155 1536.42,633.488 1534,632.5C 1532.68,633.88 1531.34,634.214 1530,633.5C 1528.33,634.167 1526.67,634.833 1525,635.5C 1521.67,635.5 1518.33,635.5 1515,635.5C 1510.52,637.817 1506.02,637.984 1501.5,636C 1533.22,604.222 1570.72,585.388 1614,579.5C 1617.94,579.432 1621.94,579.432 1626,579.5C 1636.16,578.198 1646.49,576.532 1657,574.5C 1658,574.833 1659,575.167 1660,575.5C 1661.96,574.048 1663.96,573.715 1666,574.5C 1673.37,573.1 1681.04,571.766 1689,570.5C 1693.63,570.35 1698.3,570.35 1703,570.5C 1712.93,568.204 1722.76,566.537 1732.5,565.5C 1735.94,565.325 1739.44,565.325 1743,565.5C 1745.56,563.147 1747.73,563.313 1749.5,566C 1748,566.838 1747.67,567.671 1748.5,568.5 Z"/></g>
<g><path style="opacity:1" fill="#e4bee2" d="M 971.5,623.5 C 961.486,619.928 951.152,617.428 940.5,616C 910.034,614.2 881.701,621.033 855.5,636.5C 856.642,634.567 858.308,633.067 860.5,632C 891.125,615.146 923.625,610.312 958,617.5C 958.333,617.167 958.667,616.833 959,616.5C 962.341,618.22 965.841,619.72 969.5,621C 970.381,621.708 971.047,622.542 971.5,623.5 Z"/></g>
<g><path style="opacity:1" fill="#7a6477" d="M 1018.5,626.5 C 1018.83,632.537 1018.5,638.537 1017.5,644.5C 1016.89,644.376 1016.56,644.043 1016.5,643.5C 1017.17,637.833 1017.83,632.167 1018.5,626.5 Z"/></g>
<g><path style="opacity:1" fill="#fdf1fe" d="M 393.5,661.5 C 395.556,662.216 397.723,662.883 400,663.5C 400.333,663.167 400.667,662.833 401,662.5C 430.712,666.624 459.712,669.957 488,672.5C 509.698,682.516 531.531,692.349 553.5,702C 547.89,702.444 542.39,701.944 537,700.5C 536.667,700.833 536.333,701.167 536,701.5C 534,700.833 532,700.167 530,699.5C 515.397,698.441 500.064,696.774 484,694.5C 478.728,696.369 473.394,698.035 468,699.5C 466.732,699.384 465.398,699.051 464,698.5C 452.716,699.429 441.716,700.429 431,701.5C 429.176,700.762 427.176,700.428 425,700.5C 406.955,702.004 388.622,703.337 370,704.5C 369.667,704.167 369.333,703.833 369,703.5C 365,704.167 361,704.833 357,705.5C 356,705.167 355,704.833 354,704.5C 313.462,709.791 275.295,722.291 239.5,742C 165.571,785.471 100.905,839.971 45.5,905.5C 40.0873,904.654 34.7539,903.487 29.5,902C 36.1822,888.304 42.6822,874.471 49,860.5C 69.277,830.557 89.9437,800.891 111,771.5C 135.965,745.852 163.798,724.019 194.5,706C 213.587,695.12 233.587,686.454 254.5,680C 279.763,674.018 305.096,668.351 330.5,663C 351.483,661.788 372.483,661.288 393.5,661.5 Z"/></g>
<g><path style="opacity:1" fill="#dedede" d="M 855.5,665.5 C 844.803,675.03 834.97,685.363 826,696.5C 805.889,722.381 788.555,750.048 774,779.5C 724.269,885.325 700.769,994.825 703.5,1108C 704.886,1126.31 707.053,1145.14 710,1164.5C 713.446,1184.5 719.113,1203.84 727,1222.5C 746.985,1269.92 781.818,1297.42 831.5,1305C 840.96,1311.31 850.96,1316.48 861.5,1320.5C 853.273,1322.04 844.94,1323.71 836.5,1325.5C 829.285,1323.76 821.952,1323.09 814.5,1323.5C 785.834,1320.83 760.834,1309.99 739.5,1291C 716.331,1266.84 700.831,1238.34 693,1205.5C 686.587,1178.18 682.587,1150.52 681,1122.5C 677.429,999.686 704.429,884.019 762,775.5C 781.106,740.824 804.939,709.657 833.5,682C 840.446,675.874 847.779,670.374 855.5,665.5 Z"/></g>
<g><path style="opacity:1" fill="#020102" d="M 1221.5,814.5 C 1232.9,814.016 1242.9,817.516 1251.5,825C 1282.49,855.793 1302.99,892.626 1313,935.5C 1316.54,950.147 1318.7,964.98 1319.5,980C 1319.55,993.333 1316.38,1005.83 1310,1017.5C 1301.99,1025.55 1292.49,1028.05 1281.5,1025C 1271.49,1019.74 1262.66,1012.91 1255,1004.5C 1234.85,979.866 1220.18,952.2 1211,921.5C 1201.27,893.435 1198.93,864.768 1204,835.5C 1206.58,825.594 1212.42,818.594 1221.5,814.5 Z"/></g>
<g><path style="opacity:1" fill="#fdb1fe" d="M 1806.5,879.5 C 1800.99,890.163 1792.32,896.996 1780.5,900C 1746.97,904.363 1713.3,906.03 1679.5,905C 1669.64,892.312 1659.64,879.812 1649.5,867.5C 1643.11,854.4 1636.95,840.733 1631,826.5C 1630.25,825.365 1630.42,824.365 1631.5,823.5C 1680.72,848.288 1730.88,865.288 1782,874.5C 1783.75,873.826 1785.42,873.493 1787,873.5C 1791.08,874.3 1795.25,874.8 1799.5,875C 1802.46,875.687 1804.79,877.187 1806.5,879.5 Z"/></g>
<g><path style="opacity:1" fill="#fbfafb" d="M 1229.5,835.5 C 1242.76,835.55 1252.93,841.217 1260,852.5C 1267.27,863.701 1268.44,875.534 1263.5,888C 1258.38,890.07 1253.38,889.736 1248.5,887C 1233.12,876.403 1224.96,861.903 1224,843.5C 1225.13,840.206 1226.96,837.54 1229.5,835.5 Z"/></g>
<g><path style="opacity:1" fill="#fdb1fe" d="M 420.5,868.5 C 412.815,870.171 405.148,872.004 397.5,874C 383.996,880.176 370.33,886.176 356.5,892C 344.776,900.723 332.776,909.056 320.5,917C 260.841,916.193 201.175,915.527 141.5,915C 118.494,913.192 95.494,911.359 72.5,909.5C 71.2825,908.839 69.9492,908.172 68.5,907.5C 68.8333,907.167 69.1667,906.833 69.5,906.5C 133.748,877.478 199.248,856.811 266,844.5C 276.297,843.358 286.63,843.358 297,844.5C 298.333,845.167 299.667,845.833 301,846.5C 303.093,845.754 305.093,845.421 307,845.5C 309.81,846.836 312.643,847.169 315.5,846.5C 321.334,847.399 326.834,848.399 332,849.5C 332.333,849.167 332.667,848.833 333,848.5C 335,849.167 337,849.833 339,850.5C 341.093,849.754 343.093,849.421 345,849.5C 347.193,850.773 349.36,851.106 351.5,850.5C 358.26,851.662 364.76,852.662 371,853.5C 372.628,852.903 374.295,853.237 376,854.5C 378.253,854.369 380.419,854.035 382.5,853.5C 384.059,854.074 385.559,854.74 387,855.5C 388.398,854.949 389.732,854.616 391,854.5C 397.361,856.039 403.528,856.372 409.5,855.5C 415.225,856.458 419.225,858.958 421.5,863C 421.795,864.714 421.462,866.547 420.5,868.5 Z"/></g>
<g><path style="opacity:1" fill="#010101" d="M 972.5,898.5 C 984.995,897.42 995.995,900.92 1005.5,909C 1030.14,934.438 1046.31,964.604 1054,999.5C 1059.44,1026.46 1059.77,1053.46 1055,1080.5C 1052.1,1095.18 1044.6,1106.68 1032.5,1115C 1017.54,1121.3 1003.87,1119.3 991.5,1109C 977.259,1095.67 966.092,1080.17 958,1062.5C 946.263,1034.15 939.763,1004.65 938.5,974C 938.387,956.632 941.22,939.799 947,923.5C 951.478,910.854 959.978,902.52 972.5,898.5 Z"/></g>
<g><path style="opacity:1" fill="#fbfafb" d="M 977.5,919.5 C 996.219,920.047 1008.05,929.381 1013,947.5C 1013.67,950.833 1013.67,954.167 1013,957.5C 1011.67,962.167 1010.33,966.833 1009,971.5C 1005.26,975.259 1000.76,976.426 995.5,975C 976.37,966.925 967.203,952.425 968,931.5C 969.892,926.447 973.058,922.447 977.5,919.5 Z"/></g>
<g><path style="opacity:1" fill="#513848" d="M 1247.5,941.5 C 1252.79,942.641 1257.79,944.641 1262.5,947.5C 1267.52,953.355 1272.36,959.355 1277,965.5C 1279.89,972.885 1282.39,980.385 1284.5,988C 1283.38,991.936 1282.38,995.936 1281.5,1000C 1280.99,1001.17 1280.16,1002 1279,1002.5C 1274.91,1000.21 1270.75,998.039 1266.5,996C 1262.37,989.567 1257.87,983.401 1253,977.5C 1247.49,967.445 1244.49,956.779 1244,945.5C 1244.69,943.65 1245.86,942.316 1247.5,941.5 Z"/></g>
<g><path style="opacity:1" fill="#eec7ef" d="M 1640.5,953.5 C 1641.39,955.291 1642.39,957.124 1643.5,959C 1642.83,959.333 1642.17,959.667 1641.5,960C 1642.44,972.185 1642.44,984.519 1641.5,997C 1642.2,1000.47 1642.87,1003.97 1643.5,1007.5C 1642.97,1008.19 1642.31,1008.69 1641.5,1009C 1641.67,1010.12 1642,1011.28 1642.5,1012.5C 1640.92,1016.31 1639.76,1020.31 1639,1024.5C 1638.78,1027.43 1638.28,1030.26 1637.5,1033C 1637.83,1033.33 1638.17,1033.67 1638.5,1034C 1636.28,1038.78 1634.62,1043.78 1633.5,1049C 1633.83,1049.33 1634.17,1049.67 1634.5,1050C 1631.97,1053.01 1630.97,1056.34 1631.5,1060C 1628.03,1068.91 1624.2,1077.75 1620,1086.5C 1619.3,1088.58 1618.14,1090.25 1616.5,1091.5C 1636.57,1047.65 1644.57,1001.65 1640.5,953.5 Z"/></g>
<g><path style="opacity:1" fill="#513848" d="M 981.5,1032.5 C 987.566,1032.74 993.232,1034.41 998.5,1037.5C 1003.14,1043.98 1007.97,1050.31 1013,1056.5C 1014.56,1063.69 1016.06,1070.86 1017.5,1078C 1015.7,1083.08 1013.7,1088.08 1011.5,1093C 1006.17,1093.12 1001.17,1091.78 996.5,1089C 990.716,1081.93 985.55,1074.43 981,1066.5C 979.009,1058.87 977.175,1051.2 975.5,1043.5C 975.715,1038.73 977.715,1035.06 981.5,1032.5 Z"/></g>
<g><path style="opacity:1" fill="#fdb1fe" d="M 459.5,1159.5 C 440.321,1167.21 421.321,1175.38 402.5,1184C 374.104,1192.69 345.77,1201.69 317.5,1211C 298.583,1213.55 279.583,1215.05 260.5,1215.5C 248.646,1216.01 236.979,1214.85 225.5,1212C 222.582,1210.29 219.748,1208.46 217,1206.5C 216.178,1204.21 215.511,1201.88 215,1199.5C 213.632,1146.03 224.798,1095.36 248.5,1047.5C 249.75,1047.42 250.583,1046.76 251,1045.5C 251.789,1048.8 250.956,1051.63 248.5,1054C 248.833,1055 249.167,1056 249.5,1057C 248.133,1060.57 247.133,1064.24 246.5,1068C 247.479,1069.78 247.146,1071.45 245.5,1073C 245.647,1074.97 245.981,1076.97 246.5,1079C 245.833,1082 245.167,1085 244.5,1088C 245.779,1095.39 245.779,1102.73 244.5,1110C 245.969,1115.44 247.136,1121.27 248,1127.5C 249.941,1136.06 253.941,1143.39 260,1149.5C 262.728,1149.01 265.395,1149.68 268,1151.5C 270.478,1152.45 272.812,1152.45 275,1151.5C 279.438,1152.55 284.105,1153.88 289,1155.5C 289.333,1155.17 289.667,1154.83 290,1154.5C 292.608,1155.3 295.274,1156.3 298,1157.5C 298.414,1157.04 298.914,1156.71 299.5,1156.5C 302.046,1157.66 304.546,1158.66 307,1159.5C 312.667,1159.5 318.333,1159.5 324,1159.5C 336.976,1157.28 350.31,1153.94 364,1149.5C 364.333,1149.83 364.667,1150.17 365,1150.5C 419.341,1133.43 472.841,1113.6 525.5,1091C 519.196,1097.64 512.529,1103.97 505.5,1110C 505.833,1110.33 506.167,1110.67 506.5,1111C 505.5,1111.33 504.5,1111.67 503.5,1112C 503.833,1112.33 504.167,1112.67 504.5,1113C 489.248,1128.42 474.248,1143.92 459.5,1159.5 Z"/></g>
<g><path style="opacity:1" fill="#fdb1fe" d="M 463.5,1179.5 C 464.756,1179.46 465.756,1179.96 466.5,1181C 466.507,1182.58 466.174,1184.25 465.5,1186C 466.241,1191.16 467.241,1196.33 468.5,1201.5C 467.998,1202.72 467.665,1203.88 467.5,1205C 468.872,1207.53 469.872,1210.2 470.5,1213C 470.167,1213.33 469.833,1213.67 469.5,1214C 470.921,1216.86 471.921,1219.86 472.5,1223C 476.726,1244.89 483.726,1266.23 493.5,1287C 493.167,1287.33 492.833,1287.67 492.5,1288C 502.614,1307.15 512.781,1325.32 523,1342.5C 530.254,1351.65 536.754,1360.82 542.5,1370C 602.306,1445.51 675.306,1504.18 761.5,1546C 828.94,1577.35 897.106,1597.52 966,1606.5C 970.431,1607.07 974.764,1608.07 979,1609.5C 983.128,1609.16 987.462,1609.16 992,1609.5C 993,1610.17 994,1610.83 995,1611.5C 1000.67,1611.63 1006,1611.63 1011,1611.5C 1012.67,1612.17 1014.33,1612.83 1016,1613.5C 1017.4,1612.95 1018.73,1612.62 1020,1612.5C 1027.33,1613.56 1034.66,1614.56 1042,1615.5C 1049.79,1615.36 1057.79,1615.36 1066,1615.5C 1072.21,1615.85 1078.21,1616.85 1084,1618.5C 1084.71,1617.03 1085.88,1616.36 1087.5,1616.5C 1105.27,1625.72 1123.27,1634.39 1141.5,1642.5C 1129.28,1642.13 1118.11,1641.8 1108,1641.5C 1103.67,1642.17 1099.33,1642.83 1095,1643.5C 1077,1642.17 1059,1642.17 1041,1643.5C 1035,1642.83 1029,1642.17 1023,1641.5C 1012.57,1641.61 1002.23,1641.61 992,1641.5C 990.333,1640.83 988.667,1640.17 987,1639.5C 911.557,1635.28 835.224,1622.28 758,1600.5C 689.277,1582.22 627.11,1551.39 571.5,1508C 569.474,1504.34 566.141,1501.34 561.5,1499C 506.191,1447.42 470.525,1386.75 454.5,1317C 454.047,1312.69 452.714,1308.36 450.5,1304C 450.957,1303.59 451.291,1303.09 451.5,1302.5C 450.017,1297.37 448.684,1292.54 447.5,1288C 447.833,1287.67 448.167,1287.33 448.5,1287C 447.867,1283.24 446.867,1279.57 445.5,1276C 446.214,1274.66 445.88,1273.32 444.5,1272C 445.446,1268.48 445.446,1264.81 444.5,1261C 441.833,1260.33 441.833,1259.67 444.5,1259C 443.833,1258 443.167,1257 442.5,1256C 442.293,1253.37 442.626,1251.03 443.5,1249C 442.833,1248.67 442.167,1248.33 441.5,1248C 440.927,1235.57 440.927,1223.24 441.5,1211C 440.833,1209.33 440.167,1207.67 439.5,1206C 442.167,1205.33 442.167,1204.67 439.5,1204C 440.833,1202.67 440.833,1201.33 439.5,1200C 436.779,1199.4 434.113,1199.57 431.5,1200.5C 442.144,1193.53 452.811,1186.53 463.5,1179.5 Z"/></g>
<g><path style="opacity:1" fill="#dfdedf" d="M 1482.5,1193.5 C 1474.86,1196.99 1467.19,1200.49 1459.5,1204C 1449.99,1205.76 1440.65,1208.1 1431.5,1211C 1409.25,1213.79 1386.91,1215.12 1364.5,1215C 1340.59,1211.51 1316.59,1209.01 1292.5,1207.5C 1292.5,1202.17 1292.5,1196.83 1292.5,1191.5C 1293.46,1189.74 1293.79,1187.74 1293.5,1185.5C 1300.52,1186 1307.35,1187.34 1314,1189.5C 1315.27,1189.38 1316.6,1189.05 1318,1188.5C 1328.5,1191.33 1339.17,1193 1350,1193.5C 1356.47,1193.52 1362.97,1193.52 1369.5,1193.5C 1391.41,1195.48 1413.41,1196.31 1435.5,1196C 1450.84,1192.77 1466.17,1189.6 1481.5,1186.5C 1481.99,1188.81 1482.33,1191.14 1482.5,1193.5 Z"/></g>
<g><path style="opacity:1" fill="#dedede" d="M 1272.5,1193.5 C 1269.72,1211.57 1265.22,1229.23 1259,1246.5C 1250.43,1256.65 1242.09,1266.98 1234,1277.5C 1221.14,1292.68 1204.97,1302.35 1185.5,1306.5C 1184.29,1307.23 1182.96,1307.57 1181.5,1307.5C 1182.24,1302.42 1183.4,1297.42 1185,1292.5C 1190.79,1289.36 1196.62,1286.36 1202.5,1283.5C 1217.19,1267.32 1231.69,1250.98 1246,1234.5C 1248.72,1227.38 1251.72,1220.38 1255,1213.5C 1255.99,1205.36 1257.65,1197.7 1260,1190.5C 1264.09,1191.73 1268.26,1192.73 1272.5,1193.5 Z"/></g>
<g><path style="opacity:1" fill="#dcb8db" d="M 658.5,1076.5 C 655.688,1129.59 661.688,1181.59 676.5,1232.5C 674.391,1229.41 672.724,1225.91 671.5,1222C 671.833,1221.67 672.167,1221.33 672.5,1221C 670.965,1218.38 669.798,1215.54 669,1212.5C 668.232,1207.54 667.066,1202.71 665.5,1198C 665.833,1197.67 666.167,1197.33 666.5,1197C 665.5,1196.67 664.5,1196.33 663.5,1196C 664.325,1193.23 664.659,1190.56 664.5,1188C 663.12,1186.68 662.786,1185.34 663.5,1184C 662.707,1180.59 662.207,1177.09 662,1173.5C 661.5,1173 661,1172.5 660.5,1172C 660.372,1168.22 660.372,1164.39 660.5,1160.5C 660.182,1159.35 659.516,1158.52 658.5,1158C 658.109,1152.24 658.109,1146.41 658.5,1140.5C 658.41,1138.04 657.743,1135.87 656.5,1134C 656.616,1115.54 657.282,1096.37 658.5,1076.5 Z"/></g>
<g><path style="opacity:1" fill="#f99dfd" d="M 1141.5,1642.5 C 1164.23,1647.51 1187.23,1650.84 1210.5,1652.5C 1233.19,1650.79 1255.86,1650.46 1278.5,1651.5C 1282.23,1648.09 1285.9,1644.76 1289.5,1641.5C 1290.73,1635.32 1290.73,1628.99 1289.5,1622.5C 1289.71,1621.01 1290.38,1619.84 1291.5,1619C 1320.53,1611.62 1349.2,1604.62 1377.5,1598C 1405.96,1589.08 1433.96,1579.91 1461.5,1570.5C 1483.53,1562.33 1505.53,1553.83 1527.5,1545C 1536.56,1540.14 1545.89,1535.81 1555.5,1532C 1575.88,1518.64 1596.55,1505.64 1617.5,1493C 1640.95,1472.52 1664.12,1451.68 1687,1430.5C 1735.48,1375.86 1765.48,1312.19 1777,1239.5C 1778.83,1238.25 1780.66,1238.25 1782.5,1239.5C 1780.69,1304.73 1764.53,1366.06 1734,1423.5C 1729.06,1433.07 1723.89,1442.4 1718.5,1451.5C 1716.69,1450.68 1715.19,1451.35 1714,1453.5C 1685.43,1491.74 1651.93,1524.91 1613.5,1553C 1602.83,1560.33 1592.17,1567.67 1581.5,1575C 1548.29,1592.27 1514.96,1608.94 1481.5,1625C 1453.48,1636.74 1425.15,1647.41 1396.5,1657C 1352.77,1667.54 1308.44,1678.21 1263.5,1689C 1242.61,1692.19 1222.11,1695.69 1202,1699.5C 1198,1699.5 1194,1699.5 1190,1699.5C 1163.76,1703.48 1137.43,1706.81 1111,1709.5C 1110,1709.17 1109,1708.83 1108,1708.5C 1097.37,1709.28 1087.04,1710.28 1077,1711.5C 1068.73,1711.6 1060.73,1711.6 1053,1711.5C 1049,1712.17 1045,1712.83 1041,1713.5C 1039.33,1713.17 1037.67,1712.83 1036,1712.5C 1020.02,1713.5 1005.02,1714.17 991,1714.5C 988.931,1713.74 986.764,1713.24 984.5,1713C 930.894,1712.12 877.56,1708.45 824.5,1702C 781.055,1693.78 737.388,1685.11 693.5,1676C 655.045,1664.86 619.045,1648.52 585.5,1627C 571.792,1614.96 557.792,1603.29 543.5,1592C 532.673,1579.51 521.507,1567.34 510,1555.5C 491.19,1530.03 473.19,1504.03 456,1477.5C 410.773,1390.53 393.939,1302.19 405.5,1212.5C 413.557,1207.48 422.224,1203.48 431.5,1200.5C 434.113,1199.57 436.779,1199.4 439.5,1200C 440.833,1201.33 440.833,1202.67 439.5,1204C 442.167,1204.67 442.167,1205.33 439.5,1206C 440.167,1207.67 440.833,1209.33 441.5,1211C 440.927,1223.24 440.927,1235.57 441.5,1248C 442.167,1248.33 442.833,1248.67 443.5,1249C 442.626,1251.03 442.293,1253.37 442.5,1256C 443.167,1257 443.833,1258 444.5,1259C 441.833,1259.67 441.833,1260.33 444.5,1261C 445.446,1264.81 445.446,1268.48 444.5,1272C 445.88,1273.32 446.214,1274.66 445.5,1276C 446.867,1279.57 447.867,1283.24 448.5,1287C 448.167,1287.33 447.833,1287.67 447.5,1288C 448.684,1292.54 450.017,1297.37 451.5,1302.5C 451.291,1303.09 450.957,1303.59 450.5,1304C 452.714,1308.36 454.047,1312.69 454.5,1317C 470.525,1386.75 506.191,1447.42 561.5,1499C 566.141,1501.34 569.474,1504.34 571.5,1508C 627.11,1551.39 689.277,1582.22 758,1600.5C 835.224,1622.28 911.557,1635.28 987,1639.5C 988.667,1640.17 990.333,1640.83 992,1641.5C 1002.23,1641.61 1012.57,1641.61 1023,1641.5C 1029,1642.17 1035,1642.83 1041,1643.5C 1059,1642.17 1077,1642.17 1095,1643.5C 1099.33,1642.83 1103.67,1642.17 1108,1641.5C 1118.11,1641.8 1129.28,1642.13 1141.5,1642.5 Z"/></g>
<g><path style="opacity:1" fill="#dbbff0" d="M 405.5,1212.5 C 393.939,1302.19 410.773,1390.53 456,1477.5C 473.19,1504.03 491.19,1530.03 510,1555.5C 521.507,1567.34 532.673,1579.51 543.5,1592C 557.792,1603.29 571.792,1614.96 585.5,1627C 619.045,1648.52 655.045,1664.86 693.5,1676C 737.388,1685.11 781.055,1693.78 824.5,1702C 877.56,1708.45 930.894,1712.12 984.5,1713C 986.764,1713.24 988.931,1713.74 991,1714.5C 1005.02,1714.17 1020.02,1713.5 1036,1712.5C 1037.67,1712.83 1039.33,1713.17 1041,1713.5C 1045,1712.83 1049,1712.17 1053,1711.5C 1060.73,1711.6 1068.73,1711.6 1077,1711.5C 1087.04,1710.28 1097.37,1709.28 1108,1708.5C 1109,1708.83 1110,1709.17 1111,1709.5C 1137.43,1706.81 1163.76,1703.48 1190,1699.5C 1194,1699.5 1198,1699.5 1202,1699.5C 1222.11,1695.69 1242.61,1692.19 1263.5,1689C 1308.44,1678.21 1352.77,1667.54 1396.5,1657C 1425.15,1647.41 1453.48,1636.74 1481.5,1625C 1514.96,1608.94 1548.29,1592.27 1581.5,1575C 1592.17,1567.67 1602.83,1560.33 1613.5,1553C 1651.93,1524.91 1685.43,1491.74 1714,1453.5C 1715.19,1451.35 1716.69,1450.68 1718.5,1451.5C 1692.59,1493.93 1660.59,1531.43 1622.5,1564C 1602.34,1578.25 1582.01,1592.25 1561.5,1606C 1540.59,1616.95 1519.59,1627.62 1498.5,1638C 1458.61,1654.27 1418.61,1670.6 1378.5,1687C 1324.02,1700.43 1269.35,1713.1 1214.5,1725C 1096.69,1743.46 978.353,1747.79 859.5,1738C 841.596,1735.35 823.596,1733.35 805.5,1732C 764.471,1724.13 723.471,1716.13 682.5,1708C 641.566,1696.7 603.232,1679.7 567.5,1657C 554.125,1645.29 540.458,1633.96 526.5,1623C 515.368,1610.2 503.868,1597.7 492,1585.5C 473.19,1560.03 455.19,1534.03 438,1507.5C 390.07,1416.24 373.737,1319.58 389,1217.5C 394.287,1215.13 399.787,1213.46 405.5,1212.5 Z"/></g>
<g><path style="opacity:1" fill="#ecc5eb" d="M 1490.5,1213.5 C 1488.84,1215.6 1486.68,1217.27 1484,1218.5C 1481.69,1218.31 1479.35,1218.98 1477,1220.5C 1476.11,1219.92 1475.11,1219.59 1474,1219.5C 1462.9,1219.95 1451.9,1220.95 1441,1222.5C 1439.26,1221.96 1437.42,1221.63 1435.5,1221.5C 1434.52,1221.98 1433.69,1222.64 1433,1223.5C 1425.27,1222.66 1417.6,1222.33 1410,1222.5C 1407.74,1222.44 1405.74,1223.11 1404,1224.5C 1394.22,1224.4 1384.22,1224.4 1374,1224.5C 1370.38,1226.14 1367.05,1226.47 1364,1225.5C 1358.95,1226.12 1353.95,1226.78 1349,1227.5C 1344.94,1226.67 1340.94,1226.34 1337,1226.5C 1335.67,1227.17 1334.33,1227.83 1333,1228.5C 1321.69,1228.47 1310.35,1228.47 1299,1228.5C 1297.74,1228.76 1296.74,1229.43 1296,1230.5C 1293.77,1229.81 1291.6,1229.48 1289.5,1229.5C 1288.73,1230.61 1287.73,1231.28 1286.5,1231.5C 1286.54,1230.42 1286.87,1229.42 1287.5,1228.5C 1350.5,1225 1413.5,1221.5 1476.5,1218C 1481.46,1217.35 1486.12,1215.85 1490.5,1213.5 Z"/></g>
<g><path style="opacity:1" fill="#3d2935" d="M 1181.5,1307.5 C 1182.96,1307.57 1184.29,1307.23 1185.5,1306.5C 1185.88,1307.93 1186.88,1308.76 1188.5,1309C 1198.14,1310.72 1207.81,1312.22 1217.5,1313.5C 1225.12,1316.82 1232.79,1320.16 1240.5,1323.5C 1241.44,1325.77 1242.77,1327.77 1244.5,1329.5C 1177.96,1335.27 1111.29,1337.11 1044.5,1335C 1032.86,1334.03 1021.19,1333.53 1009.5,1333.5C 970.774,1334.19 932.107,1336.03 893.5,1339C 860.325,1345.23 827.325,1352.23 794.5,1360C 774.18,1365.24 754.18,1371.41 734.5,1378.5C 734.167,1378.5 733.833,1378.5 733.5,1378.5C 753.038,1363.56 774.038,1350.89 796.5,1340.5C 796.938,1340.57 797.272,1340.4 797.5,1340C 796.167,1338.33 794.833,1336.67 793.5,1335C 804.709,1331.26 816.042,1327.93 827.5,1325C 822.981,1324.82 818.647,1324.32 814.5,1323.5C 821.952,1323.09 829.285,1323.76 836.5,1325.5C 844.94,1323.71 853.273,1322.04 861.5,1320.5C 874.802,1317.96 888.135,1315.46 901.5,1313C 936.042,1310.64 970.542,1307.8 1005,1304.5C 1063.73,1311.16 1122.56,1312.16 1181.5,1307.5 Z"/></g>
<g><path style="opacity:1" fill="#4d3543" d="M 1398.5,1379.5 C 1398.19,1378.52 1397.52,1377.86 1396.5,1377.5C 1381.58,1378.57 1367.58,1383.07 1354.5,1391C 1345.17,1398 1335.83,1405 1326.5,1412C 1328.36,1412.6 1328.69,1413.43 1327.5,1414.5C 1287.54,1432.46 1247.21,1450.63 1206.5,1469C 1200.94,1470.22 1195.61,1472.05 1190.5,1474.5C 1189.48,1475 1189.31,1475.67 1190,1476.5C 1192.31,1477.73 1194.48,1479.07 1196.5,1480.5C 1188.2,1482.44 1180.37,1484.78 1173,1487.5C 1172.33,1486.75 1171.5,1486.41 1170.5,1486.5C 1166.41,1484.97 1162.57,1483.64 1159,1482.5C 1153.6,1484.19 1147.93,1486.19 1142,1488.5C 1140.98,1487.37 1140.32,1487.7 1140,1489.5C 1139.67,1489.17 1139.33,1488.83 1139,1488.5C 1137,1489 1135.34,1490 1134,1491.5C 1131.67,1491.5 1129.33,1491.5 1127,1491.5C 1125.68,1492.88 1124.34,1493.21 1123,1492.5C 1119.86,1493.08 1116.86,1494.08 1114,1495.5C 1111.33,1495.5 1108.67,1495.5 1106,1495.5C 1105,1496.17 1104,1496.83 1103,1497.5C 1100.33,1497.5 1097.67,1497.5 1095,1497.5C 1094.67,1498.17 1094.33,1498.83 1094,1499.5C 1092.72,1499.4 1091.55,1499.4 1090.5,1499.5C 1086.59,1500.14 1083.09,1500.14 1080,1499.5C 1079.33,1502.17 1078.67,1502.17 1078,1499.5C 1077.33,1502.17 1076.67,1502.17 1076,1499.5C 1075,1500.17 1074,1500.83 1073,1501.5C 1066.78,1501.06 1060.45,1501.06 1054,1501.5C 1053.33,1498.83 1052.67,1498.83 1052,1501.5C 1051.31,1499.11 1050.31,1499.11 1049,1501.5C 1048.33,1500.83 1047.67,1500.17 1047,1499.5C 1045,1499.5 1043,1499.5 1041,1499.5C 1040.54,1500.09 1040.37,1500.76 1040.5,1501.5C 1028.84,1496.72 1017.17,1493.05 1005.5,1490.5C 1002.76,1488.26 1000.09,1485.76 997.5,1483C 992.878,1481.57 988.545,1479.57 984.5,1477C 975.476,1468.65 967.976,1459.15 962,1448.5C 959.965,1445.44 958.799,1442.11 958.5,1438.5C 943.166,1441.14 928,1444.47 913,1448.5C 907.843,1446.84 903.01,1444.5 898.5,1441.5C 896.436,1434.8 898.769,1430.3 905.5,1428C 942.592,1418.75 979.592,1409.08 1016.5,1399C 1028.43,1398.08 1040.26,1396.58 1052,1394.5C 1054.85,1396.35 1057.35,1398.52 1059.5,1401C 1058.58,1403.58 1057.25,1405.91 1055.5,1408C 1029.96,1416.35 1004.29,1424.18 978.5,1431.5C 985.082,1444.26 994.416,1454.76 1006.5,1463C 1032.44,1477.81 1060.44,1483.81 1090.5,1481C 1104.24,1478.72 1117.91,1476.05 1131.5,1473C 1146.48,1468.01 1161.81,1463.35 1177.5,1459C 1245.19,1431.15 1311.85,1401.15 1377.5,1369C 1394.23,1363.23 1411.23,1358.9 1428.5,1356C 1418.98,1364.58 1408.98,1372.41 1398.5,1379.5 Z"/></g>
<g><path style="opacity:1" fill="#3d2835" d="M 1398.5,1379.5 C 1390.09,1383.02 1381.93,1387.02 1374,1391.5C 1373,1393.83 1372,1396.17 1371,1398.5C 1317.68,1453.84 1290.18,1520.17 1288.5,1597.5C 1287.83,1601.32 1287.5,1605.32 1287.5,1609.5C 1288.26,1620.16 1288.93,1630.83 1289.5,1641.5C 1285.9,1644.76 1282.23,1648.09 1278.5,1651.5C 1255.86,1650.46 1233.19,1650.79 1210.5,1652.5C 1187.23,1650.84 1164.23,1647.51 1141.5,1642.5C 1123.27,1634.39 1105.27,1625.72 1087.5,1616.5C 1068.15,1603.65 1052.31,1587.31 1040,1567.5C 1029.04,1541.59 1017.54,1515.92 1005.5,1490.5C 1017.17,1493.05 1028.84,1496.72 1040.5,1501.5C 1045.43,1510.5 1050.43,1520 1055.5,1530C 1055.17,1530.33 1054.83,1530.67 1054.5,1531C 1056.5,1533.62 1058.5,1536.29 1060.5,1539C 1060.5,1540 1060.5,1541 1060.5,1542C 1063.17,1542.67 1063.17,1543.33 1060.5,1544C 1062.96,1544.72 1063.96,1546.06 1063.5,1548C 1071.7,1560.63 1082.03,1572.63 1094.5,1584C 1102.28,1594.49 1112.61,1602.49 1125.5,1608C 1125.17,1608.33 1124.83,1608.67 1124.5,1609C 1126.1,1609.27 1127.6,1609.77 1129,1610.5C 1129.33,1610.17 1129.67,1609.83 1130,1609.5C 1132.77,1612.04 1135.6,1613.87 1138.5,1615C 1143.68,1616.45 1148.68,1617.95 1153.5,1619.5C 1157.02,1621.13 1160.86,1622.13 1165,1622.5C 1165.33,1622.17 1165.67,1621.83 1166,1621.5C 1168.43,1623.61 1171.1,1624.27 1174,1623.5C 1174.39,1624.43 1175.05,1625.09 1176,1625.5C 1178.39,1625.32 1180.72,1625.32 1183,1625.5C 1184.86,1626.76 1186.86,1627.76 1189,1628.5C 1191.72,1628.36 1194.38,1628.36 1197,1628.5C 1198,1629.17 1199,1629.83 1200,1630.5C 1207.76,1631.35 1215.92,1631.35 1224.5,1630.5C 1225.46,1630.05 1226.29,1629.38 1227,1628.5C 1230.56,1628.84 1234.56,1629.51 1239,1630.5C 1240.67,1628.99 1242.34,1628.32 1244,1628.5C 1244.28,1629.42 1244.78,1630.08 1245.5,1630.5C 1247.57,1631.81 1250.07,1632.48 1253,1632.5C 1257.51,1632.23 1262.01,1631.9 1266.5,1631.5C 1260.44,1566.28 1273.6,1505.28 1306,1448.5C 1312.95,1436.9 1320.12,1425.57 1327.5,1414.5C 1328.69,1413.43 1328.36,1412.6 1326.5,1412C 1335.83,1405 1345.17,1398 1354.5,1391C 1367.58,1383.07 1381.58,1378.57 1396.5,1377.5C 1397.52,1377.86 1398.19,1378.52 1398.5,1379.5 Z"/></g>
<g><path style="opacity:1" fill="#9a7d97" d="M 733.5,1378.5 C 733.833,1378.5 734.167,1378.5 734.5,1378.5C 733.063,1379.73 731.396,1380.73 729.5,1381.5C 728.304,1381.15 728.304,1380.65 729.5,1380C 730.745,1379.21 732.078,1378.71 733.5,1378.5 Z"/></g>
<g><path style="opacity:1" fill="#956196" d="M 1327.5,1414.5 C 1320.12,1425.57 1312.95,1436.9 1306,1448.5C 1273.6,1505.28 1260.44,1566.28 1266.5,1631.5C 1262.01,1631.9 1257.51,1632.23 1253,1632.5C 1250.07,1632.48 1247.57,1631.81 1245.5,1630.5C 1250.29,1615.93 1251.79,1600.93 1250,1585.5C 1245.82,1566.46 1241.49,1547.46 1237,1528.5C 1230.97,1511.93 1221.14,1498.1 1207.5,1487C 1204.11,1484.31 1200.44,1482.14 1196.5,1480.5C 1194.48,1479.07 1192.31,1477.73 1190,1476.5C 1189.31,1475.67 1189.48,1475 1190.5,1474.5C 1195.61,1472.05 1200.94,1470.22 1206.5,1469C 1247.21,1450.63 1287.54,1432.46 1327.5,1414.5 Z"/></g>
<g><path style="opacity:1" fill="#481d3d" d="M 1196.5,1480.5 C 1200.44,1482.14 1204.11,1484.31 1207.5,1487C 1221.14,1498.1 1230.97,1511.93 1237,1528.5C 1241.49,1547.46 1245.82,1566.46 1250,1585.5C 1251.79,1600.93 1250.29,1615.93 1245.5,1630.5C 1244.78,1630.08 1244.28,1629.42 1244,1628.5C 1242.34,1628.32 1240.67,1628.99 1239,1630.5C 1234.56,1629.51 1230.56,1628.84 1227,1628.5C 1226.29,1629.38 1225.46,1630.05 1224.5,1630.5C 1224.06,1630.57 1223.73,1630.4 1223.5,1630C 1225.68,1623.12 1227.34,1616.12 1228.5,1609C 1228.17,1608.67 1227.83,1608.33 1227.5,1608C 1228.38,1603.12 1229.04,1598.45 1229.5,1594C 1229.1,1592.53 1228.43,1591.19 1227.5,1590C 1228.17,1588.25 1228.51,1586.58 1228.5,1585C 1226.29,1572.04 1224.45,1559.2 1223,1546.5C 1218.19,1532.91 1211.19,1520.24 1202,1508.5C 1192.96,1498.94 1182.46,1491.6 1170.5,1486.5C 1171.5,1486.41 1172.33,1486.75 1173,1487.5C 1180.37,1484.78 1188.2,1482.44 1196.5,1480.5 Z"/></g>
<g><path style="opacity:1" fill="#922e64" d="M 1170.5,1486.5 C 1182.46,1491.6 1192.96,1498.94 1202,1508.5C 1211.19,1520.24 1218.19,1532.91 1223,1546.5C 1224.45,1559.2 1226.29,1572.04 1228.5,1585C 1228.51,1586.58 1228.17,1588.25 1227.5,1590C 1228.43,1591.19 1229.1,1592.53 1229.5,1594C 1229.04,1598.45 1228.38,1603.12 1227.5,1608C 1227.83,1608.33 1228.17,1608.67 1228.5,1609C 1227.34,1616.12 1225.68,1623.12 1223.5,1630C 1223.73,1630.4 1224.06,1630.57 1224.5,1630.5C 1215.92,1631.35 1207.76,1631.35 1200,1630.5C 1199,1629.83 1198,1629.17 1197,1628.5C 1194.38,1628.36 1191.72,1628.36 1189,1628.5C 1186.86,1627.76 1184.86,1626.76 1183,1625.5C 1180.72,1625.32 1178.39,1625.32 1176,1625.5C 1175.05,1625.09 1174.39,1624.43 1174,1623.5C 1171.1,1624.27 1168.43,1623.61 1166,1621.5C 1165.67,1621.83 1165.33,1622.17 1165,1622.5C 1160.86,1622.13 1157.02,1621.13 1153.5,1619.5C 1152.2,1612.12 1150.2,1604.95 1147.5,1598C 1146.41,1588.55 1143.57,1579.05 1139,1569.5C 1132.09,1558.03 1125.43,1546.36 1119,1534.5C 1108.88,1522.63 1099.38,1510.96 1090.5,1499.5C 1091.55,1499.4 1092.72,1499.4 1094,1499.5C 1094.33,1498.83 1094.67,1498.17 1095,1497.5C 1097.67,1497.5 1100.33,1497.5 1103,1497.5C 1104,1496.83 1105,1496.17 1106,1495.5C 1108.67,1495.5 1111.33,1495.5 1114,1495.5C 1116.86,1494.08 1119.86,1493.08 1123,1492.5C 1124.34,1493.21 1125.68,1492.88 1127,1491.5C 1129.33,1491.5 1131.67,1491.5 1134,1491.5C 1135.34,1490 1137,1489 1139,1488.5C 1139.33,1488.83 1139.67,1489.17 1140,1489.5C 1140.32,1487.7 1140.98,1487.37 1142,1488.5C 1147.93,1486.19 1153.6,1484.19 1159,1482.5C 1162.57,1483.64 1166.41,1484.97 1170.5,1486.5 Z"/></g>
<g><path style="opacity:1" fill="#69234f" d="M 1090.5,1499.5 C 1099.38,1510.96 1108.88,1522.63 1119,1534.5C 1125.43,1546.36 1132.09,1558.03 1139,1569.5C 1143.57,1579.05 1146.41,1588.55 1147.5,1598C 1150.2,1604.95 1152.2,1612.12 1153.5,1619.5C 1148.68,1617.95 1143.68,1616.45 1138.5,1615C 1135.6,1613.87 1132.77,1612.04 1130,1609.5C 1129.67,1609.83 1129.33,1610.17 1129,1610.5C 1127.6,1609.77 1126.1,1609.27 1124.5,1609C 1124.83,1608.67 1125.17,1608.33 1125.5,1608C 1112.61,1602.49 1102.28,1594.49 1094.5,1584C 1082.03,1572.63 1071.7,1560.63 1063.5,1548C 1063.96,1546.06 1062.96,1544.72 1060.5,1544C 1063.17,1543.33 1063.17,1542.67 1060.5,1542C 1060.5,1541 1060.5,1540 1060.5,1539C 1058.5,1536.29 1056.5,1533.62 1054.5,1531C 1054.83,1530.67 1055.17,1530.33 1055.5,1530C 1050.43,1520 1045.43,1510.5 1040.5,1501.5C 1040.37,1500.76 1040.54,1500.09 1041,1499.5C 1043,1499.5 1045,1499.5 1047,1499.5C 1047.67,1500.17 1048.33,1500.83 1049,1501.5C 1050.31,1499.11 1051.31,1499.11 1052,1501.5C 1052.67,1498.83 1053.33,1498.83 1054,1501.5C 1060.45,1501.06 1066.78,1501.06 1073,1501.5C 1074,1500.83 1075,1500.17 1076,1499.5C 1076.67,1502.17 1077.33,1502.17 1078,1499.5C 1078.67,1502.17 1079.33,1502.17 1080,1499.5C 1083.09,1500.14 1086.59,1500.14 1090.5,1499.5 Z"/></g>
<g><path style="opacity:1" fill="#faaffc" d="M 1461.5,1570.5 C 1433.96,1579.91 1405.96,1589.08 1377.5,1598C 1349.2,1604.62 1320.53,1611.62 1291.5,1619C 1290.38,1619.84 1289.71,1621.01 1289.5,1622.5C 1290.73,1628.99 1290.73,1635.32 1289.5,1641.5C 1288.93,1630.83 1288.26,1620.16 1287.5,1609.5C 1287.5,1605.32 1287.83,1601.32 1288.5,1597.5C 1288.33,1601.18 1288.5,1604.85 1289,1608.5C 1300.45,1606.38 1311.95,1604.38 1323.5,1602.5C 1324.09,1602.71 1324.59,1603.04 1325,1603.5C 1369.48,1592.2 1414.98,1581.2 1461.5,1570.5 Z"/></g>
<g><path style="opacity:0.275" fill="#48333e" d="M 1602.5,1626.5 C 1604.98,1626.75 1604.98,1627.41 1602.5,1628.5C 1601.54,1628.03 1601.54,1627.36 1602.5,1626.5 Z"/></g>
</svg>
