<?xml version="1.0" encoding="UTF-8"?>
<!DOCTYPE svg PUBLIC "-//W3C//DTD SVG 1.1//EN" "http://www.w3.org/Graphics/SVG/1.1/DTD/svg11.dtd">
<svg xmlns="http://www.w3.org/2000/svg" version="1.1" width="237px" height="212px" style="shape-rendering:geometricPrecision; text-rendering:geometricPrecision; image-rendering:optimizeQuality; fill-rule:evenodd; clip-rule:evenodd" xmlns:xlink="http://www.w3.org/1999/xlink">
<g><path style="opacity:1" fill="#fdfdfd" d="M -0.5,-0.5 C 38.8333,-0.5 78.1667,-0.5 117.5,-0.5C 117.335,2.8499 117.502,6.18323 118,9.5C 120.429,14.8014 122.429,20.1347 124,25.5C 113.184,12.6797 99.351,6.84632 82.5,8C 80.6803,8.20041 79.347,9.03374 78.5,10.5C 77.0047,10.4148 76.0047,11.0815 75.5,12.5C 79.5639,19.0693 84.5639,24.9026 90.5,30C 82.254,28.7149 73.9206,28.3815 65.5,29C 58.7541,29.4584 52.9207,31.9584 48,36.5C 48.1495,40.016 49.9828,42.516 53.5,44C 55.8333,45 58.1667,46 60.5,47C 50.7848,47.511 43.7848,52.011 39.5,60.5C 40.09,61.7989 41.09,62.6322 42.5,63C 47.2018,63.1717 51.8685,63.6717 56.5,64.5C 42.0246,77.8196 32.858,94.1529 29,113.5C 27.9962,129.651 32.4962,143.984 42.5,156.5C 29.2438,158.529 16.9105,163.029 5.5,170C 2.87922,172.114 0.879222,174.614 -0.5,177.5C -0.5,118.167 -0.5,58.8333 -0.5,-0.5 Z"/></g>
<g><path style="opacity:1" fill="#fcfcfc" d="M 118.5,-0.5 C 157.833,-0.5 197.167,-0.5 236.5,-0.5C 236.5,58.8333 236.5,118.167 236.5,177.5C 234.408,173.572 231.408,170.406 227.5,168C 217.664,163.448 207.664,159.615 197.5,156.5C 200.762,148.713 203.429,140.713 205.5,132.5C 209.127,136.598 211.96,136.265 214,131.5C 214.5,128.5 215,125.5 215.5,122.5C 214.329,116.163 212.496,110.163 210,104.5C 215.692,108.429 221.858,111.429 228.5,113.5C 230.349,111.811 231.349,109.644 231.5,107C 227.749,90.0809 217.749,78.5809 201.5,72.5C 211.138,71.5644 220.138,68.7311 228.5,64C 218.253,49.8797 204.253,43.213 186.5,44C 195.121,41.0264 202.788,36.5264 209.5,30.5C 208.96,29.2519 208.293,28.0852 207.5,27C 190.612,20.1015 174.279,21.2682 158.5,30.5C 158.167,30.3333 157.833,30.1667 157.5,30C 163.208,24.6233 169.208,19.6233 175.5,15C 172.23,15.4631 169.23,16.7964 166.5,19C 163.333,22.1667 160.167,25.3333 157,28.5C 157.311,25.5585 157.811,22.5585 158.5,19.5C 158.109,16.0408 157.276,12.7074 156,9.5C 156.438,14.797 156.438,20.1303 156,25.5C 155.381,28.0318 154.381,30.3651 153,32.5C 148.383,14.0446 136.883,3.04459 118.5,-0.5 Z"/></g>
<g><path style="opacity:1" fill="#121212" d="M 117.5,-0.5 C 117.833,-0.5 118.167,-0.5 118.5,-0.5C 136.883,3.04459 148.383,14.0446 153,32.5C 154.381,30.3651 155.381,28.0318 156,25.5C 156.438,20.1303 156.438,14.797 156,9.5C 157.276,12.7074 158.109,16.0408 158.5,19.5C 157.811,22.5585 157.311,25.5585 157,28.5C 160.167,25.3333 163.333,22.1667 166.5,19C 169.23,16.7964 172.23,15.4631 175.5,15C 169.208,19.6233 163.208,24.6233 157.5,30C 157.833,30.1667 158.167,30.3333 158.5,30.5C 174.279,21.2682 190.612,20.1015 207.5,27C 208.293,28.0852 208.96,29.2519 209.5,30.5C 202.788,36.5264 195.121,41.0264 186.5,44C 204.253,43.213 218.253,49.8797 228.5,64C 220.138,68.7311 211.138,71.5644 201.5,72.5C 217.749,78.5809 227.749,90.0809 231.5,107C 231.349,109.644 230.349,111.811 228.5,113.5C 221.858,111.429 215.692,108.429 210,104.5C 212.496,110.163 214.329,116.163 215.5,122.5C 215,125.5 214.5,128.5 214,131.5C 211.96,136.265 209.127,136.598 205.5,132.5C 203.429,140.713 200.762,148.713 197.5,156.5C 195.478,158.531 193.811,160.865 192.5,163.5C 176.782,182.518 156.449,191.518 131.5,190.5C 99.6045,191.537 71.6045,181.87 47.5,161.5C 46.1667,159.5 44.5,157.833 42.5,156.5C 32.4962,143.984 27.9962,129.651 29,113.5C 32.858,94.1529 42.0246,77.8196 56.5,64.5C 51.8685,63.6717 47.2018,63.1717 42.5,63C 41.09,62.6322 40.09,61.7989 39.5,60.5C 43.7848,52.011 50.7848,47.511 60.5,47C 58.1667,46 55.8333,45 53.5,44C 49.9828,42.516 48.1495,40.016 48,36.5C 52.9207,31.9584 58.7541,29.4584 65.5,29C 73.9206,28.3815 82.254,28.7149 90.5,30C 84.5639,24.9026 79.5639,19.0693 75.5,12.5C 76.0047,11.0815 77.0047,10.4148 78.5,10.5C 79.347,9.03374 80.6803,8.20041 82.5,8C 99.351,6.84632 113.184,12.6797 124,25.5C 122.429,20.1347 120.429,14.8014 118,9.5C 117.502,6.18323 117.335,2.8499 117.5,-0.5 Z"/></g>
<g><path style="opacity:1" fill="#cfd0bc" d="M 52.5,36.5 C 52.8333,36.5 53.1667,36.5 53.5,36.5C 63.3858,37.4608 72.7191,40.4608 81.5,45.5C 78.8103,46.5067 76.1437,47.5067 73.5,48.5C 66.2476,46.7682 59.2476,44.2682 52.5,41C 48.8278,38.966 48.8278,37.466 52.5,36.5 Z"/></g>
<g><path style="opacity:1" fill="#cfd0bb" d="M 206.5,30.5 C 196.616,37.2769 185.949,42.7769 174.5,47C 175.793,47.49 177.127,47.6567 178.5,47.5C 177.903,48.1386 177.07,48.472 176,48.5C 173.5,48 171,47.5 168.5,47C 173.316,38.2541 180.649,32.9207 190.5,31C 195.823,30.5006 201.156,30.334 206.5,30.5 Z"/></g>
<g><path style="opacity:1" fill="#f3f3f2" d="M 97.5,35.5 C 97.5,36.1667 97.8333,36.5 98.5,36.5C 100.317,37.2192 100.984,38.2192 100.5,39.5C 85.1933,31.7157 69.5267,30.7157 53.5,36.5C 53.1667,36.5 52.8333,36.5 52.5,36.5C 58.3005,31.4039 65.1339,29.4039 73,30.5C 81.5946,30.1914 89.7613,31.858 97.5,35.5 Z"/></g>
<g><path style="opacity:1" fill="#d1d2bd" d="M 78.5,10.5 C 78.8333,10.5 79.1667,10.5 79.5,10.5C 80.209,11.404 81.209,11.7373 82.5,11.5C 90.1025,14.905 96.6025,19.905 102,26.5C 104.956,30.5075 106.123,34.8409 105.5,39.5C 103.5,38.1667 101.5,36.8333 99.5,35.5C 98.8933,35.6236 98.56,35.9569 98.5,36.5C 97.8333,36.5 97.5,36.1667 97.5,35.5C 91.9287,28.423 85.762,21.7563 79,15.5C 78.5065,13.8659 78.3398,12.1992 78.5,10.5 Z"/></g>
<g><path style="opacity:1" fill="#f1f1f0" d="M 127.5,3.5 C 136.431,7.92952 143.264,14.5962 148,23.5C 149.502,28.1781 151.002,32.8448 152.5,37.5C 166.479,25.6012 182.479,21.7679 200.5,26C 202.584,26.6972 204.251,27.8639 205.5,29.5C 193.388,26.5386 181.388,27.0386 169.5,31C 162.761,34.1185 156.261,37.6185 150,41.5C 147.806,25.4088 140.306,12.7421 127.5,3.5 Z"/></g>
<g><path style="opacity:1" fill="#f6f6f6" d="M 127.5,32.5 C 127.833,33.5 128.5,34.1667 129.5,34.5C 129.649,35.552 129.483,36.552 129,37.5C 117.229,22.1969 101.729,13.5303 82.5,11.5C 81.209,11.7373 80.209,11.404 79.5,10.5C 99.9171,8.03979 115.917,15.3731 127.5,32.5 Z"/></g>
<g><path style="opacity:1" fill="#cecfba" d="M 119.5,2.5 C 128.96,11.0855 133.793,21.7522 134,34.5C 132.738,38.1505 131.238,38.1505 129.5,34.5C 128.5,34.1667 127.833,33.5 127.5,32.5C 128.598,31.3991 128.765,30.0657 128,28.5C 124.417,20.5001 121.251,12.3335 118.5,4C 118.57,3.2352 118.903,2.7352 119.5,2.5 Z"/></g>
<g><path style="opacity:1" fill="#fdfdec" d="M 119.5,2.5 C 122.279,2.27863 124.946,2.61197 127.5,3.5C 140.306,12.7421 147.806,25.4088 150,41.5C 156.261,37.6185 162.761,34.1185 169.5,31C 181.388,27.0386 193.388,26.5386 205.5,29.5C 206.167,29.5 206.5,29.8333 206.5,30.5C 201.156,30.334 195.823,30.5006 190.5,31C 180.649,32.9207 173.316,38.2541 168.5,47C 171,47.5 173.5,48 176,48.5C 177.07,48.472 177.903,48.1386 178.5,47.5C 196.924,43.7536 212.258,48.7536 224.5,62.5C 224.565,62.9382 224.399,63.2716 224,63.5C 213.528,59.8964 203.028,59.7297 192.5,63C 189.689,64.6437 187.356,66.8103 185.5,69.5C 187.631,70.1687 189.631,70.8354 191.5,71.5C 190.022,71.238 188.689,71.5713 187.5,72.5C 195.554,77.1939 203.888,81.3606 212.5,85C 220.096,91.0255 224.43,98.8588 225.5,108.5C 220.242,102.742 214.242,97.9083 207.5,94C 203.198,92.4649 198.865,92.2983 194.5,93.5C 195.641,94.4255 195.641,95.2588 194.5,96C 195.373,97.045 196.373,97.8783 197.5,98.5C 198.167,98.8333 198.833,99.1667 199.5,99.5C 203.42,105.003 206.587,111.003 209,117.5C 210.638,122.51 210.805,127.51 209.5,132.5C 208.833,132.5 208.5,132.167 208.5,131.5C 204.956,124.265 200.289,117.765 194.5,112C 190.514,109.335 186.181,108.335 181.5,109C 183.373,110.704 185.04,112.537 186.5,114.5C 186.5,117.833 186.5,121.167 186.5,124.5C 181.701,149.466 166.701,163.633 141.5,167C 121.954,170.29 102.954,168.457 84.5,161.5C 79.572,158.44 75.072,154.774 71,150.5C 70.805,151.819 70.9717,153.153 71.5,154.5C 72.2423,156.426 73.2423,158.259 74.5,160C 48.9933,149.083 37.4933,129.583 40,101.5C 41.5922,91.9934 45.0922,83.3267 50.5,75.5C 56.7436,66.4258 64.7436,59.2591 74.5,54C 72.4944,54.1503 70.4944,54.6503 68.5,55.5C 60.4381,55.4825 52.6047,56.8159 45,59.5C 43.9701,59.1639 43.4701,58.4972 43.5,57.5C 45.5004,54.0064 48.5004,51.8397 52.5,51C 59.6302,50.0416 66.6302,49.2083 73.5,48.5C 76.1437,47.5067 78.8103,46.5067 81.5,45.5C 72.7191,40.4608 63.3858,37.4608 53.5,36.5C 69.5267,30.7157 85.1933,31.7157 100.5,39.5C 100.984,38.2192 100.317,37.2192 98.5,36.5C 98.56,35.9569 98.8933,35.6236 99.5,35.5C 101.5,36.8333 103.5,38.1667 105.5,39.5C 106.123,34.8409 104.956,30.5075 102,26.5C 96.6025,19.905 90.1025,14.905 82.5,11.5C 101.729,13.5303 117.229,22.1969 129,37.5C 129.483,36.552 129.649,35.552 129.5,34.5C 131.238,38.1505 132.738,38.1505 134,34.5C 133.793,21.7522 128.96,11.0855 119.5,2.5 Z"/></g>
<g><path style="opacity:1" fill="#cbccb8" d="M 68.5,55.5 C 61.9899,62.7434 53.9899,64.5767 44.5,61C 42.5049,60.0764 42.1716,58.9097 43.5,57.5C 43.4701,58.4972 43.9701,59.1639 45,59.5C 52.6047,56.8159 60.4381,55.4825 68.5,55.5 Z"/></g>
<g><path style="opacity:1" fill="#cecfba" d="M 224.5,62.5 C 225.043,62.56 225.376,62.8933 225.5,63.5C 224.335,64.5836 223.002,65.4169 221.5,66C 211.625,68.5297 201.625,70.363 191.5,71.5C 189.631,70.8354 187.631,70.1687 185.5,69.5C 187.356,66.8103 189.689,64.6437 192.5,63C 203.028,59.7297 213.528,59.8964 224,63.5C 224.399,63.2716 224.565,62.9382 224.5,62.5 Z"/></g>
<g><path style="opacity:1" fill="#131312" d="M 89.5,55.5 C 96.6762,54.7944 103.343,56.2944 109.5,60C 111.884,62.3792 113.384,65.2125 114,68.5C 125.253,60.7654 136.753,60.5988 148.5,68C 164.836,80.8552 171.669,97.6885 169,118.5C 163.343,145.937 146.509,157.437 118.5,153C 106.577,150.215 97.9104,143.382 92.5,132.5C 76.7762,140.157 63.2762,137.157 52,123.5C 47.4672,114.903 46.4672,105.903 49,96.5C 55.5146,75.8458 69.0146,62.1791 89.5,55.5 Z"/></g>
<g><path style="opacity:1" fill="#c8c8c8" d="M 90.5,57.5 C 96.5325,56.9652 102.199,58.1319 107.5,61C 110.558,63.807 112.225,67.307 112.5,71.5C 124.267,62.3707 136.267,62.2041 148.5,71C 167.051,87.7297 171.884,107.896 163,131.5C 158.372,141.076 150.872,147.243 140.5,150C 119.306,154.894 103.306,148.061 92.5,129.5C 82.4453,137.136 72.112,137.303 61.5,130C 53.1537,124.476 49.1537,116.642 49.5,106.5C 51.0856,90.0931 58.4189,76.9264 71.5,67C 77.3784,62.7274 83.7117,59.5607 90.5,57.5 Z"/></g>
<g><path style="opacity:1" fill="#fefefe" d="M 89.5,59.5 C 104.614,57.1182 111.447,63.4515 110,78.5C 115.619,72.2186 122.619,68.5519 131,67.5C 135.15,68.2162 138.983,69.7162 142.5,72C 157.988,83.8185 163.822,99.3185 160,118.5C 153.666,141.589 138.833,150.089 115.5,144C 106.388,140.055 99.7211,133.555 95.5,124.5C 82.2326,133.242 69.7326,132.242 58,121.5C 50.7211,109.899 50.7211,98.2328 58,86.5C 65.9144,74.4143 76.4144,65.4143 89.5,59.5 Z"/></g>
<g><path style="opacity:1" fill="#f1f1f1" d="M 191.5,71.5 C 203.305,73.4141 213.138,79.0808 221,88.5C 226.294,95.009 228.127,102.342 226.5,110.5C 225.893,110.376 225.56,110.043 225.5,109.5C 225.5,109.167 225.5,108.833 225.5,108.5C 224.43,98.8588 220.096,91.0255 212.5,85C 203.888,81.3606 195.554,77.1939 187.5,72.5C 188.689,71.5713 190.022,71.238 191.5,71.5 Z"/></g>
<g><path style="opacity:1" fill="#0c0c0c" d="M 66.5,83.5 C 71.397,80.6519 74.0636,82.3186 74.5,88.5C 73.9378,95.6448 70.4378,100.645 64,103.5C 62.395,102.899 61.0616,101.899 60,100.5C 58.9668,95.1055 59.9668,90.1055 63,85.5C 63.8159,84.1772 64.9826,83.5106 66.5,83.5 Z"/></g>
<g><path style="opacity:1" fill="#ebebeb" d="M 66.5,83.5 C 71.8807,83.4517 73.5474,85.9517 71.5,91C 64.745,91.7558 63.0783,89.2558 66.5,83.5 Z"/></g>
<g><path style="opacity:1" fill="#d0d1bc" d="M 50.5,75.5 C 45.0922,83.3267 41.5922,91.9934 40,101.5C 37.4933,129.583 48.9933,149.083 74.5,160C 73.2423,158.259 72.2423,156.426 71.5,154.5C 74.6215,156.448 77.6215,158.615 80.5,161C 76.8947,164.315 76.5614,167.982 79.5,172C 88.1187,172.241 89.7854,168.741 84.5,161.5C 102.954,168.457 121.954,170.29 141.5,167C 166.701,163.633 181.701,149.466 186.5,124.5C 186.833,124.5 187.167,124.5 187.5,124.5C 188.971,131.107 192.637,136.107 198.5,139.5C 199.386,140.325 199.719,141.325 199.5,142.5C 194.44,157.724 185.107,169.558 171.5,178C 165.141,181.453 158.474,184.119 151.5,186C 119.29,191.49 89.2898,185.824 61.5,169C 38.2132,153.593 28.7132,132.093 33,104.5C 37.0754,93.6315 42.9088,83.9648 50.5,75.5 Z"/></g>
<g><path style="opacity:1" fill="#0b0b0b" d="M 107.5,91.5 C 113.382,91.2172 116.049,94.0505 115.5,100C 114.968,106.932 111.468,111.432 105,113.5C 103.395,112.899 102.062,111.899 101,110.5C 99.2053,102.767 101.372,96.4333 107.5,91.5 Z"/></g>
<g><path style="opacity:1" fill="#cacbb7" d="M 225.5,108.5 C 225.5,108.833 225.5,109.167 225.5,109.5C 216.48,105.906 207.646,101.906 199,97.5C 198.235,97.5699 197.735,97.9033 197.5,98.5C 196.373,97.8783 195.373,97.045 194.5,96C 195.641,95.2588 195.641,94.4255 194.5,93.5C 198.865,92.2983 203.198,92.4649 207.5,94C 214.242,97.9083 220.242,102.742 225.5,108.5 Z"/></g>
<g><path style="opacity:1" fill="#efefef" d="M 107.5,93.5 C 113.643,94.0262 114.976,96.8595 111.5,102C 106.504,102.664 104.67,100.498 106,95.5C 106.717,94.9558 107.217,94.2891 107.5,93.5 Z"/></g>
<g><path style="opacity:1" fill="#ededec" d="M 199.5,99.5 C 210.94,107.214 215.106,117.881 212,131.5C 211.399,133.359 210.566,133.692 209.5,132.5C 210.805,127.51 210.638,122.51 209,117.5C 206.587,111.003 203.42,105.003 199.5,99.5 Z"/></g>
<g><path style="opacity:1" fill="#cecfbb" d="M 208.5,131.5 C 201.148,125.809 193.815,120.143 186.5,114.5C 185.04,112.537 183.373,110.704 181.5,109C 186.181,108.335 190.514,109.335 194.5,112C 200.289,117.765 204.956,124.265 208.5,131.5 Z"/></g>
<g><path style="opacity:1" fill="#a4a591" d="M 199.5,142.5 C 199.719,141.325 199.386,140.325 198.5,139.5C 192.637,136.107 188.971,131.107 187.5,124.5C 187.298,122.011 187.798,119.677 189,117.5C 193.033,121.868 197.366,125.868 202,129.5C 202.115,134.09 201.282,138.423 199.5,142.5 Z"/></g>
<g><path style="opacity:1" fill="#1b1b18" d="M 84.5,161.5 C 89.7854,168.741 88.1187,172.241 79.5,172C 76.5614,167.982 76.8947,164.315 80.5,161C 77.6215,158.615 74.6215,156.448 71.5,154.5C 70.9717,153.153 70.805,151.819 71,150.5C 75.072,154.774 79.572,158.44 84.5,161.5 Z"/></g>
<g><path style="opacity:1" fill="#ececec" d="M 42.5,156.5 C 44.5,157.833 46.1667,159.5 47.5,161.5C 41.8825,164.744 36.3825,168.411 31,172.5C 29.7402,177.814 31.5736,181.647 36.5,184C 52.4636,190.794 69.1303,194.794 86.5,196C 109.521,196.845 132.521,196.512 155.5,195C 169.646,193.571 183.313,190.238 196.5,185C 203.429,182.645 205.596,178.145 203,171.5C 199.273,168.914 195.773,166.247 192.5,163.5C 193.811,160.865 195.478,158.531 197.5,156.5C 207.664,159.615 217.664,163.448 227.5,168C 231.408,170.406 234.408,173.572 236.5,177.5C 236.5,179.167 236.5,180.833 236.5,182.5C 234.477,186.039 231.811,189.205 228.5,192C 210.752,200.438 192.086,205.771 172.5,208C 160.039,209.45 147.705,210.617 135.5,211.5C 123.5,211.5 111.5,211.5 99.5,211.5C 75.9467,210.469 52.6134,206.969 29.5,201C 21.7644,198.977 14.4311,195.977 7.5,192C 4.18944,189.205 1.52277,186.039 -0.5,182.5C -0.5,180.833 -0.5,179.167 -0.5,177.5C 0.879222,174.614 2.87922,172.114 5.5,170C 16.9105,163.029 29.2438,158.529 42.5,156.5 Z"/></g>
<g><path style="opacity:1" fill="#6c6d58" d="M 81.5,162.5 C 84.1717,164.391 85.1717,167.058 84.5,170.5C 79.9315,170.917 78.4315,168.917 80,164.5C 80.7172,163.956 81.2172,163.289 81.5,162.5 Z"/></g>
<g><path style="opacity:1" fill="#cacaca" d="M 47.5,161.5 C 71.6045,181.87 99.6045,191.537 131.5,190.5C 156.449,191.518 176.782,182.518 192.5,163.5C 195.773,166.247 199.273,168.914 203,171.5C 205.596,178.145 203.429,182.645 196.5,185C 183.313,190.238 169.646,193.571 155.5,195C 132.521,196.512 109.521,196.845 86.5,196C 69.1303,194.794 52.4636,190.794 36.5,184C 31.5736,181.647 29.7402,177.814 31,172.5C 36.3825,168.411 41.8825,164.744 47.5,161.5 Z"/></g>
<g><path style="opacity:1" fill="#fefefe" d="M -0.5,182.5 C 1.52277,186.039 4.18944,189.205 7.5,192C 14.4311,195.977 21.7644,198.977 29.5,201C 52.6134,206.969 75.9467,210.469 99.5,211.5C 66.1667,211.5 32.8333,211.5 -0.5,211.5C -0.5,201.833 -0.5,192.167 -0.5,182.5 Z"/></g>
<g><path style="opacity:1" fill="#fefefe" d="M 236.5,182.5 C 236.5,192.167 236.5,201.833 236.5,211.5C 202.833,211.5 169.167,211.5 135.5,211.5C 147.705,210.617 160.039,209.45 172.5,208C 192.086,205.771 210.752,200.438 228.5,192C 231.811,189.205 234.477,186.039 236.5,182.5 Z"/></g>
</svg>
