<?xml version="1.0" encoding="UTF-8"?>
<!DOCTYPE svg PUBLIC "-//W3C//DTD SVG 1.1//EN" "http://www.w3.org/Graphics/SVG/1.1/DTD/svg11.dtd">
<svg xmlns="http://www.w3.org/2000/svg" version="1.1" width="215px" height="235px" style="shape-rendering:geometricPrecision; text-rendering:geometricPrecision; image-rendering:optimizeQuality; fill-rule:evenodd; clip-rule:evenodd" xmlns:xlink="http://www.w3.org/1999/xlink">
<g><path style="opacity:1" fill="#fcfcfb" d="M -0.5,-0.5 C 35.1667,-0.5 70.8333,-0.5 106.5,-0.5C 90.4888,3.67022 79.6555,13.6702 74,29.5C 72.0458,34.9826 71.0458,40.6493 71,46.5C 66.7489,38.0131 65.4156,29.0131 67,19.5C 69.013,15.1674 70.6796,10.8341 72,6.5C 63.084,17.6978 61.2507,30.0311 66.5,43.5C 66.1667,43.8333 65.8333,44.1667 65.5,44.5C 61.742,42.5388 58.242,40.2055 55,37.5C 55.9404,34.0742 57.1071,30.5742 58.5,27C 55.5901,19.9352 52.0901,19.7685 48,26.5C 47.3228,30.1653 48.1561,33.4986 50.5,36.5C 42.7146,38.7362 38.3813,35.7362 37.5,27.5C 37.2941,23.1018 37.6274,18.7685 38.5,14.5C 36.7587,16.3949 35.7587,18.7282 35.5,21.5C 35.0836,27.6759 36.7503,33.1759 40.5,38C 44.4507,40.1007 48.284,39.934 52,37.5C 54.894,40.3614 58.0607,42.8614 61.5,45C 42.6606,43.7242 26.1606,49.2242 12,61.5C 10.2491,63.212 9.58245,65.212 10,67.5C 13.7038,71.5947 17.8705,75.0947 22.5,78C 13.9528,83.5468 7.1195,90.7135 2,99.5C 1.15876,102.628 0.325426,105.628 -0.5,108.5C -0.5,72.1667 -0.5,35.8333 -0.5,-0.5 Z"/></g>
<g><path style="opacity:1" fill="#fdfcfc" d="M 119.5,-0.5 C 151.167,-0.5 182.833,-0.5 214.5,-0.5C 214.5,42.8333 214.5,86.1667 214.5,129.5C 212.755,121.665 209.589,114.331 205,107.5C 198.691,99.0235 192.191,90.6901 185.5,82.5C 192.277,80.1465 199.277,78.6465 206.5,78C 207.578,77.3261 208.245,76.3261 208.5,75C 202.719,63.262 193.719,54.9287 181.5,50C 185.286,48.6074 188.952,46.9407 192.5,45C 195.352,42.8474 195.852,40.3474 194,37.5C 183.663,27.9151 171.496,21.9151 157.5,19.5C 159.03,17.7738 160.03,15.7738 160.5,13.5C 160.41,11.5749 159.41,10.4083 157.5,10C 143.445,8.03614 130.278,10.5361 118,17.5C 118.334,12.4771 119.168,7.4771 120.5,2.5C 120.315,1.41635 119.982,0.416349 119.5,-0.5 Z"/></g>
<g><path style="opacity:1" fill="#fc9700" d="M 110.5,24.5 C 107.783,28.9165 105.949,33.5831 105,38.5C 105.852,37.4293 106.685,36.4293 107.5,35.5C 113.089,29.4106 119.422,24.2439 126.5,20C 134.687,16.773 143.02,14.6064 151.5,13.5C 152.978,13.238 154.311,13.5713 155.5,14.5C 150.022,23.1443 143.022,30.311 134.5,36C 137.637,35.4408 140.637,34.2741 143.5,32.5C 154.967,29.537 166.3,30.037 177.5,34C 181.619,36.7261 185.952,38.8928 190.5,40.5C 189.942,41.7899 188.942,42.6232 187.5,43C 178.569,46.6974 169.569,49.8641 160.5,52.5C 167.775,53.3933 176.109,55.56 185.5,59C 189.562,62.0289 193.895,64.5289 198.5,66.5C 200.403,68.6279 202.069,70.9613 203.5,73.5C 195.756,75.4887 187.922,77.1553 180,78.5C 177.384,76.8878 175.05,74.8878 173,72.5C 172.536,73.0944 172.369,73.7611 172.5,74.5C 183.971,89.42 194.471,105.087 204,121.5C 205.026,124.802 205.86,128.135 206.5,131.5C 203.856,139.918 200.689,148.251 197,156.5C 192.982,163.214 188.482,169.547 183.5,175.5C 180.19,173.518 177.19,171.185 174.5,168.5C 173.046,157.813 173.212,147.147 175,136.5C 178.396,133.607 181.229,130.274 183.5,126.5C 183.167,126.167 182.833,125.833 182.5,125.5C 162.232,145.04 137.899,154.373 109.5,153.5C 105.167,153.333 100.833,153.167 96.5,153C 95.8333,152.667 95.1667,152.333 94.5,152C 98.5854,151.366 99.0854,150.199 96,148.5C 88.2403,148.966 81.7403,151.966 76.5,157.5C 76.8333,157.833 77.1667,158.167 77.5,158.5C 80.4454,156.444 83.6121,154.777 87,153.5C 92.4054,162.639 98.0721,171.639 104,180.5C 108.182,184.908 112.349,189.241 116.5,193.5C 115.848,194.725 114.681,195.392 113,195.5C 110.502,195.083 108.002,194.749 105.5,194.5C 90.3211,189.743 76.3211,182.577 63.5,173C 55.9339,165.995 50.2672,157.828 46.5,148.5C 45.7584,143.125 44.7584,137.791 43.5,132.5C 42.8165,132.863 42.1499,133.196 41.5,133.5C 31.9308,137.687 21.9308,140.687 11.5,142.5C 10.2867,142.253 9.61998,141.586 9.5,140.5C 9.87513,138.302 10.5418,136.302 11.5,134.5C 12.4959,134.586 13.3292,134.252 14,133.5C 16.2823,129.282 19.2823,125.616 23,122.5C 24.4544,120.756 24.6211,119.089 23.5,117.5C 23.3691,116.624 23.7025,115.957 24.5,115.5C 29.6237,113.625 34.6237,111.459 39.5,109C 40.6956,108.346 40.6956,107.846 39.5,107.5C 27.9269,113.692 15.5935,117.025 2.5,117.5C 2.23219,115.901 2.56552,114.568 3.5,113.5C 12.0516,95.0584 26.0516,82.8918 45.5,77C 43.2028,76.9822 40.8695,77.1489 38.5,77.5C 29.5567,77.1971 21.8901,73.8638 15.5,67.5C 23.9921,63.0882 32.6588,58.9215 41.5,55C 51.7751,52.8924 61.9417,53.3924 72,56.5C 72.8333,56.1667 73.6667,55.8333 74.5,55.5C 73.3757,54.1408 72.0423,53.1408 70.5,52.5C 71.6491,52.2089 72.3158,51.3756 72.5,50C 73.0742,40.7807 75.7408,32.2807 80.5,24.5C 88.7444,17.3626 98.0777,11.6959 108.5,7.5C 110.5,7.5 111.5,8.5 111.5,10.5C 110.869,14.6771 110.203,18.8438 109.5,23C 109.57,23.7648 109.903,24.2648 110.5,24.5 Z"/></g>
<g><path style="opacity:1" fill="#a17c75" d="M 38.5,14.5 C 40.5328,9.6589 43.8661,8.49224 48.5,11C 44.5622,10.1226 41.2289,11.2893 38.5,14.5 Z"/></g>
<g><path style="opacity:1" fill="#966a62" d="M 38.5,14.5 C 37.6274,18.7685 37.2941,23.1018 37.5,27.5C 36.8333,25.5 36.1667,23.5 35.5,21.5C 35.7587,18.7282 36.7587,16.3949 38.5,14.5 Z"/></g>
<g><path style="opacity:1" fill="#641e10" d="M 106.5,-0.5 C 110.833,-0.5 115.167,-0.5 119.5,-0.5C 119.982,0.416349 120.315,1.41635 120.5,2.5C 119.168,7.4771 118.334,12.4771 118,17.5C 130.278,10.5361 143.445,8.03614 157.5,10C 159.41,10.4083 160.41,11.5749 160.5,13.5C 160.03,15.7738 159.03,17.7738 157.5,19.5C 171.496,21.9151 183.663,27.9151 194,37.5C 195.852,40.3474 195.352,42.8474 192.5,45C 188.952,46.9407 185.286,48.6074 181.5,50C 193.719,54.9287 202.719,63.262 208.5,75C 208.245,76.3261 207.578,77.3261 206.5,78C 199.277,78.6465 192.277,80.1465 185.5,82.5C 192.191,90.6901 198.691,99.0235 205,107.5C 209.589,114.331 212.755,121.665 214.5,129.5C 214.5,133.833 214.5,138.167 214.5,142.5C 210.77,158.96 203.104,173.294 191.5,185.5C 190.094,185.027 189.427,184.027 189.5,182.5C 190.833,180.167 192.167,177.833 193.5,175.5C 195.983,172.627 198.483,169.627 201,166.5C 203.48,161.218 205.647,155.885 207.5,150.5C 210.332,140.137 210.166,129.803 207,119.5C 197.903,102.63 186.403,87.6298 172.5,74.5C 172.369,73.7611 172.536,73.0944 173,72.5C 175.05,74.8878 177.384,76.8878 180,78.5C 187.922,77.1553 195.756,75.4887 203.5,73.5C 202.069,70.9613 200.403,68.6279 198.5,66.5C 188.523,54.9478 175.856,50.2811 160.5,52.5C 169.569,49.8641 178.569,46.6974 187.5,43C 188.942,42.6232 189.942,41.7899 190.5,40.5C 180.939,28.8104 168.605,23.6437 153.5,25C 149.238,26.2939 145.905,28.7939 143.5,32.5C 140.637,34.2741 137.637,35.4408 134.5,36C 143.022,30.311 150.022,23.1443 155.5,14.5C 154.311,13.5713 152.978,13.238 151.5,13.5C 135.072,12.2514 121.239,17.5848 110,29.5C 108.878,31.4068 108.045,33.4068 107.5,35.5C 106.685,36.4293 105.852,37.4293 105,38.5C 105.949,33.5831 107.783,28.9165 110.5,24.5C 112.499,17.8585 114.499,11.1918 116.5,4.5C 107.777,2.28386 99.7773,3.78386 92.5,9C 87.9023,13.7569 83.9023,18.9236 80.5,24.5C 75.7408,32.2807 73.0742,40.7807 72.5,50C 72.3158,51.3756 71.6491,52.2089 70.5,52.5C 49.6663,45.3823 31.1663,49.3823 15,64.5C 14.2599,65.7494 14.4265,66.7494 15.5,67.5C 21.8901,73.8638 29.5567,77.1971 38.5,77.5C 18.0388,80.9611 6.37209,92.9611 3.5,113.5C 2.56552,114.568 2.23219,115.901 2.5,117.5C 15.5935,117.025 27.9269,113.692 39.5,107.5C 40.6956,107.846 40.6956,108.346 39.5,109C 34.6237,111.459 29.6237,113.625 24.5,115.5C 23.7025,115.957 23.3691,116.624 23.5,117.5C 17.985,122.028 13.985,127.695 11.5,134.5C 10.5418,136.302 9.87513,138.302 9.5,140.5C 8.52056,143.625 8.18723,146.958 8.5,150.5C 11.7814,150.58 14.7814,149.913 17.5,148.5C 24.9654,146.396 32.2988,144.23 39.5,142C 37.7669,143.189 36.1002,144.356 34.5,145.5C 31.7267,160.113 34.8934,173.446 44,185.5C 59.3037,203.4 78.8037,212.567 102.5,213C 110.167,213.667 117.833,213.667 125.5,213C 123.636,211.569 121.636,210.403 119.5,209.5C 116.106,207.618 113.106,205.118 110.5,202C 117.877,205.51 125.544,208.844 133.5,212C 136.036,212.339 138.536,212.839 141,213.5C 143.77,212.652 146.603,212.319 149.5,212.5C 150.906,212.973 151.573,213.973 151.5,215.5C 141.793,215.924 132.127,216.757 122.5,218C 99.9225,219.688 78.5892,215.355 58.5,205C 38.9651,191.77 28.9651,173.27 28.5,149.5C 20.9874,151.969 13.3207,153.469 5.5,154C 3.86533,141.548 7.19866,130.548 15.5,121C 10.098,121.35 4.76467,121.183 -0.5,120.5C -0.5,116.5 -0.5,112.5 -0.5,108.5C 0.325426,105.628 1.15876,102.628 2,99.5C 7.1195,90.7135 13.9528,83.5468 22.5,78C 17.8705,75.0947 13.7038,71.5947 10,67.5C 9.58245,65.212 10.2491,63.212 12,61.5C 26.1606,49.2242 42.6606,43.7242 61.5,45C 58.0607,42.8614 54.894,40.3614 52,37.5C 48.284,39.934 44.4507,40.1007 40.5,38C 36.7503,33.1759 35.0836,27.6759 35.5,21.5C 36.1667,23.5 36.8333,25.5 37.5,27.5C 38.3813,35.7362 42.7146,38.7362 50.5,36.5C 48.1561,33.4986 47.3228,30.1653 48,26.5C 52.0901,19.7685 55.5901,19.9352 58.5,27C 57.1071,30.5742 55.9404,34.0742 55,37.5C 58.242,40.2055 61.742,42.5388 65.5,44.5C 65.8333,44.1667 66.1667,43.8333 66.5,43.5C 61.2507,30.0311 63.084,17.6978 72,6.5C 70.6796,10.8341 69.013,15.1674 67,19.5C 65.4156,29.0131 66.7489,38.0131 71,46.5C 71.0458,40.6493 72.0458,34.9826 74,29.5C 79.6555,13.6702 90.4888,3.67022 106.5,-0.5 Z"/></g>
<g><path style="opacity:1" fill="#f8c300" d="M 172.5,74.5 C 186.403,87.6298 197.903,102.63 207,119.5C 210.166,129.803 210.332,140.137 207.5,150.5C 207.672,144.323 207.339,137.99 206.5,131.5C 205.86,128.135 205.026,124.802 204,121.5C 194.471,105.087 183.971,89.42 172.5,74.5 Z"/></g>
<g><path style="opacity:1" fill="#f9c500" d="M 3.5,113.5 C 6.37209,92.9611 18.0388,80.9611 38.5,77.5C 40.8695,77.1489 43.2028,76.9822 45.5,77C 26.0516,82.8918 12.0516,95.0584 3.5,113.5 Z"/></g>
<g><path style="opacity:1" fill="#15110d" d="M 112.5,147.5 C 107.4,144.193 101.733,142.36 95.5,142C 88.4905,141.577 81.4905,141.744 74.5,142.5C 65.295,136.418 60.4617,127.751 60,116.5C 58.1564,98.3618 63.9898,83.1952 77.5,71C 85.696,65.2298 94.0293,65.0632 102.5,70.5C 105.593,58.6118 113.26,53.7785 125.5,56C 147.948,60.9679 165.782,72.8012 179,91.5C 187.013,105.101 184.513,116.268 171.5,125C 162.325,129.392 152.658,131.725 142.5,132C 140.103,137.396 136.103,141.062 130.5,143C 124.273,144.178 118.273,145.678 112.5,147.5 Z"/></g>
<g><path style="opacity:1" fill="#d6d3c9" d="M 75.5,76.5 C 72.4272,82.9886 69.5939,89.6553 67,96.5C 62.7611,112.669 66.5944,126.503 78.5,138C 79.0944,138.464 79.7611,138.631 80.5,138.5C 77.0897,141.418 74.2563,140.752 72,136.5C 62.8976,125.773 59.8976,113.44 63,99.5C 65.1193,90.5858 69.2859,82.9192 75.5,76.5 Z"/></g>
<g><path style="opacity:1" fill="#fdfdfd" d="M 179.5,99.5 C 180.889,106.555 178.889,112.388 173.5,117C 164.252,122.583 154.252,126.083 143.5,127.5C 143.154,125.637 142.154,124.804 140.5,125C 139.205,130.247 136.205,134.247 131.5,137C 124.381,138.883 117.381,140.717 110.5,142.5C 100.785,139.215 90.7849,137.882 80.5,138.5C 79.7611,138.631 79.0944,138.464 78.5,138C 66.5944,126.503 62.7611,112.669 67,96.5C 69.5939,89.6553 72.4272,82.9886 75.5,76.5C 80.676,70.0933 87.3427,67.9266 95.5,70C 98.7779,71.8091 102.111,73.3091 105.5,74.5C 106.156,61.1441 113.156,55.9774 126.5,59C 150.475,64.5013 168.142,78.0013 179.5,99.5 Z"/></g>
<g><path style="opacity:1" fill="#141415" d="M 99.5,100.5 C 105.807,100.958 109.974,104.291 112,110.5C 114.409,115.719 113.909,120.553 110.5,125C 105.14,125.331 101.64,122.831 100,117.5C 96.9789,111.853 96.8122,106.186 99.5,100.5 Z"/></g>
<g><path style="opacity:1" fill="#dbdbdb" d="M 101.5,102.5 C 105.976,102.8 107.31,104.967 105.5,109C 101.265,108.705 99.932,106.539 101.5,102.5 Z"/></g>
<g><path style="opacity:1" fill="#111113" d="M 128.5,91.5 C 133.407,91.551 136.907,93.8843 139,98.5C 142.023,103.397 142.856,108.564 141.5,114C 136.538,114.399 133.038,112.232 131,107.5C 127.708,102.481 126.874,97.1472 128.5,91.5 Z"/></g>
<g><path style="opacity:1" fill="#d9d9d9" d="M 129.5,93.5 C 133.833,93.1667 135.833,95.1667 135.5,99.5C 131.833,99.1667 129.833,97.1667 129.5,93.5 Z"/></g>
<g><path style="opacity:1" fill="#f6c102" d="M 160.5,52.5 C 175.856,50.2811 188.523,54.9478 198.5,66.5C 193.895,64.5289 189.562,62.0289 185.5,59C 176.109,55.56 167.775,53.3933 160.5,52.5 Z"/></g>
<g><path style="opacity:1" fill="#f8c500" d="M 70.5,52.5 C 72.0423,53.1408 73.3757,54.1408 74.5,55.5C 73.6667,55.8333 72.8333,56.1667 72,56.5C 61.9417,53.3924 51.7751,52.8924 41.5,55C 32.6588,58.9215 23.9921,63.0882 15.5,67.5C 14.4265,66.7494 14.2599,65.7494 15,64.5C 31.1663,49.3823 49.6663,45.3823 70.5,52.5 Z"/></g>
<g><path style="opacity:1" fill="#f0eae9" d="M 52.5,24.5 C 53.8333,24.5 55.1667,24.5 56.5,24.5C 56.7427,28.7744 55.4094,32.4411 52.5,35.5C 49.8417,31.8005 49.8417,28.1339 52.5,24.5 Z"/></g>
<g><path style="opacity:1" fill="#f9c501" d="M 190.5,40.5 C 185.952,38.8928 181.619,36.7261 177.5,34C 166.3,30.037 154.967,29.537 143.5,32.5C 145.905,28.7939 149.238,26.2939 153.5,25C 168.605,23.6437 180.939,28.8104 190.5,40.5 Z"/></g>
<g><path style="opacity:1" fill="#f5c203" d="M 151.5,13.5 C 143.02,14.6064 134.687,16.773 126.5,20C 119.422,24.2439 113.089,29.4106 107.5,35.5C 108.045,33.4068 108.878,31.4068 110,29.5C 121.239,17.5848 135.072,12.2514 151.5,13.5 Z"/></g>
<g><path style="opacity:1" fill="#f8c503" d="M 110.5,24.5 C 109.903,24.2648 109.57,23.7648 109.5,23C 110.203,18.8438 110.869,14.6771 111.5,10.5C 111.5,8.5 110.5,7.5 108.5,7.5C 98.0777,11.6959 88.7444,17.3626 80.5,24.5C 83.9023,18.9236 87.9023,13.7569 92.5,9C 99.7773,3.78386 107.777,2.28386 116.5,4.5C 114.499,11.1918 112.499,17.8585 110.5,24.5 Z"/></g>
<g><path style="opacity:1" fill="#f5c217" d="M 23.5,117.5 C 24.6211,119.089 24.4544,120.756 23,122.5C 19.2823,125.616 16.2823,129.282 14,133.5C 13.3292,134.252 12.4959,134.586 11.5,134.5C 13.985,127.695 17.985,122.028 23.5,117.5 Z"/></g>
<g><path style="opacity:1" fill="#fdfdfd" d="M -0.5,120.5 C 4.76467,121.183 10.098,121.35 15.5,121C 7.19866,130.548 3.86533,141.548 5.5,154C 13.3207,153.469 20.9874,151.969 28.5,149.5C 28.9651,173.27 38.9651,191.77 58.5,205C 78.5892,215.355 99.9225,219.688 122.5,218C 132.127,216.757 141.793,215.924 151.5,215.5C 154.89,224.551 160.89,230.884 169.5,234.5C 112.833,234.5 56.1667,234.5 -0.5,234.5C -0.5,196.5 -0.5,158.5 -0.5,120.5 Z"/></g>
<g><path style="opacity:1" fill="#d8d4ca" d="M 179.5,99.5 C 182.482,108.247 180.148,115.414 172.5,121C 164.395,125.535 155.729,128.368 146.5,129.5C 144.97,129.36 143.97,128.693 143.5,127.5C 154.252,126.083 164.252,122.583 173.5,117C 178.889,112.388 180.889,106.555 179.5,99.5 Z"/></g>
<g><path style="opacity:1" fill="#fb811f" d="M 41.5,133.5 C 38.2635,136.797 34.5969,139.63 30.5,142C 25.3368,143.912 21.0035,146.079 17.5,148.5C 14.7814,149.913 11.7814,150.58 8.5,150.5C 8.18723,146.958 8.52056,143.625 9.5,140.5C 9.61998,141.586 10.2867,142.253 11.5,142.5C 21.9308,140.687 31.9308,137.687 41.5,133.5 Z"/></g>
<g><path style="opacity:1" fill="#fd6601" d="M 46.5,148.5 C 53.8191,174.31 70.8191,189.477 97.5,194C 100.146,194.497 102.813,194.664 105.5,194.5C 108.002,194.749 110.502,195.083 113,195.5C 114.681,195.392 115.848,194.725 116.5,193.5C 125.076,202.287 135.409,207.621 147.5,209.5C 148.906,209.973 149.573,210.973 149.5,212.5C 146.603,212.319 143.77,212.652 141,213.5C 138.536,212.839 136.036,212.339 133.5,212C 125.544,208.844 117.877,205.51 110.5,202C 113.106,205.118 116.106,207.618 119.5,209.5C 90.3006,212.76 65.8006,203.76 46,182.5C 37.9935,171.477 34.1602,159.143 34.5,145.5C 36.1002,144.356 37.7669,143.189 39.5,142C 32.2988,144.23 24.9654,146.396 17.5,148.5C 21.0035,146.079 25.3368,143.912 30.5,142C 34.5969,139.63 38.2635,136.797 41.5,133.5C 42.1499,133.196 42.8165,132.863 43.5,132.5C 44.7584,137.791 45.7584,143.125 46.5,148.5 Z"/></g>
<g><path style="opacity:1" fill="#d7d3ca" d="M 143.5,127.5 C 142.5,127.5 141.5,127.5 140.5,127.5C 138.787,135.049 134.12,139.882 126.5,142C 122.15,142.368 117.817,142.868 113.5,143.5C 112.274,143.48 111.274,143.147 110.5,142.5C 117.381,140.717 124.381,138.883 131.5,137C 136.205,134.247 139.205,130.247 140.5,125C 142.154,124.804 143.154,125.637 143.5,127.5 Z"/></g>
<g><path style="opacity:1" fill="#d21c13" d="M 172.5,167.5 C 159.964,161.345 149.964,164.012 142.5,175.5C 139.55,174.295 136.55,173.295 133.5,172.5C 133.665,169.482 133.498,166.482 133,163.5C 130.922,160.261 128.422,157.594 125.5,155.5C 127.5,155.5 129.5,155.5 131.5,155.5C 142.029,165.261 152.195,164.595 162,153.5C 163.741,150.691 164.908,147.691 165.5,144.5C 166.812,142.359 168.645,140.692 171,139.5C 170.085,148.87 170.585,158.204 172.5,167.5 Z"/></g>
<g><path style="opacity:1" fill="#fc6701" d="M 206.5,131.5 C 207.339,137.99 207.672,144.323 207.5,150.5C 205.647,155.885 203.48,161.218 201,166.5C 198.483,169.627 195.983,172.627 193.5,175.5C 191.5,177.167 189.5,178.833 187.5,180.5C 185.937,179.055 184.604,177.389 183.5,175.5C 188.482,169.547 192.982,163.214 197,156.5C 200.689,148.251 203.856,139.918 206.5,131.5 Z"/></g>
<g><path style="opacity:1" fill="#f3c204" d="M 112.5,147.5 C 113.091,148.151 113.757,148.818 114.5,149.5C 114.167,149.833 113.833,150.167 113.5,150.5C 105.509,146.436 97.0091,144.436 88,144.5C 81.8451,145.384 75.6785,145.551 69.5,145C 71.1749,144.015 72.8415,143.181 74.5,142.5C 81.4905,141.744 88.4905,141.577 95.5,142C 101.733,142.36 107.4,144.193 112.5,147.5 Z"/></g>
<g><path style="opacity:1" fill="#fcfcfc" d="M 214.5,142.5 C 214.5,173.167 214.5,203.833 214.5,234.5C 201.833,234.5 189.167,234.5 176.5,234.5C 191.582,229.674 198.748,219.341 198,203.5C 196.519,197.22 194.352,191.22 191.5,185.5C 203.104,173.294 210.77,158.96 214.5,142.5 Z"/></g>
<g><path style="opacity:1" fill="#ff8420" d="M 46.5,148.5 C 50.2672,157.828 55.9339,165.995 63.5,173C 76.3211,182.577 90.3211,189.743 105.5,194.5C 102.813,194.664 100.146,194.497 97.5,194C 70.8191,189.477 53.8191,174.31 46.5,148.5 Z"/></g>
<g><path style="opacity:1" fill="#491314" d="M 174.5,168.5 C 173.508,168.672 172.842,168.338 172.5,167.5C 170.585,158.204 170.085,148.87 171,139.5C 168.645,140.692 166.812,142.359 165.5,144.5C 164.798,143.884 163.798,143.884 162.5,144.5C 157.173,147.091 152.007,149.091 147,150.5C 142.596,151.468 138.429,152.802 134.5,154.5C 133.209,154.263 132.209,154.596 131.5,155.5C 129.5,155.5 127.5,155.5 125.5,155.5C 114.346,157.281 103.346,156.614 92.5,153.5C 92.1667,153.833 91.8333,154.167 91.5,154.5C 97.3371,165.986 104.67,176.32 113.5,185.5C 114.272,186.694 115.272,187.694 116.5,188.5C 124.416,197.068 134.083,202.735 145.5,205.5C 146.167,206.833 146.833,208.167 147.5,209.5C 135.409,207.621 125.076,202.287 116.5,193.5C 112.349,189.241 108.182,184.908 104,180.5C 98.0721,171.639 92.4054,162.639 87,153.5C 83.6121,154.777 80.4454,156.444 77.5,158.5C 77.1667,158.167 76.8333,157.833 76.5,157.5C 81.7403,151.966 88.2403,148.966 96,148.5C 99.0854,150.199 98.5854,151.366 94.5,152C 95.1667,152.333 95.8333,152.667 96.5,153C 100.833,153.167 105.167,153.333 109.5,153.5C 137.899,154.373 162.232,145.04 182.5,125.5C 182.833,125.833 183.167,126.167 183.5,126.5C 181.229,130.274 178.396,133.607 175,136.5C 173.212,147.147 173.046,157.813 174.5,168.5 Z"/></g>
<g><path style="opacity:1" fill="#f2f0ef" d="M 162.5,144.5 C 158.881,155.967 151.214,160.801 139.5,159C 137.34,158.004 135.673,156.504 134.5,154.5C 138.429,152.802 142.596,151.468 147,150.5C 152.007,149.091 157.173,147.091 162.5,144.5 Z"/></g>
<g><path style="opacity:1" fill="#6d6766" d="M 165.5,144.5 C 164.908,147.691 163.741,150.691 162,153.5C 152.195,164.595 142.029,165.261 131.5,155.5C 132.209,154.596 133.209,154.263 134.5,154.5C 135.673,156.504 137.34,158.004 139.5,159C 151.214,160.801 158.881,155.967 162.5,144.5C 163.798,143.884 164.798,143.884 165.5,144.5 Z"/></g>
<g><path style="opacity:1" fill="#a01209" d="M 125.5,155.5 C 128.422,157.594 130.922,160.261 133,163.5C 133.498,166.482 133.665,169.482 133.5,172.5C 122.53,170.501 115.863,174.834 113.5,185.5C 104.67,176.32 97.3371,165.986 91.5,154.5C 91.8333,154.167 92.1667,153.833 92.5,153.5C 103.346,156.614 114.346,157.281 125.5,155.5 Z"/></g>
<g><path style="opacity:1" fill="#cf9d53" d="M 34.5,145.5 C 34.1602,159.143 37.9935,171.477 46,182.5C 65.8006,203.76 90.3006,212.76 119.5,209.5C 121.636,210.403 123.636,211.569 125.5,213C 117.833,213.667 110.167,213.667 102.5,213C 78.8037,212.567 59.3037,203.4 44,185.5C 34.8934,173.446 31.7267,160.113 34.5,145.5 Z"/></g>
<g><path style="opacity:1" fill="#39274e" d="M 172.5,167.5 C 172.842,168.338 173.508,168.672 174.5,168.5C 177.19,171.185 180.19,173.518 183.5,175.5C 184.604,177.389 185.937,179.055 187.5,180.5C 187.833,181.5 188.5,182.167 189.5,182.5C 189.427,184.027 190.094,185.027 191.5,185.5C 194.352,191.22 196.519,197.22 198,203.5C 198.748,219.341 191.582,229.674 176.5,234.5C 174.167,234.5 171.833,234.5 169.5,234.5C 160.89,230.884 154.89,224.551 151.5,215.5C 151.573,213.973 150.906,212.973 149.5,212.5C 149.573,210.973 148.906,209.973 147.5,209.5C 146.833,208.167 146.167,206.833 145.5,205.5C 144.003,200.826 141.003,196.659 136.5,193C 139.906,193.638 142.74,195.472 145,198.5C 150.745,206.42 155.745,214.753 160,223.5C 164.98,230.445 171.146,232.112 178.5,228.5C 191.974,223.077 196.64,213.41 192.5,199.5C 187.573,182.57 176.573,172.236 159.5,168.5C 155.948,168.136 152.948,169.136 150.5,171.5C 148.466,172.548 147.133,174.214 146.5,176.5C 148.678,178.745 151.012,180.745 153.5,182.5C 148.332,180.088 142.999,177.921 137.5,176C 133.167,175.333 128.833,175.333 124.5,176C 123.058,176.377 122.058,177.21 121.5,178.5C 118.325,180.992 116.659,184.326 116.5,188.5C 115.272,187.694 114.272,186.694 113.5,185.5C 115.863,174.834 122.53,170.501 133.5,172.5C 136.55,173.295 139.55,174.295 142.5,175.5C 149.964,164.012 159.964,161.345 172.5,167.5 Z"/></g>
<g><path style="opacity:1" fill="#995bc9" d="M 192.5,199.5 C 192.442,210.956 186.775,217.622 175.5,219.5C 172.893,218.863 170.56,217.696 168.5,216C 162.928,209.936 157.595,203.769 152.5,197.5C 145.36,185.646 135.027,179.313 121.5,178.5C 122.058,177.21 123.058,176.377 124.5,176C 128.833,175.333 133.167,175.333 137.5,176C 142.999,177.921 148.332,180.088 153.5,182.5C 155.167,182.5 156.833,182.5 158.5,182.5C 158.657,181.127 158.49,179.793 158,178.5C 155.604,175.933 153.104,173.6 150.5,171.5C 152.948,169.136 155.948,168.136 159.5,168.5C 176.573,172.236 187.573,182.57 192.5,199.5 Z"/></g>
<g><path style="opacity:1" fill="#6e4c97" d="M 150.5,171.5 C 153.104,173.6 155.604,175.933 158,178.5C 158.49,179.793 158.657,181.127 158.5,182.5C 156.833,182.5 155.167,182.5 153.5,182.5C 151.012,180.745 148.678,178.745 146.5,176.5C 147.133,174.214 148.466,172.548 150.5,171.5 Z"/></g>
<g><path style="opacity:1" fill="#bd9ccd" d="M 164.5,179.5 C 167.152,178.738 169.818,179.238 172.5,181C 176.702,184.867 180.535,189.033 184,193.5C 188.303,199.343 188.47,205.176 184.5,211C 184.167,211.167 183.833,211.333 183.5,211.5C 182.416,210.335 181.583,209.002 181,207.5C 180.785,195.104 175.285,185.771 164.5,179.5 Z"/></g>
<g><path style="opacity:1" fill="#6e4c96" d="M 121.5,178.5 C 135.027,179.313 145.36,185.646 152.5,197.5C 155.462,206.212 159.295,214.545 164,222.5C 167.506,227.669 172.339,229.669 178.5,228.5C 171.146,232.112 164.98,230.445 160,223.5C 155.745,214.753 150.745,206.42 145,198.5C 142.74,195.472 139.906,193.638 136.5,193C 141.003,196.659 144.003,200.826 145.5,205.5C 134.083,202.735 124.416,197.068 116.5,188.5C 116.659,184.326 118.325,180.992 121.5,178.5 Z"/></g>
<g><path style="opacity:1" fill="#c7934d" d="M 193.5,175.5 C 192.167,177.833 190.833,180.167 189.5,182.5C 188.5,182.167 187.833,181.5 187.5,180.5C 189.5,178.833 191.5,177.167 193.5,175.5 Z"/></g>
<g><path style="opacity:1" fill="#7a54aa" d="M 152.5,197.5 C 157.595,203.769 162.928,209.936 168.5,216C 170.56,217.696 172.893,218.863 175.5,219.5C 186.775,217.622 192.442,210.956 192.5,199.5C 196.64,213.41 191.974,223.077 178.5,228.5C 172.339,229.669 167.506,227.669 164,222.5C 159.295,214.545 155.462,206.212 152.5,197.5 Z"/></g>
<g><path style="opacity:1" fill="#bc9bcd" d="M 170.5,205.5 C 172.545,207.984 175.212,208.984 178.5,208.5C 178.5,210.167 178.5,211.833 178.5,213.5C 174.077,212.697 171.41,210.031 170.5,205.5 Z"/></g>
</svg>
