<?xml version="1.0" encoding="UTF-8"?>
<!DOCTYPE svg PUBLIC "-//W3C//DTD SVG 1.1//EN" "http://www.w3.org/Graphics/SVG/1.1/DTD/svg11.dtd">
<svg xmlns="http://www.w3.org/2000/svg" version="1.1" width="208px" height="242px" style="shape-rendering:geometricPrecision; text-rendering:geometricPrecision; image-rendering:optimizeQuality; fill-rule:evenodd; clip-rule:evenodd" xmlns:xlink="http://www.w3.org/1999/xlink">
<g><path style="opacity:1" fill="#fbfcfc" d="M -0.5,-0.5 C 53.8333,-0.5 108.167,-0.5 162.5,-0.5C 160.07,1.0526 158.07,3.0526 156.5,5.5C 153.911,6.41938 151.911,8.08605 150.5,10.5C 147.224,11.1216 145.891,13.1216 146.5,16.5C 145.5,16.5 144.5,16.5 143.5,16.5C 134.665,12.2132 125.332,10.3799 115.5,11C 113.542,13.7482 111.709,16.5815 110,19.5C 110.482,15.0592 111.982,10.8925 114.5,7C 110.069,4.19022 105.236,3.02355 100,3.5C 87.4922,4.3349 75.3255,6.8349 63.5,11C 61.9588,12.5793 60.7922,14.4127 60,16.5C 58.3433,21.7746 57.0099,27.1079 56,32.5C 55.4001,26.0549 55.7334,19.7216 57,13.5C 52.2921,19.9988 49.9588,27.3321 50,35.5C 49.5008,30.8452 49.3342,26.1785 49.5,21.5C 40.9374,23.531 33.4374,27.531 27,33.5C 25.8011,36.7256 25.3011,40.059 25.5,43.5C 25.631,44.2389 25.4643,44.9056 25,45.5C 24.5831,44.244 23.7498,43.5774 22.5,43.5C 22.6882,41.8967 22.1882,40.5634 21,39.5C 20.8333,40 20.6667,40.5 20.5,41C 21.4063,45.4381 22.7396,49.6048 24.5,53.5C 24.4021,55.5529 25.0687,57.2196 26.5,58.5C 27.5137,61.6889 29.1804,64.5222 31.5,67C 26.7522,68.0822 22.0855,69.4155 17.5,71C 15.1975,72.1348 13.8642,73.9682 13.5,76.5C 16.4104,83.7452 21.4104,89.0786 28.5,92.5C 13.5568,96.4443 3.8901,105.778 -0.5,120.5C -0.5,80.1667 -0.5,39.8333 -0.5,-0.5 Z"/></g>
<g><path style="opacity:1" fill="#fbfdfc" d="M 163.5,-0.5 C 178.167,-0.5 192.833,-0.5 207.5,-0.5C 207.5,65.1667 207.5,130.833 207.5,196.5C 202.841,183.833 193.841,176.833 180.5,175.5C 180.5,170.167 180.5,164.833 180.5,159.5C 179.473,151.995 177.806,144.662 175.5,137.5C 191.911,136.451 195.411,129.118 186,115.5C 182.133,111.298 177.967,107.465 173.5,104C 192.26,94.6513 202.094,79.4847 203,58.5C 196.304,48.0194 188.137,46.8527 178.5,55C 166.992,57.4337 156.992,62.6004 148.5,70.5C 148.343,69.1266 148.51,67.7932 149,66.5C 151.435,63.0665 153.435,59.3998 155,55.5C 155.419,53.3203 155.252,51.1537 154.5,49C 154.862,47.5657 155.528,46.3991 156.5,45.5C 164.532,41.9053 172.865,39.072 181.5,37C 179.75,35.6814 177.75,35.1814 175.5,35.5C 175.158,34.6618 174.492,34.3284 173.5,34.5C 168.453,34.3375 163.453,34.6708 158.5,35.5C 158.33,34.1779 158.663,33.0113 159.5,32C 163.732,29.7254 167.732,27.2254 171.5,24.5C 171.103,23.3682 169.103,23.0349 165.5,23.5C 164.167,23.5 162.833,23.5 161.5,23.5C 163.509,18.266 164.842,12.766 165.5,7C 164.892,4.44655 164.225,1.94655 163.5,-0.5 Z"/></g>
<g><path style="opacity:1" fill="#425c56" d="M 143.5,16.5 C 143.5,17.5 143.5,18.5 143.5,19.5C 142.833,19.5 142.167,19.5 141.5,19.5C 140.294,16.8609 138.294,16.0276 135.5,17C 133.561,18.4321 132.228,20.2654 131.5,22.5C 129.355,25.4328 127.188,28.4328 125,31.5C 125.22,29.0369 126.054,26.7035 127.5,24.5C 129.934,21.8292 132.267,18.9958 134.5,16C 131.354,13.8808 128.687,14.3808 126.5,17.5C 127.292,16.0331 127.292,14.6998 126.5,13.5C 123.227,12.4149 119.894,12.2483 116.5,13C 115.117,14.2708 114.117,15.7708 113.5,17.5C 110.352,22.4623 107.685,27.7957 105.5,33.5C 107.396,34.4656 109.396,34.7989 111.5,34.5C 112.167,34.5 112.833,34.5 113.5,34.5C 117.97,36.1021 122.137,38.4354 126,41.5C 126.383,40.944 126.883,40.6107 127.5,40.5C 127.5,41.1667 127.5,41.8333 127.5,42.5C 130.547,45.5448 133.213,48.8781 135.5,52.5C 137.181,55.2028 138.847,57.8695 140.5,60.5C 140.5,60.8333 140.5,61.1667 140.5,61.5C 141.803,65.3821 142.47,69.3821 142.5,73.5C 142.328,74.4916 142.662,75.1583 143.5,75.5C 143.865,80.9576 144.865,86.2909 146.5,91.5C 147.585,96.7527 150.751,99.7527 156,100.5C 162.596,99.4834 168.763,97.4834 174.5,94.5C 176.781,93.3918 178.948,92.0585 181,90.5C 181.711,88.6332 181.211,87.1332 179.5,86C 170.131,78.5976 159.464,74.431 147.5,73.5C 148.11,72.609 148.443,71.609 148.5,70.5C 156.992,62.6004 166.992,57.4337 178.5,55C 188.137,46.8527 196.304,48.0194 203,58.5C 202.094,79.4847 192.26,94.6513 173.5,104C 177.967,107.465 182.133,111.298 186,115.5C 195.411,129.118 191.911,136.451 175.5,137.5C 177.806,144.662 179.473,151.995 180.5,159.5C 179.673,164.651 179.173,169.984 179,175.5C 178.23,176.598 177.397,176.598 176.5,175.5C 178.174,161.548 176.841,147.881 172.5,134.5C 172.833,134.5 173.167,134.5 173.5,134.5C 177.122,134.678 180.456,134.011 183.5,132.5C 187.784,131.615 189.284,128.949 188,124.5C 180.684,111.103 169.517,103.603 154.5,102C 159.865,105.09 165.532,107.423 171.5,109C 168.618,110.608 165.618,111.941 162.5,113C 163.833,114 163.833,115 162.5,116C 161.207,116.49 159.873,116.657 158.5,116.5C 157.18,115.058 155.514,114.392 153.5,114.5C 145.006,114.224 137.339,111.557 130.5,106.5C 129.325,106.719 128.325,106.386 127.5,105.5C 126.815,103.453 125.649,101.786 124,100.5C 123.235,100.57 122.735,100.903 122.5,101.5C 116.51,96.4909 109.51,94.4909 101.5,95.5C 103.292,94.6909 105.292,94.1909 107.5,94C 104.854,93.5026 102.187,93.3359 99.5,93.5C 101.292,92.6909 103.292,92.1909 105.5,92C 99.2201,85.2489 93.5535,78.0823 88.5,70.5C 85.5974,77.0621 81.2641,82.3954 75.5,86.5C 73.742,86.8769 72.0754,87.5435 70.5,88.5C 69.8933,88.3764 69.56,88.0431 69.5,87.5C 76.0552,85.1126 80.8886,80.7793 84,74.5C 88.5287,66.3874 90.5287,57.7207 90,48.5C 86.1174,62.0576 78.6174,73.2243 67.5,82C 66.552,82.4828 65.552,82.6495 64.5,82.5C 70.8896,77.4434 76.223,71.4434 80.5,64.5C 88.6945,53.4709 90.5278,41.4709 86,28.5C 82.7757,20.6536 77.2757,18.487 69.5,22C 66.6294,24.249 64.6294,27.0824 63.5,30.5C 62.8413,33.4552 62.5079,36.4552 62.5,39.5C 61.9766,49.9975 61.81,60.6641 62,71.5C 60.928,75.5472 59.7613,79.5472 58.5,83.5C 57.5,83.8333 56.8333,84.5 56.5,85.5C 55.9569,85.44 55.6236,85.1067 55.5,84.5C 60.2613,75.1732 61.5946,65.5065 59.5,55.5C 59.6662,49.1579 59.4995,42.8246 59,36.5C 53.0809,42.6735 48.4142,49.6735 45,57.5C 44.1837,62.6842 44.3503,67.6842 45.5,72.5C 46.3142,77.1339 47.9809,81.4672 50.5,85.5C 50.1667,85.8333 49.8333,86.1667 49.5,86.5C 48.8243,85.3984 48.1577,84.3984 47.5,83.5C 45.9745,79.6146 44.3078,75.7812 42.5,72C 35.8333,71.3333 29.1667,71.3333 22.5,72C 17.4781,73.2578 16.3114,76.0912 19,80.5C 24.6773,87.5183 31.5106,93.0183 39.5,97C 36.953,96.6607 34.453,95.8274 32,94.5C 24.1483,96.5056 17.315,100.172 11.5,105.5C 8.27442,108.93 5.77442,112.93 4,117.5C 3.33333,118.833 3.33333,120.167 4,121.5C 13.3673,123.934 22.8673,124.767 32.5,124C 31.2625,124.232 30.2625,124.732 29.5,125.5C 26.5058,127.214 24.6724,129.88 24,133.5C 22.3575,138.402 21.1909,143.402 20.5,148.5C 20.5,150.167 20.5,151.833 20.5,153.5C 26.2623,153.564 31.9289,152.897 37.5,151.5C 40.4234,150.705 43.0901,149.372 45.5,147.5C 46.293,148.355 45.9597,149.189 44.5,150C 40.0956,151.959 35.7622,153.792 31.5,155.5C 29.8235,156.183 29.1568,157.517 29.5,159.5C 27.8922,155.363 24.8922,153.863 20.5,155C 21.7375,155.232 22.7375,155.732 23.5,156.5C 21.3926,157.468 19.0593,157.802 16.5,157.5C 16.0579,146.8 18.3912,136.8 23.5,127.5C 18.1975,126.671 12.8642,126.171 7.5,126C 4.70836,125.458 2.0417,124.624 -0.5,123.5C -0.5,122.5 -0.5,121.5 -0.5,120.5C 3.8901,105.778 13.5568,96.4443 28.5,92.5C 21.4104,89.0786 16.4104,83.7452 13.5,76.5C 13.8642,73.9682 15.1975,72.1348 17.5,71C 22.0855,69.4155 26.7522,68.0822 31.5,67C 29.1804,64.5222 27.5137,61.6889 26.5,58.5C 28.969,61.1438 31.3024,63.9772 33.5,67C 36.1724,67.8344 38.839,68.6677 41.5,69.5C 41.8333,68.8333 42.1667,68.1667 42.5,67.5C 39.0963,64.282 35.4296,61.282 31.5,58.5C 31.8333,57.8333 32.1667,57.1667 32.5,56.5C 29.8495,52.1904 27.5162,47.8571 25.5,43.5C 25.3011,40.059 25.8011,36.7256 27,33.5C 33.4374,27.531 40.9374,23.531 49.5,21.5C 49.3342,26.1785 49.5008,30.8452 50,35.5C 49.9588,27.3321 52.2921,19.9988 57,13.5C 55.7334,19.7216 55.4001,26.0549 56,32.5C 57.0099,27.1079 58.3433,21.7746 60,16.5C 60.7922,14.4127 61.9588,12.5793 63.5,11C 75.3255,6.8349 87.4922,4.3349 100,3.5C 105.236,3.02355 110.069,4.19022 114.5,7C 111.982,10.8925 110.482,15.0592 110,19.5C 111.709,16.5815 113.542,13.7482 115.5,11C 125.332,10.3799 134.665,12.2132 143.5,16.5 Z"/></g>
<g><path style="opacity:1" fill="#5a5240" d="M 156.5,5.5 C 155.859,6.48224 155.193,7.48224 154.5,8.5C 156.766,9.31416 159.1,9.81416 161.5,10C 157.848,10.4986 154.182,10.6653 150.5,10.5C 151.911,8.08605 153.911,6.41938 156.5,5.5 Z"/></g>
<g><path style="opacity:1" fill="#a7d9cb" d="M 91.5,18.5 C 90.7321,17.7375 90.2321,16.7375 90,15.5C 87.5524,16.9732 85.0524,18.3065 82.5,19.5C 78.9009,18.6561 75.2343,18.3227 71.5,18.5C 74.3839,15.6918 77.3839,12.8585 80.5,10C 79.2068,9.50999 77.8734,9.34332 76.5,9.5C 82.1959,7.32229 88.1959,5.98895 94.5,5.5C 93.3436,9.79255 92.3436,14.1259 91.5,18.5 Z"/></g>
<g><path style="opacity:1" fill="#aaded2" d="M 107.5,6.5 C 107.123,8.25797 106.456,9.92464 105.5,11.5C 102.812,14.354 100.312,17.354 98,20.5C 97.5357,19.9056 97.369,19.2389 97.5,18.5C 97.7989,16.396 97.4656,14.396 96.5,12.5C 95.5712,13.5498 94.9046,13.5498 94.5,12.5C 94.9926,10.1944 95.3259,7.86105 95.5,5.5C 99.6002,5.23674 103.6,5.57007 107.5,6.5 Z"/></g>
<g><path style="opacity:1" fill="#e6dfc2" d="M 156.5,5.5 C 158.833,5.5 161.167,5.5 163.5,5.5C 163.983,9.76618 162.983,13.5995 160.5,17C 158.966,17.923 157.299,18.423 155.5,18.5C 152.86,17.9049 150.193,17.5715 147.5,17.5C 148.043,14.9616 149.043,12.6282 150.5,10.5C 154.182,10.6653 157.848,10.4986 161.5,10C 159.1,9.81416 156.766,9.31416 154.5,8.5C 155.193,7.48224 155.859,6.48224 156.5,5.5 Z"/></g>
<g><path style="opacity:1" fill="#c5ece6" d="M 76.5,9.5 C 77.8734,9.34332 79.2068,9.50999 80.5,10C 77.3839,12.8585 74.3839,15.6918 71.5,18.5C 65.4082,21.7698 61.2416,26.7698 59,33.5C 58.5018,26.0217 60.1685,19.0217 64,12.5C 68.0905,11.2692 72.2572,10.2692 76.5,9.5 Z"/></g>
<g><path style="opacity:1" fill="#86beb7" d="M 107.5,6.5 C 109.252,6.41755 110.252,7.25089 110.5,9C 109.394,14.2563 108.061,19.423 106.5,24.5C 105.522,24.189 104.855,23.5223 104.5,22.5C 105.52,20.5675 105.687,18.5675 105,16.5C 102,20.8333 99,25.1667 96,29.5C 95.8128,25.647 96.3128,21.9804 97.5,18.5C 97.369,19.2389 97.5357,19.9056 98,20.5C 100.312,17.354 102.812,14.354 105.5,11.5C 106.456,9.92464 107.123,8.25797 107.5,6.5 Z"/></g>
<g><path style="opacity:1" fill="#b3e2d7" d="M 126.5,17.5 C 121.285,19.8762 117.118,23.5428 114,28.5C 113.536,27.9056 113.369,27.2389 113.5,26.5C 113.851,23.7623 114.518,21.0956 115.5,18.5C 114.8,18.2129 114.133,17.8795 113.5,17.5C 114.117,15.7708 115.117,14.2708 116.5,13C 119.894,12.2483 123.227,12.4149 126.5,13.5C 127.292,14.6998 127.292,16.0331 126.5,17.5 Z"/></g>
<g><path style="opacity:1" fill="#add9c8" d="M 141.5,19.5 C 139.922,21.6522 138.588,23.9855 137.5,26.5C 135.64,27.2599 133.973,28.2599 132.5,29.5C 131.532,27.3926 131.198,25.0593 131.5,22.5C 132.228,20.2654 133.561,18.4321 135.5,17C 138.294,16.0276 140.294,16.8609 141.5,19.5 Z"/></g>
<g><path style="opacity:1" fill="#71a4a7" d="M 94.5,12.5 C 94.9046,13.5498 95.5712,13.5498 96.5,12.5C 97.4656,14.396 97.7989,16.396 97.5,18.5C 96.3128,21.9804 95.8128,25.647 96,29.5C 99,25.1667 102,20.8333 105,16.5C 105.687,18.5675 105.52,20.5675 104.5,22.5C 104.855,23.5223 105.522,24.189 106.5,24.5C 106.312,28.0641 105.312,31.3974 103.5,34.5C 99.1903,36.9762 95.6903,40.3095 93,44.5C 92.0504,38.0677 90.3838,31.7344 88,25.5C 86.3736,23.1953 84.5402,21.1953 82.5,19.5C 85.0524,18.3065 87.5524,16.9732 90,15.5C 90.2321,16.7375 90.7321,17.7375 91.5,18.5C 91.3505,19.552 91.5172,20.552 92,21.5C 92.6595,18.322 93.4928,15.322 94.5,12.5 Z"/></g>
<g><path style="opacity:1" fill="#abc7bc" d="M 165.5,23.5 C 169.103,23.0349 171.103,23.3682 171.5,24.5C 167.478,25.3434 163.812,27.0101 160.5,29.5C 159.417,28.635 159.251,27.635 160,26.5C 161.719,25.1312 163.552,24.1312 165.5,23.5 Z"/></g>
<g><path style="opacity:1" fill="#8cc4ba" d="M 127.5,24.5 C 125.606,25.0476 123.94,26.0476 122.5,27.5C 121.289,28.7202 121.289,29.8869 122.5,31C 119.721,32.7224 116.721,33.8891 113.5,34.5C 112.833,34.5 112.167,34.5 111.5,34.5C 111.294,31.5049 111.96,28.8383 113.5,26.5C 113.369,27.2389 113.536,27.9056 114,28.5C 117.118,23.5428 121.285,19.8762 126.5,17.5C 128.687,14.3808 131.354,13.8808 134.5,16C 132.267,18.9958 129.934,21.8292 127.5,24.5 Z"/></g>
<g><path style="opacity:1" fill="#c9f6ed" d="M 80.5,64.5 C 79.375,63.6522 79.375,62.6522 80.5,61.5C 80.5,59.5 80.5,57.5 80.5,55.5C 81.1234,52.2673 82.7901,49.6006 85.5,47.5C 86.6623,42.533 86.8289,37.533 86,32.5C 84.0186,30.6409 83.0186,28.3076 83,25.5C 81.2909,22.2883 79.7909,22.1216 78.5,25C 75.1541,26.7554 71.9874,27.9221 69,28.5C 68.5172,29.448 68.3505,30.448 68.5,31.5C 66.7085,31.634 65.0418,31.3007 63.5,30.5C 64.6294,27.0824 66.6294,24.249 69.5,22C 77.2757,18.487 82.7757,20.6536 86,28.5C 90.5278,41.4709 88.6945,53.4709 80.5,64.5 Z"/></g>
<g><path style="opacity:1" fill="#b2dcd1" d="M 53.5,20.5 C 54.2354,25.5206 54.9021,30.6872 55.5,36C 55.0696,37.4341 54.2362,38.6008 53,39.5C 52.2944,33.1301 52.4611,26.7967 53.5,20.5 Z"/></g>
<g><path style="opacity:1" fill="#72a2a1" d="M 113.5,17.5 C 114.133,17.8795 114.8,18.2129 115.5,18.5C 114.518,21.0956 113.851,23.7623 113.5,26.5C 111.96,28.8383 111.294,31.5049 111.5,34.5C 109.396,34.7989 107.396,34.4656 105.5,33.5C 107.685,27.7957 110.352,22.4623 113.5,17.5 Z"/></g>
<g><path style="opacity:1" fill="#acdfd0" d="M 48.5,46.5 C 46.8639,45.2511 45.6972,43.5844 45,41.5C 44.3333,37.5 43.6667,33.5 43,29.5C 41.8967,31.6294 41.3967,33.9627 41.5,36.5C 41.8929,39.8641 42.0595,43.1974 42,46.5C 40.5108,41.5435 39.1775,36.5435 38,31.5C 37.6174,30.944 37.1174,30.6107 36.5,30.5C 36.5,29.8333 36.5,29.1667 36.5,28.5C 39.4932,26.3366 42.8266,24.67 46.5,23.5C 47.03,30.1701 48.3634,36.6701 50.5,43C 50.0217,44.3026 49.355,45.4693 48.5,46.5 Z"/></g>
<g><path style="opacity:1" fill="#c0f9e8" d="M 80.5,55.5 C 79.3794,53.0458 78.546,50.3791 78,47.5C 75.8333,45.3333 73.6667,43.1667 71.5,41C 68.6492,39.7114 65.6492,39.2114 62.5,39.5C 62.5079,36.4552 62.8413,33.4552 63.5,30.5C 65.0418,31.3007 66.7085,31.634 68.5,31.5C 68.3505,30.448 68.5172,29.448 69,28.5C 71.9874,27.9221 75.1541,26.7554 78.5,25C 79.7909,22.1216 81.2909,22.2883 83,25.5C 83.0186,28.3076 84.0186,30.6409 86,32.5C 86.8289,37.533 86.6623,42.533 85.5,47.5C 82.7901,49.6006 81.1234,52.2673 80.5,55.5 Z"/></g>
<g><path style="opacity:1" fill="#c8efe9" d="M 36.5,28.5 C 36.5,29.1667 36.5,29.8333 36.5,30.5C 35.4848,31.4602 35.4848,32.6269 36.5,34C 35.3632,37.2857 34.0298,40.4524 32.5,43.5C 32.1901,47.6995 32.8568,51.6995 34.5,55.5C 28.0627,49.3487 26.2294,42.0153 29,33.5C 31.1277,31.1923 33.6277,29.5256 36.5,28.5 Z"/></g>
<g><path style="opacity:1" fill="#74a0a2" d="M 131.5,22.5 C 131.198,25.0593 131.532,27.3926 132.5,29.5C 129.489,32.537 127.822,36.2037 127.5,40.5C 126.883,40.6107 126.383,40.944 126,41.5C 122.137,38.4354 117.97,36.1021 113.5,34.5C 116.721,33.8891 119.721,32.7224 122.5,31C 121.289,29.8869 121.289,28.7202 122.5,27.5C 123.94,26.0476 125.606,25.0476 127.5,24.5C 126.054,26.7035 125.22,29.0369 125,31.5C 127.188,28.4328 129.355,25.4328 131.5,22.5 Z"/></g>
<g><path style="opacity:1" fill="#a7d0c1" d="M 173.5,34.5 C 174.492,34.3284 175.158,34.6618 175.5,35.5C 175.611,36.1174 175.944,36.6174 176.5,37C 168.691,38.214 161.357,40.714 154.5,44.5C 156.011,42.1396 157.344,39.6396 158.5,37C 163.643,36.1617 168.643,35.3284 173.5,34.5 Z"/></g>
<g><path style="opacity:1" fill="#3e5850" d="M 175.5,35.5 C 177.75,35.1814 179.75,35.6814 181.5,37C 172.865,39.072 164.532,41.9053 156.5,45.5C 155.508,45.6716 154.842,45.3382 154.5,44.5C 161.357,40.714 168.691,38.214 176.5,37C 175.944,36.6174 175.611,36.1174 175.5,35.5 Z"/></g>
<g><path style="opacity:1" fill="#84c1b9" d="M 48.5,46.5 C 46.7277,48.9413 45.3944,51.6079 44.5,54.5C 42.2843,53.7974 40.451,52.4641 39,50.5C 37.3244,47.8275 35.6577,45.1608 34,42.5C 33.6174,43.056 33.1174,43.3893 32.5,43.5C 34.0298,40.4524 35.3632,37.2857 36.5,34C 35.4848,32.6269 35.4848,31.4602 36.5,30.5C 37.1174,30.6107 37.6174,30.944 38,31.5C 39.1775,36.5435 40.5108,41.5435 42,46.5C 42.0595,43.1974 41.8929,39.8641 41.5,36.5C 41.3967,33.9627 41.8967,31.6294 43,29.5C 43.6667,33.5 44.3333,37.5 45,41.5C 45.6972,43.5844 46.8639,45.2511 48.5,46.5 Z"/></g>
<g><path style="opacity:1" fill="#a7e1d3" d="M 62.5,39.5 C 65.6492,39.2114 68.6492,39.7114 71.5,41C 73.6667,43.1667 75.8333,45.3333 78,47.5C 78.546,50.3791 79.3794,53.0458 80.5,55.5C 80.5,57.5 80.5,59.5 80.5,61.5C 78.8372,59.5615 78.1706,57.2282 78.5,54.5C 77.5,54.5 76.5,54.5 75.5,54.5C 73.6931,47.9532 69.5265,45.6199 63,47.5C 62.5026,44.854 62.3359,42.1873 62.5,39.5 Z"/></g>
<g><path style="opacity:1" fill="#abdecd" d="M 111.5,57.5 C 112.376,57.6309 113.043,57.2975 113.5,56.5C 110.33,50.8308 105.997,46.3308 100.5,43C 99.7476,42.3292 99.4142,41.4959 99.5,40.5C 99.8417,39.6618 100.508,39.3284 101.5,39.5C 101.435,39.9382 101.601,40.2716 102,40.5C 110.592,37.1521 117.259,39.4854 122,47.5C 122.698,55.6425 119.198,58.9759 111.5,57.5 Z"/></g>
<g><path style="opacity:1" fill="#f4f4e3" d="M 139.5,45.5 C 141.674,47.0814 144.007,48.5814 146.5,50C 143.088,50.5692 140.255,52.0692 138,54.5C 137.583,53.244 136.75,52.5774 135.5,52.5C 133.213,48.8781 130.547,45.5448 127.5,42.5C 128.265,42.0766 129.098,41.7432 130,41.5C 132.881,43.5239 136.047,44.8573 139.5,45.5 Z"/></g>
<g><path style="opacity:1" fill="#90c9c9" d="M 62.5,39.5 C 62.3359,42.1873 62.5026,44.854 63,47.5C 69.5265,45.6199 73.6931,47.9532 75.5,54.5C 76.5,54.5 77.5,54.5 78.5,54.5C 78.1706,57.2282 78.8372,59.5615 80.5,61.5C 79.375,62.6522 79.375,63.6522 80.5,64.5C 76.223,71.4434 70.8896,77.4434 64.5,82.5C 62.9555,84.805 60.9555,85.1383 58.5,83.5C 59.7613,79.5472 60.928,75.5472 62,71.5C 61.81,60.6641 61.9766,49.9975 62.5,39.5 Z"/></g>
<g><path style="opacity:1" fill="#49615d" d="M 22.5,43.5 C 24.412,47.4167 26.7454,51.0834 29.5,54.5C 27.5154,54.3962 26.0154,53.0629 25,50.5C 24.5172,51.448 24.3505,52.448 24.5,53.5C 22.7396,49.6048 21.4063,45.4381 20.5,41C 20.6667,40.5 20.8333,40 21,39.5C 22.1882,40.5634 22.6882,41.8967 22.5,43.5 Z"/></g>
<g><path style="opacity:1" fill="#6fa1a3" d="M 44.5,54.5 C 43.6584,57.5244 42.6584,60.5244 41.5,63.5C 38.4275,61.4309 36.0941,58.7642 34.5,55.5C 32.8568,51.6995 32.1901,47.6995 32.5,43.5C 33.1174,43.3893 33.6174,43.056 34,42.5C 35.6577,45.1608 37.3244,47.8275 39,50.5C 40.451,52.4641 42.2843,53.7974 44.5,54.5 Z"/></g>
<g><path style="opacity:1" fill="#faf9e4" d="M 59.5,55.5 C 59.1448,62.7356 57.6448,69.7356 55,76.5C 53.9805,77.6872 52.8139,78.6872 51.5,79.5C 48.8044,77.6364 46.8044,75.303 45.5,72.5C 44.3503,67.6842 44.1837,62.6842 45,57.5C 48.4142,49.6735 53.0809,42.6735 59,36.5C 59.4995,42.8246 59.6662,49.1579 59.5,55.5 Z"/></g>
<g><path style="opacity:1" fill="#53513a" d="M 162.5,-0.5 C 162.833,-0.5 163.167,-0.5 163.5,-0.5C 164.225,1.94655 164.892,4.44655 165.5,7C 164.842,12.766 163.509,18.266 161.5,23.5C 162.833,23.5 164.167,23.5 165.5,23.5C 163.552,24.1312 161.719,25.1312 160,26.5C 159.251,27.635 159.417,28.635 160.5,29.5C 163.812,27.0101 167.478,25.3434 171.5,24.5C 167.732,27.2254 163.732,29.7254 159.5,32C 158.663,33.0113 158.33,34.1779 158.5,35.5C 163.453,34.6708 168.453,34.3375 173.5,34.5C 168.643,35.3284 163.643,36.1617 158.5,37C 157.344,39.6396 156.011,42.1396 154.5,44.5C 154.842,45.3382 155.508,45.6716 156.5,45.5C 155.528,46.3991 154.862,47.5657 154.5,49C 155.252,51.1537 155.419,53.3203 155,55.5C 153.435,59.3998 151.435,63.0665 149,66.5C 148.51,67.7932 148.343,69.1266 148.5,70.5C 148.443,71.609 148.11,72.609 147.5,73.5C 145.938,73.7329 144.605,74.3995 143.5,75.5C 142.662,75.1583 142.328,74.4916 142.5,73.5C 144.888,72.7813 146.388,71.1146 147,68.5C 147.781,65.1663 148.114,61.833 148,58.5C 145.692,59.9913 143.192,60.9913 140.5,61.5C 140.5,61.1667 140.5,60.8333 140.5,60.5C 148.406,57.7354 152.739,52.0688 153.5,43.5C 148.938,44.7957 144.271,45.4624 139.5,45.5C 136.047,44.8573 132.881,43.5239 130,41.5C 129.098,41.7432 128.265,42.0766 127.5,42.5C 127.5,41.8333 127.5,41.1667 127.5,40.5C 127.822,36.2037 129.489,32.537 132.5,29.5C 133.973,28.2599 135.64,27.2599 137.5,26.5C 138.588,23.9855 139.922,21.6522 141.5,19.5C 142.167,19.5 142.833,19.5 143.5,19.5C 143.5,18.5 143.5,17.5 143.5,16.5C 144.5,16.5 145.5,16.5 146.5,16.5C 145.891,13.1216 147.224,11.1216 150.5,10.5C 149.043,12.6282 148.043,14.9616 147.5,17.5C 150.193,17.5715 152.86,17.9049 155.5,18.5C 157.299,18.423 158.966,17.923 160.5,17C 162.983,13.5995 163.983,9.76618 163.5,5.5C 161.167,5.5 158.833,5.5 156.5,5.5C 158.07,3.0526 160.07,1.0526 162.5,-0.5 Z"/></g>
<g><path style="opacity:1" fill="#d4c7a5" d="M 132.5,39.5 C 137.844,39.666 143.177,39.4994 148.5,39C 152.492,38.8101 153.825,36.9768 152.5,33.5C 149.873,32.9422 147.54,31.9422 145.5,30.5C 149.519,30.3542 153.519,30.0209 157.5,29.5C 157.659,35.2929 155.326,39.4596 150.5,42C 145.924,43.4764 141.257,43.8098 136.5,43C 134.676,42.34 133.343,41.1733 132.5,39.5 Z"/></g>
<g><path style="opacity:1" fill="#f9f6e0" d="M 145.5,30.5 C 147.54,31.9422 149.873,32.9422 152.5,33.5C 153.825,36.9768 152.492,38.8101 148.5,39C 143.177,39.4994 137.844,39.666 132.5,39.5C 130.656,38.7961 130.156,37.4628 131,35.5C 133.89,28.2518 138.723,26.5851 145.5,30.5 Z"/></g>
<g><path style="opacity:1" fill="#d1c7a6" d="M 145.5,27.5 C 150.013,27.412 154.013,25.912 157.5,23C 155.934,22.3918 154.6,21.5585 153.5,20.5C 155.435,19.8505 157.435,19.5172 159.5,19.5C 160.174,23.3169 158.841,26.1503 155.5,28C 151.973,28.8075 148.64,28.6408 145.5,27.5 Z"/></g>
<g><path style="opacity:1" fill="#f9f4e0" d="M 153.5,20.5 C 154.6,21.5585 155.934,22.3918 157.5,23C 154.013,25.912 150.013,27.412 145.5,27.5C 143.286,27.7093 141.619,26.876 140.5,25C 141.124,22.9149 142.124,21.0816 143.5,19.5C 146.897,18.5062 150.23,18.8396 153.5,20.5 Z"/></g>
<g><path style="opacity:1" fill="#faf5e4" d="M 161.5,1.5 C 163.028,1.51731 163.528,2.18398 163,3.5C 159.189,4.96623 158.689,4.29956 161.5,1.5 Z"/></g>
<g><path style="opacity:1" fill="#bcf5e6" d="M 186.5,85.5 C 186.72,81.3119 186.386,76.9786 185.5,72.5C 182.189,69.0428 178.522,66.3761 174.5,64.5C 177.363,59.4703 181.363,55.6369 186.5,53C 197.651,50.9765 202.151,55.4765 200,66.5C 197.934,74.7072 193.434,81.0406 186.5,85.5 Z"/></g>
<g><path style="opacity:1" fill="#d4c6a8" d="M 140.5,60.5 C 138.847,57.8695 137.181,55.2028 135.5,52.5C 136.75,52.5774 137.583,53.244 138,54.5C 140.255,52.0692 143.088,50.5692 146.5,50C 144.007,48.5814 141.674,47.0814 139.5,45.5C 144.271,45.4624 148.938,44.7957 153.5,43.5C 152.739,52.0688 148.406,57.7354 140.5,60.5 Z"/></g>
<g><path style="opacity:1" fill="#a4cdc6" d="M 22.5,43.5 C 23.7498,43.5774 24.5831,44.244 25,45.5C 25.4643,44.9056 25.631,44.2389 25.5,43.5C 27.5162,47.8571 29.8495,52.1904 32.5,56.5C 32.1667,57.1667 31.8333,57.8333 31.5,58.5C 35.4296,61.282 39.0963,64.282 42.5,67.5C 42.1667,68.1667 41.8333,68.8333 41.5,69.5C 38.839,68.6677 36.1724,67.8344 33.5,67C 31.3024,63.9772 28.969,61.1438 26.5,58.5C 25.0687,57.2196 24.4021,55.5529 24.5,53.5C 24.3505,52.448 24.5172,51.448 25,50.5C 26.0154,53.0629 27.5154,54.3962 29.5,54.5C 26.7454,51.0834 24.412,47.4167 22.5,43.5 Z"/></g>
<g><path style="opacity:1" fill="#cdf8ee" d="M 135.5,56.5 C 135.631,57.2389 135.464,57.9056 135,58.5C 133.009,56.5428 131.009,54.5428 129,52.5C 128.667,55.5 128.333,58.5 128,61.5C 122.854,69.1502 117.187,69.4835 111,62.5C 110.667,64.8333 110.333,67.1667 110,69.5C 108.348,64.9013 107.348,60.2346 107,55.5C 108.33,56.5822 109.83,57.2488 111.5,57.5C 119.198,58.9759 122.698,55.6425 122,47.5C 117.259,39.4854 110.592,37.1521 102,40.5C 101.601,40.2716 101.435,39.9382 101.5,39.5C 103.287,37.8586 105.454,36.8586 108,36.5C 111.897,37.0659 115.731,37.8993 119.5,39C 126.112,43.7735 131.445,49.6069 135.5,56.5 Z"/></g>
<g><path style="opacity:1" fill="#c2f8f0" d="M 103.5,60.5 C 103.993,62.8056 104.326,65.139 104.5,67.5C 104.657,68.8734 104.49,70.2068 104,71.5C 101.37,65.9377 99.3701,60.271 98,54.5C 100.068,56.3962 101.901,58.3962 103.5,60.5 Z"/></g>
<g><path style="opacity:1" fill="#ccc0a5" d="M 142.5,73.5 C 142.47,69.3821 141.803,65.3821 140.5,61.5C 143.192,60.9913 145.692,59.9913 148,58.5C 148.114,61.833 147.781,65.1663 147,68.5C 146.388,71.1146 144.888,72.7813 142.5,73.5 Z"/></g>
<g><path style="opacity:1" fill="#dbe0d2" d="M 172.5,58.5 C 173.552,58.3505 174.552,58.5172 175.5,59C 172.042,64.0816 168.709,69.2483 165.5,74.5C 160.839,73.001 156.172,71.501 151.5,70C 157.707,64.5662 164.707,60.7329 172.5,58.5 Z"/></g>
<g><path style="opacity:1" fill="#91caca" d="M 174.5,64.5 C 178.522,66.3761 182.189,69.0428 185.5,72.5C 186.386,76.9786 186.72,81.3119 186.5,85.5C 186.483,87.0281 185.816,87.5281 184.5,87C 179.897,82.3957 174.73,78.5624 169,75.5C 168.333,74.5 168.333,73.5 169,72.5C 170.609,69.5932 172.442,66.9266 174.5,64.5 Z"/></g>
<g><path style="opacity:1" fill="#719fa1" d="M 92.5,55.5 C 93.5585,56.6002 94.3918,57.9336 95,59.5C 96.6614,65.3127 97.828,70.9794 98.5,76.5C 97.7997,76.7871 97.1331,77.1205 96.5,77.5C 93.5641,74.4792 91.2308,70.9792 89.5,67C 90.9795,63.2877 91.9795,59.4544 92.5,55.5 Z"/></g>
<g><path style="opacity:1" fill="#aadece" d="M 111.5,57.5 C 109.83,57.2488 108.33,56.5822 107,55.5C 107.348,60.2346 108.348,64.9013 110,69.5C 110.333,67.1667 110.667,64.8333 111,62.5C 117.187,69.4835 122.854,69.1502 128,61.5C 128.333,58.5 128.667,55.5 129,52.5C 131.009,54.5428 133.009,56.5428 135,58.5C 135.464,57.9056 135.631,57.2389 135.5,56.5C 139.492,62.824 141.492,69.824 141.5,77.5C 141.631,78.2389 141.464,78.9056 141,79.5C 138.247,74.9924 135.247,70.6591 132,66.5C 131.846,69.2318 132.346,71.8985 133.5,74.5C 132.068,76.297 132.401,77.6303 134.5,78.5C 135.023,81.878 136.356,84.878 138.5,87.5C 138.796,90.2625 139.796,92.7625 141.5,95C 140.833,95.6667 140.167,95.6667 139.5,95C 137.416,93.2517 135.416,91.4184 133.5,89.5C 133.167,90 132.833,90.5 132.5,91C 133.167,92.3333 133.833,93.6667 134.5,95C 134.167,95.5 133.833,96 133.5,96.5C 132.614,95.675 132.281,94.675 132.5,93.5C 131.022,93.762 129.689,93.4287 128.5,92.5C 124.956,89.2443 121.289,86.2443 117.5,83.5C 115.74,80.3113 114.24,76.9779 113,73.5C 113.096,76.967 113.93,80.3003 115.5,83.5C 114.504,83.5858 113.671,83.2524 113,82.5C 111.432,79.2321 109.599,76.2321 107.5,73.5C 106.578,69.8881 105.911,66.2215 105.5,62.5C 105.196,59.4781 104.696,56.4781 104,53.5C 103.552,51.7756 102.718,51.109 101.5,51.5C 102.365,50.4173 103.365,50.2506 104.5,51C 106.729,53.4003 109.063,55.567 111.5,57.5 Z"/></g>
<g><path style="opacity:1" fill="#82bbb1" d="M 141.5,77.5 C 142.651,82.0429 143.485,86.7096 144,91.5C 140.812,87.0992 137.645,82.7659 134.5,78.5C 132.401,77.6303 132.068,76.297 133.5,74.5C 132.346,71.8985 131.846,69.2318 132,66.5C 135.247,70.6591 138.247,74.9924 141,79.5C 141.464,78.9056 141.631,78.2389 141.5,77.5 Z"/></g>
<g><path style="opacity:1" fill="#88c2ba" d="M 99.5,40.5 C 99.4142,41.4959 99.7476,42.3292 100.5,43C 105.997,46.3308 110.33,50.8308 113.5,56.5C 113.043,57.2975 112.376,57.6309 111.5,57.5C 109.063,55.567 106.729,53.4003 104.5,51C 103.365,50.2506 102.365,50.4173 101.5,51.5C 102.718,51.109 103.552,51.7756 104,53.5C 104.696,56.4781 105.196,59.4781 105.5,62.5C 104.833,61.8333 104.167,61.1667 103.5,60.5C 101.901,58.3962 100.068,56.3962 98,54.5C 99.3701,60.271 101.37,65.9377 104,71.5C 104.49,70.2068 104.657,68.8734 104.5,67.5C 105.54,74.4706 106.874,81.4706 108.5,88.5C 108.539,89.5832 108.873,90.5832 109.5,91.5C 108.998,92.521 108.332,92.6877 107.5,92C 102.488,88.1236 98.8218,83.2903 96.5,77.5C 97.1331,77.1205 97.7997,76.7871 98.5,76.5C 97.828,70.9794 96.6614,65.3127 95,59.5C 94.3918,57.9336 93.5585,56.6002 92.5,55.5C 92.5,53.1667 92.5,50.8333 92.5,48.5C 95.6136,49.0913 98.1136,50.758 100,53.5C 100.667,52.8333 100.667,52.1667 100,51.5C 98.2653,49.3888 96.432,47.3888 94.5,45.5C 95.8545,43.4788 97.5212,41.8121 99.5,40.5 Z"/></g>
<g><path style="opacity:1" fill="#e6e6d5" d="M 69.5,87.5 C 68.8826,87.6107 68.3826,87.944 68,88.5C 67.51,87.2068 67.3433,85.8734 67.5,84.5C 64.8822,84.7792 62.3822,85.4459 60,86.5C 58.9887,85.6634 57.8221,85.33 56.5,85.5C 56.8333,84.5 57.5,83.8333 58.5,83.5C 60.9555,85.1383 62.9555,84.805 64.5,82.5C 65.552,82.6495 66.552,82.4828 67.5,82C 78.6174,73.2243 86.1174,62.0576 90,48.5C 90.5287,57.7207 88.5287,66.3874 84,74.5C 80.8886,80.7793 76.0552,85.1126 69.5,87.5 Z"/></g>
<g><path style="opacity:1" fill="#f8f8e5" d="M 147.5,73.5 C 159.464,74.431 170.131,78.5976 179.5,86C 181.211,87.1332 181.711,88.6332 181,90.5C 178.948,92.0585 176.781,93.3918 174.5,94.5C 165.305,92.3509 155.972,91.3509 146.5,91.5C 144.865,86.2909 143.865,80.9576 143.5,75.5C 144.605,74.3995 145.938,73.7329 147.5,73.5 Z"/></g>
<g><path style="opacity:1" fill="#d6dcc9" d="M 59.5,55.5 C 61.5946,65.5065 60.2613,75.1732 55.5,84.5C 55.6236,85.1067 55.9569,85.44 56.5,85.5C 55.0895,90.5485 52.9229,91.2152 50,87.5C 49.7508,88.624 49.2508,89.624 48.5,90.5C 47.5258,88.2573 47.1924,85.924 47.5,83.5C 48.1577,84.3984 48.8243,85.3984 49.5,86.5C 49.8333,86.1667 50.1667,85.8333 50.5,85.5C 47.9809,81.4672 46.3142,77.1339 45.5,72.5C 46.8044,75.303 48.8044,77.6364 51.5,79.5C 52.8139,78.6872 53.9805,77.6872 55,76.5C 57.6448,69.7356 59.1448,62.7356 59.5,55.5 Z"/></g>
<g><path style="opacity:1" fill="#90c5bc" d="M 107.5,73.5 C 109.599,76.2321 111.432,79.2321 113,82.5C 113.671,83.2524 114.504,83.5858 115.5,83.5C 117.956,89.6342 121.956,94.6342 127.5,98.5C 122.153,98.5778 117.82,96.2444 114.5,91.5C 112.887,88.7139 111.054,86.0472 109,83.5C 108.39,80.1727 107.89,76.8394 107.5,73.5 Z"/></g>
<g><path style="opacity:1" fill="#4b746f" d="M 103.5,60.5 C 104.167,61.1667 104.833,61.8333 105.5,62.5C 105.911,66.2215 106.578,69.8881 107.5,73.5C 107.89,76.8394 108.39,80.1727 109,83.5C 111.054,86.0472 112.887,88.7139 114.5,91.5C 113.85,91.8039 113.183,92.1373 112.5,92.5C 111.16,91.1335 109.827,89.8001 108.5,88.5C 106.874,81.4706 105.54,74.4706 104.5,67.5C 104.326,65.139 103.993,62.8056 103.5,60.5 Z"/></g>
<g><path style="opacity:1" fill="#dbd1ad" d="M 99.5,93.5 C 97.5,93.8333 95.5,94.1667 93.5,94.5C 93.0144,91.2891 92.0144,88.2891 90.5,85.5C 85.518,86.0534 80.518,86.3867 75.5,86.5C 81.2641,82.3954 85.5974,77.0621 88.5,70.5C 93.5535,78.0823 99.2201,85.2489 105.5,92C 103.292,92.1909 101.292,92.6909 99.5,93.5 Z"/></g>
<g><path style="opacity:1" fill="#fbf9e3" d="M 47.5,83.5 C 47.1924,85.924 47.5258,88.2573 48.5,90.5C 49.2508,89.624 49.7508,88.624 50,87.5C 52.9229,91.2152 55.0895,90.5485 56.5,85.5C 57.8221,85.33 58.9887,85.6634 60,86.5C 62.3822,85.4459 64.8822,84.7792 67.5,84.5C 67.3433,85.8734 67.51,87.2068 68,88.5C 68.3826,87.944 68.8826,87.6107 69.5,87.5C 69.56,88.0431 69.8933,88.3764 70.5,88.5C 72.0754,87.5435 73.742,86.8769 75.5,86.5C 80.518,86.3867 85.518,86.0534 90.5,85.5C 92.0144,88.2891 93.0144,91.2891 93.5,94.5C 75.0909,101.248 63.7575,114.248 59.5,133.5C 52.8341,136.998 45.8341,139.664 38.5,141.5C 36.9757,132.918 38.6423,124.918 43.5,117.5C 42,117.167 40.5,116.833 39,116.5C 30.193,118.811 21.3597,118.978 12.5,117C 10.1789,113.377 9.84559,109.543 11.5,105.5C 17.315,100.172 24.1483,96.5056 32,94.5C 34.453,95.8274 36.953,96.6607 39.5,97C 31.5106,93.0183 24.6773,87.5183 19,80.5C 16.3114,76.0912 17.4781,73.2578 22.5,72C 29.1667,71.3333 35.8333,71.3333 42.5,72C 44.3078,75.7812 45.9745,79.6146 47.5,83.5 Z"/></g>
<g><path style="opacity:1" fill="#c2cfbf" d="M 192.5,83.5 C 193.043,83.56 193.376,83.8933 193.5,84.5C 188.538,92.296 181.872,98.1293 173.5,102C 171.597,102.774 169.93,102.44 168.5,101C 172.167,99.3333 175.833,97.6667 179.5,96C 183.729,91.6022 188.062,87.4356 192.5,83.5 Z"/></g>
<g><path style="opacity:1" fill="#cecdb7" d="M 146.5,91.5 C 155.972,91.3509 165.305,92.3509 174.5,94.5C 168.763,97.4834 162.596,99.4834 156,100.5C 150.751,99.7527 147.585,96.7527 146.5,91.5 Z"/></g>
<g><path style="opacity:1" fill="#8ac5bc" d="M 117.5,83.5 C 121.289,86.2443 124.956,89.2443 128.5,92.5C 129.689,93.4287 131.022,93.762 132.5,93.5C 132.281,94.675 132.614,95.675 133.5,96.5C 133.833,96 134.167,95.5 134.5,95C 133.833,93.6667 133.167,92.3333 132.5,91C 132.833,90.5 133.167,90 133.5,89.5C 135.416,91.4184 137.416,93.2517 139.5,95C 140.167,95.6667 140.833,95.6667 141.5,95C 139.796,92.7625 138.796,90.2625 138.5,87.5C 145.054,98.2128 154.387,105.379 166.5,109C 156.014,112.579 145.68,112.245 135.5,108C 132.537,106.039 129.871,103.706 127.5,101C 129.167,100.667 130.833,100.333 132.5,100C 125.534,96.2042 120.534,90.7042 117.5,83.5 Z"/></g>
<g><path style="opacity:1" fill="#fbf8f4" d="M 94.5,97.5 C 98.1306,99.1305 100.797,101.797 102.5,105.5C 104.487,107.501 106.82,108.335 109.5,108C 108.055,104.757 106.389,101.59 104.5,98.5C 105.002,97.479 105.668,97.3123 106.5,98C 111.158,105.656 117.825,110.656 126.5,113C 127.817,114.767 129.484,116.101 131.5,117C 139.028,118.308 146.528,119.474 154,120.5C 154.671,119.748 155.504,119.414 156.5,119.5C 167.951,135.308 171.118,152.641 166,171.5C 162.808,180.026 156.974,185.859 148.5,189C 143.352,190.109 138.685,189.109 134.5,186C 131.059,182.926 128.225,179.426 126,175.5C 119.677,178.83 113.011,181.163 106,182.5C 102.04,182.238 98.5403,180.904 95.5,178.5C 87.0205,170.257 77.0205,164.591 65.5,161.5C 57.2899,138.953 62.2899,119.786 80.5,104C 84.8085,101.012 89.4751,98.8451 94.5,97.5 Z"/></g>
<g><path style="opacity:1" fill="#12110e" d="M 130.5,106.5 C 129.984,108.2 128.984,109.533 127.5,110.5C 126.018,107.378 124.351,104.378 122.5,101.5C 122.735,100.903 123.235,100.57 124,100.5C 125.649,101.786 126.815,103.453 127.5,105.5C 128.325,106.386 129.325,106.719 130.5,106.5 Z"/></g>
<g><path style="opacity:1" fill="#dad3cd" d="M 101.5,95.5 C 109.51,94.4909 116.51,96.4909 122.5,101.5C 124.351,104.378 126.018,107.378 127.5,110.5C 128.984,109.533 129.984,108.2 130.5,106.5C 137.339,111.557 145.006,114.224 153.5,114.5C 154.248,116.332 155.248,117.999 156.5,119.5C 155.504,119.414 154.671,119.748 154,120.5C 146.528,119.474 139.028,118.308 131.5,117C 129.484,116.101 127.817,114.767 126.5,113C 117.825,110.656 111.158,105.656 106.5,98C 105.668,97.3123 105.002,97.479 104.5,98.5C 106.389,101.59 108.055,104.757 109.5,108C 106.82,108.335 104.487,107.501 102.5,105.5C 100.797,101.797 98.1306,99.1305 94.5,97.5C 96.4385,95.8372 98.7718,95.1706 101.5,95.5 Z"/></g>
<g><path style="opacity:1" fill="#0f0d09" d="M 99.5,93.5 C 102.187,93.3359 104.854,93.5026 107.5,94C 105.292,94.1909 103.292,94.6909 101.5,95.5C 98.7718,95.1706 96.4385,95.8372 94.5,97.5C 89.4751,98.8451 84.8085,101.012 80.5,104C 62.2899,119.786 57.2899,138.953 65.5,161.5C 64.5,161.5 63.5,161.5 62.5,161.5C 58.5207,152.525 57.5207,143.192 59.5,133.5C 63.7575,114.248 75.0909,101.248 93.5,94.5C 95.5,94.1667 97.5,93.8333 99.5,93.5 Z"/></g>
<g><path style="opacity:1" fill="#6b6d53" d="M 167.5,119.5 C 169.777,124.387 171.777,129.387 173.5,134.5C 173.167,134.5 172.833,134.5 172.5,134.5C 169.711,128.593 167.211,122.593 165,116.5C 165.852,117.571 166.685,118.571 167.5,119.5 Z"/></g>
<g><path style="opacity:1" fill="#fdfdfe" d="M -0.5,123.5 C 2.0417,124.624 4.70836,125.458 7.5,126C 12.8642,126.171 18.1975,126.671 23.5,127.5C 18.3912,136.8 16.0579,146.8 16.5,157.5C 19.0593,157.802 21.3926,157.468 23.5,156.5C 24.9038,166.276 26.5705,176.276 28.5,186.5C 27.7003,188.682 26.2003,190.349 24,191.5C 23.3333,192.5 23.3333,193.5 24,194.5C 27.2638,196.362 30.7638,197.695 34.5,198.5C 42.2087,209.699 52.5421,217.532 65.5,222C 81.4637,226.945 97.7971,228.778 114.5,227.5C 117.443,228.367 120.443,229.367 123.5,230.5C 124.718,231.161 126.051,231.828 127.5,232.5C 131.5,232.833 135.5,233.167 139.5,233.5C 144.207,233.108 148.707,233.108 153,233.5C 154.615,232.614 156.115,231.614 157.5,230.5C 158.735,233.301 160.235,235.968 162,238.5C 162.29,236.08 162.79,233.746 163.5,231.5C 164.935,232.79 165.935,234.456 166.5,236.5C 167.799,235.91 168.632,234.91 169,233.5C 169.595,234.899 169.428,236.232 168.5,237.5C 168.808,238.308 169.308,238.975 170,239.5C 171.597,236.781 173.763,234.614 176.5,233C 187.512,231.405 197.345,227.239 206,220.5C 206.498,217.183 206.665,213.85 206.5,210.5C 206.263,209.209 206.596,208.209 207.5,207.5C 207.5,218.833 207.5,230.167 207.5,241.5C 138.167,241.5 68.8333,241.5 -0.5,241.5C -0.5,202.167 -0.5,162.833 -0.5,123.5 Z"/></g>
<g><path style="opacity:1" fill="#d9d3ae" d="M 167.5,119.5 C 173.615,122.888 178.949,127.222 183.5,132.5C 180.456,134.011 177.122,134.678 173.5,134.5C 171.777,129.387 169.777,124.387 167.5,119.5 Z"/></g>
<g><path style="opacity:1" fill="#dad2aa" d="M 11.5,105.5 C 9.84559,109.543 10.1789,113.377 12.5,117C 21.3597,118.978 30.193,118.811 39,116.5C 40.5,116.833 42,117.167 43.5,117.5C 38.6423,124.918 36.9757,132.918 38.5,141.5C 41.338,143.536 41.0046,145.036 37.5,146C 26.5329,149.701 22.6996,145.868 26,134.5C 27.0938,131.308 28.9272,128.642 31.5,126.5C 31.0431,125.702 30.3764,125.369 29.5,125.5C 30.2625,124.732 31.2625,124.232 32.5,124C 22.8673,124.767 13.3673,123.934 4,121.5C 3.33333,120.167 3.33333,118.833 4,117.5C 5.77442,112.93 8.27442,108.93 11.5,105.5 Z"/></g>
<g><path style="opacity:1" fill="#0c0b0a" d="M 98.5,127.5 C 100.467,127.261 102.301,127.594 104,128.5C 107.612,137.112 106.945,145.445 102,153.5C 97.6888,157.842 94.3555,157.176 92,151.5C 89.8352,142.182 92.0019,134.182 98.5,127.5 Z"/></g>
<g><path style="opacity:1" fill="#ecebe7" d="M 99.5,129.5 C 102.244,130.072 103.077,131.738 102,134.5C 100.736,136.607 98.9032,137.607 96.5,137.5C 95.8285,134.014 96.8285,131.347 99.5,129.5 Z"/></g>
<g><path style="opacity:1" fill="#0d0c0a" d="M 135.5,133.5 C 136.822,133.33 137.989,133.663 139,134.5C 142.115,143.389 141.449,152.056 137,160.5C 134.16,163.371 131.826,163.037 130,159.5C 127.958,149.865 129.791,141.198 135.5,133.5 Z"/></g>
<g><path style="opacity:1" fill="#e9e9e5" d="M 134.5,136.5 C 135.5,136.5 136.5,136.5 137.5,136.5C 137.984,139.798 136.984,142.464 134.5,144.5C 133.119,144 132.453,143 132.5,141.5C 133.187,139.823 133.854,138.156 134.5,136.5 Z"/></g>
<g><path style="opacity:1" fill="#424244" d="M 100.5,144.5 C 101.586,144.62 102.253,145.287 102.5,146.5C 102.101,148.197 101.601,149.863 101,151.5C 99.9887,152.337 98.8221,152.67 97.5,152.5C 97.0156,149.212 98.0156,146.545 100.5,144.5 Z"/></g>
<g><path style="opacity:1" fill="#d1e3d7" d="M 37.5,151.5 C 31.9289,152.897 26.2623,153.564 20.5,153.5C 20.5,151.833 20.5,150.167 20.5,148.5C 21.2216,148.082 21.7216,147.416 22,146.5C 23.8929,149.374 26.3929,150.374 29.5,149.5C 32.3106,150.08 34.9773,150.746 37.5,151.5 Z"/></g>
<g><path style="opacity:1" fill="#41403e" d="M 136.5,150.5 C 137.497,150.47 138.164,150.97 138.5,152C 135.712,161.211 134.546,161.377 135,152.5C 135.717,151.956 136.217,151.289 136.5,150.5 Z"/></g>
<g><path style="opacity:1" fill="#d9d5b5" d="M 29.5,125.5 C 30.3764,125.369 31.0431,125.702 31.5,126.5C 28.9272,128.642 27.0938,131.308 26,134.5C 22.6996,145.868 26.5329,149.701 37.5,146C 41.0046,145.036 41.338,143.536 38.5,141.5C 45.8341,139.664 52.8341,136.998 59.5,133.5C 57.5207,143.192 58.5207,152.525 62.5,161.5C 60.9236,162.143 59.5903,163.143 58.5,164.5C 51.5872,165.1 49.5872,168.767 52.5,175.5C 54.2342,177.234 55.5676,179.234 56.5,181.5C 62.6414,185.808 68.6414,190.308 74.5,195C 76.1341,195.494 77.8008,195.66 79.5,195.5C 76.5149,196.182 73.5149,197.182 70.5,198.5C 66.6307,198.373 63.9641,196.54 62.5,193C 60.5789,192.64 58.9122,191.806 57.5,190.5C 56.1955,187.362 54.0288,185.029 51,183.5C 50.2973,176.372 49.1307,169.372 47.5,162.5C 50.4475,162.223 53.2809,162.556 56,163.5C 57.5204,159.625 57.8538,155.625 57,151.5C 56.9345,147.767 56.1011,144.267 54.5,141C 49.1816,139.585 44.8482,140.919 41.5,145C 43.7695,145.758 45.9361,145.591 48,144.5C 48.0481,146.544 47.5481,148.544 46.5,150.5C 43.8944,151.77 41.561,153.437 39.5,155.5C 36.8133,156.26 34.1466,156.927 31.5,157.5C 31.5,156.833 31.5,156.167 31.5,155.5C 35.7622,153.792 40.0956,151.959 44.5,150C 45.9597,149.189 46.293,148.355 45.5,147.5C 43.0901,149.372 40.4234,150.705 37.5,151.5C 34.9773,150.746 32.3106,150.08 29.5,149.5C 26.3929,150.374 23.8929,149.374 22,146.5C 21.7216,147.416 21.2216,148.082 20.5,148.5C 21.1909,143.402 22.3575,138.402 24,133.5C 24.6724,129.88 26.5058,127.214 29.5,125.5 Z"/></g>
<g><path style="opacity:1" fill="#f9f8e3" d="M 183.5,132.5 C 178.949,127.222 173.615,122.888 167.5,119.5C 166.685,118.571 165.852,117.571 165,116.5C 167.211,122.593 169.711,128.593 172.5,134.5C 176.841,147.881 178.174,161.548 176.5,175.5C 175.766,176.708 175.433,178.041 175.5,179.5C 168.53,190.964 158.863,199.464 146.5,205C 138.538,206.766 131.372,205.266 125,200.5C 124.911,198.887 125.745,197.72 127.5,197C 125.609,196.797 123.943,197.297 122.5,198.5C 121.5,198.5 120.5,198.5 119.5,198.5C 115.069,198.769 110.735,198.436 106.5,197.5C 99.5209,196.177 93.5209,193.011 88.5,188C 90.0441,187.71 91.3774,187.044 92.5,186C 87.3803,184.625 84.047,186.458 82.5,191.5C 81.853,193.141 80.853,194.474 79.5,195.5C 77.8008,195.66 76.1341,195.494 74.5,195C 68.6414,190.308 62.6414,185.808 56.5,181.5C 55.5676,179.234 54.2342,177.234 52.5,175.5C 49.5872,168.767 51.5872,165.1 58.5,164.5C 64.4329,164.309 70.0996,165.476 75.5,168C 83.2459,172.579 90.5793,177.746 97.5,183.5C 102.081,184.607 106.748,184.773 111.5,184C 116.769,182.69 121.769,180.857 126.5,178.5C 127.813,183.987 131.147,187.82 136.5,190C 149.54,193.397 159.373,189.23 166,177.5C 173.518,155.94 171.018,135.607 158.5,116.5C 159.873,116.657 161.207,116.49 162.5,116C 163.833,115 163.833,114 162.5,113C 165.618,111.941 168.618,110.608 171.5,109C 165.532,107.423 159.865,105.09 154.5,102C 169.517,103.603 180.684,111.103 188,124.5C 189.284,128.949 187.784,131.615 183.5,132.5 Z"/></g>
<g><path style="opacity:1" fill="#151310" d="M 153.5,114.5 C 155.514,114.392 157.18,115.058 158.5,116.5C 171.018,135.607 173.518,155.94 166,177.5C 159.373,189.23 149.54,193.397 136.5,190C 131.147,187.82 127.813,183.987 126.5,178.5C 121.769,180.857 116.769,182.69 111.5,184C 106.748,184.773 102.081,184.607 97.5,183.5C 96.8333,181.833 96.1667,180.167 95.5,178.5C 98.5403,180.904 102.04,182.238 106,182.5C 113.011,181.163 119.677,178.83 126,175.5C 128.225,179.426 131.059,182.926 134.5,186C 138.685,189.109 143.352,190.109 148.5,189C 156.974,185.859 162.808,180.026 166,171.5C 171.118,152.641 167.951,135.308 156.5,119.5C 155.248,117.999 154.248,116.332 153.5,114.5 Z"/></g>
<g><path style="opacity:1" fill="#c9c7d4" d="M 28.5,186.5 C 30.3008,190.549 32.3008,194.549 34.5,198.5C 30.7638,197.695 27.2638,196.362 24,194.5C 23.3333,193.5 23.3333,192.5 24,191.5C 26.2003,190.349 27.7003,188.682 28.5,186.5 Z"/></g>
<g><path style="opacity:1" fill="#dcd2a6" d="M 79.5,195.5 C 80.853,194.474 81.853,193.141 82.5,191.5C 83.9643,190.595 85.2976,190.595 86.5,191.5C 89.447,202.11 96.447,207.443 107.5,207.5C 113.364,208.492 119.364,209.492 125.5,210.5C 130.148,209.516 134.814,208.516 139.5,207.5C 142.247,208.219 144.914,208.219 147.5,207.5C 148.5,208 149.5,208.5 150.5,209C 148.833,209.333 147.167,209.667 145.5,210C 147.301,210.317 147.634,210.984 146.5,212C 141.331,210.567 136.665,211.567 132.5,215C 106.214,219.364 81.2144,215.864 57.5,204.5C 55.0021,202.334 52.0021,201.334 48.5,201.5C 47.71,200.391 47.21,199.058 47,197.5C 44.886,194.93 42.5527,192.597 40,190.5C 37.786,185.359 35.286,180.359 32.5,175.5C 31.5041,169.537 31.1707,163.537 31.5,157.5C 34.1466,156.927 36.8133,156.26 39.5,155.5C 41.561,153.437 43.8944,151.77 46.5,150.5C 47.5481,148.544 48.0481,146.544 48,144.5C 45.9361,145.591 43.7695,145.758 41.5,145C 44.8482,140.919 49.1816,139.585 54.5,141C 56.1011,144.267 56.9345,147.767 57,151.5C 57.8538,155.625 57.5204,159.625 56,163.5C 53.2809,162.556 50.4475,162.223 47.5,162.5C 49.1307,169.372 50.2973,176.372 51,183.5C 54.0288,185.029 56.1955,187.362 57.5,190.5C 58.9122,191.806 60.5789,192.64 62.5,193C 63.9641,196.54 66.6307,198.373 70.5,198.5C 73.5149,197.182 76.5149,196.182 79.5,195.5 Z"/></g>
<g><path style="opacity:1" fill="#3f5a59" d="M 29.5,159.5 C 29.9364,194.781 47.603,215.614 82.5,222C 98.8773,224.082 115.211,223.748 131.5,221C 136.897,219.913 141.897,218.08 146.5,215.5C 159.154,210.346 167.987,201.346 173,188.5C 174.43,185.647 175.263,182.647 175.5,179.5C 175.433,178.041 175.766,176.708 176.5,175.5C 177.397,176.598 178.23,176.598 179,175.5C 179.173,169.984 179.673,164.651 180.5,159.5C 180.5,164.833 180.5,170.167 180.5,175.5C 193.841,176.833 202.841,183.833 207.5,196.5C 207.5,200.167 207.5,203.833 207.5,207.5C 206.596,208.209 206.263,209.209 206.5,210.5C 203.256,219.894 196.589,225.06 186.5,226C 181.833,226.333 177.167,226.667 172.5,227C 170.513,228.319 169.346,230.152 169,232.5C 168.808,230.423 168.308,228.423 167.5,226.5C 166.143,228.186 164.81,229.852 163.5,231.5C 162.79,233.746 162.29,236.08 162,238.5C 160.235,235.968 158.735,233.301 157.5,230.5C 157.108,228.821 156.608,227.154 156,225.5C 155.185,227.623 154.185,229.623 153,231.5C 152.209,230.255 151.709,228.922 151.5,227.5C 151.727,224.035 152.227,220.701 153,217.5C 140.893,223.568 128.06,226.902 114.5,227.5C 97.7971,228.778 81.4637,226.945 65.5,222C 52.5421,217.532 42.2087,209.699 34.5,198.5C 32.3008,194.549 30.3008,190.549 28.5,186.5C 26.5705,176.276 24.9038,166.276 23.5,156.5C 22.7375,155.732 21.7375,155.232 20.5,155C 24.8922,153.863 27.8922,155.363 29.5,159.5 Z"/></g>
<g><path style="opacity:1" fill="#d9d2ae" d="M 175.5,179.5 C 175.263,182.647 174.43,185.647 173,188.5C 167.987,201.346 159.154,210.346 146.5,215.5C 145.167,215.5 143.833,215.5 142.5,215.5C 122.952,218.977 103.285,219.477 83.5,217C 80.1358,216.273 76.8025,215.44 73.5,214.5C 68.4909,211.848 63.4909,209.348 58.5,207C 57.7476,206.329 57.4142,205.496 57.5,204.5C 81.2144,215.864 106.214,219.364 132.5,215C 136.665,211.567 141.331,210.567 146.5,212C 147.634,210.984 147.301,210.317 145.5,210C 147.167,209.667 148.833,209.333 150.5,209C 149.5,208.5 148.5,208 147.5,207.5C 144.914,208.219 142.247,208.219 139.5,207.5C 134.814,208.516 130.148,209.516 125.5,210.5C 119.364,209.492 113.364,208.492 107.5,207.5C 110.425,207.54 113.091,206.707 115.5,205C 118.079,202.227 120.412,200.06 122.5,198.5C 123.943,197.297 125.609,196.797 127.5,197C 125.745,197.72 124.911,198.887 125,200.5C 131.372,205.266 138.538,206.766 146.5,205C 158.863,199.464 168.53,190.964 175.5,179.5 Z"/></g>
<g><path style="opacity:1" fill="#acded0" d="M 194.5,182.5 C 197.416,184.274 199.916,186.607 202,189.5C 203.009,191.025 203.509,192.692 203.5,194.5C 203.364,197.551 203.698,200.551 204.5,203.5C 204.281,204.938 203.781,206.271 203,207.5C 201.901,196.977 200.234,196.977 198,207.5C 196.386,210.237 194.219,212.403 191.5,214C 184.619,214.371 177.952,215.371 171.5,217C 172.551,215.615 173.884,214.615 175.5,214C 174.833,213.833 174.167,213.667 173.5,213.5C 167.825,217.511 162.825,222.177 158.5,227.5C 161.224,218.47 159.724,218.137 154,226.5C 153.333,224.5 153.333,222.5 154,220.5C 157.422,215.242 161.922,211.242 167.5,208.5C 167.67,209.822 167.337,210.989 166.5,212C 177.833,212.248 186.333,207.414 192,197.5C 191.195,206.399 192.529,206.399 196,197.5C 196.998,200.028 197.831,200.028 198.5,197.5C 198.101,194.641 197.267,191.974 196,189.5C 195.808,191.577 195.308,193.577 194.5,195.5C 193.833,194.167 193.167,192.833 192.5,191.5C 189.853,194.118 187.686,197.118 186,200.5C 182.933,203.237 179.599,205.571 176,207.5C 175.5,207.167 175,206.833 174.5,206.5C 175.127,205.583 175.461,204.583 175.5,203.5C 177.437,201.909 179.437,200.242 181.5,198.5C 182.625,195.54 183.625,192.54 184.5,189.5C 185.439,191.053 186.606,192.387 188,193.5C 188.5,193.167 189,192.833 189.5,192.5C 191.186,189.063 192.853,185.729 194.5,182.5 Z"/></g>
<g><path style="opacity:1" fill="#4f5756" d="M 106.5,197.5 C 105.167,200.167 105.167,202.833 106.5,205.5C 104.901,205.768 103.568,205.434 102.5,204.5C 103.525,204.103 103.692,203.437 103,202.5C 99.426,197.738 94.926,194.405 89.5,192.5C 88.2101,191.942 87.3768,190.942 87,189.5C 86.5357,190.094 86.369,190.761 86.5,191.5C 85.2976,190.595 83.9643,190.595 82.5,191.5C 84.047,186.458 87.3803,184.625 92.5,186C 91.3774,187.044 90.0441,187.71 88.5,188C 93.5209,193.011 99.5209,196.177 106.5,197.5 Z"/></g>
<g><path style="opacity:1" fill="#6d6c5f" d="M 106.5,197.5 C 110.735,198.436 115.069,198.769 119.5,198.5C 117.708,199.309 115.708,199.809 113.5,200C 115.988,201.685 115.655,203.019 112.5,204C 110.414,204.315 108.414,204.815 106.5,205.5C 105.167,202.833 105.167,200.167 106.5,197.5 Z"/></g>
<g><path style="opacity:1" fill="#c2dae2" d="M 89.5,192.5 C 94.926,194.405 99.426,197.738 103,202.5C 103.692,203.437 103.525,204.103 102.5,204.5C 96.2674,202.602 91.934,198.602 89.5,192.5 Z"/></g>
<g><path style="opacity:1" fill="#282e21" d="M 89.5,192.5 C 91.934,198.602 96.2674,202.602 102.5,204.5C 103.568,205.434 104.901,205.768 106.5,205.5C 108.414,204.815 110.414,204.315 112.5,204C 115.655,203.019 115.988,201.685 113.5,200C 115.708,199.809 117.708,199.309 119.5,198.5C 120.5,198.5 121.5,198.5 122.5,198.5C 120.412,200.06 118.079,202.227 115.5,205C 113.091,206.707 110.425,207.54 107.5,207.5C 96.447,207.443 89.447,202.11 86.5,191.5C 86.369,190.761 86.5357,190.094 87,189.5C 87.3768,190.942 88.2101,191.942 89.5,192.5 Z"/></g>
<g><path style="opacity:1" fill="#73a7a9" d="M 194.5,182.5 C 192.853,185.729 191.186,189.063 189.5,192.5C 189,192.833 188.5,193.167 188,193.5C 186.606,192.387 185.439,191.053 184.5,189.5C 183.625,192.54 182.625,195.54 181.5,198.5C 179.437,200.242 177.437,201.909 175.5,203.5C 173.833,204.167 172.167,204.833 170.5,205.5C 169.233,206.087 168.233,206.087 167.5,205.5C 169.192,203.641 170.692,201.641 172,199.5C 174.446,192.158 177.28,184.991 180.5,178C 181.833,177.333 183.167,177.333 184.5,178C 188.264,178.852 191.597,180.352 194.5,182.5 Z"/></g>
<g><path style="opacity:1" fill="#535047" d="M 62.5,161.5 C 63.5,161.5 64.5,161.5 65.5,161.5C 77.0205,164.591 87.0205,170.257 95.5,178.5C 96.1667,180.167 96.8333,181.833 97.5,183.5C 90.5793,177.746 83.2459,172.579 75.5,168C 70.0996,165.476 64.4329,164.309 58.5,164.5C 59.5903,163.143 60.9236,162.143 62.5,161.5 Z"/></g>
<g><path style="opacity:1" fill="#cbe0d2" d="M 31.5,155.5 C 31.5,156.167 31.5,156.833 31.5,157.5C 31.1707,163.537 31.5041,169.537 32.5,175.5C 35.286,180.359 37.786,185.359 40,190.5C 42.5527,192.597 44.886,194.93 47,197.5C 47.21,199.058 47.71,200.391 48.5,201.5C 51.4372,204.915 55.1038,207.415 59.5,209C 61.5435,210.708 63.2101,212.708 64.5,215C 71.092,215.926 77.4253,217.593 83.5,220C 101.588,221.141 119.588,220.474 137.5,218C 139.315,217.243 140.981,216.41 142.5,215.5C 143.833,215.5 145.167,215.5 146.5,215.5C 141.897,218.08 136.897,219.913 131.5,221C 115.211,223.748 98.8773,224.082 82.5,222C 47.603,215.614 29.9364,194.781 29.5,159.5C 29.1568,157.517 29.8235,156.183 31.5,155.5 Z"/></g>
<g><path style="opacity:1" fill="#8ac5ba" d="M 203.5,194.5 C 208.297,213.07 200.963,223.07 181.5,224.5C 180.167,224.333 178.833,224.167 177.5,224C 185.453,220.557 185.12,219.891 176.5,222C 174.91,223.046 173.41,224.213 172,225.5C 171.333,224.833 171.333,224.167 172,223.5C 173.925,222.12 175.759,220.62 177.5,219C 169.648,220.834 164.148,225.668 161,233.5C 159.681,231.713 158.848,229.713 158.5,227.5C 162.825,222.177 167.825,217.511 173.5,213.5C 174.167,213.667 174.833,213.833 175.5,214C 173.884,214.615 172.551,215.615 171.5,217C 177.952,215.371 184.619,214.371 191.5,214C 194.219,212.403 196.386,210.237 198,207.5C 200.234,196.977 201.901,196.977 203,207.5C 203.781,206.271 204.281,204.938 204.5,203.5C 203.698,200.551 203.364,197.551 203.5,194.5 Z"/></g>
<g><path style="opacity:1" fill="#cefaed" d="M 167.5,208.5 C 168.694,207.728 169.694,206.728 170.5,205.5C 172.167,204.833 173.833,204.167 175.5,203.5C 175.461,204.583 175.127,205.583 174.5,206.5C 175,206.833 175.5,207.167 176,207.5C 179.599,205.571 182.933,203.237 186,200.5C 187.686,197.118 189.853,194.118 192.5,191.5C 193.167,192.833 193.833,194.167 194.5,195.5C 195.308,193.577 195.808,191.577 196,189.5C 197.267,191.974 198.101,194.641 198.5,197.5C 197.831,200.028 196.998,200.028 196,197.5C 192.529,206.399 191.195,206.399 192,197.5C 186.333,207.414 177.833,212.248 166.5,212C 167.337,210.989 167.67,209.822 167.5,208.5 Z"/></g>
<g><path style="opacity:1" fill="#d7e1ca" d="M 48.5,201.5 C 52.0021,201.334 55.0021,202.334 57.5,204.5C 57.4142,205.496 57.7476,206.329 58.5,207C 63.4909,209.348 68.4909,211.848 73.5,214.5C 76.8025,215.44 80.1358,216.273 83.5,217C 103.285,219.477 122.952,218.977 142.5,215.5C 140.981,216.41 139.315,217.243 137.5,218C 119.588,220.474 101.588,221.141 83.5,220C 77.4253,217.593 71.092,215.926 64.5,215C 63.2101,212.708 61.5435,210.708 59.5,209C 55.1038,207.415 51.4372,204.915 48.5,201.5 Z"/></g>
<g><path style="opacity:1" fill="#ccc2d4" d="M 151.5,227.5 C 142.573,231.495 133.239,232.495 123.5,230.5C 120.443,229.367 117.443,228.367 114.5,227.5C 128.06,226.902 140.893,223.568 153,217.5C 152.227,220.701 151.727,224.035 151.5,227.5 Z"/></g>
<g><path style="opacity:1" fill="#e8e5ef" d="M 157.5,230.5 C 156.115,231.614 154.615,232.614 153,233.5C 148.707,233.108 144.207,233.108 139.5,233.5C 135.5,233.167 131.5,232.833 127.5,232.5C 126.051,231.828 124.718,231.161 123.5,230.5C 133.239,232.495 142.573,231.495 151.5,227.5C 151.709,228.922 152.209,230.255 153,231.5C 154.185,229.623 155.185,227.623 156,225.5C 156.608,227.154 157.108,228.821 157.5,230.5 Z"/></g>
<g><path style="opacity:1" fill="#c9c4d4" d="M 206.5,210.5 C 206.665,213.85 206.498,217.183 206,220.5C 197.345,227.239 187.512,231.405 176.5,233C 173.763,234.614 171.597,236.781 170,239.5C 169.308,238.975 168.808,238.308 168.5,237.5C 169.428,236.232 169.595,234.899 169,233.5C 168.632,234.91 167.799,235.91 166.5,236.5C 165.935,234.456 164.935,232.79 163.5,231.5C 164.81,229.852 166.143,228.186 167.5,226.5C 168.308,228.423 168.808,230.423 169,232.5C 169.346,230.152 170.513,228.319 172.5,227C 177.167,226.667 181.833,226.333 186.5,226C 196.589,225.06 203.256,219.894 206.5,210.5 Z"/></g>
</svg>
