<?xml version="1.0" encoding="UTF-8"?>
<!DOCTYPE svg PUBLIC "-//W3C//DTD SVG 1.1//EN" "http://www.w3.org/Graphics/SVG/1.1/DTD/svg11.dtd">
<svg xmlns="http://www.w3.org/2000/svg" version="1.1" width="223px" height="226px" style="shape-rendering:geometricPrecision; text-rendering:geometricPrecision; image-rendering:optimizeQuality; fill-rule:evenodd; clip-rule:evenodd" xmlns:xlink="http://www.w3.org/1999/xlink">
<g><path style="opacity:1" fill="#fbfcfb" d="M -0.5,-0.5 C 23.8333,-0.5 48.1667,-0.5 72.5,-0.5C 73.922,9.20912 75.5886,18.8758 77.5,28.5C 77,28.8333 76.5,29.1667 76,29.5C 64.2345,24.902 52.0679,23.402 39.5,25C 33.2657,26.9031 27.7657,30.0698 23,34.5C 22.3333,35.5 22.3333,36.5 23,37.5C 28.8333,42.6667 34.6667,47.8333 40.5,53C 25.4384,54.2313 13.2717,60.7313 4,72.5C 2.09237,75.2065 1.25903,78.2065 1.5,81.5C 7.43248,81.0503 13.0991,81.8836 18.5,84C 14.5598,85.8865 11.0598,88.3865 8,91.5C 4.47719,95.8322 1.64385,100.499 -0.5,105.5C -0.5,70.1667 -0.5,34.8333 -0.5,-0.5 Z"/></g>
<g><path style="opacity:1" fill="#fcfdfc" d="M 85.5,-0.5 C 131.167,-0.5 176.833,-0.5 222.5,-0.5C 222.5,34.8333 222.5,70.1667 222.5,105.5C 213.127,89.6239 199.127,80.4572 180.5,78C 187,72.8333 193.5,67.6667 200,62.5C 200.24,60.0231 199.406,57.8565 197.5,56C 191.071,50.8875 183.738,47.8875 175.5,47C 167.5,46.3333 159.5,46.3333 151.5,47C 146.618,48.0493 141.952,49.3826 137.5,51C 142.409,43.4196 149.076,38.0863 157.5,35C 152.705,35.222 148.371,36.8887 144.5,40C 140.701,42.7969 137.201,45.9636 134,49.5C 134.547,39.7337 132.881,30.4003 129,21.5C 127.866,18.9999 126.032,17.8332 123.5,18C 125.893,23.3821 126.893,29.0488 126.5,35C 126.63,38.6841 126.13,42.1841 125,45.5C 120.143,22.8238 106.976,7.49042 85.5,-0.5 Z"/></g>
<g><path style="opacity:1" fill="#fcfdfc" d="M 222.5,110.5 C 222.5,148.833 222.5,187.167 222.5,225.5C 182.833,225.5 143.167,225.5 103.5,225.5C 117.346,224.705 131.013,222.205 144.5,218C 166.359,208.13 179.192,191.297 183,167.5C 183.571,159.114 183.571,150.78 183,142.5C 191.702,145.937 200.535,148.937 209.5,151.5C 210.563,135.457 204.896,122.291 192.5,112C 202.455,110.705 212.455,110.205 222.5,110.5 Z"/></g>
<g><path style="opacity:1" fill="#fafbf9" d="M 78.5,225.5 C 52.1667,225.5 25.8333,225.5 -0.5,225.5C -0.5,188.5 -0.5,151.5 -0.5,114.5C 4.50136,113.916 9.50136,113.25 14.5,112.5C 15.5,112.833 16.5,113.167 17.5,113.5C 3.73728,137.28 1.90394,161.947 12,187.5C 15.8431,195.002 21.0097,201.502 27.5,207C 42.0043,217.716 58.3377,223.382 76.5,224C 77.4158,224.278 78.0825,224.778 78.5,225.5 Z"/></g>
<g><path style="opacity:1" fill="#1b4315" d="M 72.5,-0.5 C 76.8333,-0.5 81.1667,-0.5 85.5,-0.5C 106.976,7.49042 120.143,22.8238 125,45.5C 126.13,42.1841 126.63,38.6841 126.5,35C 126.893,29.0488 125.893,23.3821 123.5,18C 126.032,17.8332 127.866,18.9999 129,21.5C 132.881,30.4003 134.547,39.7337 134,49.5C 137.201,45.9636 140.701,42.7969 144.5,40C 148.371,36.8887 152.705,35.222 157.5,35C 149.076,38.0863 142.409,43.4196 137.5,51C 141.952,49.3826 146.618,48.0493 151.5,47C 159.5,46.3333 167.5,46.3333 175.5,47C 183.738,47.8875 191.071,50.8875 197.5,56C 199.406,57.8565 200.24,60.0231 200,62.5C 193.5,67.6667 187,72.8333 180.5,78C 199.127,80.4572 213.127,89.6239 222.5,105.5C 222.5,107.167 222.5,108.833 222.5,110.5C 212.455,110.205 202.455,110.705 192.5,112C 204.896,122.291 210.563,135.457 209.5,151.5C 200.535,148.937 191.702,145.937 183,142.5C 183.571,150.78 183.571,159.114 183,167.5C 179.192,191.297 166.359,208.13 144.5,218C 131.013,222.205 117.346,224.705 103.5,225.5C 95.1667,225.5 86.8333,225.5 78.5,225.5C 78.0825,224.778 77.4158,224.278 76.5,224C 58.3377,223.382 42.0043,217.716 27.5,207C 21.0097,201.502 15.8431,195.002 12,187.5C 1.90394,161.947 3.73728,137.28 17.5,113.5C 16.5,113.167 15.5,112.833 14.5,112.5C 9.50136,113.25 4.50136,113.916 -0.5,114.5C -0.5,111.5 -0.5,108.5 -0.5,105.5C 1.64385,100.499 4.47719,95.8322 8,91.5C 11.0598,88.3865 14.5598,85.8865 18.5,84C 13.0991,81.8836 7.43248,81.0503 1.5,81.5C 1.25903,78.2065 2.09237,75.2065 4,72.5C 13.2717,60.7313 25.4384,54.2313 40.5,53C 34.6667,47.8333 28.8333,42.6667 23,37.5C 22.3333,36.5 22.3333,35.5 23,34.5C 27.7657,30.0698 33.2657,26.9031 39.5,25C 52.0679,23.402 64.2345,24.902 76,29.5C 76.5,29.1667 77,28.8333 77.5,28.5C 75.5886,18.8758 73.922,9.20912 72.5,-0.5 Z"/></g>
<g><path style="opacity:1" fill="#63be57" d="M 173.5,130.5 C 184.58,157.69 180.246,182.19 160.5,204C 146.068,214.812 129.735,220.479 111.5,221C 90.0784,223.01 69.0784,221.01 48.5,215C 46.1401,213.82 43.8068,212.653 41.5,211.5C 41.9169,210.876 42.5836,210.543 43.5,210.5C 74.09,219.662 104.757,219.828 135.5,211C 154.813,204.352 167.313,191.185 173,171.5C 178.104,157.532 177.604,143.865 171.5,130.5C 171.667,129.833 171.833,129.167 172,128.5C 172.278,129.416 172.778,130.082 173.5,130.5 Z"/></g>
<g><path style="opacity:1" fill="#1ab708" d="M 14.5,124.5 C 13.9853,130.53 13.3186,136.53 12.5,142.5C 13.5217,143.354 14.3551,144.354 15,145.5C 15.3333,148.5 15.6667,151.5 16,154.5C 19.5531,158.279 22.0531,162.612 23.5,167.5C 24.675,167.281 25.675,167.614 26.5,168.5C 28.9799,170.304 30.6465,172.637 31.5,175.5C 34.974,176.741 37.974,178.741 40.5,181.5C 41.086,181.291 41.586,180.957 42,180.5C 43.0458,182.09 44.2125,183.59 45.5,185C 46.816,185.528 47.4827,185.028 47.5,183.5C 48.4731,185.948 48.8064,188.615 48.5,191.5C 48.6602,193.199 48.4935,194.866 48,196.5C 45.7991,192.798 42.6324,190.132 38.5,188.5C 36.9571,185.61 34.6238,183.943 31.5,183.5C 26.0811,176.953 20.9145,169.953 16,162.5C 14.5282,157.697 12.1949,153.364 9,149.5C 8.50454,147.527 8.33788,145.527 8.5,143.5C 9.32105,136.707 11.3211,130.374 14.5,124.5 Z"/></g>
<g><path style="opacity:1" fill="#069f40" d="M 203.5,146.5 C 196.247,144.481 189.08,142.148 182,139.5C 179.691,136.519 177.358,133.519 175,130.5C 174.31,129.262 173.81,129.262 173.5,130.5C 172.778,130.082 172.278,129.416 172,128.5C 171.833,129.167 171.667,129.833 171.5,130.5C 177.604,143.865 178.104,157.532 173,171.5C 167.313,191.185 154.813,204.352 135.5,211C 104.757,219.828 74.09,219.662 43.5,210.5C 42.5836,210.543 41.9169,210.876 41.5,211.5C 28.9859,205.823 19.4859,196.823 13,184.5C 7.65883,171.15 6.15883,157.483 8.5,143.5C 8.33788,145.527 8.50454,147.527 9,149.5C 12.1949,153.364 14.5282,157.697 16,162.5C 20.9145,169.953 26.0811,176.953 31.5,183.5C 34.6238,183.943 36.9571,185.61 38.5,188.5C 42.6324,190.132 45.7991,192.798 48,196.5C 48.4935,194.866 48.6602,193.199 48.5,191.5C 50.3818,197.182 52.0484,203.015 53.5,209C 60.1251,212.911 67.2918,214.411 75,213.5C 87.8653,213.396 99.6986,209.896 110.5,203C 113.724,200.278 116.391,197.112 118.5,193.5C 118.369,194.239 118.536,194.906 119,195.5C 125.663,193.056 132.163,190.223 138.5,187C 141.654,184.257 144.988,181.757 148.5,179.5C 151.229,177.11 153.562,174.443 155.5,171.5C 158.669,169.522 161.169,166.855 163,163.5C 163.792,159.921 165.125,156.588 167,153.5C 170.094,144.79 171.26,135.79 170.5,126.5C 184.379,125.193 195.212,130.193 203,141.5C 203.494,143.134 203.66,144.801 203.5,146.5 Z"/></g>
<g><path style="opacity:1" fill="#0f2615" d="M 46.5,168.5 C 48.403,168.796 50.0697,169.463 51.5,170.5C 50.1999,172.223 49.5332,174.39 49.5,177C 49.5081,185.655 51.1748,193.822 54.5,201.5C 54.2627,202.791 54.596,203.791 55.5,204.5C 55.281,205.675 55.6143,206.675 56.5,207.5C 74.3881,213.956 91.3881,212.123 107.5,202C 109.192,200.693 110.525,199.193 111.5,197.5C 113.262,196.738 114.262,195.404 114.5,193.5C 115.338,193.158 115.672,192.492 115.5,191.5C 116.391,192.11 117.391,192.443 118.5,192.5C 118.5,192.833 118.5,193.167 118.5,193.5C 116.391,197.112 113.724,200.278 110.5,203C 99.6986,209.896 87.8653,213.396 75,213.5C 67.2918,214.411 60.1251,212.911 53.5,209C 52.0484,203.015 50.3818,197.182 48.5,191.5C 48.8064,188.615 48.4731,185.948 47.5,183.5C 47.2491,178.493 46.9157,173.493 46.5,168.5 Z"/></g>
<g><path style="opacity:1" fill="#f09b1b" d="M 70.5,191.5 C 71.209,190.596 72.209,190.263 73.5,190.5C 73.3573,192.262 73.6906,193.929 74.5,195.5C 86.6495,199.742 98.9829,200.409 111.5,197.5C 110.525,199.193 109.192,200.693 107.5,202C 91.3881,212.123 74.3881,213.956 56.5,207.5C 55.6143,206.675 55.281,205.675 55.5,204.5C 55.7013,198.741 58.368,194.741 63.5,192.5C 61.5721,194.781 60.5721,197.447 60.5,200.5C 59.5,200.5 58.5,200.5 57.5,200.5C 57.5,202.167 57.5,203.833 57.5,205.5C 59.1439,205.714 60.6439,205.38 62,204.5C 63.3618,198.477 66.8618,194.31 72.5,192C 71.9056,191.536 71.2389,191.369 70.5,191.5 Z"/></g>
<g><path style="opacity:1" fill="#5f1a08" d="M 63.5,191.5 C 63.5,191.833 63.5,192.167 63.5,192.5C 58.368,194.741 55.7013,198.741 55.5,204.5C 54.596,203.791 54.2627,202.791 54.5,201.5C 55.3692,196.235 58.3692,192.902 63.5,191.5 Z"/></g>
<g><path style="opacity:1" fill="#f6c71c" d="M 63.5,191.5 C 64.1667,191.5 64.8333,191.5 65.5,191.5C 67.1667,191.5 68.8333,191.5 70.5,191.5C 71.2389,191.369 71.9056,191.536 72.5,192C 66.8618,194.31 63.3618,198.477 62,204.5C 60.6439,205.38 59.1439,205.714 57.5,205.5C 57.5,203.833 57.5,202.167 57.5,200.5C 58.5,200.5 59.5,200.5 60.5,200.5C 60.5721,197.447 61.5721,194.781 63.5,192.5C 63.5,192.167 63.5,191.833 63.5,191.5 Z"/></g>
<g><path style="opacity:1" fill="#22b60d" d="M 155.5,171.5 C 153.562,174.443 151.229,177.11 148.5,179.5C 144.988,181.757 141.654,184.257 138.5,187C 132.163,190.223 125.663,193.056 119,195.5C 118.536,194.906 118.369,194.239 118.5,193.5C 118.5,193.167 118.5,192.833 118.5,192.5C 119.167,192.5 119.5,192.167 119.5,191.5C 120.992,185.62 121.825,179.62 122,173.5C 123.787,172.657 125.62,172.49 127.5,173C 125.189,170.836 122.522,169.836 119.5,170C 122.051,171.516 121.718,172.349 118.5,172.5C 118.461,171.417 118.127,170.417 117.5,169.5C 118.376,168.749 119.376,168.249 120.5,168C 120.167,167.667 119.833,167.333 119.5,167C 122.5,166.333 125.5,166.333 128.5,167C 127.614,168.902 127.947,170.735 129.5,172.5C 130.291,171.934 130.291,171.101 129.5,170C 129.85,168.743 130.517,168.409 131.5,169C 130.903,170.628 131.237,172.295 132.5,174C 129.085,174.616 125.918,175.116 123,175.5C 122.502,178.817 122.335,182.15 122.5,185.5C 126.744,184.357 131.077,183.69 135.5,183.5C 135.561,181.408 136.561,179.908 138.5,179C 144.337,176.704 150.004,174.204 155.5,171.5 Z"/></g>
<g><path style="opacity:1" fill="#f06917" d="M 114.5,193.5 C 114.262,195.404 113.262,196.738 111.5,197.5C 98.9829,200.409 86.6495,199.742 74.5,195.5C 73.6906,193.929 73.3573,192.262 73.5,190.5C 72.209,190.263 71.209,190.596 70.5,191.5C 68.8333,191.5 67.1667,191.5 65.5,191.5C 67.1484,190.073 69.1484,189.24 71.5,189C 78.7979,187.717 86.1312,187.383 93.5,188C 91.3586,189.308 89.3586,190.808 87.5,192.5C 87.8333,192.833 88.1667,193.167 88.5,193.5C 97.2138,186.902 105.88,186.902 114.5,193.5 Z"/></g>
<g><path style="opacity:1" fill="#621e0a" d="M 74.5,185.5 C 85.8456,185.667 97.1789,186.167 108.5,187C 111.135,188.147 113.468,189.647 115.5,191.5C 115.672,192.492 115.338,193.158 114.5,193.5C 105.88,186.902 97.2138,186.902 88.5,193.5C 88.1667,193.167 87.8333,192.833 87.5,192.5C 89.3586,190.808 91.3586,189.308 93.5,188C 86.1312,187.383 78.7979,187.717 71.5,189C 69.1484,189.24 67.1484,190.073 65.5,191.5C 64.8333,191.5 64.1667,191.5 63.5,191.5C 63.4701,190.503 63.9701,189.836 65,189.5C 68.3079,188.239 71.4746,186.906 74.5,185.5 Z"/></g>
<g><path style="opacity:1" fill="#124d05" d="M 71.5,177.5 C 87.3346,180.293 103.335,181.627 119.5,181.5C 119.716,184.432 119.049,187.098 117.5,189.5C 117.747,190.713 118.414,191.38 119.5,191.5C 119.5,192.167 119.167,192.5 118.5,192.5C 117.391,192.443 116.391,192.11 115.5,191.5C 113.468,189.647 111.135,188.147 108.5,187C 97.1789,186.167 85.8456,185.667 74.5,185.5C 73.9095,183.903 72.9095,182.569 71.5,181.5C 72.0253,180.808 72.6919,180.308 73.5,180C 72.244,179.583 71.5774,178.75 71.5,177.5 Z"/></g>
<g><path style="opacity:1" fill="#146604" d="M 51.5,170.5 C 57.7947,173.769 64.4614,176.103 71.5,177.5C 71.5774,178.75 72.244,179.583 73.5,180C 72.6919,180.308 72.0253,180.808 71.5,181.5C 72.9095,182.569 73.9095,183.903 74.5,185.5C 71.4746,186.906 68.3079,188.239 65,189.5C 63.9701,189.836 63.4701,190.503 63.5,191.5C 58.3692,192.902 55.3692,196.235 54.5,201.5C 51.1748,193.822 49.5081,185.655 49.5,177C 49.5332,174.39 50.1999,172.223 51.5,170.5 Z"/></g>
<g><path style="opacity:1" fill="#162518" d="M 118.5,172.5 C 121.718,172.349 122.051,171.516 119.5,170C 122.522,169.836 125.189,170.836 127.5,173C 125.62,172.49 123.787,172.657 122,173.5C 121.825,179.62 120.992,185.62 119.5,191.5C 118.414,191.38 117.747,190.713 117.5,189.5C 119.049,187.098 119.716,184.432 119.5,181.5C 119.5,180.833 119.5,180.167 119.5,179.5C 119.784,177.585 119.451,175.919 118.5,174.5C 95.1832,173.87 72.5166,169.703 50.5,162C 47.6714,160.753 45.0048,159.253 42.5,157.5C 41.7025,157.957 41.3691,158.624 41.5,159.5C 39.2672,155.563 36.9339,151.563 34.5,147.5C 34.6082,146.558 34.9415,145.725 35.5,145C 37.1667,144.333 38.8333,144.333 40.5,145C 39.2068,145.49 37.8734,145.657 36.5,145.5C 36.4411,149.548 38.1078,152.715 41.5,155C 47.1668,158.562 53.1668,161.562 59.5,164C 78.8193,169.373 98.486,172.206 118.5,172.5 Z"/></g>
<g><path style="opacity:1" fill="#0aa13c" d="M 215.5,107.5 C 204.759,107.343 194.092,108.176 183.5,110C 181.277,110.566 179.277,111.4 177.5,112.5C 176.022,112.762 174.689,112.429 173.5,111.5C 177.625,108.461 182.292,106.627 187.5,106C 197.016,105.679 206.349,106.179 215.5,107.5 Z"/></g>
<g><path style="opacity:1" fill="#0c9a3e" d="M 24.5,103.5 C 22.364,105.812 20.364,108.312 18.5,111C 12.8507,111.757 7.184,112.257 1.5,112.5C 1.1936,109.615 1.52693,106.948 2.5,104.5C 2.28099,105.675 2.61432,106.675 3.5,107.5C 10.5896,100.846 18.9229,96.3465 28.5,94C 31.2002,92.8099 33.3669,90.9766 35,88.5C 34.956,90.2785 34.2893,91.9452 33,93.5C 30.3858,97.0905 27.5525,100.424 24.5,103.5 Z"/></g>
<g><path style="opacity:1" fill="#2b7f13" d="M 174.5,79.5 C 177.5,80.1667 180.5,80.8333 183.5,81.5C 178.838,80.8042 174.671,81.8042 171,84.5C 171.077,82.2285 172.243,80.5618 174.5,79.5 Z"/></g>
<g><path style="opacity:1" fill="#75dd16" d="M 48.5,59.5 C 33.892,59.5458 20.892,64.3791 9.5,74C 8.20677,74.49 6.87344,74.6567 5.5,74.5C 10.8284,67.0195 17.8284,61.5195 26.5,58C 34.3329,54.3001 41.6662,54.8001 48.5,59.5 Z"/></g>
<g><path style="opacity:1" fill="#1a5212" d="M 130.5,31.5 C 131.327,36.6509 131.827,41.9842 132,47.5C 132.471,49.2464 133.138,50.913 134,52.5C 134.333,52.1667 134.667,51.8333 135,51.5C 135.232,52.7375 135.732,53.7375 136.5,54.5C 135.167,55.8333 133.833,57.1667 132.5,58.5C 130.547,59.9053 129.547,59.2386 129.5,56.5C 130.408,48.1947 130.741,39.8614 130.5,31.5 Z"/></g>
<g><path style="opacity:1" fill="#75dc15" d="M 196.5,60.5 C 196.44,61.0431 196.107,61.3764 195.5,61.5C 193.133,58.6529 190.133,56.8196 186.5,56C 169.19,52.2278 152.19,53.2278 135.5,59C 134.333,59.5 133.5,60.3333 133,61.5C 132.517,60.552 132.351,59.552 132.5,58.5C 133.833,57.1667 135.167,55.8333 136.5,54.5C 152.892,48.4077 169.559,47.9077 186.5,53C 190.732,54.3466 194.065,56.8466 196.5,60.5 Z"/></g>
<g><path style="opacity:1" fill="#77de16" d="M 78.5,33.5 C 78.5,34.8333 78.5,36.1667 78.5,37.5C 64.3284,32.6372 49.9951,32.3039 35.5,36.5C 36.9804,40.1869 38.3137,43.8536 39.5,47.5C 35.1608,43.4937 30.8275,39.4937 26.5,35.5C 29.3216,32.5865 32.6549,30.4198 36.5,29C 43.4885,28.0609 50.4885,27.7276 57.5,28C 64.6508,29.5555 71.6508,31.3888 78.5,33.5 Z"/></g>
<g><path style="opacity:1" fill="#33ca04" d="M 119.5,39.5 C 121.744,43.7932 123.077,48.4599 123.5,53.5C 120.87,48.9189 118.204,44.2522 115.5,39.5C 114.481,41.9514 114.481,44.4514 115.5,47C 117.262,49.687 118.595,52.5203 119.5,55.5C 120.833,55.5 122.167,55.5 123.5,55.5C 124.497,55.5299 125.164,55.0299 125.5,54C 126.137,51.755 126.97,49.5883 128,47.5C 128.529,39.4606 128.529,31.4606 128,23.5C 128.941,26.154 129.774,28.8206 130.5,31.5C 130.741,39.8614 130.408,48.1947 129.5,56.5C 129.547,59.2386 130.547,59.9053 132.5,58.5C 132.351,59.552 132.517,60.552 133,61.5C 133.5,60.3333 134.333,59.5 135.5,59C 152.19,53.2278 169.19,52.2278 186.5,56C 190.133,56.8196 193.133,58.6529 195.5,61.5C 196.107,61.3764 196.44,61.0431 196.5,60.5C 197.773,61.0768 197.773,61.7435 196.5,62.5C 188.529,67.4874 181.195,73.1541 174.5,79.5C 172.243,80.5618 171.077,82.2285 171,84.5C 174.671,81.8042 178.838,80.8042 183.5,81.5C 197.803,84.4033 209.303,91.7367 218,103.5C 218.49,104.793 218.657,106.127 218.5,107.5C 217.5,107.5 216.5,107.5 215.5,107.5C 206.349,106.179 197.016,105.679 187.5,106C 182.292,106.627 177.625,108.461 173.5,111.5C 174.689,112.429 176.022,112.762 177.5,112.5C 181.185,112.105 184.852,111.938 188.5,112C 197.516,119.182 203.682,128.349 207,139.5C 207.818,142.227 207.652,144.894 206.5,147.5C 205.583,146.873 204.583,146.539 203.5,146.5C 203.66,144.801 203.494,143.134 203,141.5C 195.212,130.193 184.379,125.193 170.5,126.5C 171.26,135.79 170.094,144.79 167,153.5C 165.125,156.588 163.792,159.921 163,163.5C 161.169,166.855 158.669,169.522 155.5,171.5C 150.004,174.204 144.337,176.704 138.5,179C 136.561,179.908 135.561,181.408 135.5,183.5C 131.077,183.69 126.744,184.357 122.5,185.5C 122.335,182.15 122.502,178.817 123,175.5C 125.918,175.116 129.085,174.616 132.5,174C 131.237,172.295 130.903,170.628 131.5,169C 130.517,168.409 129.85,168.743 129.5,170C 130.291,171.101 130.291,171.934 129.5,172.5C 127.947,170.735 127.614,168.902 128.5,167C 125.5,166.333 122.5,166.333 119.5,167C 119.833,167.333 120.167,167.667 120.5,168C 119.376,168.249 118.376,168.749 117.5,169.5C 118.127,170.417 118.461,171.417 118.5,172.5C 98.486,172.206 78.8193,169.373 59.5,164C 53.1668,161.562 47.1668,158.562 41.5,155C 38.1078,152.715 36.4411,149.548 36.5,145.5C 37.8734,145.657 39.2068,145.49 40.5,145C 38.8333,144.333 37.1667,144.333 35.5,145C 34.9415,145.725 34.6082,146.558 34.5,147.5C 36.9339,151.563 39.2672,155.563 41.5,159.5C 41.8911,163.221 43.5578,166.221 46.5,168.5C 46.9157,173.493 47.2491,178.493 47.5,183.5C 47.4827,185.028 46.816,185.528 45.5,185C 44.2125,183.59 43.0458,182.09 42,180.5C 41.586,180.957 41.086,181.291 40.5,181.5C 37.974,178.741 34.974,176.741 31.5,175.5C 30.6465,172.637 28.9799,170.304 26.5,168.5C 25.675,167.614 24.675,167.281 23.5,167.5C 22.0531,162.612 19.5531,158.279 16,154.5C 15.6667,151.5 15.3333,148.5 15,145.5C 14.3551,144.354 13.5217,143.354 12.5,142.5C 13.3186,136.53 13.9853,130.53 14.5,124.5C 17.0395,117.089 20.3728,110.089 24.5,103.5C 27.5525,100.424 30.3858,97.0905 33,93.5C 34.2893,91.9452 34.956,90.2785 35,88.5C 33.3669,90.9766 31.2002,92.8099 28.5,94C 18.9229,96.3465 10.5896,100.846 3.5,107.5C 2.61432,106.675 2.28099,105.675 2.5,104.5C 6.48244,95.3453 12.8158,88.1786 21.5,83C 15.7592,80.6965 9.75917,79.5299 3.5,79.5C 3.40206,77.4471 4.06873,75.7804 5.5,74.5C 6.87344,74.6567 8.20677,74.49 9.5,74C 20.892,64.3791 33.892,59.5458 48.5,59.5C 49.0431,59.44 49.3764,59.1067 49.5,58.5C 46.3834,54.5709 43.0501,50.9042 39.5,47.5C 38.3137,43.8536 36.9804,40.1869 35.5,36.5C 49.9951,32.3039 64.3284,32.6372 78.5,37.5C 78.5,36.1667 78.5,34.8333 78.5,33.5C 79.166,36.3583 79.8326,39.3583 80.5,42.5C 81.4892,38.8927 81.8226,35.226 81.5,31.5C 82.9965,25.395 83.6631,19.0616 83.5,12.5C 99.5347,16.2113 111.535,25.2113 119.5,39.5 Z"/></g>
<g><path style="opacity:1" fill="#51605a" d="M 41.5,159.5 C 49.4813,168.331 59.4813,173.831 71.5,176C 75.466,176.828 79.466,177.328 83.5,177.5C 95.3001,179.016 107.3,179.682 119.5,179.5C 119.5,180.167 119.5,180.833 119.5,181.5C 103.335,181.627 87.3346,180.293 71.5,177.5C 64.4614,176.103 57.7947,173.769 51.5,170.5C 50.0697,169.463 48.403,168.796 46.5,168.5C 43.5578,166.221 41.8911,163.221 41.5,159.5 Z"/></g>
<g><path style="opacity:1" fill="#c3c4ca" d="M 118.5,174.5 C 119.451,175.919 119.784,177.585 119.5,179.5C 107.3,179.682 95.3001,179.016 83.5,177.5C 90.175,177.666 96.8417,177.5 103.5,177C 108.747,176.818 113.747,175.984 118.5,174.5 Z"/></g>
<g><path style="opacity:1" fill="#f2f3f2" d="M 118.5,174.5 C 113.747,175.984 108.747,176.818 103.5,177C 96.8417,177.5 90.175,177.666 83.5,177.5C 79.466,177.328 75.466,176.828 71.5,176C 59.4813,173.831 49.4813,168.331 41.5,159.5C 41.3691,158.624 41.7025,157.957 42.5,157.5C 45.0048,159.253 47.6714,160.753 50.5,162C 72.5166,169.703 95.1832,173.87 118.5,174.5 Z"/></g>
<g><path style="opacity:1" fill="#101510" d="M 127.5,161.5 C 122.769,160.339 118.103,160.672 113.5,162.5C 104.166,164.977 95.4997,163.644 87.5,158.5C 85.3946,155.973 83.0613,153.64 80.5,151.5C 79.2319,149.696 78.5652,147.696 78.5,145.5C 69.1288,149.615 59.7955,149.448 50.5,145C 48.9371,144.241 47.9371,143.074 47.5,141.5C 46.5041,141.414 45.6708,141.748 45,142.5C 40.0154,133.705 33.5154,126.205 25.5,120C 27.8829,120.446 30.0496,121.612 32,123.5C 31.4112,115.564 33.0779,108.231 37,101.5C 50.8936,80.3035 70.3936,70.4701 95.5,72C 98.2802,73.8123 100.78,75.979 103,78.5C 103.412,80.9969 104.578,82.9969 106.5,84.5C 108.359,82.8076 110.359,81.3076 112.5,80C 117.833,79.3333 123.167,79.3333 128.5,80C 141.565,88.4215 150.065,100.255 154,115.5C 158.985,133.819 155.485,150.152 143.5,164.5C 143.709,165.086 144.043,165.586 144.5,166C 139.115,164.007 133.448,162.507 127.5,161.5 Z"/></g>
<g><path style="opacity:1" fill="#339913" d="M 127.5,161.5 C 122.859,162.127 118.193,162.46 113.5,162.5C 118.103,160.672 122.769,160.339 127.5,161.5 Z"/></g>
<g><path style="opacity:1" fill="#c2c9ca" d="M 153.5,136.5 C 153.079,147.276 148.912,156.276 141,163.5C 137.277,161.324 133.444,159.657 129.5,158.5C 135.465,157.351 140.798,154.851 145.5,151C 148.498,146.215 151.165,141.382 153.5,136.5 Z"/></g>
<g><path style="opacity:1" fill="#c3c8cb" d="M 113.5,158.5 C 105.583,162.969 97.9163,162.469 90.5,157C 85.9295,152.599 81.5962,148.099 77.5,143.5C 69.6808,146.763 61.6808,147.263 53.5,145C 52.4293,144.148 51.4293,143.315 50.5,142.5C 60.724,144.637 70.5573,143.637 80,139.5C 82.9637,141.977 85.4637,144.977 87.5,148.5C 94.3678,156.259 103.034,159.592 113.5,158.5 Z"/></g>
<g><path style="opacity:1" fill="#fcfcfc" d="M 153.5,136.5 C 151.165,141.382 148.498,146.215 145.5,151C 140.798,154.851 135.465,157.351 129.5,158.5C 124.167,158.5 118.833,158.5 113.5,158.5C 103.034,159.592 94.3678,156.259 87.5,148.5C 85.4637,144.977 82.9637,141.977 80,139.5C 70.5573,143.637 60.724,144.637 50.5,142.5C 49.391,142.443 48.391,142.11 47.5,141.5C 43.9213,136.02 40.0879,130.686 36,125.5C 34.887,118.285 35.5537,111.285 38,104.5C 50.6172,83.5342 69.1172,73.3675 93.5,74C 99.4918,76.6587 103.325,81.1587 105,87.5C 114.407,78.7758 124.24,78.2758 134.5,86C 147.825,100.134 154.158,116.967 153.5,136.5 Z"/></g>
<g><path style="opacity:1" fill="#141416" d="M 110.5,117.5 C 115.35,117.519 117.683,120.019 117.5,125C 117.182,131.625 115.182,137.625 111.5,143C 108.784,145.151 106.284,144.984 104,142.5C 101.159,132.857 103.326,124.524 110.5,117.5 Z"/></g>
<g><path style="opacity:1" fill="#ececec" d="M 111.5,120.5 C 113.849,120.458 115.182,121.625 115.5,124C 114.978,126.97 113.478,127.804 111,126.5C 110.322,124.402 110.489,122.402 111.5,120.5 Z"/></g>
<g><path style="opacity:1" fill="#131415" d="M 83.5,110.5 C 88.8047,111.077 90.638,114.077 89,119.5C 88.1023,125.8 85.269,130.967 80.5,135C 78.2511,135.863 76.4178,135.363 75,133.5C 73.8155,124.208 76.6489,116.541 83.5,110.5 Z"/></g>
<g><path style="opacity:1" fill="#e5e5e5" d="M 84.5,112.5 C 86.7224,112.559 87.7224,113.725 87.5,116C 87.5053,118.163 86.5053,119.663 84.5,120.5C 83.2706,117.801 83.2706,115.135 84.5,112.5 Z"/></g>
<g><path style="opacity:1" fill="#09a03d" d="M 123.5,53.5 C 123.5,54.1667 123.5,54.8333 123.5,55.5C 122.167,55.5 120.833,55.5 119.5,55.5C 118.595,52.5203 117.262,49.687 115.5,47C 114.481,44.4514 114.481,41.9514 115.5,39.5C 118.204,44.2522 120.87,48.9189 123.5,53.5 Z"/></g>
<g><path style="opacity:1" fill="#75dc15" d="M 119.5,39.5 C 111.535,25.2113 99.5347,16.2113 83.5,12.5C 83.6631,19.0616 82.9965,25.395 81.5,31.5C 78.7836,22.154 77.117,12.4873 76.5,2.5C 86.2335,2.52432 94.9002,5.69099 102.5,12C 107.046,16.8774 111.213,22.044 115,27.5C 117.364,31.2186 118.864,35.2186 119.5,39.5 Z"/></g>
</svg>
